<?xml version="1.0" encoding="utf-8" standalone="no"?>
<!DOCTYPE svg PUBLIC "-//W3C//DTD SVG 1.1//EN"
  "http://www.w3.org/Graphics/SVG/1.1/DTD/svg11.dtd">
<!-- Created with matplotlib (https://matplotlib.org/) -->
<svg height="169.517068pt" version="1.1" viewBox="0 0 235.162468 169.517068" width="235.162468pt" xmlns="http://www.w3.org/2000/svg" xmlns:xlink="http://www.w3.org/1999/xlink">
 <defs>
  <style type="text/css">
*{stroke-linecap:butt;stroke-linejoin:round;}
  </style>
 </defs>
 <g id="figure_1">
  <g id="patch_1">
   <path d="M 0 169.517068 
L 235.162468 169.517068 
L 235.162468 0 
L 0 0 
z
" style="fill:#ffffff;"/>
  </g>
  <g id="axes_1">
   <g id="patch_2">
    <path d="M 41.23 135.832068 
L 227.962468 135.832068 
L 227.962468 7.2 
L 41.23 7.2 
z
" style="fill:#ffffff;"/>
   </g>
   <g id="matplotlib.axis_1">
    <g id="xtick_1">
     <g id="line2d_1">
      <defs>
       <path d="M 0 0 
L 0 3.5 
" id="mfd995ce3e4" style="stroke:#000000;stroke-width:0.8;"/>
      </defs>
      <g>
       <use style="stroke:#000000;stroke-width:0.8;" x="49.717839" xlink:href="#mfd995ce3e4" y="135.832068"/>
      </g>
     </g>
     <g id="text_1">
      <!-- 0 -->
      <defs>
       <path d="M 31.78125 66.40625 
Q 24.171875 66.40625 20.328125 58.90625 
Q 16.5 51.421875 16.5 36.375 
Q 16.5 21.390625 20.328125 13.890625 
Q 24.171875 6.390625 31.78125 6.390625 
Q 39.453125 6.390625 43.28125 13.890625 
Q 47.125 21.390625 47.125 36.375 
Q 47.125 51.421875 43.28125 58.90625 
Q 39.453125 66.40625 31.78125 66.40625 
z
M 31.78125 74.21875 
Q 44.046875 74.21875 50.515625 64.515625 
Q 56.984375 54.828125 56.984375 36.375 
Q 56.984375 17.96875 50.515625 8.265625 
Q 44.046875 -1.421875 31.78125 -1.421875 
Q 19.53125 -1.421875 13.0625 8.265625 
Q 6.59375 17.96875 6.59375 36.375 
Q 6.59375 54.828125 13.0625 64.515625 
Q 19.53125 74.21875 31.78125 74.21875 
z
" id="DejaVuSans-48"/>
      </defs>
      <g transform="translate(47.172839 148.910818)scale(0.08 -0.08)">
       <use xlink:href="#DejaVuSans-48"/>
      </g>
     </g>
    </g>
    <g id="xtick_2">
     <g id="line2d_2">
      <g>
       <use style="stroke:#000000;stroke-width:0.8;" x="101.950698" xlink:href="#mfd995ce3e4" y="135.832068"/>
      </g>
     </g>
     <g id="text_2">
      <!-- 20 -->
      <defs>
       <path d="M 19.1875 8.296875 
L 53.609375 8.296875 
L 53.609375 0 
L 7.328125 0 
L 7.328125 8.296875 
Q 12.9375 14.109375 22.625 23.890625 
Q 32.328125 33.6875 34.8125 36.53125 
Q 39.546875 41.84375 41.421875 45.53125 
Q 43.3125 49.21875 43.3125 52.78125 
Q 43.3125 58.59375 39.234375 62.25 
Q 35.15625 65.921875 28.609375 65.921875 
Q 23.96875 65.921875 18.8125 64.3125 
Q 13.671875 62.703125 7.8125 59.421875 
L 7.8125 69.390625 
Q 13.765625 71.78125 18.9375 73 
Q 24.125 74.21875 28.421875 74.21875 
Q 39.75 74.21875 46.484375 68.546875 
Q 53.21875 62.890625 53.21875 53.421875 
Q 53.21875 48.921875 51.53125 44.890625 
Q 49.859375 40.875 45.40625 35.40625 
Q 44.1875 33.984375 37.640625 27.21875 
Q 31.109375 20.453125 19.1875 8.296875 
z
" id="DejaVuSans-50"/>
      </defs>
      <g transform="translate(96.860698 148.910818)scale(0.08 -0.08)">
       <use xlink:href="#DejaVuSans-50"/>
       <use x="63.623047" xlink:href="#DejaVuSans-48"/>
      </g>
     </g>
    </g>
    <g id="xtick_3">
     <g id="line2d_3">
      <g>
       <use style="stroke:#000000;stroke-width:0.8;" x="154.183556" xlink:href="#mfd995ce3e4" y="135.832068"/>
      </g>
     </g>
     <g id="text_3">
      <!-- 40 -->
      <defs>
       <path d="M 37.796875 64.3125 
L 12.890625 25.390625 
L 37.796875 25.390625 
z
M 35.203125 72.90625 
L 47.609375 72.90625 
L 47.609375 25.390625 
L 58.015625 25.390625 
L 58.015625 17.1875 
L 47.609375 17.1875 
L 47.609375 0 
L 37.796875 0 
L 37.796875 17.1875 
L 4.890625 17.1875 
L 4.890625 26.703125 
z
" id="DejaVuSans-52"/>
      </defs>
      <g transform="translate(149.093556 148.910818)scale(0.08 -0.08)">
       <use xlink:href="#DejaVuSans-52"/>
       <use x="63.623047" xlink:href="#DejaVuSans-48"/>
      </g>
     </g>
    </g>
    <g id="xtick_4">
     <g id="line2d_4">
      <g>
       <use style="stroke:#000000;stroke-width:0.8;" x="206.416414" xlink:href="#mfd995ce3e4" y="135.832068"/>
      </g>
     </g>
     <g id="text_4">
      <!-- 60 -->
      <defs>
       <path d="M 33.015625 40.375 
Q 26.375 40.375 22.484375 35.828125 
Q 18.609375 31.296875 18.609375 23.390625 
Q 18.609375 15.53125 22.484375 10.953125 
Q 26.375 6.390625 33.015625 6.390625 
Q 39.65625 6.390625 43.53125 10.953125 
Q 47.40625 15.53125 47.40625 23.390625 
Q 47.40625 31.296875 43.53125 35.828125 
Q 39.65625 40.375 33.015625 40.375 
z
M 52.59375 71.296875 
L 52.59375 62.3125 
Q 48.875 64.0625 45.09375 64.984375 
Q 41.3125 65.921875 37.59375 65.921875 
Q 27.828125 65.921875 22.671875 59.328125 
Q 17.53125 52.734375 16.796875 39.40625 
Q 19.671875 43.65625 24.015625 45.921875 
Q 28.375 48.1875 33.59375 48.1875 
Q 44.578125 48.1875 50.953125 41.515625 
Q 57.328125 34.859375 57.328125 23.390625 
Q 57.328125 12.15625 50.6875 5.359375 
Q 44.046875 -1.421875 33.015625 -1.421875 
Q 20.359375 -1.421875 13.671875 8.265625 
Q 6.984375 17.96875 6.984375 36.375 
Q 6.984375 53.65625 15.1875 63.9375 
Q 23.390625 74.21875 37.203125 74.21875 
Q 40.921875 74.21875 44.703125 73.484375 
Q 48.484375 72.75 52.59375 71.296875 
z
" id="DejaVuSans-54"/>
      </defs>
      <g transform="translate(201.326414 148.910818)scale(0.08 -0.08)">
       <use xlink:href="#DejaVuSans-54"/>
       <use x="63.623047" xlink:href="#DejaVuSans-48"/>
      </g>
     </g>
    </g>
    <g id="text_5">
     <!-- Time [h] -->
     <defs>
      <path d="M -0.296875 72.90625 
L 61.375 72.90625 
L 61.375 64.59375 
L 35.5 64.59375 
L 35.5 0 
L 25.59375 0 
L 25.59375 64.59375 
L -0.296875 64.59375 
z
" id="DejaVuSans-84"/>
      <path d="M 9.421875 54.6875 
L 18.40625 54.6875 
L 18.40625 0 
L 9.421875 0 
z
M 9.421875 75.984375 
L 18.40625 75.984375 
L 18.40625 64.59375 
L 9.421875 64.59375 
z
" id="DejaVuSans-105"/>
      <path d="M 52 44.1875 
Q 55.375 50.25 60.0625 53.125 
Q 64.75 56 71.09375 56 
Q 79.640625 56 84.28125 50.015625 
Q 88.921875 44.046875 88.921875 33.015625 
L 88.921875 0 
L 79.890625 0 
L 79.890625 32.71875 
Q 79.890625 40.578125 77.09375 44.375 
Q 74.3125 48.1875 68.609375 48.1875 
Q 61.625 48.1875 57.5625 43.546875 
Q 53.515625 38.921875 53.515625 30.90625 
L 53.515625 0 
L 44.484375 0 
L 44.484375 32.71875 
Q 44.484375 40.625 41.703125 44.40625 
Q 38.921875 48.1875 33.109375 48.1875 
Q 26.21875 48.1875 22.15625 43.53125 
Q 18.109375 38.875 18.109375 30.90625 
L 18.109375 0 
L 9.078125 0 
L 9.078125 54.6875 
L 18.109375 54.6875 
L 18.109375 46.1875 
Q 21.1875 51.21875 25.484375 53.609375 
Q 29.78125 56 35.6875 56 
Q 41.65625 56 45.828125 52.96875 
Q 50 49.953125 52 44.1875 
z
" id="DejaVuSans-109"/>
      <path d="M 56.203125 29.59375 
L 56.203125 25.203125 
L 14.890625 25.203125 
Q 15.484375 15.921875 20.484375 11.0625 
Q 25.484375 6.203125 34.421875 6.203125 
Q 39.59375 6.203125 44.453125 7.46875 
Q 49.3125 8.734375 54.109375 11.28125 
L 54.109375 2.78125 
Q 49.265625 0.734375 44.1875 -0.34375 
Q 39.109375 -1.421875 33.890625 -1.421875 
Q 20.796875 -1.421875 13.15625 6.1875 
Q 5.515625 13.8125 5.515625 26.8125 
Q 5.515625 40.234375 12.765625 48.109375 
Q 20.015625 56 32.328125 56 
Q 43.359375 56 49.78125 48.890625 
Q 56.203125 41.796875 56.203125 29.59375 
z
M 47.21875 32.234375 
Q 47.125 39.59375 43.09375 43.984375 
Q 39.0625 48.390625 32.421875 48.390625 
Q 24.90625 48.390625 20.390625 44.140625 
Q 15.875 39.890625 15.1875 32.171875 
z
" id="DejaVuSans-101"/>
      <path id="DejaVuSans-32"/>
      <path d="M 8.59375 75.984375 
L 29.296875 75.984375 
L 29.296875 69 
L 17.578125 69 
L 17.578125 -6.203125 
L 29.296875 -6.203125 
L 29.296875 -13.1875 
L 8.59375 -13.1875 
z
" id="DejaVuSans-91"/>
      <path d="M 54.890625 33.015625 
L 54.890625 0 
L 45.90625 0 
L 45.90625 32.71875 
Q 45.90625 40.484375 42.875 44.328125 
Q 39.84375 48.1875 33.796875 48.1875 
Q 26.515625 48.1875 22.3125 43.546875 
Q 18.109375 38.921875 18.109375 30.90625 
L 18.109375 0 
L 9.078125 0 
L 9.078125 75.984375 
L 18.109375 75.984375 
L 18.109375 46.1875 
Q 21.34375 51.125 25.703125 53.5625 
Q 30.078125 56 35.796875 56 
Q 45.21875 56 50.046875 50.171875 
Q 54.890625 44.34375 54.890625 33.015625 
z
" id="DejaVuSans-104"/>
      <path d="M 30.421875 75.984375 
L 30.421875 -13.1875 
L 9.71875 -13.1875 
L 9.71875 -6.203125 
L 21.390625 -6.203125 
L 21.390625 69 
L 9.71875 69 
L 9.71875 75.984375 
z
" id="DejaVuSans-93"/>
     </defs>
     <g transform="translate(117.881859 160.653318)scale(0.08 -0.08)">
      <use xlink:href="#DejaVuSans-84"/>
      <use x="57.958984" xlink:href="#DejaVuSans-105"/>
      <use x="85.742188" xlink:href="#DejaVuSans-109"/>
      <use x="183.154297" xlink:href="#DejaVuSans-101"/>
      <use x="244.677734" xlink:href="#DejaVuSans-32"/>
      <use x="276.464844" xlink:href="#DejaVuSans-91"/>
      <use x="315.478516" xlink:href="#DejaVuSans-104"/>
      <use x="378.857422" xlink:href="#DejaVuSans-93"/>
     </g>
    </g>
   </g>
   <g id="matplotlib.axis_2">
    <g id="ytick_1">
     <g id="line2d_5">
      <defs>
       <path d="M 0 0 
L -3.5 0 
" id="me35c4503e9" style="stroke:#000000;stroke-width:0.8;"/>
      </defs>
      <g>
       <use style="stroke:#000000;stroke-width:0.8;" x="41.23" xlink:href="#me35c4503e9" y="129.940426"/>
      </g>
     </g>
     <g id="text_6">
      <!-- 0 -->
      <g transform="translate(29.14 132.979801)scale(0.08 -0.08)">
       <use xlink:href="#DejaVuSans-48"/>
      </g>
     </g>
    </g>
    <g id="ytick_2">
     <g id="line2d_6">
      <g>
       <use style="stroke:#000000;stroke-width:0.8;" x="41.23" xlink:href="#me35c4503e9" y="102.743657"/>
      </g>
     </g>
     <g id="text_7">
      <!-- 50 -->
      <defs>
       <path d="M 10.796875 72.90625 
L 49.515625 72.90625 
L 49.515625 64.59375 
L 19.828125 64.59375 
L 19.828125 46.734375 
Q 21.96875 47.46875 24.109375 47.828125 
Q 26.265625 48.1875 28.421875 48.1875 
Q 40.625 48.1875 47.75 41.5 
Q 54.890625 34.8125 54.890625 23.390625 
Q 54.890625 11.625 47.5625 5.09375 
Q 40.234375 -1.421875 26.90625 -1.421875 
Q 22.3125 -1.421875 17.546875 -0.640625 
Q 12.796875 0.140625 7.71875 1.703125 
L 7.71875 11.625 
Q 12.109375 9.234375 16.796875 8.0625 
Q 21.484375 6.890625 26.703125 6.890625 
Q 35.15625 6.890625 40.078125 11.328125 
Q 45.015625 15.765625 45.015625 23.390625 
Q 45.015625 31 40.078125 35.4375 
Q 35.15625 39.890625 26.703125 39.890625 
Q 22.75 39.890625 18.8125 39.015625 
Q 14.890625 38.140625 10.796875 36.28125 
z
" id="DejaVuSans-53"/>
      </defs>
      <g transform="translate(24.05 105.783032)scale(0.08 -0.08)">
       <use xlink:href="#DejaVuSans-53"/>
       <use x="63.623047" xlink:href="#DejaVuSans-48"/>
      </g>
     </g>
    </g>
    <g id="ytick_3">
     <g id="line2d_7">
      <g>
       <use style="stroke:#000000;stroke-width:0.8;" x="41.23" xlink:href="#me35c4503e9" y="75.546888"/>
      </g>
     </g>
     <g id="text_8">
      <!-- 100 -->
      <defs>
       <path d="M 12.40625 8.296875 
L 28.515625 8.296875 
L 28.515625 63.921875 
L 10.984375 60.40625 
L 10.984375 69.390625 
L 28.421875 72.90625 
L 38.28125 72.90625 
L 38.28125 8.296875 
L 54.390625 8.296875 
L 54.390625 0 
L 12.40625 0 
z
" id="DejaVuSans-49"/>
      </defs>
      <g transform="translate(18.96 78.586263)scale(0.08 -0.08)">
       <use xlink:href="#DejaVuSans-49"/>
       <use x="63.623047" xlink:href="#DejaVuSans-48"/>
       <use x="127.246094" xlink:href="#DejaVuSans-48"/>
      </g>
     </g>
    </g>
    <g id="ytick_4">
     <g id="line2d_8">
      <g>
       <use style="stroke:#000000;stroke-width:0.8;" x="41.23" xlink:href="#me35c4503e9" y="48.350119"/>
      </g>
     </g>
     <g id="text_9">
      <!-- 150 -->
      <g transform="translate(18.96 51.389494)scale(0.08 -0.08)">
       <use xlink:href="#DejaVuSans-49"/>
       <use x="63.623047" xlink:href="#DejaVuSans-53"/>
       <use x="127.246094" xlink:href="#DejaVuSans-48"/>
      </g>
     </g>
    </g>
    <g id="ytick_5">
     <g id="line2d_9">
      <g>
       <use style="stroke:#000000;stroke-width:0.8;" x="41.23" xlink:href="#me35c4503e9" y="21.15335"/>
      </g>
     </g>
     <g id="text_10">
      <!-- 200 -->
      <g transform="translate(18.96 24.192725)scale(0.08 -0.08)">
       <use xlink:href="#DejaVuSans-50"/>
       <use x="63.623047" xlink:href="#DejaVuSans-48"/>
       <use x="127.246094" xlink:href="#DejaVuSans-48"/>
      </g>
     </g>
    </g>
    <g id="text_11">
     <!-- Concentration [$\rm\mu$M] -->
     <defs>
      <path d="M 64.40625 67.28125 
L 64.40625 56.890625 
Q 59.421875 61.53125 53.78125 63.8125 
Q 48.140625 66.109375 41.796875 66.109375 
Q 29.296875 66.109375 22.65625 58.46875 
Q 16.015625 50.828125 16.015625 36.375 
Q 16.015625 21.96875 22.65625 14.328125 
Q 29.296875 6.6875 41.796875 6.6875 
Q 48.140625 6.6875 53.78125 8.984375 
Q 59.421875 11.28125 64.40625 15.921875 
L 64.40625 5.609375 
Q 59.234375 2.09375 53.4375 0.328125 
Q 47.65625 -1.421875 41.21875 -1.421875 
Q 24.65625 -1.421875 15.125 8.703125 
Q 5.609375 18.84375 5.609375 36.375 
Q 5.609375 53.953125 15.125 64.078125 
Q 24.65625 74.21875 41.21875 74.21875 
Q 47.75 74.21875 53.53125 72.484375 
Q 59.328125 70.75 64.40625 67.28125 
z
" id="DejaVuSans-67"/>
      <path d="M 30.609375 48.390625 
Q 23.390625 48.390625 19.1875 42.75 
Q 14.984375 37.109375 14.984375 27.296875 
Q 14.984375 17.484375 19.15625 11.84375 
Q 23.34375 6.203125 30.609375 6.203125 
Q 37.796875 6.203125 41.984375 11.859375 
Q 46.1875 17.53125 46.1875 27.296875 
Q 46.1875 37.015625 41.984375 42.703125 
Q 37.796875 48.390625 30.609375 48.390625 
z
M 30.609375 56 
Q 42.328125 56 49.015625 48.375 
Q 55.71875 40.765625 55.71875 27.296875 
Q 55.71875 13.875 49.015625 6.21875 
Q 42.328125 -1.421875 30.609375 -1.421875 
Q 18.84375 -1.421875 12.171875 6.21875 
Q 5.515625 13.875 5.515625 27.296875 
Q 5.515625 40.765625 12.171875 48.375 
Q 18.84375 56 30.609375 56 
z
" id="DejaVuSans-111"/>
      <path d="M 54.890625 33.015625 
L 54.890625 0 
L 45.90625 0 
L 45.90625 32.71875 
Q 45.90625 40.484375 42.875 44.328125 
Q 39.84375 48.1875 33.796875 48.1875 
Q 26.515625 48.1875 22.3125 43.546875 
Q 18.109375 38.921875 18.109375 30.90625 
L 18.109375 0 
L 9.078125 0 
L 9.078125 54.6875 
L 18.109375 54.6875 
L 18.109375 46.1875 
Q 21.34375 51.125 25.703125 53.5625 
Q 30.078125 56 35.796875 56 
Q 45.21875 56 50.046875 50.171875 
Q 54.890625 44.34375 54.890625 33.015625 
z
" id="DejaVuSans-110"/>
      <path d="M 48.78125 52.59375 
L 48.78125 44.1875 
Q 44.96875 46.296875 41.140625 47.34375 
Q 37.3125 48.390625 33.40625 48.390625 
Q 24.65625 48.390625 19.8125 42.84375 
Q 14.984375 37.3125 14.984375 27.296875 
Q 14.984375 17.28125 19.8125 11.734375 
Q 24.65625 6.203125 33.40625 6.203125 
Q 37.3125 6.203125 41.140625 7.25 
Q 44.96875 8.296875 48.78125 10.40625 
L 48.78125 2.09375 
Q 45.015625 0.34375 40.984375 -0.53125 
Q 36.96875 -1.421875 32.421875 -1.421875 
Q 20.0625 -1.421875 12.78125 6.34375 
Q 5.515625 14.109375 5.515625 27.296875 
Q 5.515625 40.671875 12.859375 48.328125 
Q 20.21875 56 33.015625 56 
Q 37.15625 56 41.109375 55.140625 
Q 45.0625 54.296875 48.78125 52.59375 
z
" id="DejaVuSans-99"/>
      <path d="M 18.3125 70.21875 
L 18.3125 54.6875 
L 36.8125 54.6875 
L 36.8125 47.703125 
L 18.3125 47.703125 
L 18.3125 18.015625 
Q 18.3125 11.328125 20.140625 9.421875 
Q 21.96875 7.515625 27.59375 7.515625 
L 36.8125 7.515625 
L 36.8125 0 
L 27.59375 0 
Q 17.1875 0 13.234375 3.875 
Q 9.28125 7.765625 9.28125 18.015625 
L 9.28125 47.703125 
L 2.6875 47.703125 
L 2.6875 54.6875 
L 9.28125 54.6875 
L 9.28125 70.21875 
z
" id="DejaVuSans-116"/>
      <path d="M 41.109375 46.296875 
Q 39.59375 47.171875 37.8125 47.578125 
Q 36.03125 48 33.890625 48 
Q 26.265625 48 22.1875 43.046875 
Q 18.109375 38.09375 18.109375 28.8125 
L 18.109375 0 
L 9.078125 0 
L 9.078125 54.6875 
L 18.109375 54.6875 
L 18.109375 46.1875 
Q 20.953125 51.171875 25.484375 53.578125 
Q 30.03125 56 36.53125 56 
Q 37.453125 56 38.578125 55.875 
Q 39.703125 55.765625 41.0625 55.515625 
z
" id="DejaVuSans-114"/>
      <path d="M 34.28125 27.484375 
Q 23.390625 27.484375 19.1875 25 
Q 14.984375 22.515625 14.984375 16.5 
Q 14.984375 11.71875 18.140625 8.90625 
Q 21.296875 6.109375 26.703125 6.109375 
Q 34.1875 6.109375 38.703125 11.40625 
Q 43.21875 16.703125 43.21875 25.484375 
L 43.21875 27.484375 
z
M 52.203125 31.203125 
L 52.203125 0 
L 43.21875 0 
L 43.21875 8.296875 
Q 40.140625 3.328125 35.546875 0.953125 
Q 30.953125 -1.421875 24.3125 -1.421875 
Q 15.921875 -1.421875 10.953125 3.296875 
Q 6 8.015625 6 15.921875 
Q 6 25.140625 12.171875 29.828125 
Q 18.359375 34.515625 30.609375 34.515625 
L 43.21875 34.515625 
L 43.21875 35.40625 
Q 43.21875 41.609375 39.140625 45 
Q 35.0625 48.390625 27.6875 48.390625 
Q 23 48.390625 18.546875 47.265625 
Q 14.109375 46.140625 10.015625 43.890625 
L 10.015625 52.203125 
Q 14.9375 54.109375 19.578125 55.046875 
Q 24.21875 56 28.609375 56 
Q 40.484375 56 46.34375 49.84375 
Q 52.203125 43.703125 52.203125 31.203125 
z
" id="DejaVuSans-97"/>
      <path d="M 8.5 -20.796875 
L 8.5 54.6875 
L 17.484375 54.6875 
L 17.484375 20.703125 
Q 17.484375 13.625 20.84375 10 
Q 24.21875 6.390625 30.8125 6.390625 
Q 38.03125 6.390625 41.671875 10.484375 
Q 45.3125 14.59375 45.3125 22.796875 
L 45.3125 54.6875 
L 54.296875 54.6875 
L 54.296875 12.59375 
Q 54.296875 9.671875 55.140625 8.28125 
Q 56 6.890625 57.8125 6.890625 
Q 58.25 6.890625 59.03125 7.15625 
Q 59.8125 7.421875 61.1875 8.015625 
L 61.1875 0.78125 
Q 59.1875 -0.34375 57.390625 -0.875 
Q 55.609375 -1.421875 53.90625 -1.421875 
Q 50.53125 -1.421875 48.53125 0.484375 
Q 46.53125 2.390625 45.796875 6.296875 
Q 43.359375 2.4375 39.8125 0.5 
Q 36.28125 -1.421875 31.5 -1.421875 
Q 26.515625 -1.421875 23.015625 0.484375 
Q 19.53125 2.390625 17.484375 6.203125 
L 17.484375 -20.796875 
z
" id="DejaVuSans-956"/>
      <path d="M 9.8125 72.90625 
L 24.515625 72.90625 
L 43.109375 23.296875 
L 61.8125 72.90625 
L 76.515625 72.90625 
L 76.515625 0 
L 66.890625 0 
L 66.890625 64.015625 
L 48.09375 14.015625 
L 38.1875 14.015625 
L 19.390625 64.015625 
L 19.390625 0 
L 9.8125 0 
z
" id="DejaVuSans-77"/>
     </defs>
     <g transform="translate(13.28 110.236034)rotate(-90)scale(0.08 -0.08)">
      <use transform="translate(0 0.015625)" xlink:href="#DejaVuSans-67"/>
      <use transform="translate(69.824219 0.015625)" xlink:href="#DejaVuSans-111"/>
      <use transform="translate(131.005859 0.015625)" xlink:href="#DejaVuSans-110"/>
      <use transform="translate(194.384766 0.015625)" xlink:href="#DejaVuSans-99"/>
      <use transform="translate(249.365234 0.015625)" xlink:href="#DejaVuSans-101"/>
      <use transform="translate(310.888672 0.015625)" xlink:href="#DejaVuSans-110"/>
      <use transform="translate(374.267578 0.015625)" xlink:href="#DejaVuSans-116"/>
      <use transform="translate(413.476562 0.015625)" xlink:href="#DejaVuSans-114"/>
      <use transform="translate(454.589844 0.015625)" xlink:href="#DejaVuSans-97"/>
      <use transform="translate(515.869141 0.015625)" xlink:href="#DejaVuSans-116"/>
      <use transform="translate(555.078125 0.015625)" xlink:href="#DejaVuSans-105"/>
      <use transform="translate(582.861328 0.015625)" xlink:href="#DejaVuSans-111"/>
      <use transform="translate(644.042969 0.015625)" xlink:href="#DejaVuSans-110"/>
      <use transform="translate(707.421875 0.015625)" xlink:href="#DejaVuSans-32"/>
      <use transform="translate(739.208984 0.015625)" xlink:href="#DejaVuSans-91"/>
      <use transform="translate(778.222656 0.015625)" xlink:href="#DejaVuSans-956"/>
      <use transform="translate(841.845703 0.015625)" xlink:href="#DejaVuSans-77"/>
      <use transform="translate(928.125 0.015625)" xlink:href="#DejaVuSans-93"/>
     </g>
    </g>
   </g>
   <g id="LineCollection_1">
    <path clip-path="url(#p82c7884343)" d="M 49.717839 128.497832 
L 49.717839 126.415005 
" style="fill:none;stroke:#0370b8;"/>
    <path clip-path="url(#p82c7884343)" d="M 52.329482 115.796683 
L 52.329482 110.76002 
" style="fill:none;stroke:#0370b8;"/>
    <path clip-path="url(#p82c7884343)" d="M 54.941125 104.126039 
L 54.941125 90.158572 
" style="fill:none;stroke:#0370b8;"/>
    <path clip-path="url(#p82c7884343)" d="M 57.552768 97.97843 
L 57.552768 79.530065 
" style="fill:none;stroke:#0370b8;"/>
    <path clip-path="url(#p82c7884343)" d="M 60.164411 90.075105 
L 60.164411 70.420063 
" style="fill:none;stroke:#0370b8;"/>
    <path clip-path="url(#p82c7884343)" d="M 62.776054 86.262185 
L 62.776054 57.376435 
" style="fill:none;stroke:#0370b8;"/>
    <path clip-path="url(#p82c7884343)" d="M 65.387697 78.461212 
L 65.387697 47.693495 
" style="fill:none;stroke:#0370b8;"/>
    <path clip-path="url(#p82c7884343)" d="M 67.99934 73.388116 
L 67.99934 38.080108 
" style="fill:none;stroke:#0370b8;"/>
    <path clip-path="url(#p82c7884343)" d="M 70.610983 67.303173 
L 70.610983 31.518925 
" style="fill:none;stroke:#0370b8;"/>
    <path clip-path="url(#p82c7884343)" d="M 73.222626 52.956744 
L 73.222626 24.850032 
" style="fill:none;stroke:#0370b8;"/>
    <path clip-path="url(#p82c7884343)" d="M 75.834269 58.123886 
L 75.834269 21.8108 
" style="fill:none;stroke:#0370b8;"/>
    <path clip-path="url(#p82c7884343)" d="M 78.445911 52.572244 
L 78.445911 19.276175 
" style="fill:none;stroke:#0370b8;"/>
    <path clip-path="url(#p82c7884343)" d="M 81.057554 33.350093 
L 81.057554 16.075622 
" style="fill:none;stroke:#0370b8;"/>
    <path clip-path="url(#p82c7884343)" d="M 83.669197 38.520461 
L 83.669197 20.565192 
" style="fill:none;stroke:#0370b8;"/>
    <path clip-path="url(#p82c7884343)" d="M 86.28084 33.503121 
L 86.28084 13.046912 
" style="fill:none;stroke:#0370b8;"/>
    <path clip-path="url(#p82c7884343)" d="M 88.892483 38.066832 
L 88.892483 20.909766 
" style="fill:none;stroke:#0370b8;"/>
    <path clip-path="url(#p82c7884343)" d="M 115.008912 55.210791 
L 115.008912 23.450464 
" style="fill:none;stroke:#0370b8;"/>
    <path clip-path="url(#p82c7884343)" d="M 120.232198 58.805088 
L 120.232198 28.316626 
" style="fill:none;stroke:#0370b8;"/>
    <path clip-path="url(#p82c7884343)" d="M 125.455484 60.547509 
L 125.455484 32.046587 
" style="fill:none;stroke:#0370b8;"/>
    <path clip-path="url(#p82c7884343)" d="M 130.67877 68.527726 
L 130.67877 38.251945 
" style="fill:none;stroke:#0370b8;"/>
    <path clip-path="url(#p82c7884343)" d="M 135.902055 79.333974 
L 135.902055 40.590649 
" style="fill:none;stroke:#0370b8;"/>
    <path clip-path="url(#p82c7884343)" d="M 177.688342 114.544805 
L 177.688342 82.924587 
" style="fill:none;stroke:#0370b8;"/>
    <path clip-path="url(#p82c7884343)" d="M 182.911628 117.811719 
L 182.911628 86.865384 
" style="fill:none;stroke:#0370b8;"/>
    <path clip-path="url(#p82c7884343)" d="M 188.134914 117.372089 
L 188.134914 91.401431 
" style="fill:none;stroke:#0370b8;"/>
    <path clip-path="url(#p82c7884343)" d="M 193.358199 119.025456 
L 193.358199 96.564619 
" style="fill:none;stroke:#0370b8;"/>
    <path clip-path="url(#p82c7884343)" d="M 198.581485 122.681643 
L 198.581485 99.998197 
" style="fill:none;stroke:#0370b8;"/>
    <path clip-path="url(#p82c7884343)" d="M 203.804771 123.490451 
L 203.804771 103.788195 
" style="fill:none;stroke:#0370b8;"/>
    <path clip-path="url(#p82c7884343)" d="M 209.028057 124.241128 
L 209.028057 106.253848 
" style="fill:none;stroke:#0370b8;"/>
    <path clip-path="url(#p82c7884343)" d="M 214.251343 125.038575 
L 214.251343 108.687438 
" style="fill:none;stroke:#0370b8;"/>
    <path clip-path="url(#p82c7884343)" d="M 219.474629 125.417426 
L 219.474629 110.389015 
" style="fill:none;stroke:#0370b8;"/>
   </g>
   <g id="LineCollection_2">
    <path clip-path="url(#p82c7884343)" d="M 49.717839 129.912457 
L 49.717839 129.475773 
" style="fill:none;stroke:#d56339;"/>
    <path clip-path="url(#p82c7884343)" d="M 52.329482 126.416364 
L 52.329482 123.191348 
" style="fill:none;stroke:#d56339;"/>
    <path clip-path="url(#p82c7884343)" d="M 54.941125 123.229469 
L 54.941125 117.229178 
" style="fill:none;stroke:#d56339;"/>
    <path clip-path="url(#p82c7884343)" d="M 57.552768 120.106437 
L 57.552768 112.147415 
" style="fill:none;stroke:#d56339;"/>
    <path clip-path="url(#p82c7884343)" d="M 60.164411 117.214591 
L 60.164411 107.270331 
" style="fill:none;stroke:#d56339;"/>
    <path clip-path="url(#p82c7884343)" d="M 62.776054 114.518358 
L 62.776054 102.098888 
" style="fill:none;stroke:#d56339;"/>
    <path clip-path="url(#p82c7884343)" d="M 65.387697 111.960085 
L 65.387697 99.42781 
" style="fill:none;stroke:#d56339;"/>
    <path clip-path="url(#p82c7884343)" d="M 67.99934 109.680729 
L 67.99934 95.453697 
" style="fill:none;stroke:#d56339;"/>
    <path clip-path="url(#p82c7884343)" d="M 70.610983 107.359931 
L 70.610983 92.215253 
" style="fill:none;stroke:#d56339;"/>
    <path clip-path="url(#p82c7884343)" d="M 73.222626 104.930865 
L 73.222626 88.872271 
" style="fill:none;stroke:#d56339;"/>
    <path clip-path="url(#p82c7884343)" d="M 75.834269 102.909804 
L 75.834269 85.937619 
" style="fill:none;stroke:#d56339;"/>
    <path clip-path="url(#p82c7884343)" d="M 78.445911 100.822143 
L 78.445911 83.700145 
" style="fill:none;stroke:#d56339;"/>
    <path clip-path="url(#p82c7884343)" d="M 81.057554 99.054166 
L 81.057554 81.05138 
" style="fill:none;stroke:#d56339;"/>
    <path clip-path="url(#p82c7884343)" d="M 83.669197 96.970818 
L 83.669197 78.62477 
" style="fill:none;stroke:#d56339;"/>
    <path clip-path="url(#p82c7884343)" d="M 86.28084 95.065136 
L 86.28084 76.865953 
" style="fill:none;stroke:#d56339;"/>
    <path clip-path="url(#p82c7884343)" d="M 88.892483 93.597005 
L 88.892483 75.240498 
" style="fill:none;stroke:#d56339;"/>
    <path clip-path="url(#p82c7884343)" d="M 115.008912 82.882596 
L 115.008912 72.663881 
" style="fill:none;stroke:#d56339;"/>
    <path clip-path="url(#p82c7884343)" d="M 120.232198 82.336706 
L 120.232198 71.521742 
" style="fill:none;stroke:#d56339;"/>
    <path clip-path="url(#p82c7884343)" d="M 125.455484 82.023471 
L 125.455484 70.738047 
" style="fill:none;stroke:#d56339;"/>
    <path clip-path="url(#p82c7884343)" d="M 130.67877 82.531322 
L 130.67877 71.365016 
" style="fill:none;stroke:#d56339;"/>
    <path clip-path="url(#p82c7884343)" d="M 135.902055 84.765473 
L 135.902055 72.121358 
" style="fill:none;stroke:#d56339;"/>
    <path clip-path="url(#p82c7884343)" d="M 177.688342 104.069266 
L 177.688342 80.861807 
" style="fill:none;stroke:#d56339;"/>
    <path clip-path="url(#p82c7884343)" d="M 182.911628 106.510179 
L 182.911628 82.62795 
" style="fill:none;stroke:#d56339;"/>
    <path clip-path="url(#p82c7884343)" d="M 188.134914 108.611707 
L 188.134914 84.463625 
" style="fill:none;stroke:#d56339;"/>
    <path clip-path="url(#p82c7884343)" d="M 193.358199 110.89074 
L 193.358199 86.208183 
" style="fill:none;stroke:#d56339;"/>
    <path clip-path="url(#p82c7884343)" d="M 198.581485 112.587021 
L 198.581485 88.271482 
" style="fill:none;stroke:#d56339;"/>
    <path clip-path="url(#p82c7884343)" d="M 203.804771 113.822219 
L 203.804771 90.684425 
" style="fill:none;stroke:#d56339;"/>
    <path clip-path="url(#p82c7884343)" d="M 209.028057 114.919168 
L 209.028057 92.702382 
" style="fill:none;stroke:#d56339;"/>
    <path clip-path="url(#p82c7884343)" d="M 214.251343 117.105855 
L 214.251343 94.442899 
" style="fill:none;stroke:#d56339;"/>
    <path clip-path="url(#p82c7884343)" d="M 219.474629 118.344276 
L 219.474629 95.634439 
" style="fill:none;stroke:#d56339;"/>
   </g>
   <g id="LineCollection_3">
    <path clip-path="url(#p82c7884343)" d="M 49.717839 129.94111 
L 49.717839 129.669648 
" style="fill:none;stroke:#eeb92e;"/>
    <path clip-path="url(#p82c7884343)" d="M 52.329482 127.349777 
L 52.329482 126.361548 
" style="fill:none;stroke:#eeb92e;"/>
    <path clip-path="url(#p82c7884343)" d="M 54.941125 125.754133 
L 54.941125 121.478982 
" style="fill:none;stroke:#eeb92e;"/>
    <path clip-path="url(#p82c7884343)" d="M 57.552768 124.50141 
L 57.552768 116.641013 
" style="fill:none;stroke:#eeb92e;"/>
    <path clip-path="url(#p82c7884343)" d="M 60.164411 123.017641 
L 60.164411 111.775657 
" style="fill:none;stroke:#eeb92e;"/>
    <path clip-path="url(#p82c7884343)" d="M 62.776054 121.496512 
L 62.776054 106.893476 
" style="fill:none;stroke:#eeb92e;"/>
    <path clip-path="url(#p82c7884343)" d="M 65.387697 117.764854 
L 65.387697 110.283299 
" style="fill:none;stroke:#eeb92e;"/>
    <path clip-path="url(#p82c7884343)" d="M 67.99934 116.006678 
L 67.99934 106.131199 
" style="fill:none;stroke:#eeb92e;"/>
    <path clip-path="url(#p82c7884343)" d="M 70.610983 113.714251 
L 70.610983 102.869967 
" style="fill:none;stroke:#eeb92e;"/>
    <path clip-path="url(#p82c7884343)" d="M 73.222626 111.607061 
L 73.222626 98.185217 
" style="fill:none;stroke:#eeb92e;"/>
    <path clip-path="url(#p82c7884343)" d="M 75.834269 109.725127 
L 75.834269 94.34562 
" style="fill:none;stroke:#eeb92e;"/>
    <path clip-path="url(#p82c7884343)" d="M 78.445911 107.5761 
L 78.445911 91.090912 
" style="fill:none;stroke:#eeb92e;"/>
    <path clip-path="url(#p82c7884343)" d="M 81.057554 105.162146 
L 81.057554 87.409927 
" style="fill:none;stroke:#eeb92e;"/>
    <path clip-path="url(#p82c7884343)" d="M 83.669197 102.756981 
L 83.669197 84.320262 
" style="fill:none;stroke:#eeb92e;"/>
    <path clip-path="url(#p82c7884343)" d="M 86.28084 99.6096 
L 86.28084 80.389025 
" style="fill:none;stroke:#eeb92e;"/>
    <path clip-path="url(#p82c7884343)" d="M 88.892483 98.0313 
L 88.892483 77.39468 
" style="fill:none;stroke:#eeb92e;"/>
    <path clip-path="url(#p82c7884343)" d="M 115.008912 70.825158 
L 115.008912 59.378789 
" style="fill:none;stroke:#eeb92e;"/>
    <path clip-path="url(#p82c7884343)" d="M 120.232198 66.967518 
L 120.232198 56.146265 
" style="fill:none;stroke:#eeb92e;"/>
    <path clip-path="url(#p82c7884343)" d="M 125.455484 64.114908 
L 125.455484 53.358386 
" style="fill:none;stroke:#eeb92e;"/>
    <path clip-path="url(#p82c7884343)" d="M 130.67877 61.896046 
L 130.67877 50.617783 
" style="fill:none;stroke:#eeb92e;"/>
    <path clip-path="url(#p82c7884343)" d="M 135.902055 61.930251 
L 135.902055 47.557664 
" style="fill:none;stroke:#eeb92e;"/>
    <path clip-path="url(#p82c7884343)" d="M 177.688342 77.469113 
L 177.688342 37.160405 
" style="fill:none;stroke:#eeb92e;"/>
    <path clip-path="url(#p82c7884343)" d="M 182.911628 80.656118 
L 182.911628 36.752379 
" style="fill:none;stroke:#eeb92e;"/>
    <path clip-path="url(#p82c7884343)" d="M 188.134914 82.055135 
L 188.134914 37.119005 
" style="fill:none;stroke:#eeb92e;"/>
    <path clip-path="url(#p82c7884343)" d="M 193.358199 85.975535 
L 193.358199 37.884844 
" style="fill:none;stroke:#eeb92e;"/>
    <path clip-path="url(#p82c7884343)" d="M 198.581485 90.368871 
L 198.581485 39.503277 
" style="fill:none;stroke:#eeb92e;"/>
    <path clip-path="url(#p82c7884343)" d="M 203.804771 92.297497 
L 203.804771 42.967425 
" style="fill:none;stroke:#eeb92e;"/>
    <path clip-path="url(#p82c7884343)" d="M 209.028057 94.11179 
L 209.028057 45.003369 
" style="fill:none;stroke:#eeb92e;"/>
    <path clip-path="url(#p82c7884343)" d="M 214.251343 97.756281 
L 214.251343 46.607933 
" style="fill:none;stroke:#eeb92e;"/>
    <path clip-path="url(#p82c7884343)" d="M 219.474629 99.806526 
L 219.474629 47.794729 
" style="fill:none;stroke:#eeb92e;"/>
   </g>
   <g id="LineCollection_4">
    <path clip-path="url(#p82c7884343)" d="M 49.717839 129.985156 
L 49.717839 129.773494 
" style="fill:none;stroke:#7f3792;"/>
    <path clip-path="url(#p82c7884343)" d="M 52.329482 129.87989 
L 52.329482 129.789859 
" style="fill:none;stroke:#7f3792;"/>
    <path clip-path="url(#p82c7884343)" d="M 54.941125 129.861496 
L 54.941125 129.629719 
" style="fill:none;stroke:#7f3792;"/>
    <path clip-path="url(#p82c7884343)" d="M 57.552768 129.797125 
L 57.552768 129.595261 
" style="fill:none;stroke:#7f3792;"/>
    <path clip-path="url(#p82c7884343)" d="M 60.164411 129.755735 
L 60.164411 129.531798 
" style="fill:none;stroke:#7f3792;"/>
    <path clip-path="url(#p82c7884343)" d="M 62.776054 129.707972 
L 62.776054 129.458149 
" style="fill:none;stroke:#7f3792;"/>
    <path clip-path="url(#p82c7884343)" d="M 65.387697 129.65031 
L 65.387697 129.233754 
" style="fill:none;stroke:#7f3792;"/>
    <path clip-path="url(#p82c7884343)" d="M 67.99934 129.615879 
L 67.99934 129.16105 
" style="fill:none;stroke:#7f3792;"/>
    <path clip-path="url(#p82c7884343)" d="M 70.610983 129.611412 
L 70.610983 129.086027 
" style="fill:none;stroke:#7f3792;"/>
    <path clip-path="url(#p82c7884343)" d="M 73.222626 129.476023 
L 73.222626 129.010433 
" style="fill:none;stroke:#7f3792;"/>
    <path clip-path="url(#p82c7884343)" d="M 75.834269 129.514978 
L 75.834269 128.914742 
" style="fill:none;stroke:#7f3792;"/>
    <path clip-path="url(#p82c7884343)" d="M 78.445911 129.376842 
L 78.445911 128.757212 
" style="fill:none;stroke:#7f3792;"/>
    <path clip-path="url(#p82c7884343)" d="M 81.057554 129.192928 
L 81.057554 128.959369 
" style="fill:none;stroke:#7f3792;"/>
    <path clip-path="url(#p82c7884343)" d="M 83.669197 129.323363 
L 83.669197 128.510452 
" style="fill:none;stroke:#7f3792;"/>
    <path clip-path="url(#p82c7884343)" d="M 86.28084 129.034131 
L 86.28084 128.362426 
" style="fill:none;stroke:#7f3792;"/>
    <path clip-path="url(#p82c7884343)" d="M 88.892483 129.032654 
L 88.892483 128.115917 
" style="fill:none;stroke:#7f3792;"/>
    <path clip-path="url(#p82c7884343)" d="M 115.008912 127.976195 
L 115.008912 127.016048 
" style="fill:none;stroke:#7f3792;"/>
    <path clip-path="url(#p82c7884343)" d="M 120.232198 127.695038 
L 120.232198 126.362875 
" style="fill:none;stroke:#7f3792;"/>
    <path clip-path="url(#p82c7884343)" d="M 125.455484 127.644656 
L 125.455484 125.317009 
" style="fill:none;stroke:#7f3792;"/>
    <path clip-path="url(#p82c7884343)" d="M 130.67877 127.219549 
L 130.67877 125.104024 
" style="fill:none;stroke:#7f3792;"/>
    <path clip-path="url(#p82c7884343)" d="M 135.902055 126.729658 
L 135.902055 125.261074 
" style="fill:none;stroke:#7f3792;"/>
    <path clip-path="url(#p82c7884343)" d="M 177.688342 124.31938 
L 177.688342 122.717528 
" style="fill:none;stroke:#7f3792;"/>
    <path clip-path="url(#p82c7884343)" d="M 182.911628 124.645211 
L 182.911628 121.748574 
" style="fill:none;stroke:#7f3792;"/>
    <path clip-path="url(#p82c7884343)" d="M 188.134914 125.059679 
L 188.134914 120.807628 
" style="fill:none;stroke:#7f3792;"/>
    <path clip-path="url(#p82c7884343)" d="M 193.358199 124.489566 
L 193.358199 120.467562 
" style="fill:none;stroke:#7f3792;"/>
    <path clip-path="url(#p82c7884343)" d="M 198.581485 124.358323 
L 198.581485 120.172901 
" style="fill:none;stroke:#7f3792;"/>
    <path clip-path="url(#p82c7884343)" d="M 203.804771 124.288487 
L 203.804771 119.810558 
" style="fill:none;stroke:#7f3792;"/>
    <path clip-path="url(#p82c7884343)" d="M 209.028057 124.306804 
L 209.028057 119.174026 
" style="fill:none;stroke:#7f3792;"/>
    <path clip-path="url(#p82c7884343)" d="M 214.251343 124.878618 
L 214.251343 118.521931 
" style="fill:none;stroke:#7f3792;"/>
    <path clip-path="url(#p82c7884343)" d="M 219.474629 125.125276 
L 219.474629 118.170018 
" style="fill:none;stroke:#7f3792;"/>
   </g>
   <g id="line2d_10">
    <path clip-path="url(#p82c7884343)" d="M 49.717839 127.456418 
L 51.996454 115.674952 
L 54.275069 105.343491 
L 56.553683 96.31871 
L 58.832298 88.470621 
L 61.110913 81.681356 
L 63.389527 75.844062 
L 65.668142 70.861893 
L 67.946756 66.647096 
L 70.225371 63.120179 
L 72.503986 60.209153 
L 74.7826 57.848848 
L 77.061215 55.980282 
L 79.339829 54.550097 
L 81.618444 53.510038 
L 83.897059 52.816489 
L 86.175673 52.430036 
L 88.454288 52.315089 
L 90.732903 52.439521 
L 93.011517 52.774353 
L 95.290132 53.293455 
L 98.708054 54.366773 
L 102.125976 55.732511 
L 105.543898 57.331173 
L 110.101127 59.738661 
L 115.797663 63.05558 
L 123.772815 68.013091 
L 142.001732 79.44377 
L 149.976883 84.140945 
L 156.812727 87.936329 
L 163.64857 91.497414 
L 170.484414 94.816294 
L 177.320258 97.893167 
L 184.156102 100.733763 
L 190.991946 103.347452 
L 197.82779 105.745873 
L 205.802941 108.289229 
L 213.778092 110.578617 
L 219.474629 112.070319 
L 219.474629 112.070319 
" style="fill:none;stroke:#0370b8;stroke-linecap:square;"/>
   </g>
   <g id="line2d_11">
    <path clip-path="url(#p82c7884343)" d="M 49.717839 129.694115 
L 53.135761 123.726065 
L 56.553683 118.334526 
L 59.971605 113.477756 
L 63.389527 109.116702 
L 66.807449 105.214831 
L 70.225371 101.737984 
L 73.643293 98.65423 
L 77.061215 95.933726 
L 80.479137 93.548599 
L 83.897059 91.472816 
L 87.314981 89.682077 
L 90.732903 88.153708 
L 94.150825 86.866559 
L 97.568746 85.800907 
L 100.986668 84.938376 
L 104.40459 84.261844 
L 108.96182 83.621741 
L 113.519049 83.249327 
L 118.076278 83.113046 
L 122.633507 83.184276 
L 128.330044 83.525865 
L 134.02658 84.106072 
L 140.862424 85.061469 
L 147.698268 86.2434 
L 155.673419 87.84084 
L 165.927185 90.137535 
L 180.73818 93.725506 
L 214.917399 102.098813 
L 219.474629 103.156937 
L 219.474629 103.156937 
" style="fill:none;stroke:#d56339;stroke-linecap:square;"/>
   </g>
   <g id="line2d_12">
    <path clip-path="url(#p82c7884343)" d="M 49.717839 129.805379 
L 50.857147 129.632334 
L 51.996454 129.266325 
L 53.135761 128.723962 
L 54.275069 128.02086 
L 56.553683 126.19024 
L 58.832298 123.881426 
L 61.110913 121.188553 
L 63.389527 118.194253 
L 66.807449 113.293305 
L 71.364678 106.304187 
L 81.618444 90.359377 
L 86.175673 83.714269 
L 89.593595 79.039927 
L 93.011517 74.672982 
L 96.429439 70.638325 
L 99.847361 66.951145 
L 103.265283 63.618735 
L 106.683205 60.642027 
L 110.101127 58.016886 
L 113.519049 55.735192 
L 116.936971 53.785754 
L 120.354893 52.155064 
L 123.772815 50.827934 
L 127.190736 49.788015 
L 130.608658 49.018227 
L 134.02658 48.50111 
L 137.444502 48.21911 
L 140.862424 48.154804 
L 144.280346 48.291083 
L 147.698268 48.611291 
L 152.255497 49.296624 
L 156.812727 50.244061 
L 161.369956 51.419502 
L 167.066492 53.161329 
L 172.763029 55.153362 
L 179.598873 57.802957 
L 187.574024 61.155258 
L 197.82779 65.72214 
L 219.474629 75.621774 
L 219.474629 75.621774 
" style="fill:none;stroke:#eeb92e;stroke-linecap:square;"/>
   </g>
   <g id="line2d_13">
    <path clip-path="url(#p82c7884343)" d="M 49.717839 129.879325 
L 61.110913 129.79876 
L 69.086064 129.537978 
L 78.200522 129.00862 
L 88.454288 128.182579 
L 107.822512 126.334505 
L 123.772815 124.906028 
L 136.305195 124.000646 
L 147.698268 123.386198 
L 160.230648 122.945695 
L 172.763029 122.734696 
L 186.434717 122.729552 
L 202.385019 122.95778 
L 219.474629 123.400184 
L 219.474629 123.400184 
" style="fill:none;stroke:#7f3792;stroke-linecap:square;"/>
   </g>
   <g id="line2d_14">
    <defs>
     <path d="M 0 0.75 
C 0.198902 0.75 0.389685 0.670975 0.53033 0.53033 
C 0.670975 0.389685 0.75 0.198902 0.75 0 
C 0.75 -0.198902 0.670975 -0.389685 0.53033 -0.53033 
C 0.389685 -0.670975 0.198902 -0.75 0 -0.75 
C -0.198902 -0.75 -0.389685 -0.670975 -0.53033 -0.53033 
C -0.670975 -0.389685 -0.75 -0.198902 -0.75 0 
C -0.75 0.198902 -0.670975 0.389685 -0.53033 0.53033 
C -0.389685 0.670975 -0.198902 0.75 0 0.75 
z
" id="m1ba710d348" style="stroke:#0370b8;"/>
    </defs>
    <g clip-path="url(#p82c7884343)">
     <use style="fill:#0370b8;stroke:#0370b8;" x="49.717839" xlink:href="#m1ba710d348" y="127.456418"/>
     <use style="fill:#0370b8;stroke:#0370b8;" x="52.329482" xlink:href="#m1ba710d348" y="113.278352"/>
     <use style="fill:#0370b8;stroke:#0370b8;" x="54.941125" xlink:href="#m1ba710d348" y="97.142306"/>
     <use style="fill:#0370b8;stroke:#0370b8;" x="57.552768" xlink:href="#m1ba710d348" y="88.754248"/>
     <use style="fill:#0370b8;stroke:#0370b8;" x="60.164411" xlink:href="#m1ba710d348" y="80.247584"/>
     <use style="fill:#0370b8;stroke:#0370b8;" x="62.776054" xlink:href="#m1ba710d348" y="71.81931"/>
     <use style="fill:#0370b8;stroke:#0370b8;" x="65.387697" xlink:href="#m1ba710d348" y="63.077354"/>
     <use style="fill:#0370b8;stroke:#0370b8;" x="67.99934" xlink:href="#m1ba710d348" y="55.734112"/>
     <use style="fill:#0370b8;stroke:#0370b8;" x="70.610983" xlink:href="#m1ba710d348" y="49.411049"/>
     <use style="fill:#0370b8;stroke:#0370b8;" x="73.222626" xlink:href="#m1ba710d348" y="38.903388"/>
     <use style="fill:#0370b8;stroke:#0370b8;" x="75.834269" xlink:href="#m1ba710d348" y="39.967343"/>
     <use style="fill:#0370b8;stroke:#0370b8;" x="78.445911" xlink:href="#m1ba710d348" y="35.924209"/>
     <use style="fill:#0370b8;stroke:#0370b8;" x="81.057554" xlink:href="#m1ba710d348" y="24.712858"/>
     <use style="fill:#0370b8;stroke:#0370b8;" x="83.669197" xlink:href="#m1ba710d348" y="29.542827"/>
     <use style="fill:#0370b8;stroke:#0370b8;" x="86.28084" xlink:href="#m1ba710d348" y="23.275016"/>
     <use style="fill:#0370b8;stroke:#0370b8;" x="88.892483" xlink:href="#m1ba710d348" y="29.488299"/>
     <use style="fill:#0370b8;stroke:#0370b8;" x="115.008912" xlink:href="#m1ba710d348" y="39.330627"/>
     <use style="fill:#0370b8;stroke:#0370b8;" x="120.232198" xlink:href="#m1ba710d348" y="43.560857"/>
     <use style="fill:#0370b8;stroke:#0370b8;" x="125.455484" xlink:href="#m1ba710d348" y="46.297048"/>
     <use style="fill:#0370b8;stroke:#0370b8;" x="130.67877" xlink:href="#m1ba710d348" y="53.389836"/>
     <use style="fill:#0370b8;stroke:#0370b8;" x="135.902055" xlink:href="#m1ba710d348" y="59.962312"/>
     <use style="fill:#0370b8;stroke:#0370b8;" x="177.688342" xlink:href="#m1ba710d348" y="98.734696"/>
     <use style="fill:#0370b8;stroke:#0370b8;" x="182.911628" xlink:href="#m1ba710d348" y="102.338552"/>
     <use style="fill:#0370b8;stroke:#0370b8;" x="188.134914" xlink:href="#m1ba710d348" y="104.38676"/>
     <use style="fill:#0370b8;stroke:#0370b8;" x="193.358199" xlink:href="#m1ba710d348" y="107.795037"/>
     <use style="fill:#0370b8;stroke:#0370b8;" x="198.581485" xlink:href="#m1ba710d348" y="111.33992"/>
     <use style="fill:#0370b8;stroke:#0370b8;" x="203.804771" xlink:href="#m1ba710d348" y="113.639323"/>
     <use style="fill:#0370b8;stroke:#0370b8;" x="209.028057" xlink:href="#m1ba710d348" y="115.247488"/>
     <use style="fill:#0370b8;stroke:#0370b8;" x="214.251343" xlink:href="#m1ba710d348" y="116.863006"/>
     <use style="fill:#0370b8;stroke:#0370b8;" x="219.474629" xlink:href="#m1ba710d348" y="117.90322"/>
    </g>
   </g>
   <g id="line2d_15">
    <defs>
     <path d="M 0 0.75 
C 0.198902 0.75 0.389685 0.670975 0.53033 0.53033 
C 0.670975 0.389685 0.75 0.198902 0.75 0 
C 0.75 -0.198902 0.670975 -0.389685 0.53033 -0.53033 
C 0.389685 -0.670975 0.198902 -0.75 0 -0.75 
C -0.198902 -0.75 -0.389685 -0.670975 -0.53033 -0.53033 
C -0.670975 -0.389685 -0.75 -0.198902 -0.75 0 
C -0.75 0.198902 -0.670975 0.389685 -0.53033 0.53033 
C -0.389685 0.670975 -0.198902 0.75 0 0.75 
z
" id="mfcbdaba32e" style="stroke:#d56339;"/>
    </defs>
    <g clip-path="url(#p82c7884343)">
     <use style="fill:#d56339;stroke:#d56339;" x="49.717839" xlink:href="#mfcbdaba32e" y="129.694115"/>
     <use style="fill:#d56339;stroke:#d56339;" x="52.329482" xlink:href="#mfcbdaba32e" y="124.803856"/>
     <use style="fill:#d56339;stroke:#d56339;" x="54.941125" xlink:href="#mfcbdaba32e" y="120.229324"/>
     <use style="fill:#d56339;stroke:#d56339;" x="57.552768" xlink:href="#mfcbdaba32e" y="116.126926"/>
     <use style="fill:#d56339;stroke:#d56339;" x="60.164411" xlink:href="#mfcbdaba32e" y="112.242461"/>
     <use style="fill:#d56339;stroke:#d56339;" x="62.776054" xlink:href="#mfcbdaba32e" y="108.308623"/>
     <use style="fill:#d56339;stroke:#d56339;" x="65.387697" xlink:href="#mfcbdaba32e" y="105.693947"/>
     <use style="fill:#d56339;stroke:#d56339;" x="67.99934" xlink:href="#mfcbdaba32e" y="102.567213"/>
     <use style="fill:#d56339;stroke:#d56339;" x="70.610983" xlink:href="#mfcbdaba32e" y="99.787592"/>
     <use style="fill:#d56339;stroke:#d56339;" x="73.222626" xlink:href="#mfcbdaba32e" y="96.901568"/>
     <use style="fill:#d56339;stroke:#d56339;" x="75.834269" xlink:href="#mfcbdaba32e" y="94.423711"/>
     <use style="fill:#d56339;stroke:#d56339;" x="78.445911" xlink:href="#mfcbdaba32e" y="92.261144"/>
     <use style="fill:#d56339;stroke:#d56339;" x="81.057554" xlink:href="#mfcbdaba32e" y="90.052773"/>
     <use style="fill:#d56339;stroke:#d56339;" x="83.669197" xlink:href="#mfcbdaba32e" y="87.797794"/>
     <use style="fill:#d56339;stroke:#d56339;" x="86.28084" xlink:href="#mfcbdaba32e" y="85.965544"/>
     <use style="fill:#d56339;stroke:#d56339;" x="88.892483" xlink:href="#mfcbdaba32e" y="84.418752"/>
     <use style="fill:#d56339;stroke:#d56339;" x="115.008912" xlink:href="#mfcbdaba32e" y="77.773239"/>
     <use style="fill:#d56339;stroke:#d56339;" x="120.232198" xlink:href="#mfcbdaba32e" y="76.929224"/>
     <use style="fill:#d56339;stroke:#d56339;" x="125.455484" xlink:href="#mfcbdaba32e" y="76.380759"/>
     <use style="fill:#d56339;stroke:#d56339;" x="130.67877" xlink:href="#mfcbdaba32e" y="76.948169"/>
     <use style="fill:#d56339;stroke:#d56339;" x="135.902055" xlink:href="#mfcbdaba32e" y="78.443415"/>
     <use style="fill:#d56339;stroke:#d56339;" x="177.688342" xlink:href="#mfcbdaba32e" y="92.465537"/>
     <use style="fill:#d56339;stroke:#d56339;" x="182.911628" xlink:href="#mfcbdaba32e" y="94.569065"/>
     <use style="fill:#d56339;stroke:#d56339;" x="188.134914" xlink:href="#mfcbdaba32e" y="96.537666"/>
     <use style="fill:#d56339;stroke:#d56339;" x="193.358199" xlink:href="#mfcbdaba32e" y="98.549462"/>
     <use style="fill:#d56339;stroke:#d56339;" x="198.581485" xlink:href="#mfcbdaba32e" y="100.429251"/>
     <use style="fill:#d56339;stroke:#d56339;" x="203.804771" xlink:href="#mfcbdaba32e" y="102.253322"/>
     <use style="fill:#d56339;stroke:#d56339;" x="209.028057" xlink:href="#mfcbdaba32e" y="103.810775"/>
     <use style="fill:#d56339;stroke:#d56339;" x="214.251343" xlink:href="#mfcbdaba32e" y="105.774377"/>
     <use style="fill:#d56339;stroke:#d56339;" x="219.474629" xlink:href="#mfcbdaba32e" y="106.989357"/>
    </g>
   </g>
   <g id="line2d_16">
    <defs>
     <path d="M 0 0.75 
C 0.198902 0.75 0.389685 0.670975 0.53033 0.53033 
C 0.670975 0.389685 0.75 0.198902 0.75 0 
C 0.75 -0.198902 0.670975 -0.389685 0.53033 -0.53033 
C 0.389685 -0.670975 0.198902 -0.75 0 -0.75 
C -0.198902 -0.75 -0.389685 -0.670975 -0.53033 -0.53033 
C -0.670975 -0.389685 -0.75 -0.198902 -0.75 0 
C -0.75 0.198902 -0.670975 0.389685 -0.53033 0.53033 
C -0.389685 0.670975 -0.198902 0.75 0 0.75 
z
" id="mdc2ac274e3" style="stroke:#eeb92e;"/>
    </defs>
    <g clip-path="url(#p82c7884343)">
     <use style="fill:#eeb92e;stroke:#eeb92e;" x="49.717839" xlink:href="#mdc2ac274e3" y="129.805379"/>
     <use style="fill:#eeb92e;stroke:#eeb92e;" x="52.329482" xlink:href="#mdc2ac274e3" y="126.855663"/>
     <use style="fill:#eeb92e;stroke:#eeb92e;" x="54.941125" xlink:href="#mdc2ac274e3" y="123.616558"/>
     <use style="fill:#eeb92e;stroke:#eeb92e;" x="57.552768" xlink:href="#mdc2ac274e3" y="120.571211"/>
     <use style="fill:#eeb92e;stroke:#eeb92e;" x="60.164411" xlink:href="#mdc2ac274e3" y="117.396649"/>
     <use style="fill:#eeb92e;stroke:#eeb92e;" x="62.776054" xlink:href="#mdc2ac274e3" y="114.194994"/>
     <use style="fill:#eeb92e;stroke:#eeb92e;" x="65.387697" xlink:href="#mdc2ac274e3" y="114.024076"/>
     <use style="fill:#eeb92e;stroke:#eeb92e;" x="67.99934" xlink:href="#mdc2ac274e3" y="111.068939"/>
     <use style="fill:#eeb92e;stroke:#eeb92e;" x="70.610983" xlink:href="#mdc2ac274e3" y="108.292109"/>
     <use style="fill:#eeb92e;stroke:#eeb92e;" x="73.222626" xlink:href="#mdc2ac274e3" y="104.896139"/>
     <use style="fill:#eeb92e;stroke:#eeb92e;" x="75.834269" xlink:href="#mdc2ac274e3" y="102.035373"/>
     <use style="fill:#eeb92e;stroke:#eeb92e;" x="78.445911" xlink:href="#mdc2ac274e3" y="99.333506"/>
     <use style="fill:#eeb92e;stroke:#eeb92e;" x="81.057554" xlink:href="#mdc2ac274e3" y="96.286037"/>
     <use style="fill:#eeb92e;stroke:#eeb92e;" x="83.669197" xlink:href="#mdc2ac274e3" y="93.538621"/>
     <use style="fill:#eeb92e;stroke:#eeb92e;" x="86.28084" xlink:href="#mdc2ac274e3" y="89.999313"/>
     <use style="fill:#eeb92e;stroke:#eeb92e;" x="88.892483" xlink:href="#mdc2ac274e3" y="87.71299"/>
     <use style="fill:#eeb92e;stroke:#eeb92e;" x="115.008912" xlink:href="#mdc2ac274e3" y="65.101973"/>
     <use style="fill:#eeb92e;stroke:#eeb92e;" x="120.232198" xlink:href="#mdc2ac274e3" y="61.556891"/>
     <use style="fill:#eeb92e;stroke:#eeb92e;" x="125.455484" xlink:href="#mdc2ac274e3" y="58.736647"/>
     <use style="fill:#eeb92e;stroke:#eeb92e;" x="130.67877" xlink:href="#mdc2ac274e3" y="56.256914"/>
     <use style="fill:#eeb92e;stroke:#eeb92e;" x="135.902055" xlink:href="#mdc2ac274e3" y="54.743957"/>
     <use style="fill:#eeb92e;stroke:#eeb92e;" x="177.688342" xlink:href="#mdc2ac274e3" y="57.314759"/>
     <use style="fill:#eeb92e;stroke:#eeb92e;" x="182.911628" xlink:href="#mdc2ac274e3" y="58.704249"/>
     <use style="fill:#eeb92e;stroke:#eeb92e;" x="188.134914" xlink:href="#mdc2ac274e3" y="59.58707"/>
     <use style="fill:#eeb92e;stroke:#eeb92e;" x="193.358199" xlink:href="#mdc2ac274e3" y="61.930189"/>
     <use style="fill:#eeb92e;stroke:#eeb92e;" x="198.581485" xlink:href="#mdc2ac274e3" y="64.936074"/>
     <use style="fill:#eeb92e;stroke:#eeb92e;" x="203.804771" xlink:href="#mdc2ac274e3" y="67.632461"/>
     <use style="fill:#eeb92e;stroke:#eeb92e;" x="209.028057" xlink:href="#mdc2ac274e3" y="69.557579"/>
     <use style="fill:#eeb92e;stroke:#eeb92e;" x="214.251343" xlink:href="#mdc2ac274e3" y="72.182107"/>
     <use style="fill:#eeb92e;stroke:#eeb92e;" x="219.474629" xlink:href="#mdc2ac274e3" y="73.800627"/>
    </g>
   </g>
   <g id="line2d_17">
    <defs>
     <path d="M 0 0.75 
C 0.198902 0.75 0.389685 0.670975 0.53033 0.53033 
C 0.670975 0.389685 0.75 0.198902 0.75 0 
C 0.75 -0.198902 0.670975 -0.389685 0.53033 -0.53033 
C 0.389685 -0.670975 0.198902 -0.75 0 -0.75 
C -0.198902 -0.75 -0.389685 -0.670975 -0.53033 -0.53033 
C -0.670975 -0.389685 -0.75 -0.198902 -0.75 0 
C -0.75 0.198902 -0.670975 0.389685 -0.53033 0.53033 
C -0.389685 0.670975 -0.198902 0.75 0 0.75 
z
" id="md159ff0a68" style="stroke:#7f3792;"/>
    </defs>
    <g clip-path="url(#p82c7884343)">
     <use style="fill:#7f3792;stroke:#7f3792;" x="49.717839" xlink:href="#md159ff0a68" y="129.879325"/>
     <use style="fill:#7f3792;stroke:#7f3792;" x="52.329482" xlink:href="#md159ff0a68" y="129.834874"/>
     <use style="fill:#7f3792;stroke:#7f3792;" x="54.941125" xlink:href="#md159ff0a68" y="129.745608"/>
     <use style="fill:#7f3792;stroke:#7f3792;" x="57.552768" xlink:href="#md159ff0a68" y="129.696193"/>
     <use style="fill:#7f3792;stroke:#7f3792;" x="60.164411" xlink:href="#md159ff0a68" y="129.643767"/>
     <use style="fill:#7f3792;stroke:#7f3792;" x="62.776054" xlink:href="#md159ff0a68" y="129.583061"/>
     <use style="fill:#7f3792;stroke:#7f3792;" x="65.387697" xlink:href="#md159ff0a68" y="129.442032"/>
     <use style="fill:#7f3792;stroke:#7f3792;" x="67.99934" xlink:href="#md159ff0a68" y="129.388465"/>
     <use style="fill:#7f3792;stroke:#7f3792;" x="70.610983" xlink:href="#md159ff0a68" y="129.348719"/>
     <use style="fill:#7f3792;stroke:#7f3792;" x="73.222626" xlink:href="#md159ff0a68" y="129.243228"/>
     <use style="fill:#7f3792;stroke:#7f3792;" x="75.834269" xlink:href="#md159ff0a68" y="129.21486"/>
     <use style="fill:#7f3792;stroke:#7f3792;" x="78.445911" xlink:href="#md159ff0a68" y="129.067027"/>
     <use style="fill:#7f3792;stroke:#7f3792;" x="81.057554" xlink:href="#md159ff0a68" y="129.076148"/>
     <use style="fill:#7f3792;stroke:#7f3792;" x="83.669197" xlink:href="#md159ff0a68" y="128.916907"/>
     <use style="fill:#7f3792;stroke:#7f3792;" x="86.28084" xlink:href="#md159ff0a68" y="128.698278"/>
     <use style="fill:#7f3792;stroke:#7f3792;" x="88.892483" xlink:href="#md159ff0a68" y="128.574286"/>
     <use style="fill:#7f3792;stroke:#7f3792;" x="115.008912" xlink:href="#md159ff0a68" y="127.496121"/>
     <use style="fill:#7f3792;stroke:#7f3792;" x="120.232198" xlink:href="#md159ff0a68" y="127.028956"/>
     <use style="fill:#7f3792;stroke:#7f3792;" x="125.455484" xlink:href="#md159ff0a68" y="126.480833"/>
     <use style="fill:#7f3792;stroke:#7f3792;" x="130.67877" xlink:href="#md159ff0a68" y="126.161787"/>
     <use style="fill:#7f3792;stroke:#7f3792;" x="135.902055" xlink:href="#md159ff0a68" y="125.995366"/>
     <use style="fill:#7f3792;stroke:#7f3792;" x="177.688342" xlink:href="#md159ff0a68" y="123.518454"/>
     <use style="fill:#7f3792;stroke:#7f3792;" x="182.911628" xlink:href="#md159ff0a68" y="123.196893"/>
     <use style="fill:#7f3792;stroke:#7f3792;" x="188.134914" xlink:href="#md159ff0a68" y="122.933653"/>
     <use style="fill:#7f3792;stroke:#7f3792;" x="193.358199" xlink:href="#md159ff0a68" y="122.478564"/>
     <use style="fill:#7f3792;stroke:#7f3792;" x="198.581485" xlink:href="#md159ff0a68" y="122.265612"/>
     <use style="fill:#7f3792;stroke:#7f3792;" x="203.804771" xlink:href="#md159ff0a68" y="122.049523"/>
     <use style="fill:#7f3792;stroke:#7f3792;" x="209.028057" xlink:href="#md159ff0a68" y="121.740415"/>
     <use style="fill:#7f3792;stroke:#7f3792;" x="214.251343" xlink:href="#md159ff0a68" y="121.700274"/>
     <use style="fill:#7f3792;stroke:#7f3792;" x="219.474629" xlink:href="#md159ff0a68" y="121.647647"/>
    </g>
   </g>
   <g id="patch_3">
    <path d="M 41.23 135.832068 
L 41.23 7.2 
" style="fill:none;stroke:#000000;stroke-linecap:square;stroke-linejoin:miter;stroke-width:0.8;"/>
   </g>
   <g id="patch_4">
    <path d="M 227.962468 135.832068 
L 227.962468 7.2 
" style="fill:none;stroke:#000000;stroke-linecap:square;stroke-linejoin:miter;stroke-width:0.8;"/>
   </g>
   <g id="patch_5">
    <path d="M 41.23 135.832068 
L 227.962468 135.832068 
" style="fill:none;stroke:#000000;stroke-linecap:square;stroke-linejoin:miter;stroke-width:0.8;"/>
   </g>
   <g id="patch_6">
    <path d="M 41.23 7.2 
L 227.962468 7.2 
" style="fill:none;stroke:#000000;stroke-linecap:square;stroke-linejoin:miter;stroke-width:0.8;"/>
   </g>
   <g id="legend_1">
    <g id="patch_7">
     <path d="M 168.183718 60.57 
L 222.362468 60.57 
Q 223.962468 60.57 223.962468 58.97 
L 223.962468 12.8 
Q 223.962468 11.2 222.362468 11.2 
L 168.183718 11.2 
Q 166.583718 11.2 166.583718 12.8 
L 166.583718 58.97 
Q 166.583718 60.57 168.183718 60.57 
z
" style="fill:#ffffff;opacity:0.8;stroke:#cccccc;stroke-linejoin:miter;"/>
    </g>
    <g id="LineCollection_5">
     <path d="M 177.783718 21.67875 
L 177.783718 13.67875 
" style="fill:none;stroke:#0370b8;"/>
    </g>
    <g id="line2d_18"/>
    <g id="line2d_19">
     <g>
      <use style="fill:#0370b8;stroke:#0370b8;" x="177.783718" xlink:href="#m1ba710d348" y="17.67875"/>
     </g>
    </g>
    <g id="text_12">
     <!-- DFF -->
     <defs>
      <path d="M 19.671875 64.796875 
L 19.671875 8.109375 
L 31.59375 8.109375 
Q 46.6875 8.109375 53.6875 14.9375 
Q 60.6875 21.78125 60.6875 36.53125 
Q 60.6875 51.171875 53.6875 57.984375 
Q 46.6875 64.796875 31.59375 64.796875 
z
M 9.8125 72.90625 
L 30.078125 72.90625 
Q 51.265625 72.90625 61.171875 64.09375 
Q 71.09375 55.28125 71.09375 36.53125 
Q 71.09375 17.671875 61.125 8.828125 
Q 51.171875 0 30.078125 0 
L 9.8125 0 
z
" id="DejaVuSans-68"/>
      <path d="M 9.8125 72.90625 
L 51.703125 72.90625 
L 51.703125 64.59375 
L 19.671875 64.59375 
L 19.671875 43.109375 
L 48.578125 43.109375 
L 48.578125 34.8125 
L 19.671875 34.8125 
L 19.671875 0 
L 9.8125 0 
z
" id="DejaVuSans-70"/>
     </defs>
     <g transform="translate(192.183718 20.47875)scale(0.08 -0.08)">
      <use xlink:href="#DejaVuSans-68"/>
      <use x="77.001953" xlink:href="#DejaVuSans-70"/>
      <use x="134.521484" xlink:href="#DejaVuSans-70"/>
     </g>
    </g>
    <g id="LineCollection_6">
     <path d="M 177.783718 33.42125 
L 177.783718 25.42125 
" style="fill:none;stroke:#d56339;"/>
    </g>
    <g id="line2d_20"/>
    <g id="line2d_21">
     <g>
      <use style="fill:#d56339;stroke:#d56339;" x="177.783718" xlink:href="#mfcbdaba32e" y="29.42125"/>
     </g>
    </g>
    <g id="text_13">
     <!-- HMFCA -->
     <defs>
      <path d="M 9.8125 72.90625 
L 19.671875 72.90625 
L 19.671875 43.015625 
L 55.515625 43.015625 
L 55.515625 72.90625 
L 65.375 72.90625 
L 65.375 0 
L 55.515625 0 
L 55.515625 34.71875 
L 19.671875 34.71875 
L 19.671875 0 
L 9.8125 0 
z
" id="DejaVuSans-72"/>
      <path d="M 34.1875 63.1875 
L 20.796875 26.90625 
L 47.609375 26.90625 
z
M 28.609375 72.90625 
L 39.796875 72.90625 
L 67.578125 0 
L 57.328125 0 
L 50.6875 18.703125 
L 17.828125 18.703125 
L 11.1875 0 
L 0.78125 0 
z
" id="DejaVuSans-65"/>
     </defs>
     <g transform="translate(192.183718 32.22125)scale(0.08 -0.08)">
      <use xlink:href="#DejaVuSans-72"/>
      <use x="75.195312" xlink:href="#DejaVuSans-77"/>
      <use x="161.474609" xlink:href="#DejaVuSans-70"/>
      <use x="218.994141" xlink:href="#DejaVuSans-67"/>
      <use x="288.818359" xlink:href="#DejaVuSans-65"/>
     </g>
    </g>
    <g id="LineCollection_7">
     <path d="M 177.783718 45.16375 
L 177.783718 37.16375 
" style="fill:none;stroke:#eeb92e;"/>
    </g>
    <g id="line2d_22"/>
    <g id="line2d_23">
     <g>
      <use style="fill:#eeb92e;stroke:#eeb92e;" x="177.783718" xlink:href="#mdc2ac274e3" y="41.16375"/>
     </g>
    </g>
    <g id="text_14">
     <!-- FFCA -->
     <g transform="translate(192.183718 43.96375)scale(0.08 -0.08)">
      <use xlink:href="#DejaVuSans-70"/>
      <use x="57.519531" xlink:href="#DejaVuSans-70"/>
      <use x="115.039062" xlink:href="#DejaVuSans-67"/>
      <use x="184.863281" xlink:href="#DejaVuSans-65"/>
     </g>
    </g>
    <g id="LineCollection_8">
     <path d="M 177.783718 56.90625 
L 177.783718 48.90625 
" style="fill:none;stroke:#7f3792;"/>
    </g>
    <g id="line2d_24"/>
    <g id="line2d_25">
     <g>
      <use style="fill:#7f3792;stroke:#7f3792;" x="177.783718" xlink:href="#md159ff0a68" y="52.90625"/>
     </g>
    </g>
    <g id="text_15">
     <!-- FDCA -->
     <g transform="translate(192.183718 55.70625)scale(0.08 -0.08)">
      <use xlink:href="#DejaVuSans-70"/>
      <use x="57.519531" xlink:href="#DejaVuSans-68"/>
      <use x="134.521484" xlink:href="#DejaVuSans-67"/>
      <use x="204.345703" xlink:href="#DejaVuSans-65"/>
     </g>
    </g>
   </g>
  </g>
 </g>
 <defs>
  <clipPath id="p82c7884343">
   <rect height="128.632068" width="186.732468" x="41.23" y="7.2"/>
  </clipPath>
 </defs>
</svg>
