<?xml version="1.0" encoding="utf-8" standalone="no"?>
<!DOCTYPE svg PUBLIC "-//W3C//DTD SVG 1.1//EN"
  "http://www.w3.org/Graphics/SVG/1.1/DTD/svg11.dtd">
<!-- Created with matplotlib (https://matplotlib.org/) -->
<svg height="233.050711pt" version="1.1" viewBox="0 0 332.48086 233.050711" width="332.48086pt" xmlns="http://www.w3.org/2000/svg" xmlns:xlink="http://www.w3.org/1999/xlink">
 <defs>
  <style type="text/css">
*{stroke-linecap:butt;stroke-linejoin:round;}
  </style>
 </defs>
 <g id="figure_1">
  <g id="patch_1">
   <path d="M 0 233.050711 
L 332.48086 233.050711 
L 332.48086 0 
L 0 0 
z
" style="fill:#ffffff;"/>
  </g>
  <g id="axes_1">
   <g id="patch_2">
    <path d="M 42.839531 208.204774 
L 321.839531 208.204774 
L 321.839531 12.508774 
L 42.839531 12.508774 
z
" style="fill:#ffffff;"/>
   </g>
   <g id="matplotlib.axis_1">
    <g id="xtick_1">
     <g id="line2d_1">
      <defs>
       <path d="M 0 0 
L 0 3.5 
" id="m1eecce1623" style="stroke:#000000;stroke-width:0.8;"/>
      </defs>
      <g>
       <use style="stroke:#000000;stroke-width:0.8;" x="177.966555" xlink:href="#m1eecce1623" y="208.204774"/>
      </g>
     </g>
     <g id="text_1">
      <!-- $\mathdefault{10^{-2}}$ -->
      <defs>
       <path d="M 12.40625 8.296875 
L 28.515625 8.296875 
L 28.515625 63.921875 
L 10.984375 60.40625 
L 10.984375 69.390625 
L 28.421875 72.90625 
L 38.28125 72.90625 
L 38.28125 8.296875 
L 54.390625 8.296875 
L 54.390625 0 
L 12.40625 0 
z
" id="DejaVuSans-49"/>
       <path d="M 31.78125 66.40625 
Q 24.171875 66.40625 20.328125 58.90625 
Q 16.5 51.421875 16.5 36.375 
Q 16.5 21.390625 20.328125 13.890625 
Q 24.171875 6.390625 31.78125 6.390625 
Q 39.453125 6.390625 43.28125 13.890625 
Q 47.125 21.390625 47.125 36.375 
Q 47.125 51.421875 43.28125 58.90625 
Q 39.453125 66.40625 31.78125 66.40625 
z
M 31.78125 74.21875 
Q 44.046875 74.21875 50.515625 64.515625 
Q 56.984375 54.828125 56.984375 36.375 
Q 56.984375 17.96875 50.515625 8.265625 
Q 44.046875 -1.421875 31.78125 -1.421875 
Q 19.53125 -1.421875 13.0625 8.265625 
Q 6.59375 17.96875 6.59375 36.375 
Q 6.59375 54.828125 13.0625 64.515625 
Q 19.53125 74.21875 31.78125 74.21875 
z
" id="DejaVuSans-48"/>
       <path d="M 10.59375 35.5 
L 73.1875 35.5 
L 73.1875 27.203125 
L 10.59375 27.203125 
z
" id="DejaVuSans-8722"/>
       <path d="M 19.1875 8.296875 
L 53.609375 8.296875 
L 53.609375 0 
L 7.328125 0 
L 7.328125 8.296875 
Q 12.9375 14.109375 22.625 23.890625 
Q 32.328125 33.6875 34.8125 36.53125 
Q 39.546875 41.84375 41.421875 45.53125 
Q 43.3125 49.21875 43.3125 52.78125 
Q 43.3125 58.59375 39.234375 62.25 
Q 35.15625 65.921875 28.609375 65.921875 
Q 23.96875 65.921875 18.8125 64.3125 
Q 13.671875 62.703125 7.8125 59.421875 
L 7.8125 69.390625 
Q 13.765625 71.78125 18.9375 73 
Q 24.125 74.21875 28.421875 74.21875 
Q 39.75 74.21875 46.484375 68.546875 
Q 53.21875 62.890625 53.21875 53.421875 
Q 53.21875 48.921875 51.53125 44.890625 
Q 49.859375 40.875 45.40625 35.40625 
Q 44.1875 33.984375 37.640625 27.21875 
Q 31.109375 20.453125 19.1875 8.296875 
z
" id="DejaVuSans-50"/>
      </defs>
      <g transform="translate(165.041555 223.563055)scale(0.11 -0.11)">
       <use transform="translate(0 0.765625)" xlink:href="#DejaVuSans-49"/>
       <use transform="translate(63.623047 0.765625)" xlink:href="#DejaVuSans-48"/>
       <use transform="translate(128.203125 39.046875)scale(0.7)" xlink:href="#DejaVuSans-8722"/>
       <use transform="translate(186.855469 39.046875)scale(0.7)" xlink:href="#DejaVuSans-50"/>
      </g>
     </g>
    </g>
    <g id="xtick_2">
     <g id="line2d_2">
      <defs>
       <path d="M 0 0 
L 0 2 
" id="mc8434dfc9a" style="stroke:#000000;stroke-width:0.6;"/>
      </defs>
      <g>
       <use style="stroke:#000000;stroke-width:0.6;" x="75.629381" xlink:href="#mc8434dfc9a" y="208.204774"/>
      </g>
     </g>
    </g>
    <g id="xtick_3">
     <g id="line2d_3">
      <g>
       <use style="stroke:#000000;stroke-width:0.6;" x="101.411148" xlink:href="#mc8434dfc9a" y="208.204774"/>
      </g>
     </g>
    </g>
    <g id="xtick_4">
     <g id="line2d_4">
      <g>
       <use style="stroke:#000000;stroke-width:0.6;" x="119.703603" xlink:href="#mc8434dfc9a" y="208.204774"/>
      </g>
     </g>
    </g>
    <g id="xtick_5">
     <g id="line2d_5">
      <g>
       <use style="stroke:#000000;stroke-width:0.6;" x="133.892333" xlink:href="#mc8434dfc9a" y="208.204774"/>
      </g>
     </g>
    </g>
    <g id="xtick_6">
     <g id="line2d_6">
      <g>
       <use style="stroke:#000000;stroke-width:0.6;" x="145.48537" xlink:href="#mc8434dfc9a" y="208.204774"/>
      </g>
     </g>
    </g>
    <g id="xtick_7">
     <g id="line2d_7">
      <g>
       <use style="stroke:#000000;stroke-width:0.6;" x="155.287143" xlink:href="#mc8434dfc9a" y="208.204774"/>
      </g>
     </g>
    </g>
    <g id="xtick_8">
     <g id="line2d_8">
      <g>
       <use style="stroke:#000000;stroke-width:0.6;" x="163.777825" xlink:href="#mc8434dfc9a" y="208.204774"/>
      </g>
     </g>
    </g>
    <g id="xtick_9">
     <g id="line2d_9">
      <g>
       <use style="stroke:#000000;stroke-width:0.6;" x="171.267137" xlink:href="#mc8434dfc9a" y="208.204774"/>
      </g>
     </g>
    </g>
    <g id="xtick_10">
     <g id="line2d_10">
      <g>
       <use style="stroke:#000000;stroke-width:0.6;" x="222.040777" xlink:href="#mc8434dfc9a" y="208.204774"/>
      </g>
     </g>
    </g>
    <g id="xtick_11">
     <g id="line2d_11">
      <g>
       <use style="stroke:#000000;stroke-width:0.6;" x="247.822544" xlink:href="#mc8434dfc9a" y="208.204774"/>
      </g>
     </g>
    </g>
    <g id="xtick_12">
     <g id="line2d_12">
      <g>
       <use style="stroke:#000000;stroke-width:0.6;" x="266.114999" xlink:href="#mc8434dfc9a" y="208.204774"/>
      </g>
     </g>
    </g>
    <g id="xtick_13">
     <g id="line2d_13">
      <g>
       <use style="stroke:#000000;stroke-width:0.6;" x="280.303729" xlink:href="#mc8434dfc9a" y="208.204774"/>
      </g>
     </g>
    </g>
    <g id="xtick_14">
     <g id="line2d_14">
      <g>
       <use style="stroke:#000000;stroke-width:0.6;" x="291.896766" xlink:href="#mc8434dfc9a" y="208.204774"/>
      </g>
     </g>
    </g>
    <g id="xtick_15">
     <g id="line2d_15">
      <g>
       <use style="stroke:#000000;stroke-width:0.6;" x="301.698538" xlink:href="#mc8434dfc9a" y="208.204774"/>
      </g>
     </g>
    </g>
    <g id="xtick_16">
     <g id="line2d_16">
      <g>
       <use style="stroke:#000000;stroke-width:0.6;" x="310.18922" xlink:href="#mc8434dfc9a" y="208.204774"/>
      </g>
     </g>
    </g>
    <g id="xtick_17">
     <g id="line2d_17">
      <g>
       <use style="stroke:#000000;stroke-width:0.6;" x="317.678532" xlink:href="#mc8434dfc9a" y="208.204774"/>
      </g>
     </g>
    </g>
   </g>
   <g id="matplotlib.axis_2">
    <g id="ytick_1">
     <g id="line2d_18">
      <defs>
       <path d="M 0 0 
L -3.5 0 
" id="m50d5ca1eec" style="stroke:#000000;stroke-width:0.8;"/>
      </defs>
      <g>
       <use style="stroke:#000000;stroke-width:0.8;" x="42.839531" xlink:href="#m50d5ca1eec" y="21.404047"/>
      </g>
     </g>
     <g id="text_2">
      <!-- k11 -->
      <defs>
       <path d="M 9.078125 75.984375 
L 18.109375 75.984375 
L 18.109375 31.109375 
L 44.921875 54.6875 
L 56.390625 54.6875 
L 27.390625 29.109375 
L 57.625 0 
L 45.90625 0 
L 18.109375 26.703125 
L 18.109375 0 
L 9.078125 0 
z
" id="DejaVuSans-107"/>
      </defs>
      <g transform="translate(15.472344 25.583187)scale(0.11 -0.11)">
       <use xlink:href="#DejaVuSans-107"/>
       <use x="57.910156" xlink:href="#DejaVuSans-49"/>
       <use x="121.533203" xlink:href="#DejaVuSans-49"/>
      </g>
     </g>
    </g>
    <g id="ytick_2">
     <g id="line2d_19">
      <g>
       <use style="stroke:#000000;stroke-width:0.8;" x="42.839531" xlink:href="#m50d5ca1eec" y="39.194592"/>
      </g>
     </g>
     <g id="text_3">
      <!-- k12 -->
      <g transform="translate(15.472344 43.373733)scale(0.11 -0.11)">
       <use xlink:href="#DejaVuSans-107"/>
       <use x="57.910156" xlink:href="#DejaVuSans-49"/>
       <use x="121.533203" xlink:href="#DejaVuSans-50"/>
      </g>
     </g>
    </g>
    <g id="ytick_3">
     <g id="line2d_20">
      <g>
       <use style="stroke:#000000;stroke-width:0.8;" x="42.839531" xlink:href="#m50d5ca1eec" y="56.985137"/>
      </g>
     </g>
     <g id="text_4">
      <!-- k21 -->
      <g transform="translate(15.472344 61.164278)scale(0.11 -0.11)">
       <use xlink:href="#DejaVuSans-107"/>
       <use x="57.910156" xlink:href="#DejaVuSans-50"/>
       <use x="121.533203" xlink:href="#DejaVuSans-49"/>
      </g>
     </g>
    </g>
    <g id="ytick_4">
     <g id="line2d_21">
      <g>
       <use style="stroke:#000000;stroke-width:0.8;" x="42.839531" xlink:href="#m50d5ca1eec" y="74.775683"/>
      </g>
     </g>
     <g id="text_5">
      <!-- k22 -->
      <g transform="translate(15.472344 78.954824)scale(0.11 -0.11)">
       <use xlink:href="#DejaVuSans-107"/>
       <use x="57.910156" xlink:href="#DejaVuSans-50"/>
       <use x="121.533203" xlink:href="#DejaVuSans-50"/>
      </g>
     </g>
    </g>
    <g id="ytick_5">
     <g id="line2d_22">
      <g>
       <use style="stroke:#000000;stroke-width:0.8;" x="42.839531" xlink:href="#m50d5ca1eec" y="92.566228"/>
      </g>
     </g>
     <g id="text_6">
      <!-- k3 -->
      <defs>
       <path d="M 40.578125 39.3125 
Q 47.65625 37.796875 51.625 33 
Q 55.609375 28.21875 55.609375 21.1875 
Q 55.609375 10.40625 48.1875 4.484375 
Q 40.765625 -1.421875 27.09375 -1.421875 
Q 22.515625 -1.421875 17.65625 -0.515625 
Q 12.796875 0.390625 7.625 2.203125 
L 7.625 11.71875 
Q 11.71875 9.328125 16.59375 8.109375 
Q 21.484375 6.890625 26.8125 6.890625 
Q 36.078125 6.890625 40.9375 10.546875 
Q 45.796875 14.203125 45.796875 21.1875 
Q 45.796875 27.640625 41.28125 31.265625 
Q 36.765625 34.90625 28.71875 34.90625 
L 20.21875 34.90625 
L 20.21875 43.015625 
L 29.109375 43.015625 
Q 36.375 43.015625 40.234375 45.921875 
Q 44.09375 48.828125 44.09375 54.296875 
Q 44.09375 59.90625 40.109375 62.90625 
Q 36.140625 65.921875 28.71875 65.921875 
Q 24.65625 65.921875 20.015625 65.03125 
Q 15.375 64.15625 9.8125 62.3125 
L 9.8125 71.09375 
Q 15.4375 72.65625 20.34375 73.4375 
Q 25.25 74.21875 29.59375 74.21875 
Q 40.828125 74.21875 47.359375 69.109375 
Q 53.90625 64.015625 53.90625 55.328125 
Q 53.90625 49.265625 50.4375 45.09375 
Q 46.96875 40.921875 40.578125 39.3125 
z
" id="DejaVuSans-51"/>
      </defs>
      <g transform="translate(22.471094 96.745369)scale(0.11 -0.11)">
       <use xlink:href="#DejaVuSans-107"/>
       <use x="57.910156" xlink:href="#DejaVuSans-51"/>
      </g>
     </g>
    </g>
    <g id="ytick_6">
     <g id="line2d_23">
      <g>
       <use style="stroke:#000000;stroke-width:0.8;" x="42.839531" xlink:href="#m50d5ca1eec" y="110.356774"/>
      </g>
     </g>
     <g id="text_7">
      <!-- kH1 -->
      <defs>
       <path d="M 9.8125 72.90625 
L 19.671875 72.90625 
L 19.671875 43.015625 
L 55.515625 43.015625 
L 55.515625 72.90625 
L 65.375 72.90625 
L 65.375 0 
L 55.515625 0 
L 55.515625 34.71875 
L 19.671875 34.71875 
L 19.671875 0 
L 9.8125 0 
z
" id="DejaVuSans-72"/>
      </defs>
      <g transform="translate(14.19875 114.535914)scale(0.11 -0.11)">
       <use xlink:href="#DejaVuSans-107"/>
       <use x="57.910156" xlink:href="#DejaVuSans-72"/>
       <use x="133.105469" xlink:href="#DejaVuSans-49"/>
      </g>
     </g>
    </g>
    <g id="ytick_7">
     <g id="line2d_24">
      <g>
       <use style="stroke:#000000;stroke-width:0.8;" x="42.839531" xlink:href="#m50d5ca1eec" y="128.147319"/>
      </g>
     </g>
     <g id="text_8">
      <!-- kH21 -->
      <g transform="translate(7.2 132.32646)scale(0.11 -0.11)">
       <use xlink:href="#DejaVuSans-107"/>
       <use x="57.910156" xlink:href="#DejaVuSans-72"/>
       <use x="133.105469" xlink:href="#DejaVuSans-50"/>
       <use x="196.728516" xlink:href="#DejaVuSans-49"/>
      </g>
     </g>
    </g>
    <g id="ytick_8">
     <g id="line2d_25">
      <g>
       <use style="stroke:#000000;stroke-width:0.8;" x="42.839531" xlink:href="#m50d5ca1eec" y="145.937865"/>
      </g>
     </g>
     <g id="text_9">
      <!-- kH22 -->
      <g transform="translate(7.2 150.117005)scale(0.11 -0.11)">
       <use xlink:href="#DejaVuSans-107"/>
       <use x="57.910156" xlink:href="#DejaVuSans-72"/>
       <use x="133.105469" xlink:href="#DejaVuSans-50"/>
       <use x="196.728516" xlink:href="#DejaVuSans-50"/>
      </g>
     </g>
    </g>
    <g id="ytick_9">
     <g id="line2d_26">
      <g>
       <use style="stroke:#000000;stroke-width:0.8;" x="42.839531" xlink:href="#m50d5ca1eec" y="163.72841"/>
      </g>
     </g>
     <g id="text_10">
      <!-- kH3 -->
      <g transform="translate(14.19875 167.907551)scale(0.11 -0.11)">
       <use xlink:href="#DejaVuSans-107"/>
       <use x="57.910156" xlink:href="#DejaVuSans-72"/>
       <use x="133.105469" xlink:href="#DejaVuSans-51"/>
      </g>
     </g>
    </g>
    <g id="ytick_10">
     <g id="line2d_27">
      <g>
       <use style="stroke:#000000;stroke-width:0.8;" x="42.839531" xlink:href="#m50d5ca1eec" y="181.518956"/>
      </g>
     </g>
     <g id="text_11">
      <!-- kH4 -->
      <defs>
       <path d="M 37.796875 64.3125 
L 12.890625 25.390625 
L 37.796875 25.390625 
z
M 35.203125 72.90625 
L 47.609375 72.90625 
L 47.609375 25.390625 
L 58.015625 25.390625 
L 58.015625 17.1875 
L 47.609375 17.1875 
L 47.609375 0 
L 37.796875 0 
L 37.796875 17.1875 
L 4.890625 17.1875 
L 4.890625 26.703125 
z
" id="DejaVuSans-52"/>
      </defs>
      <g transform="translate(14.19875 185.698096)scale(0.11 -0.11)">
       <use xlink:href="#DejaVuSans-107"/>
       <use x="57.910156" xlink:href="#DejaVuSans-72"/>
       <use x="133.105469" xlink:href="#DejaVuSans-52"/>
      </g>
     </g>
    </g>
    <g id="ytick_11">
     <g id="line2d_28">
      <g>
       <use style="stroke:#000000;stroke-width:0.8;" x="42.839531" xlink:href="#m50d5ca1eec" y="199.309501"/>
      </g>
     </g>
     <g id="text_12">
      <!-- kHx -->
      <defs>
       <path d="M 54.890625 54.6875 
L 35.109375 28.078125 
L 55.90625 0 
L 45.3125 0 
L 29.390625 21.484375 
L 13.484375 0 
L 2.875 0 
L 24.125 28.609375 
L 4.6875 54.6875 
L 15.28125 54.6875 
L 29.78125 35.203125 
L 44.28125 54.6875 
z
" id="DejaVuSans-120"/>
      </defs>
      <g transform="translate(14.686875 203.488642)scale(0.11 -0.11)">
       <use xlink:href="#DejaVuSans-107"/>
       <use x="57.910156" xlink:href="#DejaVuSans-72"/>
       <use x="133.105469" xlink:href="#DejaVuSans-120"/>
      </g>
     </g>
    </g>
   </g>
   <g id="LineCollection_1">
    <path clip-path="url(#p30d8846611)" d="M 138.189368 21.404047 
L 142.649405 21.404047 
" style="fill:none;stroke:#0370b8;stroke-width:1.5;"/>
    <path clip-path="url(#p30d8846611)" d="M 67.593352 39.194592 
L 71.268739 39.194592 
" style="fill:none;stroke:#0370b8;stroke-width:1.5;"/>
    <path clip-path="url(#p30d8846611)" d="M 293.533813 56.985137 
L 300.058246 56.985137 
" style="fill:none;stroke:#0370b8;stroke-width:1.5;"/>
    <path clip-path="url(#p30d8846611)" d="M 257.631469 74.775683 
L 267.796797 74.775683 
" style="fill:none;stroke:#0370b8;stroke-width:1.5;"/>
    <path clip-path="url(#p30d8846611)" d="M 154.469593 92.566228 
L 161.355331 92.566228 
" style="fill:none;stroke:#0370b8;stroke-width:1.5;"/>
    <path clip-path="url(#p30d8846611)" d="M 247.385963 110.356774 
L 248.930217 110.356774 
" style="fill:none;stroke:#0370b8;stroke-width:1.5;"/>
    <path clip-path="url(#p30d8846611)" d="M 261.054477 128.147319 
L 280.454775 128.147319 
" style="fill:none;stroke:#0370b8;stroke-width:1.5;"/>
    <path clip-path="url(#p30d8846611)" d="M 282.026811 163.72841 
L 289.42358 163.72841 
" style="fill:none;stroke:#0370b8;stroke-width:1.5;"/>
    <path clip-path="url(#p30d8846611)" d="M 298.750685 181.518956 
L 309.157713 181.518956 
" style="fill:none;stroke:#0370b8;stroke-width:1.5;"/>
    <path clip-path="url(#p30d8846611)" d="M 55.521349 199.309501 
L 75.568215 199.309501 
" style="fill:none;stroke:#0370b8;stroke-width:1.5;"/>
   </g>
   <g id="line2d_29">
    <defs>
     <path d="M 0 3 
L 0 -3 
" id="m060f34ddcf" style="stroke:#0370b8;"/>
    </defs>
    <g clip-path="url(#p30d8846611)">
     <use style="fill:#0370b8;stroke:#0370b8;" x="140.458483" xlink:href="#m060f34ddcf" y="21.404047"/>
     <use style="fill:#0370b8;stroke:#0370b8;" x="69.457597" xlink:href="#m060f34ddcf" y="39.194592"/>
     <use style="fill:#0370b8;stroke:#0370b8;" x="296.879676" xlink:href="#m060f34ddcf" y="56.985137"/>
     <use style="fill:#0370b8;stroke:#0370b8;" x="262.917056" xlink:href="#m060f34ddcf" y="74.775683"/>
     <use style="fill:#0370b8;stroke:#0370b8;" x="158.005624" xlink:href="#m060f34ddcf" y="92.566228"/>
     <use style="fill:#0370b8;stroke:#0370b8;" x="248.162778" xlink:href="#m060f34ddcf" y="110.356774"/>
     <use style="fill:#0370b8;stroke:#0370b8;" x="271.491665" xlink:href="#m060f34ddcf" y="128.147319"/>
     <use style="fill:#0370b8;stroke:#0370b8;" x="285.832691" xlink:href="#m060f34ddcf" y="163.72841"/>
     <use style="fill:#0370b8;stroke:#0370b8;" x="304.166876" xlink:href="#m060f34ddcf" y="181.518956"/>
     <use style="fill:#0370b8;stroke:#0370b8;" x="66.331562" xlink:href="#m060f34ddcf" y="199.309501"/>
    </g>
   </g>
   <g id="line2d_30"/>
   <g id="patch_3">
    <path d="M 42.839531 208.204774 
L 42.839531 12.508774 
" style="fill:none;stroke:#000000;stroke-linecap:square;stroke-linejoin:miter;stroke-width:0.8;"/>
   </g>
   <g id="patch_4">
    <path d="M 321.839531 208.204774 
L 321.839531 12.508774 
" style="fill:none;stroke:#000000;stroke-linecap:square;stroke-linejoin:miter;stroke-width:0.8;"/>
   </g>
   <g id="patch_5">
    <path d="M 42.839531 208.204774 
L 321.839531 208.204774 
" style="fill:none;stroke:#000000;stroke-linecap:square;stroke-linejoin:miter;stroke-width:0.8;"/>
   </g>
   <g id="patch_6">
    <path d="M 42.839531 12.508774 
L 321.839531 12.508774 
" style="fill:none;stroke:#000000;stroke-linecap:square;stroke-linejoin:miter;stroke-width:0.8;"/>
   </g>
   <g id="text_13">
    <g id="patch_7">
     <path d="M 119.344499 17.845937 
L 161.572468 17.845937 
L 161.572468 7.2 
L 119.344499 7.2 
z
" style="fill:#ffffff;"/>
    </g>
    <!-- 5.5e-03 -->
    <defs>
     <path d="M 10.796875 72.90625 
L 49.515625 72.90625 
L 49.515625 64.59375 
L 19.828125 64.59375 
L 19.828125 46.734375 
Q 21.96875 47.46875 24.109375 47.828125 
Q 26.265625 48.1875 28.421875 48.1875 
Q 40.625 48.1875 47.75 41.5 
Q 54.890625 34.8125 54.890625 23.390625 
Q 54.890625 11.625 47.5625 5.09375 
Q 40.234375 -1.421875 26.90625 -1.421875 
Q 22.3125 -1.421875 17.546875 -0.640625 
Q 12.796875 0.140625 7.71875 1.703125 
L 7.71875 11.625 
Q 12.109375 9.234375 16.796875 8.0625 
Q 21.484375 6.890625 26.703125 6.890625 
Q 35.15625 6.890625 40.078125 11.328125 
Q 45.015625 15.765625 45.015625 23.390625 
Q 45.015625 31 40.078125 35.4375 
Q 35.15625 39.890625 26.703125 39.890625 
Q 22.75 39.890625 18.8125 39.015625 
Q 14.890625 38.140625 10.796875 36.28125 
z
" id="DejaVuSans-53"/>
     <path d="M 10.6875 12.40625 
L 21 12.40625 
L 21 0 
L 10.6875 0 
z
" id="DejaVuSans-46"/>
     <path d="M 56.203125 29.59375 
L 56.203125 25.203125 
L 14.890625 25.203125 
Q 15.484375 15.921875 20.484375 11.0625 
Q 25.484375 6.203125 34.421875 6.203125 
Q 39.59375 6.203125 44.453125 7.46875 
Q 49.3125 8.734375 54.109375 11.28125 
L 54.109375 2.78125 
Q 49.265625 0.734375 44.1875 -0.34375 
Q 39.109375 -1.421875 33.890625 -1.421875 
Q 20.796875 -1.421875 13.15625 6.1875 
Q 5.515625 13.8125 5.515625 26.8125 
Q 5.515625 40.234375 12.765625 48.109375 
Q 20.015625 56 32.328125 56 
Q 43.359375 56 49.78125 48.890625 
Q 56.203125 41.796875 56.203125 29.59375 
z
M 47.21875 32.234375 
Q 47.125 39.59375 43.09375 43.984375 
Q 39.0625 48.390625 32.421875 48.390625 
Q 24.90625 48.390625 20.390625 44.140625 
Q 15.875 39.890625 15.1875 32.171875 
z
" id="DejaVuSans-101"/>
     <path d="M 4.890625 31.390625 
L 31.203125 31.390625 
L 31.203125 23.390625 
L 4.890625 23.390625 
z
" id="DejaVuSans-45"/>
    </defs>
    <g transform="translate(119.344499 15.558281)scale(0.11 -0.11)">
     <use xlink:href="#DejaVuSans-53"/>
     <use x="63.623047" xlink:href="#DejaVuSans-46"/>
     <use x="95.410156" xlink:href="#DejaVuSans-53"/>
     <use x="159.033203" xlink:href="#DejaVuSans-101"/>
     <use x="220.556641" xlink:href="#DejaVuSans-45"/>
     <use x="256.640625" xlink:href="#DejaVuSans-48"/>
     <use x="320.263672" xlink:href="#DejaVuSans-51"/>
    </g>
   </g>
   <g id="text_14">
    <g id="patch_8">
     <path d="M 48.343613 35.636483 
L 90.571582 35.636483 
L 90.571582 24.990545 
L 48.343613 24.990545 
z
" style="fill:#ffffff;"/>
    </g>
    <!-- 1.8e-03 -->
    <defs>
     <path d="M 31.78125 34.625 
Q 24.75 34.625 20.71875 30.859375 
Q 16.703125 27.09375 16.703125 20.515625 
Q 16.703125 13.921875 20.71875 10.15625 
Q 24.75 6.390625 31.78125 6.390625 
Q 38.8125 6.390625 42.859375 10.171875 
Q 46.921875 13.96875 46.921875 20.515625 
Q 46.921875 27.09375 42.890625 30.859375 
Q 38.875 34.625 31.78125 34.625 
z
M 21.921875 38.8125 
Q 15.578125 40.375 12.03125 44.71875 
Q 8.5 49.078125 8.5 55.328125 
Q 8.5 64.0625 14.71875 69.140625 
Q 20.953125 74.21875 31.78125 74.21875 
Q 42.671875 74.21875 48.875 69.140625 
Q 55.078125 64.0625 55.078125 55.328125 
Q 55.078125 49.078125 51.53125 44.71875 
Q 48 40.375 41.703125 38.8125 
Q 48.828125 37.15625 52.796875 32.3125 
Q 56.78125 27.484375 56.78125 20.515625 
Q 56.78125 9.90625 50.3125 4.234375 
Q 43.84375 -1.421875 31.78125 -1.421875 
Q 19.734375 -1.421875 13.25 4.234375 
Q 6.78125 9.90625 6.78125 20.515625 
Q 6.78125 27.484375 10.78125 32.3125 
Q 14.796875 37.15625 21.921875 38.8125 
z
M 18.3125 54.390625 
Q 18.3125 48.734375 21.84375 45.5625 
Q 25.390625 42.390625 31.78125 42.390625 
Q 38.140625 42.390625 41.71875 45.5625 
Q 45.3125 48.734375 45.3125 54.390625 
Q 45.3125 60.0625 41.71875 63.234375 
Q 38.140625 66.40625 31.78125 66.40625 
Q 25.390625 66.40625 21.84375 63.234375 
Q 18.3125 60.0625 18.3125 54.390625 
z
" id="DejaVuSans-56"/>
    </defs>
    <g transform="translate(48.343613 33.348827)scale(0.11 -0.11)">
     <use xlink:href="#DejaVuSans-49"/>
     <use x="63.623047" xlink:href="#DejaVuSans-46"/>
     <use x="95.410156" xlink:href="#DejaVuSans-56"/>
     <use x="159.033203" xlink:href="#DejaVuSans-101"/>
     <use x="220.556641" xlink:href="#DejaVuSans-45"/>
     <use x="256.640625" xlink:href="#DejaVuSans-48"/>
     <use x="320.263672" xlink:href="#DejaVuSans-51"/>
    </g>
   </g>
   <g id="text_15">
    <g id="patch_9">
     <path d="M 275.765691 53.427028 
L 317.99366 53.427028 
L 317.99366 42.781091 
L 275.765691 42.781091 
z
" style="fill:#ffffff;"/>
    </g>
    <!-- 6.5e-02 -->
    <defs>
     <path d="M 33.015625 40.375 
Q 26.375 40.375 22.484375 35.828125 
Q 18.609375 31.296875 18.609375 23.390625 
Q 18.609375 15.53125 22.484375 10.953125 
Q 26.375 6.390625 33.015625 6.390625 
Q 39.65625 6.390625 43.53125 10.953125 
Q 47.40625 15.53125 47.40625 23.390625 
Q 47.40625 31.296875 43.53125 35.828125 
Q 39.65625 40.375 33.015625 40.375 
z
M 52.59375 71.296875 
L 52.59375 62.3125 
Q 48.875 64.0625 45.09375 64.984375 
Q 41.3125 65.921875 37.59375 65.921875 
Q 27.828125 65.921875 22.671875 59.328125 
Q 17.53125 52.734375 16.796875 39.40625 
Q 19.671875 43.65625 24.015625 45.921875 
Q 28.375 48.1875 33.59375 48.1875 
Q 44.578125 48.1875 50.953125 41.515625 
Q 57.328125 34.859375 57.328125 23.390625 
Q 57.328125 12.15625 50.6875 5.359375 
Q 44.046875 -1.421875 33.015625 -1.421875 
Q 20.359375 -1.421875 13.671875 8.265625 
Q 6.984375 17.96875 6.984375 36.375 
Q 6.984375 53.65625 15.1875 63.9375 
Q 23.390625 74.21875 37.203125 74.21875 
Q 40.921875 74.21875 44.703125 73.484375 
Q 48.484375 72.75 52.59375 71.296875 
z
" id="DejaVuSans-54"/>
    </defs>
    <g transform="translate(275.765691 51.139372)scale(0.11 -0.11)">
     <use xlink:href="#DejaVuSans-54"/>
     <use x="63.623047" xlink:href="#DejaVuSans-46"/>
     <use x="95.410156" xlink:href="#DejaVuSans-53"/>
     <use x="159.033203" xlink:href="#DejaVuSans-101"/>
     <use x="220.556641" xlink:href="#DejaVuSans-45"/>
     <use x="256.640625" xlink:href="#DejaVuSans-48"/>
     <use x="320.263672" xlink:href="#DejaVuSans-50"/>
    </g>
   </g>
   <g id="text_16">
    <g id="patch_10">
     <path d="M 241.803072 71.217574 
L 284.03104 71.217574 
L 284.03104 60.571636 
L 241.803072 60.571636 
z
" style="fill:#ffffff;"/>
    </g>
    <!-- 3.8e-02 -->
    <g transform="translate(241.803072 68.929918)scale(0.11 -0.11)">
     <use xlink:href="#DejaVuSans-51"/>
     <use x="63.623047" xlink:href="#DejaVuSans-46"/>
     <use x="95.410156" xlink:href="#DejaVuSans-56"/>
     <use x="159.033203" xlink:href="#DejaVuSans-101"/>
     <use x="220.556641" xlink:href="#DejaVuSans-45"/>
     <use x="256.640625" xlink:href="#DejaVuSans-48"/>
     <use x="320.263672" xlink:href="#DejaVuSans-50"/>
    </g>
   </g>
   <g id="text_17">
    <g id="patch_11">
     <path d="M 136.89164 89.008119 
L 179.119609 89.008119 
L 179.119609 78.362182 
L 136.89164 78.362182 
z
" style="fill:#ffffff;"/>
    </g>
    <!-- 7.3e-03 -->
    <defs>
     <path d="M 8.203125 72.90625 
L 55.078125 72.90625 
L 55.078125 68.703125 
L 28.609375 0 
L 18.3125 0 
L 43.21875 64.59375 
L 8.203125 64.59375 
z
" id="DejaVuSans-55"/>
    </defs>
    <g transform="translate(136.89164 86.720463)scale(0.11 -0.11)">
     <use xlink:href="#DejaVuSans-55"/>
     <use x="63.623047" xlink:href="#DejaVuSans-46"/>
     <use x="95.410156" xlink:href="#DejaVuSans-51"/>
     <use x="159.033203" xlink:href="#DejaVuSans-101"/>
     <use x="220.556641" xlink:href="#DejaVuSans-45"/>
     <use x="256.640625" xlink:href="#DejaVuSans-48"/>
     <use x="320.263672" xlink:href="#DejaVuSans-51"/>
    </g>
   </g>
   <g id="text_18">
    <g id="patch_12">
     <path d="M 227.048793 106.798665 
L 269.276762 106.798665 
L 269.276762 96.152727 
L 227.048793 96.152727 
z
" style="fill:#ffffff;"/>
    </g>
    <!-- 3.0e-02 -->
    <g transform="translate(227.048793 104.511009)scale(0.11 -0.11)">
     <use xlink:href="#DejaVuSans-51"/>
     <use x="63.623047" xlink:href="#DejaVuSans-46"/>
     <use x="95.410156" xlink:href="#DejaVuSans-48"/>
     <use x="159.033203" xlink:href="#DejaVuSans-101"/>
     <use x="220.556641" xlink:href="#DejaVuSans-45"/>
     <use x="256.640625" xlink:href="#DejaVuSans-48"/>
     <use x="320.263672" xlink:href="#DejaVuSans-50"/>
    </g>
   </g>
   <g id="text_19">
    <g id="patch_13">
     <path d="M 250.37768 124.58921 
L 292.605649 124.58921 
L 292.605649 113.943273 
L 250.37768 113.943273 
z
" style="fill:#ffffff;"/>
    </g>
    <!-- 4.4e-02 -->
    <g transform="translate(250.37768 122.301554)scale(0.11 -0.11)">
     <use xlink:href="#DejaVuSans-52"/>
     <use x="63.623047" xlink:href="#DejaVuSans-46"/>
     <use x="95.410156" xlink:href="#DejaVuSans-52"/>
     <use x="159.033203" xlink:href="#DejaVuSans-101"/>
     <use x="220.556641" xlink:href="#DejaVuSans-45"/>
     <use x="256.640625" xlink:href="#DejaVuSans-48"/>
     <use x="320.263672" xlink:href="#DejaVuSans-50"/>
    </g>
   </g>
   <g id="text_20">
    <!-- $\leftarrow$ undefined -->
    <defs>
     <path d="M 4.890625 29.15625 
L 4.890625 33.546875 
L 24.078125 52.734375 
L 29.9375 46.875 
L 18.5625 35.5 
L 78.078125 35.5 
L 78.078125 27.203125 
L 18.5625 27.203125 
L 29.9375 15.828125 
L 24.078125 9.96875 
z
" id="DejaVuSans-8592"/>
     <path id="DejaVuSans-32"/>
     <path d="M 8.5 21.578125 
L 8.5 54.6875 
L 17.484375 54.6875 
L 17.484375 21.921875 
Q 17.484375 14.15625 20.5 10.265625 
Q 23.53125 6.390625 29.59375 6.390625 
Q 36.859375 6.390625 41.078125 11.03125 
Q 45.3125 15.671875 45.3125 23.6875 
L 45.3125 54.6875 
L 54.296875 54.6875 
L 54.296875 0 
L 45.3125 0 
L 45.3125 8.40625 
Q 42.046875 3.421875 37.71875 1 
Q 33.40625 -1.421875 27.6875 -1.421875 
Q 18.265625 -1.421875 13.375 4.4375 
Q 8.5 10.296875 8.5 21.578125 
z
M 31.109375 56 
z
" id="DejaVuSans-117"/>
     <path d="M 54.890625 33.015625 
L 54.890625 0 
L 45.90625 0 
L 45.90625 32.71875 
Q 45.90625 40.484375 42.875 44.328125 
Q 39.84375 48.1875 33.796875 48.1875 
Q 26.515625 48.1875 22.3125 43.546875 
Q 18.109375 38.921875 18.109375 30.90625 
L 18.109375 0 
L 9.078125 0 
L 9.078125 54.6875 
L 18.109375 54.6875 
L 18.109375 46.1875 
Q 21.34375 51.125 25.703125 53.5625 
Q 30.078125 56 35.796875 56 
Q 45.21875 56 50.046875 50.171875 
Q 54.890625 44.34375 54.890625 33.015625 
z
" id="DejaVuSans-110"/>
     <path d="M 45.40625 46.390625 
L 45.40625 75.984375 
L 54.390625 75.984375 
L 54.390625 0 
L 45.40625 0 
L 45.40625 8.203125 
Q 42.578125 3.328125 38.25 0.953125 
Q 33.9375 -1.421875 27.875 -1.421875 
Q 17.96875 -1.421875 11.734375 6.484375 
Q 5.515625 14.40625 5.515625 27.296875 
Q 5.515625 40.1875 11.734375 48.09375 
Q 17.96875 56 27.875 56 
Q 33.9375 56 38.25 53.625 
Q 42.578125 51.265625 45.40625 46.390625 
z
M 14.796875 27.296875 
Q 14.796875 17.390625 18.875 11.75 
Q 22.953125 6.109375 30.078125 6.109375 
Q 37.203125 6.109375 41.296875 11.75 
Q 45.40625 17.390625 45.40625 27.296875 
Q 45.40625 37.203125 41.296875 42.84375 
Q 37.203125 48.484375 30.078125 48.484375 
Q 22.953125 48.484375 18.875 42.84375 
Q 14.796875 37.203125 14.796875 27.296875 
z
" id="DejaVuSans-100"/>
     <path d="M 37.109375 75.984375 
L 37.109375 68.5 
L 28.515625 68.5 
Q 23.6875 68.5 21.796875 66.546875 
Q 19.921875 64.59375 19.921875 59.515625 
L 19.921875 54.6875 
L 34.71875 54.6875 
L 34.71875 47.703125 
L 19.921875 47.703125 
L 19.921875 0 
L 10.890625 0 
L 10.890625 47.703125 
L 2.296875 47.703125 
L 2.296875 54.6875 
L 10.890625 54.6875 
L 10.890625 58.5 
Q 10.890625 67.625 15.140625 71.796875 
Q 19.390625 75.984375 28.609375 75.984375 
z
" id="DejaVuSans-102"/>
     <path d="M 9.421875 54.6875 
L 18.40625 54.6875 
L 18.40625 0 
L 9.421875 0 
z
M 9.421875 75.984375 
L 18.40625 75.984375 
L 18.40625 64.59375 
L 9.421875 64.59375 
z
" id="DejaVuSans-105"/>
    </defs>
    <g transform="translate(48.899892 148.973177)scale(0.11 -0.11)">
     <use transform="translate(19.482422 0.015625)" xlink:href="#DejaVuSans-8592"/>
     <use transform="translate(122.753906 0.015625)" xlink:href="#DejaVuSans-32"/>
     <use transform="translate(154.541016 0.015625)" xlink:href="#DejaVuSans-117"/>
     <use transform="translate(217.919922 0.015625)" xlink:href="#DejaVuSans-110"/>
     <use transform="translate(281.298828 0.015625)" xlink:href="#DejaVuSans-100"/>
     <use transform="translate(344.775391 0.015625)" xlink:href="#DejaVuSans-101"/>
     <use transform="translate(406.298828 0.015625)" xlink:href="#DejaVuSans-102"/>
     <use transform="translate(441.503906 0.015625)" xlink:href="#DejaVuSans-105"/>
     <use transform="translate(469.287109 0.015625)" xlink:href="#DejaVuSans-110"/>
     <use transform="translate(532.666016 0.015625)" xlink:href="#DejaVuSans-101"/>
     <use transform="translate(594.189453 0.015625)" xlink:href="#DejaVuSans-100"/>
    </g>
   </g>
   <g id="text_21">
    <g id="patch_14">
     <path d="M 264.718707 160.170301 
L 306.946675 160.170301 
L 306.946675 149.524364 
L 264.718707 149.524364 
z
" style="fill:#ffffff;"/>
    </g>
    <!-- 5.5e-02 -->
    <g transform="translate(264.718707 157.882645)scale(0.11 -0.11)">
     <use xlink:href="#DejaVuSans-53"/>
     <use x="63.623047" xlink:href="#DejaVuSans-46"/>
     <use x="95.410156" xlink:href="#DejaVuSans-53"/>
     <use x="159.033203" xlink:href="#DejaVuSans-101"/>
     <use x="220.556641" xlink:href="#DejaVuSans-45"/>
     <use x="256.640625" xlink:href="#DejaVuSans-48"/>
     <use x="320.263672" xlink:href="#DejaVuSans-50"/>
    </g>
   </g>
   <g id="text_22">
    <g id="patch_15">
     <path d="M 283.052892 177.960847 
L 325.28086 177.960847 
L 325.28086 167.314909 
L 283.052892 167.314909 
z
" style="fill:#ffffff;"/>
    </g>
    <!-- 7.3e-02 -->
    <g transform="translate(283.052892 175.67319)scale(0.11 -0.11)">
     <use xlink:href="#DejaVuSans-55"/>
     <use x="63.623047" xlink:href="#DejaVuSans-46"/>
     <use x="95.410156" xlink:href="#DejaVuSans-51"/>
     <use x="159.033203" xlink:href="#DejaVuSans-101"/>
     <use x="220.556641" xlink:href="#DejaVuSans-45"/>
     <use x="256.640625" xlink:href="#DejaVuSans-48"/>
     <use x="320.263672" xlink:href="#DejaVuSans-50"/>
    </g>
   </g>
   <g id="text_23">
    <g id="patch_16">
     <path d="M 45.217578 195.751392 
L 87.445546 195.751392 
L 87.445546 185.105455 
L 45.217578 185.105455 
z
" style="fill:#ffffff;"/>
    </g>
    <!-- 1.7e-03 -->
    <g transform="translate(45.217578 193.463736)scale(0.11 -0.11)">
     <use xlink:href="#DejaVuSans-49"/>
     <use x="63.623047" xlink:href="#DejaVuSans-46"/>
     <use x="95.410156" xlink:href="#DejaVuSans-55"/>
     <use x="159.033203" xlink:href="#DejaVuSans-101"/>
     <use x="220.556641" xlink:href="#DejaVuSans-45"/>
     <use x="256.640625" xlink:href="#DejaVuSans-48"/>
     <use x="320.263672" xlink:href="#DejaVuSans-51"/>
    </g>
   </g>
  </g>
 </g>
 <defs>
  <clipPath id="p30d8846611">
   <rect height="195.696" width="279" x="42.839531" y="12.508774"/>
  </clipPath>
 </defs>
</svg>
