<?xml version="1.0" encoding="utf-8" standalone="no"?>
<!DOCTYPE svg PUBLIC "-//W3C//DTD SVG 1.1//EN"
  "http://www.w3.org/Graphics/SVG/1.1/DTD/svg11.dtd">
<!-- Created with matplotlib (https://matplotlib.org/) -->
<svg height="169.517068pt" version="1.1" viewBox="0 0 232.597468 169.517068" width="232.597468pt" xmlns="http://www.w3.org/2000/svg" xmlns:xlink="http://www.w3.org/1999/xlink">
 <defs>
  <style type="text/css">
*{stroke-linecap:butt;stroke-linejoin:round;}
  </style>
 </defs>
 <g id="figure_1">
  <g id="patch_1">
   <path d="M 0 169.517068 
L 232.597468 169.517068 
L 232.597468 0 
L 0 0 
z
" style="fill:#ffffff;"/>
  </g>
  <g id="axes_1">
   <g id="patch_2">
    <path d="M 38.665 135.832068 
L 225.397468 135.832068 
L 225.397468 7.2 
L 38.665 7.2 
z
" style="fill:#ffffff;"/>
   </g>
   <g id="matplotlib.axis_1">
    <g id="xtick_1">
     <g id="line2d_1">
      <defs>
       <path d="M 0 0 
L 0 3.5 
" id="m7753dd4d97" style="stroke:#000000;stroke-width:0.8;"/>
      </defs>
      <g>
       <use style="stroke:#000000;stroke-width:0.8;" x="47.152839" xlink:href="#m7753dd4d97" y="135.832068"/>
      </g>
     </g>
     <g id="text_1">
      <!-- 0 -->
      <defs>
       <path d="M 31.78125 66.40625 
Q 24.171875 66.40625 20.328125 58.90625 
Q 16.5 51.421875 16.5 36.375 
Q 16.5 21.390625 20.328125 13.890625 
Q 24.171875 6.390625 31.78125 6.390625 
Q 39.453125 6.390625 43.28125 13.890625 
Q 47.125 21.390625 47.125 36.375 
Q 47.125 51.421875 43.28125 58.90625 
Q 39.453125 66.40625 31.78125 66.40625 
z
M 31.78125 74.21875 
Q 44.046875 74.21875 50.515625 64.515625 
Q 56.984375 54.828125 56.984375 36.375 
Q 56.984375 17.96875 50.515625 8.265625 
Q 44.046875 -1.421875 31.78125 -1.421875 
Q 19.53125 -1.421875 13.0625 8.265625 
Q 6.59375 17.96875 6.59375 36.375 
Q 6.59375 54.828125 13.0625 64.515625 
Q 19.53125 74.21875 31.78125 74.21875 
z
" id="DejaVuSans-48"/>
      </defs>
      <g transform="translate(44.607839 148.910818)scale(0.08 -0.08)">
       <use xlink:href="#DejaVuSans-48"/>
      </g>
     </g>
    </g>
    <g id="xtick_2">
     <g id="line2d_2">
      <g>
       <use style="stroke:#000000;stroke-width:0.8;" x="81.104197" xlink:href="#m7753dd4d97" y="135.832068"/>
      </g>
     </g>
     <g id="text_2">
      <!-- 20 -->
      <defs>
       <path d="M 19.1875 8.296875 
L 53.609375 8.296875 
L 53.609375 0 
L 7.328125 0 
L 7.328125 8.296875 
Q 12.9375 14.109375 22.625 23.890625 
Q 32.328125 33.6875 34.8125 36.53125 
Q 39.546875 41.84375 41.421875 45.53125 
Q 43.3125 49.21875 43.3125 52.78125 
Q 43.3125 58.59375 39.234375 62.25 
Q 35.15625 65.921875 28.609375 65.921875 
Q 23.96875 65.921875 18.8125 64.3125 
Q 13.671875 62.703125 7.8125 59.421875 
L 7.8125 69.390625 
Q 13.765625 71.78125 18.9375 73 
Q 24.125 74.21875 28.421875 74.21875 
Q 39.75 74.21875 46.484375 68.546875 
Q 53.21875 62.890625 53.21875 53.421875 
Q 53.21875 48.921875 51.53125 44.890625 
Q 49.859375 40.875 45.40625 35.40625 
Q 44.1875 33.984375 37.640625 27.21875 
Q 31.109375 20.453125 19.1875 8.296875 
z
" id="DejaVuSans-50"/>
      </defs>
      <g transform="translate(76.014197 148.910818)scale(0.08 -0.08)">
       <use xlink:href="#DejaVuSans-50"/>
       <use x="63.623047" xlink:href="#DejaVuSans-48"/>
      </g>
     </g>
    </g>
    <g id="xtick_3">
     <g id="line2d_3">
      <g>
       <use style="stroke:#000000;stroke-width:0.8;" x="115.055555" xlink:href="#m7753dd4d97" y="135.832068"/>
      </g>
     </g>
     <g id="text_3">
      <!-- 40 -->
      <defs>
       <path d="M 37.796875 64.3125 
L 12.890625 25.390625 
L 37.796875 25.390625 
z
M 35.203125 72.90625 
L 47.609375 72.90625 
L 47.609375 25.390625 
L 58.015625 25.390625 
L 58.015625 17.1875 
L 47.609375 17.1875 
L 47.609375 0 
L 37.796875 0 
L 37.796875 17.1875 
L 4.890625 17.1875 
L 4.890625 26.703125 
z
" id="DejaVuSans-52"/>
      </defs>
      <g transform="translate(109.965555 148.910818)scale(0.08 -0.08)">
       <use xlink:href="#DejaVuSans-52"/>
       <use x="63.623047" xlink:href="#DejaVuSans-48"/>
      </g>
     </g>
    </g>
    <g id="xtick_4">
     <g id="line2d_4">
      <g>
       <use style="stroke:#000000;stroke-width:0.8;" x="149.006913" xlink:href="#m7753dd4d97" y="135.832068"/>
      </g>
     </g>
     <g id="text_4">
      <!-- 60 -->
      <defs>
       <path d="M 33.015625 40.375 
Q 26.375 40.375 22.484375 35.828125 
Q 18.609375 31.296875 18.609375 23.390625 
Q 18.609375 15.53125 22.484375 10.953125 
Q 26.375 6.390625 33.015625 6.390625 
Q 39.65625 6.390625 43.53125 10.953125 
Q 47.40625 15.53125 47.40625 23.390625 
Q 47.40625 31.296875 43.53125 35.828125 
Q 39.65625 40.375 33.015625 40.375 
z
M 52.59375 71.296875 
L 52.59375 62.3125 
Q 48.875 64.0625 45.09375 64.984375 
Q 41.3125 65.921875 37.59375 65.921875 
Q 27.828125 65.921875 22.671875 59.328125 
Q 17.53125 52.734375 16.796875 39.40625 
Q 19.671875 43.65625 24.015625 45.921875 
Q 28.375 48.1875 33.59375 48.1875 
Q 44.578125 48.1875 50.953125 41.515625 
Q 57.328125 34.859375 57.328125 23.390625 
Q 57.328125 12.15625 50.6875 5.359375 
Q 44.046875 -1.421875 33.015625 -1.421875 
Q 20.359375 -1.421875 13.671875 8.265625 
Q 6.984375 17.96875 6.984375 36.375 
Q 6.984375 53.65625 15.1875 63.9375 
Q 23.390625 74.21875 37.203125 74.21875 
Q 40.921875 74.21875 44.703125 73.484375 
Q 48.484375 72.75 52.59375 71.296875 
z
" id="DejaVuSans-54"/>
      </defs>
      <g transform="translate(143.916913 148.910818)scale(0.08 -0.08)">
       <use xlink:href="#DejaVuSans-54"/>
       <use x="63.623047" xlink:href="#DejaVuSans-48"/>
      </g>
     </g>
    </g>
    <g id="xtick_5">
     <g id="line2d_5">
      <g>
       <use style="stroke:#000000;stroke-width:0.8;" x="182.958271" xlink:href="#m7753dd4d97" y="135.832068"/>
      </g>
     </g>
     <g id="text_5">
      <!-- 80 -->
      <defs>
       <path d="M 31.78125 34.625 
Q 24.75 34.625 20.71875 30.859375 
Q 16.703125 27.09375 16.703125 20.515625 
Q 16.703125 13.921875 20.71875 10.15625 
Q 24.75 6.390625 31.78125 6.390625 
Q 38.8125 6.390625 42.859375 10.171875 
Q 46.921875 13.96875 46.921875 20.515625 
Q 46.921875 27.09375 42.890625 30.859375 
Q 38.875 34.625 31.78125 34.625 
z
M 21.921875 38.8125 
Q 15.578125 40.375 12.03125 44.71875 
Q 8.5 49.078125 8.5 55.328125 
Q 8.5 64.0625 14.71875 69.140625 
Q 20.953125 74.21875 31.78125 74.21875 
Q 42.671875 74.21875 48.875 69.140625 
Q 55.078125 64.0625 55.078125 55.328125 
Q 55.078125 49.078125 51.53125 44.71875 
Q 48 40.375 41.703125 38.8125 
Q 48.828125 37.15625 52.796875 32.3125 
Q 56.78125 27.484375 56.78125 20.515625 
Q 56.78125 9.90625 50.3125 4.234375 
Q 43.84375 -1.421875 31.78125 -1.421875 
Q 19.734375 -1.421875 13.25 4.234375 
Q 6.78125 9.90625 6.78125 20.515625 
Q 6.78125 27.484375 10.78125 32.3125 
Q 14.796875 37.15625 21.921875 38.8125 
z
M 18.3125 54.390625 
Q 18.3125 48.734375 21.84375 45.5625 
Q 25.390625 42.390625 31.78125 42.390625 
Q 38.140625 42.390625 41.71875 45.5625 
Q 45.3125 48.734375 45.3125 54.390625 
Q 45.3125 60.0625 41.71875 63.234375 
Q 38.140625 66.40625 31.78125 66.40625 
Q 25.390625 66.40625 21.84375 63.234375 
Q 18.3125 60.0625 18.3125 54.390625 
z
" id="DejaVuSans-56"/>
      </defs>
      <g transform="translate(177.868271 148.910818)scale(0.08 -0.08)">
       <use xlink:href="#DejaVuSans-56"/>
       <use x="63.623047" xlink:href="#DejaVuSans-48"/>
      </g>
     </g>
    </g>
    <g id="xtick_6">
     <g id="line2d_6">
      <g>
       <use style="stroke:#000000;stroke-width:0.8;" x="216.909629" xlink:href="#m7753dd4d97" y="135.832068"/>
      </g>
     </g>
     <g id="text_6">
      <!-- 100 -->
      <defs>
       <path d="M 12.40625 8.296875 
L 28.515625 8.296875 
L 28.515625 63.921875 
L 10.984375 60.40625 
L 10.984375 69.390625 
L 28.421875 72.90625 
L 38.28125 72.90625 
L 38.28125 8.296875 
L 54.390625 8.296875 
L 54.390625 0 
L 12.40625 0 
z
" id="DejaVuSans-49"/>
      </defs>
      <g transform="translate(209.274629 148.910818)scale(0.08 -0.08)">
       <use xlink:href="#DejaVuSans-49"/>
       <use x="63.623047" xlink:href="#DejaVuSans-48"/>
       <use x="127.246094" xlink:href="#DejaVuSans-48"/>
      </g>
     </g>
    </g>
    <g id="text_7">
     <!-- Time [a.u.] -->
     <defs>
      <path d="M -0.296875 72.90625 
L 61.375 72.90625 
L 61.375 64.59375 
L 35.5 64.59375 
L 35.5 0 
L 25.59375 0 
L 25.59375 64.59375 
L -0.296875 64.59375 
z
" id="DejaVuSans-84"/>
      <path d="M 9.421875 54.6875 
L 18.40625 54.6875 
L 18.40625 0 
L 9.421875 0 
z
M 9.421875 75.984375 
L 18.40625 75.984375 
L 18.40625 64.59375 
L 9.421875 64.59375 
z
" id="DejaVuSans-105"/>
      <path d="M 52 44.1875 
Q 55.375 50.25 60.0625 53.125 
Q 64.75 56 71.09375 56 
Q 79.640625 56 84.28125 50.015625 
Q 88.921875 44.046875 88.921875 33.015625 
L 88.921875 0 
L 79.890625 0 
L 79.890625 32.71875 
Q 79.890625 40.578125 77.09375 44.375 
Q 74.3125 48.1875 68.609375 48.1875 
Q 61.625 48.1875 57.5625 43.546875 
Q 53.515625 38.921875 53.515625 30.90625 
L 53.515625 0 
L 44.484375 0 
L 44.484375 32.71875 
Q 44.484375 40.625 41.703125 44.40625 
Q 38.921875 48.1875 33.109375 48.1875 
Q 26.21875 48.1875 22.15625 43.53125 
Q 18.109375 38.875 18.109375 30.90625 
L 18.109375 0 
L 9.078125 0 
L 9.078125 54.6875 
L 18.109375 54.6875 
L 18.109375 46.1875 
Q 21.1875 51.21875 25.484375 53.609375 
Q 29.78125 56 35.6875 56 
Q 41.65625 56 45.828125 52.96875 
Q 50 49.953125 52 44.1875 
z
" id="DejaVuSans-109"/>
      <path d="M 56.203125 29.59375 
L 56.203125 25.203125 
L 14.890625 25.203125 
Q 15.484375 15.921875 20.484375 11.0625 
Q 25.484375 6.203125 34.421875 6.203125 
Q 39.59375 6.203125 44.453125 7.46875 
Q 49.3125 8.734375 54.109375 11.28125 
L 54.109375 2.78125 
Q 49.265625 0.734375 44.1875 -0.34375 
Q 39.109375 -1.421875 33.890625 -1.421875 
Q 20.796875 -1.421875 13.15625 6.1875 
Q 5.515625 13.8125 5.515625 26.8125 
Q 5.515625 40.234375 12.765625 48.109375 
Q 20.015625 56 32.328125 56 
Q 43.359375 56 49.78125 48.890625 
Q 56.203125 41.796875 56.203125 29.59375 
z
M 47.21875 32.234375 
Q 47.125 39.59375 43.09375 43.984375 
Q 39.0625 48.390625 32.421875 48.390625 
Q 24.90625 48.390625 20.390625 44.140625 
Q 15.875 39.890625 15.1875 32.171875 
z
" id="DejaVuSans-101"/>
      <path id="DejaVuSans-32"/>
      <path d="M 8.59375 75.984375 
L 29.296875 75.984375 
L 29.296875 69 
L 17.578125 69 
L 17.578125 -6.203125 
L 29.296875 -6.203125 
L 29.296875 -13.1875 
L 8.59375 -13.1875 
z
" id="DejaVuSans-91"/>
      <path d="M 34.28125 27.484375 
Q 23.390625 27.484375 19.1875 25 
Q 14.984375 22.515625 14.984375 16.5 
Q 14.984375 11.71875 18.140625 8.90625 
Q 21.296875 6.109375 26.703125 6.109375 
Q 34.1875 6.109375 38.703125 11.40625 
Q 43.21875 16.703125 43.21875 25.484375 
L 43.21875 27.484375 
z
M 52.203125 31.203125 
L 52.203125 0 
L 43.21875 0 
L 43.21875 8.296875 
Q 40.140625 3.328125 35.546875 0.953125 
Q 30.953125 -1.421875 24.3125 -1.421875 
Q 15.921875 -1.421875 10.953125 3.296875 
Q 6 8.015625 6 15.921875 
Q 6 25.140625 12.171875 29.828125 
Q 18.359375 34.515625 30.609375 34.515625 
L 43.21875 34.515625 
L 43.21875 35.40625 
Q 43.21875 41.609375 39.140625 45 
Q 35.0625 48.390625 27.6875 48.390625 
Q 23 48.390625 18.546875 47.265625 
Q 14.109375 46.140625 10.015625 43.890625 
L 10.015625 52.203125 
Q 14.9375 54.109375 19.578125 55.046875 
Q 24.21875 56 28.609375 56 
Q 40.484375 56 46.34375 49.84375 
Q 52.203125 43.703125 52.203125 31.203125 
z
" id="DejaVuSans-97"/>
      <path d="M 10.6875 12.40625 
L 21 12.40625 
L 21 0 
L 10.6875 0 
z
" id="DejaVuSans-46"/>
      <path d="M 8.5 21.578125 
L 8.5 54.6875 
L 17.484375 54.6875 
L 17.484375 21.921875 
Q 17.484375 14.15625 20.5 10.265625 
Q 23.53125 6.390625 29.59375 6.390625 
Q 36.859375 6.390625 41.078125 11.03125 
Q 45.3125 15.671875 45.3125 23.6875 
L 45.3125 54.6875 
L 54.296875 54.6875 
L 54.296875 0 
L 45.3125 0 
L 45.3125 8.40625 
Q 42.046875 3.421875 37.71875 1 
Q 33.40625 -1.421875 27.6875 -1.421875 
Q 18.265625 -1.421875 13.375 4.4375 
Q 8.5 10.296875 8.5 21.578125 
z
M 31.109375 56 
z
" id="DejaVuSans-117"/>
      <path d="M 30.421875 75.984375 
L 30.421875 -13.1875 
L 9.71875 -13.1875 
L 9.71875 -6.203125 
L 21.390625 -6.203125 
L 21.390625 69 
L 9.71875 69 
L 9.71875 75.984375 
z
" id="DejaVuSans-93"/>
     </defs>
     <g transform="translate(110.323109 160.653318)scale(0.08 -0.08)">
      <use xlink:href="#DejaVuSans-84"/>
      <use x="57.958984" xlink:href="#DejaVuSans-105"/>
      <use x="85.742188" xlink:href="#DejaVuSans-109"/>
      <use x="183.154297" xlink:href="#DejaVuSans-101"/>
      <use x="244.677734" xlink:href="#DejaVuSans-32"/>
      <use x="276.464844" xlink:href="#DejaVuSans-91"/>
      <use x="315.478516" xlink:href="#DejaVuSans-97"/>
      <use x="376.757812" xlink:href="#DejaVuSans-46"/>
      <use x="408.544922" xlink:href="#DejaVuSans-117"/>
      <use x="471.923828" xlink:href="#DejaVuSans-46"/>
      <use x="503.710938" xlink:href="#DejaVuSans-93"/>
     </g>
    </g>
   </g>
   <g id="matplotlib.axis_2">
    <g id="ytick_1">
     <g id="line2d_7">
      <defs>
       <path d="M 0 0 
L -3.5 0 
" id="md9c413e7bf" style="stroke:#000000;stroke-width:0.8;"/>
      </defs>
      <g>
       <use style="stroke:#000000;stroke-width:0.8;" x="38.665" xlink:href="#md9c413e7bf" y="129.985156"/>
      </g>
     </g>
     <g id="text_8">
      <!-- 0.0 -->
      <g transform="translate(18.9425 133.024531)scale(0.08 -0.08)">
       <use xlink:href="#DejaVuSans-48"/>
       <use x="63.623047" xlink:href="#DejaVuSans-46"/>
       <use x="95.410156" xlink:href="#DejaVuSans-48"/>
      </g>
     </g>
    </g>
    <g id="ytick_2">
     <g id="line2d_8">
      <g>
       <use style="stroke:#000000;stroke-width:0.8;" x="38.665" xlink:href="#md9c413e7bf" y="107.439359"/>
      </g>
     </g>
     <g id="text_9">
      <!-- 0.2 -->
      <g transform="translate(18.9425 110.478734)scale(0.08 -0.08)">
       <use xlink:href="#DejaVuSans-48"/>
       <use x="63.623047" xlink:href="#DejaVuSans-46"/>
       <use x="95.410156" xlink:href="#DejaVuSans-50"/>
      </g>
     </g>
    </g>
    <g id="ytick_3">
     <g id="line2d_9">
      <g>
       <use style="stroke:#000000;stroke-width:0.8;" x="38.665" xlink:href="#md9c413e7bf" y="84.893562"/>
      </g>
     </g>
     <g id="text_10">
      <!-- 0.4 -->
      <g transform="translate(18.9425 87.932937)scale(0.08 -0.08)">
       <use xlink:href="#DejaVuSans-48"/>
       <use x="63.623047" xlink:href="#DejaVuSans-46"/>
       <use x="95.410156" xlink:href="#DejaVuSans-52"/>
      </g>
     </g>
    </g>
    <g id="ytick_4">
     <g id="line2d_10">
      <g>
       <use style="stroke:#000000;stroke-width:0.8;" x="38.665" xlink:href="#md9c413e7bf" y="62.347765"/>
      </g>
     </g>
     <g id="text_11">
      <!-- 0.6 -->
      <g transform="translate(18.9425 65.38714)scale(0.08 -0.08)">
       <use xlink:href="#DejaVuSans-48"/>
       <use x="63.623047" xlink:href="#DejaVuSans-46"/>
       <use x="95.410156" xlink:href="#DejaVuSans-54"/>
      </g>
     </g>
    </g>
    <g id="ytick_5">
     <g id="line2d_11">
      <g>
       <use style="stroke:#000000;stroke-width:0.8;" x="38.665" xlink:href="#md9c413e7bf" y="39.801969"/>
      </g>
     </g>
     <g id="text_12">
      <!-- 0.8 -->
      <g transform="translate(18.9425 42.841344)scale(0.08 -0.08)">
       <use xlink:href="#DejaVuSans-48"/>
       <use x="63.623047" xlink:href="#DejaVuSans-46"/>
       <use x="95.410156" xlink:href="#DejaVuSans-56"/>
      </g>
     </g>
    </g>
    <g id="ytick_6">
     <g id="line2d_12">
      <g>
       <use style="stroke:#000000;stroke-width:0.8;" x="38.665" xlink:href="#md9c413e7bf" y="17.256172"/>
      </g>
     </g>
     <g id="text_13">
      <!-- 1.0 -->
      <g transform="translate(18.9425 20.295547)scale(0.08 -0.08)">
       <use xlink:href="#DejaVuSans-49"/>
       <use x="63.623047" xlink:href="#DejaVuSans-46"/>
       <use x="95.410156" xlink:href="#DejaVuSans-48"/>
      </g>
     </g>
    </g>
    <g id="text_14">
     <!-- Concentration [a.u.] -->
     <defs>
      <path d="M 64.40625 67.28125 
L 64.40625 56.890625 
Q 59.421875 61.53125 53.78125 63.8125 
Q 48.140625 66.109375 41.796875 66.109375 
Q 29.296875 66.109375 22.65625 58.46875 
Q 16.015625 50.828125 16.015625 36.375 
Q 16.015625 21.96875 22.65625 14.328125 
Q 29.296875 6.6875 41.796875 6.6875 
Q 48.140625 6.6875 53.78125 8.984375 
Q 59.421875 11.28125 64.40625 15.921875 
L 64.40625 5.609375 
Q 59.234375 2.09375 53.4375 0.328125 
Q 47.65625 -1.421875 41.21875 -1.421875 
Q 24.65625 -1.421875 15.125 8.703125 
Q 5.609375 18.84375 5.609375 36.375 
Q 5.609375 53.953125 15.125 64.078125 
Q 24.65625 74.21875 41.21875 74.21875 
Q 47.75 74.21875 53.53125 72.484375 
Q 59.328125 70.75 64.40625 67.28125 
z
" id="DejaVuSans-67"/>
      <path d="M 30.609375 48.390625 
Q 23.390625 48.390625 19.1875 42.75 
Q 14.984375 37.109375 14.984375 27.296875 
Q 14.984375 17.484375 19.15625 11.84375 
Q 23.34375 6.203125 30.609375 6.203125 
Q 37.796875 6.203125 41.984375 11.859375 
Q 46.1875 17.53125 46.1875 27.296875 
Q 46.1875 37.015625 41.984375 42.703125 
Q 37.796875 48.390625 30.609375 48.390625 
z
M 30.609375 56 
Q 42.328125 56 49.015625 48.375 
Q 55.71875 40.765625 55.71875 27.296875 
Q 55.71875 13.875 49.015625 6.21875 
Q 42.328125 -1.421875 30.609375 -1.421875 
Q 18.84375 -1.421875 12.171875 6.21875 
Q 5.515625 13.875 5.515625 27.296875 
Q 5.515625 40.765625 12.171875 48.375 
Q 18.84375 56 30.609375 56 
z
" id="DejaVuSans-111"/>
      <path d="M 54.890625 33.015625 
L 54.890625 0 
L 45.90625 0 
L 45.90625 32.71875 
Q 45.90625 40.484375 42.875 44.328125 
Q 39.84375 48.1875 33.796875 48.1875 
Q 26.515625 48.1875 22.3125 43.546875 
Q 18.109375 38.921875 18.109375 30.90625 
L 18.109375 0 
L 9.078125 0 
L 9.078125 54.6875 
L 18.109375 54.6875 
L 18.109375 46.1875 
Q 21.34375 51.125 25.703125 53.5625 
Q 30.078125 56 35.796875 56 
Q 45.21875 56 50.046875 50.171875 
Q 54.890625 44.34375 54.890625 33.015625 
z
" id="DejaVuSans-110"/>
      <path d="M 48.78125 52.59375 
L 48.78125 44.1875 
Q 44.96875 46.296875 41.140625 47.34375 
Q 37.3125 48.390625 33.40625 48.390625 
Q 24.65625 48.390625 19.8125 42.84375 
Q 14.984375 37.3125 14.984375 27.296875 
Q 14.984375 17.28125 19.8125 11.734375 
Q 24.65625 6.203125 33.40625 6.203125 
Q 37.3125 6.203125 41.140625 7.25 
Q 44.96875 8.296875 48.78125 10.40625 
L 48.78125 2.09375 
Q 45.015625 0.34375 40.984375 -0.53125 
Q 36.96875 -1.421875 32.421875 -1.421875 
Q 20.0625 -1.421875 12.78125 6.34375 
Q 5.515625 14.109375 5.515625 27.296875 
Q 5.515625 40.671875 12.859375 48.328125 
Q 20.21875 56 33.015625 56 
Q 37.15625 56 41.109375 55.140625 
Q 45.0625 54.296875 48.78125 52.59375 
z
" id="DejaVuSans-99"/>
      <path d="M 18.3125 70.21875 
L 18.3125 54.6875 
L 36.8125 54.6875 
L 36.8125 47.703125 
L 18.3125 47.703125 
L 18.3125 18.015625 
Q 18.3125 11.328125 20.140625 9.421875 
Q 21.96875 7.515625 27.59375 7.515625 
L 36.8125 7.515625 
L 36.8125 0 
L 27.59375 0 
Q 17.1875 0 13.234375 3.875 
Q 9.28125 7.765625 9.28125 18.015625 
L 9.28125 47.703125 
L 2.6875 47.703125 
L 2.6875 54.6875 
L 9.28125 54.6875 
L 9.28125 70.21875 
z
" id="DejaVuSans-116"/>
      <path d="M 41.109375 46.296875 
Q 39.59375 47.171875 37.8125 47.578125 
Q 36.03125 48 33.890625 48 
Q 26.265625 48 22.1875 43.046875 
Q 18.109375 38.09375 18.109375 28.8125 
L 18.109375 0 
L 9.078125 0 
L 9.078125 54.6875 
L 18.109375 54.6875 
L 18.109375 46.1875 
Q 20.953125 51.171875 25.484375 53.578125 
Q 30.03125 56 36.53125 56 
Q 37.453125 56 38.578125 55.875 
Q 39.703125 55.765625 41.0625 55.515625 
z
" id="DejaVuSans-114"/>
     </defs>
     <g transform="translate(13.27875 111.734159)rotate(-90)scale(0.08 -0.08)">
      <use xlink:href="#DejaVuSans-67"/>
      <use x="69.824219" xlink:href="#DejaVuSans-111"/>
      <use x="131.005859" xlink:href="#DejaVuSans-110"/>
      <use x="194.384766" xlink:href="#DejaVuSans-99"/>
      <use x="249.365234" xlink:href="#DejaVuSans-101"/>
      <use x="310.888672" xlink:href="#DejaVuSans-110"/>
      <use x="374.267578" xlink:href="#DejaVuSans-116"/>
      <use x="413.476562" xlink:href="#DejaVuSans-114"/>
      <use x="454.589844" xlink:href="#DejaVuSans-97"/>
      <use x="515.869141" xlink:href="#DejaVuSans-116"/>
      <use x="555.078125" xlink:href="#DejaVuSans-105"/>
      <use x="582.861328" xlink:href="#DejaVuSans-111"/>
      <use x="644.042969" xlink:href="#DejaVuSans-110"/>
      <use x="707.421875" xlink:href="#DejaVuSans-32"/>
      <use x="739.208984" xlink:href="#DejaVuSans-91"/>
      <use x="778.222656" xlink:href="#DejaVuSans-97"/>
      <use x="839.501953" xlink:href="#DejaVuSans-46"/>
      <use x="871.289062" xlink:href="#DejaVuSans-117"/>
      <use x="934.667969" xlink:href="#DejaVuSans-46"/>
      <use x="966.455078" xlink:href="#DejaVuSans-93"/>
     </g>
    </g>
   </g>
   <g id="line2d_13">
    <defs>
     <path d="M 0 0.75 
C 0.198902 0.75 0.389685 0.670975 0.53033 0.53033 
C 0.670975 0.389685 0.75 0.198902 0.75 0 
C 0.75 -0.198902 0.670975 -0.389685 0.53033 -0.53033 
C 0.389685 -0.670975 0.198902 -0.75 0 -0.75 
C -0.198902 -0.75 -0.389685 -0.670975 -0.53033 -0.53033 
C -0.670975 -0.389685 -0.75 -0.198902 -0.75 0 
C -0.75 0.198902 -0.670975 0.389685 -0.53033 0.53033 
C -0.389685 0.670975 -0.198902 0.75 0 0.75 
z
" id="m4234f178cc" style="stroke:#0370b8;"/>
    </defs>
    <g clip-path="url(#p638c20e5b8)">
     <use style="fill:#0370b8;stroke:#0370b8;" x="47.152839" xlink:href="#m4234f178cc" y="23.995905"/>
     <use style="fill:#0370b8;stroke:#0370b8;" x="50.617264" xlink:href="#m4234f178cc" y="34.255754"/>
     <use style="fill:#0370b8;stroke:#0370b8;" x="54.081688" xlink:href="#m4234f178cc" y="47.930563"/>
     <use style="fill:#0370b8;stroke:#0370b8;" x="57.546112" xlink:href="#m4234f178cc" y="68.941461"/>
     <use style="fill:#0370b8;stroke:#0370b8;" x="61.010537" xlink:href="#m4234f178cc" y="74.341437"/>
     <use style="fill:#0370b8;stroke:#0370b8;" x="64.474961" xlink:href="#m4234f178cc" y="80.958347"/>
     <use style="fill:#0370b8;stroke:#0370b8;" x="67.939385" xlink:href="#m4234f178cc" y="88.550861"/>
     <use style="fill:#0370b8;stroke:#0370b8;" x="71.403809" xlink:href="#m4234f178cc" y="94.913016"/>
     <use style="fill:#0370b8;stroke:#0370b8;" x="74.868234" xlink:href="#m4234f178cc" y="99.377652"/>
     <use style="fill:#0370b8;stroke:#0370b8;" x="78.332658" xlink:href="#m4234f178cc" y="104.699121"/>
     <use style="fill:#0370b8;stroke:#0370b8;" x="81.797082" xlink:href="#m4234f178cc" y="103.325275"/>
     <use style="fill:#0370b8;stroke:#0370b8;" x="85.261506" xlink:href="#m4234f178cc" y="105.229541"/>
     <use style="fill:#0370b8;stroke:#0370b8;" x="88.725931" xlink:href="#m4234f178cc" y="107.552623"/>
     <use style="fill:#0370b8;stroke:#0370b8;" x="92.190355" xlink:href="#m4234f178cc" y="110.005105"/>
     <use style="fill:#0370b8;stroke:#0370b8;" x="95.654779" xlink:href="#m4234f178cc" y="109.893532"/>
     <use style="fill:#0370b8;stroke:#0370b8;" x="99.119203" xlink:href="#m4234f178cc" y="113.743778"/>
     <use style="fill:#0370b8;stroke:#0370b8;" x="102.583628" xlink:href="#m4234f178cc" y="113.515121"/>
     <use style="fill:#0370b8;stroke:#0370b8;" x="106.048052" xlink:href="#m4234f178cc" y="113.962035"/>
     <use style="fill:#0370b8;stroke:#0370b8;" x="109.512476" xlink:href="#m4234f178cc" y="115.633379"/>
     <use style="fill:#0370b8;stroke:#0370b8;" x="112.976901" xlink:href="#m4234f178cc" y="116.273449"/>
     <use style="fill:#0370b8;stroke:#0370b8;" x="116.441325" xlink:href="#m4234f178cc" y="116.489644"/>
     <use style="fill:#0370b8;stroke:#0370b8;" x="119.905749" xlink:href="#m4234f178cc" y="116.095255"/>
     <use style="fill:#0370b8;stroke:#0370b8;" x="123.370173" xlink:href="#m4234f178cc" y="116.340649"/>
     <use style="fill:#0370b8;stroke:#0370b8;" x="126.834598" xlink:href="#m4234f178cc" y="118.940539"/>
     <use style="fill:#0370b8;stroke:#0370b8;" x="130.299022" xlink:href="#m4234f178cc" y="118.731875"/>
     <use style="fill:#0370b8;stroke:#0370b8;" x="133.763446" xlink:href="#m4234f178cc" y="118.768885"/>
     <use style="fill:#0370b8;stroke:#0370b8;" x="137.22787" xlink:href="#m4234f178cc" y="118.570286"/>
     <use style="fill:#0370b8;stroke:#0370b8;" x="140.692295" xlink:href="#m4234f178cc" y="118.6873"/>
     <use style="fill:#0370b8;stroke:#0370b8;" x="144.156719" xlink:href="#m4234f178cc" y="119.070154"/>
     <use style="fill:#0370b8;stroke:#0370b8;" x="147.621143" xlink:href="#m4234f178cc" y="120.291694"/>
     <use style="fill:#0370b8;stroke:#0370b8;" x="151.085567" xlink:href="#m4234f178cc" y="121.523428"/>
     <use style="fill:#0370b8;stroke:#0370b8;" x="154.549992" xlink:href="#m4234f178cc" y="120.209533"/>
     <use style="fill:#0370b8;stroke:#0370b8;" x="158.014416" xlink:href="#m4234f178cc" y="122.042795"/>
     <use style="fill:#0370b8;stroke:#0370b8;" x="161.47884" xlink:href="#m4234f178cc" y="121.351799"/>
     <use style="fill:#0370b8;stroke:#0370b8;" x="164.943265" xlink:href="#m4234f178cc" y="122.323066"/>
     <use style="fill:#0370b8;stroke:#0370b8;" x="168.407689" xlink:href="#m4234f178cc" y="121.329655"/>
     <use style="fill:#0370b8;stroke:#0370b8;" x="171.872113" xlink:href="#m4234f178cc" y="122.082268"/>
     <use style="fill:#0370b8;stroke:#0370b8;" x="175.336537" xlink:href="#m4234f178cc" y="121.970957"/>
     <use style="fill:#0370b8;stroke:#0370b8;" x="178.800962" xlink:href="#m4234f178cc" y="123.499106"/>
     <use style="fill:#0370b8;stroke:#0370b8;" x="182.265386" xlink:href="#m4234f178cc" y="122.677962"/>
     <use style="fill:#0370b8;stroke:#0370b8;" x="185.72981" xlink:href="#m4234f178cc" y="122.738756"/>
     <use style="fill:#0370b8;stroke:#0370b8;" x="189.194234" xlink:href="#m4234f178cc" y="123.678042"/>
     <use style="fill:#0370b8;stroke:#0370b8;" x="192.658659" xlink:href="#m4234f178cc" y="124.135693"/>
     <use style="fill:#0370b8;stroke:#0370b8;" x="196.123083" xlink:href="#m4234f178cc" y="123.755999"/>
     <use style="fill:#0370b8;stroke:#0370b8;" x="199.587507" xlink:href="#m4234f178cc" y="123.810028"/>
     <use style="fill:#0370b8;stroke:#0370b8;" x="203.051931" xlink:href="#m4234f178cc" y="123.881286"/>
     <use style="fill:#0370b8;stroke:#0370b8;" x="206.516356" xlink:href="#m4234f178cc" y="124.335514"/>
     <use style="fill:#0370b8;stroke:#0370b8;" x="209.98078" xlink:href="#m4234f178cc" y="124.381343"/>
     <use style="fill:#0370b8;stroke:#0370b8;" x="213.445204" xlink:href="#m4234f178cc" y="124.794961"/>
     <use style="fill:#0370b8;stroke:#0370b8;" x="216.909629" xlink:href="#m4234f178cc" y="124.825352"/>
    </g>
   </g>
   <g id="line2d_14">
    <defs>
     <path d="M 0 0.75 
C 0.198902 0.75 0.389685 0.670975 0.53033 0.53033 
C 0.670975 0.389685 0.75 0.198902 0.75 0 
C 0.75 -0.198902 0.670975 -0.389685 0.53033 -0.53033 
C 0.389685 -0.670975 0.198902 -0.75 0 -0.75 
C -0.198902 -0.75 -0.389685 -0.670975 -0.53033 -0.53033 
C -0.670975 -0.389685 -0.75 -0.198902 -0.75 0 
C -0.75 0.198902 -0.670975 0.389685 -0.53033 0.53033 
C -0.389685 0.670975 -0.198902 0.75 0 0.75 
z
" id="mb7064132e5" style="stroke:#d56339;"/>
    </defs>
    <g clip-path="url(#p638c20e5b8)">
     <use style="fill:#d56339;stroke:#d56339;" x="47.152839" xlink:href="#mb7064132e5" y="129.985156"/>
     <use style="fill:#d56339;stroke:#d56339;" x="50.617264" xlink:href="#mb7064132e5" y="108.977289"/>
     <use style="fill:#d56339;stroke:#d56339;" x="54.081688" xlink:href="#mb7064132e5" y="94.98965"/>
     <use style="fill:#d56339;stroke:#d56339;" x="57.546112" xlink:href="#mb7064132e5" y="79.68804"/>
     <use style="fill:#d56339;stroke:#d56339;" x="61.010537" xlink:href="#mb7064132e5" y="72.332171"/>
     <use style="fill:#d56339;stroke:#d56339;" x="64.474961" xlink:href="#mb7064132e5" y="71.263787"/>
     <use style="fill:#d56339;stroke:#d56339;" x="67.939385" xlink:href="#mb7064132e5" y="72.703509"/>
     <use style="fill:#d56339;stroke:#d56339;" x="71.403809" xlink:href="#mb7064132e5" y="69.745674"/>
     <use style="fill:#d56339;stroke:#d56339;" x="74.868234" xlink:href="#mb7064132e5" y="68.971637"/>
     <use style="fill:#d56339;stroke:#d56339;" x="78.332658" xlink:href="#mb7064132e5" y="67.000629"/>
     <use style="fill:#d56339;stroke:#d56339;" x="81.797082" xlink:href="#mb7064132e5" y="59.365736"/>
     <use style="fill:#d56339;stroke:#d56339;" x="85.261506" xlink:href="#mb7064132e5" y="62.8342"/>
     <use style="fill:#d56339;stroke:#d56339;" x="88.725931" xlink:href="#mb7064132e5" y="70.670944"/>
     <use style="fill:#d56339;stroke:#d56339;" x="92.190355" xlink:href="#mb7064132e5" y="64.128719"/>
     <use style="fill:#d56339;stroke:#d56339;" x="95.654779" xlink:href="#mb7064132e5" y="67.490497"/>
     <use style="fill:#d56339;stroke:#d56339;" x="99.119203" xlink:href="#mb7064132e5" y="73.81689"/>
     <use style="fill:#d56339;stroke:#d56339;" x="102.583628" xlink:href="#mb7064132e5" y="65.077564"/>
     <use style="fill:#d56339;stroke:#d56339;" x="106.048052" xlink:href="#mb7064132e5" y="70.20017"/>
     <use style="fill:#d56339;stroke:#d56339;" x="109.512476" xlink:href="#mb7064132e5" y="73.730351"/>
     <use style="fill:#d56339;stroke:#d56339;" x="112.976901" xlink:href="#mb7064132e5" y="76.573475"/>
     <use style="fill:#d56339;stroke:#d56339;" x="116.441325" xlink:href="#mb7064132e5" y="73.952643"/>
     <use style="fill:#d56339;stroke:#d56339;" x="119.905749" xlink:href="#mb7064132e5" y="80.693375"/>
     <use style="fill:#d56339;stroke:#d56339;" x="123.370173" xlink:href="#mb7064132e5" y="77.940293"/>
     <use style="fill:#d56339;stroke:#d56339;" x="126.834598" xlink:href="#mb7064132e5" y="82.088793"/>
     <use style="fill:#d56339;stroke:#d56339;" x="130.299022" xlink:href="#mb7064132e5" y="79.531727"/>
     <use style="fill:#d56339;stroke:#d56339;" x="133.763446" xlink:href="#mb7064132e5" y="82.548747"/>
     <use style="fill:#d56339;stroke:#d56339;" x="137.22787" xlink:href="#mb7064132e5" y="84.895475"/>
     <use style="fill:#d56339;stroke:#d56339;" x="140.692295" xlink:href="#mb7064132e5" y="83.56438"/>
     <use style="fill:#d56339;stroke:#d56339;" x="144.156719" xlink:href="#mb7064132e5" y="87.817274"/>
     <use style="fill:#d56339;stroke:#d56339;" x="147.621143" xlink:href="#mb7064132e5" y="89.083771"/>
     <use style="fill:#d56339;stroke:#d56339;" x="151.085567" xlink:href="#mb7064132e5" y="88.431969"/>
     <use style="fill:#d56339;stroke:#d56339;" x="154.549992" xlink:href="#mb7064132e5" y="95.816772"/>
     <use style="fill:#d56339;stroke:#d56339;" x="158.014416" xlink:href="#mb7064132e5" y="96.327369"/>
     <use style="fill:#d56339;stroke:#d56339;" x="161.47884" xlink:href="#mb7064132e5" y="96.741028"/>
     <use style="fill:#d56339;stroke:#d56339;" x="164.943265" xlink:href="#mb7064132e5" y="92.654918"/>
     <use style="fill:#d56339;stroke:#d56339;" x="168.407689" xlink:href="#mb7064132e5" y="94.533628"/>
     <use style="fill:#d56339;stroke:#d56339;" x="171.872113" xlink:href="#mb7064132e5" y="95.679917"/>
     <use style="fill:#d56339;stroke:#d56339;" x="175.336537" xlink:href="#mb7064132e5" y="100.554496"/>
     <use style="fill:#d56339;stroke:#d56339;" x="178.800962" xlink:href="#mb7064132e5" y="97.696573"/>
     <use style="fill:#d56339;stroke:#d56339;" x="182.265386" xlink:href="#mb7064132e5" y="99.323354"/>
     <use style="fill:#d56339;stroke:#d56339;" x="185.72981" xlink:href="#mb7064132e5" y="100.98508"/>
     <use style="fill:#d56339;stroke:#d56339;" x="189.194234" xlink:href="#mb7064132e5" y="104.641582"/>
     <use style="fill:#d56339;stroke:#d56339;" x="192.658659" xlink:href="#mb7064132e5" y="102.851137"/>
     <use style="fill:#d56339;stroke:#d56339;" x="196.123083" xlink:href="#mb7064132e5" y="105.209448"/>
     <use style="fill:#d56339;stroke:#d56339;" x="199.587507" xlink:href="#mb7064132e5" y="105.626409"/>
     <use style="fill:#d56339;stroke:#d56339;" x="203.051931" xlink:href="#mb7064132e5" y="105.753916"/>
     <use style="fill:#d56339;stroke:#d56339;" x="206.516356" xlink:href="#mb7064132e5" y="107.620942"/>
     <use style="fill:#d56339;stroke:#d56339;" x="209.98078" xlink:href="#mb7064132e5" y="105.750489"/>
     <use style="fill:#d56339;stroke:#d56339;" x="213.445204" xlink:href="#mb7064132e5" y="107.78929"/>
     <use style="fill:#d56339;stroke:#d56339;" x="216.909629" xlink:href="#mb7064132e5" y="108.78501"/>
    </g>
   </g>
   <g id="line2d_15">
    <defs>
     <path d="M 0 0.75 
C 0.198902 0.75 0.389685 0.670975 0.53033 0.53033 
C 0.670975 0.389685 0.75 0.198902 0.75 0 
C 0.75 -0.198902 0.670975 -0.389685 0.53033 -0.53033 
C 0.389685 -0.670975 0.198902 -0.75 0 -0.75 
C -0.198902 -0.75 -0.389685 -0.670975 -0.53033 -0.53033 
C -0.670975 -0.389685 -0.75 -0.198902 -0.75 0 
C -0.75 0.198902 -0.670975 0.389685 -0.53033 0.53033 
C -0.389685 0.670975 -0.198902 0.75 0 0.75 
z
" id="md0162529c0" style="stroke:#eeb92e;"/>
    </defs>
    <g clip-path="url(#p638c20e5b8)">
     <use style="fill:#eeb92e;stroke:#eeb92e;" x="47.152839" xlink:href="#md0162529c0" y="106.325016"/>
     <use style="fill:#eeb92e;stroke:#eeb92e;" x="50.617264" xlink:href="#md0162529c0" y="107.512924"/>
     <use style="fill:#eeb92e;stroke:#eeb92e;" x="54.081688" xlink:href="#md0162529c0" y="104.18351"/>
     <use style="fill:#eeb92e;stroke:#eeb92e;" x="57.546112" xlink:href="#md0162529c0" y="103.22923"/>
     <use style="fill:#eeb92e;stroke:#eeb92e;" x="61.010537" xlink:href="#md0162529c0" y="101.534098"/>
     <use style="fill:#eeb92e;stroke:#eeb92e;" x="64.474961" xlink:href="#md0162529c0" y="97.978916"/>
     <use style="fill:#eeb92e;stroke:#eeb92e;" x="67.939385" xlink:href="#md0162529c0" y="97.295085"/>
     <use style="fill:#eeb92e;stroke:#eeb92e;" x="71.403809" xlink:href="#md0162529c0" y="92.17532"/>
     <use style="fill:#eeb92e;stroke:#eeb92e;" x="74.868234" xlink:href="#md0162529c0" y="93.290427"/>
     <use style="fill:#eeb92e;stroke:#eeb92e;" x="78.332658" xlink:href="#md0162529c0" y="90.700577"/>
     <use style="fill:#eeb92e;stroke:#eeb92e;" x="81.797082" xlink:href="#md0162529c0" y="82.284047"/>
     <use style="fill:#eeb92e;stroke:#eeb92e;" x="85.261506" xlink:href="#md0162529c0" y="87.392218"/>
     <use style="fill:#eeb92e;stroke:#eeb92e;" x="88.725931" xlink:href="#md0162529c0" y="77.716261"/>
     <use style="fill:#eeb92e;stroke:#eeb92e;" x="92.190355" xlink:href="#md0162529c0" y="83.276029"/>
     <use style="fill:#eeb92e;stroke:#eeb92e;" x="95.654779" xlink:href="#md0162529c0" y="76.275017"/>
     <use style="fill:#eeb92e;stroke:#eeb92e;" x="99.119203" xlink:href="#md0162529c0" y="70.476654"/>
     <use style="fill:#eeb92e;stroke:#eeb92e;" x="102.583628" xlink:href="#md0162529c0" y="75.269186"/>
     <use style="fill:#eeb92e;stroke:#eeb92e;" x="106.048052" xlink:href="#md0162529c0" y="65.018284"/>
     <use style="fill:#eeb92e;stroke:#eeb92e;" x="109.512476" xlink:href="#md0162529c0" y="60.130825"/>
     <use style="fill:#eeb92e;stroke:#eeb92e;" x="112.976901" xlink:href="#md0162529c0" y="67.921028"/>
     <use style="fill:#eeb92e;stroke:#eeb92e;" x="116.441325" xlink:href="#md0162529c0" y="58.696069"/>
     <use style="fill:#eeb92e;stroke:#eeb92e;" x="119.905749" xlink:href="#md0162529c0" y="64.588235"/>
     <use style="fill:#eeb92e;stroke:#eeb92e;" x="123.370173" xlink:href="#md0162529c0" y="59.779813"/>
     <use style="fill:#eeb92e;stroke:#eeb92e;" x="126.834598" xlink:href="#md0162529c0" y="61.846498"/>
     <use style="fill:#eeb92e;stroke:#eeb92e;" x="130.299022" xlink:href="#md0162529c0" y="55.596683"/>
     <use style="fill:#eeb92e;stroke:#eeb92e;" x="133.763446" xlink:href="#md0162529c0" y="47.677566"/>
     <use style="fill:#eeb92e;stroke:#eeb92e;" x="137.22787" xlink:href="#md0162529c0" y="50.361644"/>
     <use style="fill:#eeb92e;stroke:#eeb92e;" x="140.692295" xlink:href="#md0162529c0" y="48.373953"/>
     <use style="fill:#eeb92e;stroke:#eeb92e;" x="144.156719" xlink:href="#md0162529c0" y="50.767538"/>
     <use style="fill:#eeb92e;stroke:#eeb92e;" x="147.621143" xlink:href="#md0162529c0" y="47.189207"/>
     <use style="fill:#eeb92e;stroke:#eeb92e;" x="151.085567" xlink:href="#md0162529c0" y="48.189111"/>
     <use style="fill:#eeb92e;stroke:#eeb92e;" x="154.549992" xlink:href="#md0162529c0" y="45.643646"/>
     <use style="fill:#eeb92e;stroke:#eeb92e;" x="158.014416" xlink:href="#md0162529c0" y="31.741279"/>
     <use style="fill:#eeb92e;stroke:#eeb92e;" x="161.47884" xlink:href="#md0162529c0" y="41.263071"/>
     <use style="fill:#eeb92e;stroke:#eeb92e;" x="164.943265" xlink:href="#md0162529c0" y="37.668182"/>
     <use style="fill:#eeb92e;stroke:#eeb92e;" x="168.407689" xlink:href="#md0162529c0" y="43.751931"/>
     <use style="fill:#eeb92e;stroke:#eeb92e;" x="171.872113" xlink:href="#md0162529c0" y="31.729039"/>
     <use style="fill:#eeb92e;stroke:#eeb92e;" x="175.336537" xlink:href="#md0162529c0" y="26.477129"/>
     <use style="fill:#eeb92e;stroke:#eeb92e;" x="178.800962" xlink:href="#md0162529c0" y="33.474314"/>
     <use style="fill:#eeb92e;stroke:#eeb92e;" x="182.265386" xlink:href="#md0162529c0" y="26.976281"/>
     <use style="fill:#eeb92e;stroke:#eeb92e;" x="185.72981" xlink:href="#md0162529c0" y="38.910614"/>
     <use style="fill:#eeb92e;stroke:#eeb92e;" x="189.194234" xlink:href="#md0162529c0" y="35.941154"/>
     <use style="fill:#eeb92e;stroke:#eeb92e;" x="192.658659" xlink:href="#md0162529c0" y="32.229571"/>
     <use style="fill:#eeb92e;stroke:#eeb92e;" x="196.123083" xlink:href="#md0162529c0" y="32.045115"/>
     <use style="fill:#eeb92e;stroke:#eeb92e;" x="199.587507" xlink:href="#md0162529c0" y="18.993759"/>
     <use style="fill:#eeb92e;stroke:#eeb92e;" x="203.051931" xlink:href="#md0162529c0" y="34.359393"/>
     <use style="fill:#eeb92e;stroke:#eeb92e;" x="206.516356" xlink:href="#md0162529c0" y="22.957823"/>
     <use style="fill:#eeb92e;stroke:#eeb92e;" x="209.98078" xlink:href="#md0162529c0" y="13.046912"/>
     <use style="fill:#eeb92e;stroke:#eeb92e;" x="213.445204" xlink:href="#md0162529c0" y="19.48723"/>
     <use style="fill:#eeb92e;stroke:#eeb92e;" x="216.909629" xlink:href="#md0162529c0" y="31.402573"/>
    </g>
   </g>
   <g id="line2d_16">
    <path clip-path="url(#p638c20e5b8)" d="M 47.152839 18.21488 
L 49.431454 31.822404 
L 51.710069 43.448697 
L 53.988683 53.390637 
L 56.267298 61.900438 
L 58.545913 69.192367 
L 60.824527 75.44846 
L 63.103142 80.823376 
L 65.381756 85.448509 
L 67.660371 89.435502 
L 69.938986 92.879213 
L 72.2176 95.860244 
L 74.496215 98.447088 
L 76.774829 100.697946 
L 79.053444 102.662285 
L 81.332059 104.382145 
L 83.610673 105.893259 
L 87.028595 107.833718 
L 90.446517 109.455823 
L 93.864439 110.825471 
L 98.421668 112.346652 
L 102.978898 113.60253 
L 108.675434 114.899994 
L 115.511278 116.174535 
L 123.486429 117.398296 
L 132.600888 118.567542 
L 143.993961 119.802931 
L 157.665648 121.061432 
L 173.615951 122.308997 
L 191.844868 123.511891 
L 212.352399 124.6376 
L 216.909629 124.859672 
L 216.909629 124.859672 
" style="fill:none;stroke:#0370b8;stroke-linecap:square;"/>
   </g>
   <g id="line2d_17">
    <path clip-path="url(#p638c20e5b8)" d="M 47.152839 129.985156 
L 49.431454 116.559494 
L 51.710069 105.436754 
L 53.988683 96.264304 
L 56.267298 88.742722 
L 58.545913 82.617794 
L 60.824527 77.673696 
L 63.103142 73.727215 
L 65.381756 70.62284 
L 67.660371 68.228584 
L 69.938986 66.432439 
L 72.2176 65.139369 
L 74.496215 64.268753 
L 76.774829 63.752208 
L 79.053444 63.53175 
L 81.332059 63.558221 
L 83.610673 63.789961 
L 87.028595 64.446746 
L 90.446517 65.39007 
L 93.864439 66.544295 
L 98.421668 68.311659 
L 105.257512 71.252943 
L 133.740195 83.892149 
L 142.854653 87.554835 
L 151.969112 90.959917 
L 161.08357 94.109115 
L 170.198029 97.013221 
L 179.312487 99.686947 
L 188.426946 102.146304 
L 198.680712 104.676759 
L 208.934477 106.977975 
L 216.909629 108.622417 
L 216.909629 108.622417 
" style="fill:none;stroke:#d56339;stroke-linecap:square;"/>
   </g>
   <g id="line2d_18">
    <path clip-path="url(#p638c20e5b8)" d="M 47.152839 106.703851 
L 49.431454 106.521988 
L 51.710069 106.018435 
L 53.988683 105.248946 
L 56.267298 104.260727 
L 59.68522 102.453954 
L 63.103142 100.353295 
L 67.660371 97.2398 
L 73.356908 93.049014 
L 98.421668 74.245576 
L 106.39682 68.729834 
L 113.232663 64.262063 
L 120.068507 60.039301 
L 126.904351 56.058146 
L 133.740195 52.310882 
L 140.576039 48.787493 
L 148.55119 44.944993 
L 156.526341 41.373915 
L 164.501492 38.056282 
L 172.476643 34.974781 
L 180.451795 32.112987 
L 189.566253 29.09162 
L 198.680712 26.315593 
L 207.79517 23.765077 
L 216.909629 21.421797 
L 216.909629 21.421797 
" style="fill:none;stroke:#eeb92e;stroke-linecap:square;"/>
   </g>
   <g id="patch_3">
    <path d="M 38.665 135.832068 
L 38.665 7.2 
" style="fill:none;stroke:#000000;stroke-linecap:square;stroke-linejoin:miter;stroke-width:0.8;"/>
   </g>
   <g id="patch_4">
    <path d="M 225.397468 135.832068 
L 225.397468 7.2 
" style="fill:none;stroke:#000000;stroke-linecap:square;stroke-linejoin:miter;stroke-width:0.8;"/>
   </g>
   <g id="patch_5">
    <path d="M 38.665 135.832068 
L 225.397468 135.832068 
" style="fill:none;stroke:#000000;stroke-linecap:square;stroke-linejoin:miter;stroke-width:0.8;"/>
   </g>
   <g id="patch_6">
    <path d="M 38.665 7.2 
L 225.397468 7.2 
" style="fill:none;stroke:#000000;stroke-linecap:square;stroke-linejoin:miter;stroke-width:0.8;"/>
   </g>
   <g id="legend_1">
    <g id="patch_7">
     <path d="M 188.611218 90.329784 
L 219.797468 90.329784 
Q 221.397468 90.329784 221.397468 88.729784 
L 221.397468 54.302284 
Q 221.397468 52.702284 219.797468 52.702284 
L 188.611218 52.702284 
Q 187.011218 52.702284 187.011218 54.302284 
L 187.011218 88.729784 
Q 187.011218 90.329784 188.611218 90.329784 
z
" style="fill:#ffffff;opacity:0.8;stroke:#cccccc;stroke-linejoin:miter;"/>
    </g>
    <g id="line2d_19"/>
    <g id="line2d_20">
     <g>
      <use style="fill:#0370b8;stroke:#0370b8;" x="198.211218" xlink:href="#m4234f178cc" y="59.181034"/>
     </g>
    </g>
    <g id="text_15">
     <!-- A -->
     <defs>
      <path d="M 34.1875 63.1875 
L 20.796875 26.90625 
L 47.609375 26.90625 
z
M 28.609375 72.90625 
L 39.796875 72.90625 
L 67.578125 0 
L 57.328125 0 
L 50.6875 18.703125 
L 17.828125 18.703125 
L 11.1875 0 
L 0.78125 0 
z
" id="DejaVuSans-65"/>
     </defs>
     <g transform="translate(212.611218 61.981034)scale(0.08 -0.08)">
      <use xlink:href="#DejaVuSans-65"/>
     </g>
    </g>
    <g id="line2d_21"/>
    <g id="line2d_22">
     <g>
      <use style="fill:#d56339;stroke:#d56339;" x="198.211218" xlink:href="#mb7064132e5" y="70.923534"/>
     </g>
    </g>
    <g id="text_16">
     <!-- B -->
     <defs>
      <path d="M 19.671875 34.8125 
L 19.671875 8.109375 
L 35.5 8.109375 
Q 43.453125 8.109375 47.28125 11.40625 
Q 51.125 14.703125 51.125 21.484375 
Q 51.125 28.328125 47.28125 31.5625 
Q 43.453125 34.8125 35.5 34.8125 
z
M 19.671875 64.796875 
L 19.671875 42.828125 
L 34.28125 42.828125 
Q 41.5 42.828125 45.03125 45.53125 
Q 48.578125 48.25 48.578125 53.8125 
Q 48.578125 59.328125 45.03125 62.0625 
Q 41.5 64.796875 34.28125 64.796875 
z
M 9.8125 72.90625 
L 35.015625 72.90625 
Q 46.296875 72.90625 52.390625 68.21875 
Q 58.5 63.53125 58.5 54.890625 
Q 58.5 48.1875 55.375 44.234375 
Q 52.25 40.28125 46.1875 39.3125 
Q 53.46875 37.75 57.5 32.78125 
Q 61.53125 27.828125 61.53125 20.40625 
Q 61.53125 10.640625 54.890625 5.3125 
Q 48.25 0 35.984375 0 
L 9.8125 0 
z
" id="DejaVuSans-66"/>
     </defs>
     <g transform="translate(212.611218 73.723534)scale(0.08 -0.08)">
      <use xlink:href="#DejaVuSans-66"/>
     </g>
    </g>
    <g id="line2d_23"/>
    <g id="line2d_24">
     <g>
      <use style="fill:#eeb92e;stroke:#eeb92e;" x="198.211218" xlink:href="#md0162529c0" y="82.666034"/>
     </g>
    </g>
    <g id="text_17">
     <!-- C -->
     <g transform="translate(212.611218 85.466034)scale(0.08 -0.08)">
      <use xlink:href="#DejaVuSans-67"/>
     </g>
    </g>
   </g>
  </g>
 </g>
 <defs>
  <clipPath id="p638c20e5b8">
   <rect height="128.632068" width="186.732468" x="38.665" y="7.2"/>
  </clipPath>
 </defs>
</svg>
