<?xml version="1.0" encoding="utf-8" standalone="no"?>
<!DOCTYPE svg PUBLIC "-//W3C//DTD SVG 1.1//EN"
  "http://www.w3.org/Graphics/SVG/1.1/DTD/svg11.dtd">
<!-- Created with matplotlib (https://matplotlib.org/) -->
<svg height="169.517068pt" version="1.1" viewBox="0 0 232.597468 169.517068" width="232.597468pt" xmlns="http://www.w3.org/2000/svg" xmlns:xlink="http://www.w3.org/1999/xlink">
 <defs>
  <style type="text/css">
*{stroke-linecap:butt;stroke-linejoin:round;}
  </style>
 </defs>
 <g id="figure_1">
  <g id="patch_1">
   <path d="M 0 169.517068 
L 232.597468 169.517068 
L 232.597468 0 
L 0 0 
z
" style="fill:#ffffff;"/>
  </g>
  <g id="axes_1">
   <g id="patch_2">
    <path d="M 38.665 135.832068 
L 225.397468 135.832068 
L 225.397468 7.2 
L 38.665 7.2 
z
" style="fill:#ffffff;"/>
   </g>
   <g id="matplotlib.axis_1">
    <g id="xtick_1">
     <g id="line2d_1">
      <defs>
       <path d="M 0 0 
L 0 3.5 
" id="md653e5b8cd" style="stroke:#000000;stroke-width:0.8;"/>
      </defs>
      <g>
       <use style="stroke:#000000;stroke-width:0.8;" x="47.152839" xlink:href="#md653e5b8cd" y="135.832068"/>
      </g>
     </g>
     <g id="text_1">
      <!-- 0 -->
      <defs>
       <path d="M 31.78125 66.40625 
Q 24.171875 66.40625 20.328125 58.90625 
Q 16.5 51.421875 16.5 36.375 
Q 16.5 21.390625 20.328125 13.890625 
Q 24.171875 6.390625 31.78125 6.390625 
Q 39.453125 6.390625 43.28125 13.890625 
Q 47.125 21.390625 47.125 36.375 
Q 47.125 51.421875 43.28125 58.90625 
Q 39.453125 66.40625 31.78125 66.40625 
z
M 31.78125 74.21875 
Q 44.046875 74.21875 50.515625 64.515625 
Q 56.984375 54.828125 56.984375 36.375 
Q 56.984375 17.96875 50.515625 8.265625 
Q 44.046875 -1.421875 31.78125 -1.421875 
Q 19.53125 -1.421875 13.0625 8.265625 
Q 6.59375 17.96875 6.59375 36.375 
Q 6.59375 54.828125 13.0625 64.515625 
Q 19.53125 74.21875 31.78125 74.21875 
z
" id="DejaVuSans-48"/>
      </defs>
      <g transform="translate(44.607839 148.910818)scale(0.08 -0.08)">
       <use xlink:href="#DejaVuSans-48"/>
      </g>
     </g>
    </g>
    <g id="xtick_2">
     <g id="line2d_2">
      <g>
       <use style="stroke:#000000;stroke-width:0.8;" x="81.104197" xlink:href="#md653e5b8cd" y="135.832068"/>
      </g>
     </g>
     <g id="text_2">
      <!-- 20 -->
      <defs>
       <path d="M 19.1875 8.296875 
L 53.609375 8.296875 
L 53.609375 0 
L 7.328125 0 
L 7.328125 8.296875 
Q 12.9375 14.109375 22.625 23.890625 
Q 32.328125 33.6875 34.8125 36.53125 
Q 39.546875 41.84375 41.421875 45.53125 
Q 43.3125 49.21875 43.3125 52.78125 
Q 43.3125 58.59375 39.234375 62.25 
Q 35.15625 65.921875 28.609375 65.921875 
Q 23.96875 65.921875 18.8125 64.3125 
Q 13.671875 62.703125 7.8125 59.421875 
L 7.8125 69.390625 
Q 13.765625 71.78125 18.9375 73 
Q 24.125 74.21875 28.421875 74.21875 
Q 39.75 74.21875 46.484375 68.546875 
Q 53.21875 62.890625 53.21875 53.421875 
Q 53.21875 48.921875 51.53125 44.890625 
Q 49.859375 40.875 45.40625 35.40625 
Q 44.1875 33.984375 37.640625 27.21875 
Q 31.109375 20.453125 19.1875 8.296875 
z
" id="DejaVuSans-50"/>
      </defs>
      <g transform="translate(76.014197 148.910818)scale(0.08 -0.08)">
       <use xlink:href="#DejaVuSans-50"/>
       <use x="63.623047" xlink:href="#DejaVuSans-48"/>
      </g>
     </g>
    </g>
    <g id="xtick_3">
     <g id="line2d_3">
      <g>
       <use style="stroke:#000000;stroke-width:0.8;" x="115.055555" xlink:href="#md653e5b8cd" y="135.832068"/>
      </g>
     </g>
     <g id="text_3">
      <!-- 40 -->
      <defs>
       <path d="M 37.796875 64.3125 
L 12.890625 25.390625 
L 37.796875 25.390625 
z
M 35.203125 72.90625 
L 47.609375 72.90625 
L 47.609375 25.390625 
L 58.015625 25.390625 
L 58.015625 17.1875 
L 47.609375 17.1875 
L 47.609375 0 
L 37.796875 0 
L 37.796875 17.1875 
L 4.890625 17.1875 
L 4.890625 26.703125 
z
" id="DejaVuSans-52"/>
      </defs>
      <g transform="translate(109.965555 148.910818)scale(0.08 -0.08)">
       <use xlink:href="#DejaVuSans-52"/>
       <use x="63.623047" xlink:href="#DejaVuSans-48"/>
      </g>
     </g>
    </g>
    <g id="xtick_4">
     <g id="line2d_4">
      <g>
       <use style="stroke:#000000;stroke-width:0.8;" x="149.006913" xlink:href="#md653e5b8cd" y="135.832068"/>
      </g>
     </g>
     <g id="text_4">
      <!-- 60 -->
      <defs>
       <path d="M 33.015625 40.375 
Q 26.375 40.375 22.484375 35.828125 
Q 18.609375 31.296875 18.609375 23.390625 
Q 18.609375 15.53125 22.484375 10.953125 
Q 26.375 6.390625 33.015625 6.390625 
Q 39.65625 6.390625 43.53125 10.953125 
Q 47.40625 15.53125 47.40625 23.390625 
Q 47.40625 31.296875 43.53125 35.828125 
Q 39.65625 40.375 33.015625 40.375 
z
M 52.59375 71.296875 
L 52.59375 62.3125 
Q 48.875 64.0625 45.09375 64.984375 
Q 41.3125 65.921875 37.59375 65.921875 
Q 27.828125 65.921875 22.671875 59.328125 
Q 17.53125 52.734375 16.796875 39.40625 
Q 19.671875 43.65625 24.015625 45.921875 
Q 28.375 48.1875 33.59375 48.1875 
Q 44.578125 48.1875 50.953125 41.515625 
Q 57.328125 34.859375 57.328125 23.390625 
Q 57.328125 12.15625 50.6875 5.359375 
Q 44.046875 -1.421875 33.015625 -1.421875 
Q 20.359375 -1.421875 13.671875 8.265625 
Q 6.984375 17.96875 6.984375 36.375 
Q 6.984375 53.65625 15.1875 63.9375 
Q 23.390625 74.21875 37.203125 74.21875 
Q 40.921875 74.21875 44.703125 73.484375 
Q 48.484375 72.75 52.59375 71.296875 
z
" id="DejaVuSans-54"/>
      </defs>
      <g transform="translate(143.916913 148.910818)scale(0.08 -0.08)">
       <use xlink:href="#DejaVuSans-54"/>
       <use x="63.623047" xlink:href="#DejaVuSans-48"/>
      </g>
     </g>
    </g>
    <g id="xtick_5">
     <g id="line2d_5">
      <g>
       <use style="stroke:#000000;stroke-width:0.8;" x="182.958271" xlink:href="#md653e5b8cd" y="135.832068"/>
      </g>
     </g>
     <g id="text_5">
      <!-- 80 -->
      <defs>
       <path d="M 31.78125 34.625 
Q 24.75 34.625 20.71875 30.859375 
Q 16.703125 27.09375 16.703125 20.515625 
Q 16.703125 13.921875 20.71875 10.15625 
Q 24.75 6.390625 31.78125 6.390625 
Q 38.8125 6.390625 42.859375 10.171875 
Q 46.921875 13.96875 46.921875 20.515625 
Q 46.921875 27.09375 42.890625 30.859375 
Q 38.875 34.625 31.78125 34.625 
z
M 21.921875 38.8125 
Q 15.578125 40.375 12.03125 44.71875 
Q 8.5 49.078125 8.5 55.328125 
Q 8.5 64.0625 14.71875 69.140625 
Q 20.953125 74.21875 31.78125 74.21875 
Q 42.671875 74.21875 48.875 69.140625 
Q 55.078125 64.0625 55.078125 55.328125 
Q 55.078125 49.078125 51.53125 44.71875 
Q 48 40.375 41.703125 38.8125 
Q 48.828125 37.15625 52.796875 32.3125 
Q 56.78125 27.484375 56.78125 20.515625 
Q 56.78125 9.90625 50.3125 4.234375 
Q 43.84375 -1.421875 31.78125 -1.421875 
Q 19.734375 -1.421875 13.25 4.234375 
Q 6.78125 9.90625 6.78125 20.515625 
Q 6.78125 27.484375 10.78125 32.3125 
Q 14.796875 37.15625 21.921875 38.8125 
z
M 18.3125 54.390625 
Q 18.3125 48.734375 21.84375 45.5625 
Q 25.390625 42.390625 31.78125 42.390625 
Q 38.140625 42.390625 41.71875 45.5625 
Q 45.3125 48.734375 45.3125 54.390625 
Q 45.3125 60.0625 41.71875 63.234375 
Q 38.140625 66.40625 31.78125 66.40625 
Q 25.390625 66.40625 21.84375 63.234375 
Q 18.3125 60.0625 18.3125 54.390625 
z
" id="DejaVuSans-56"/>
      </defs>
      <g transform="translate(177.868271 148.910818)scale(0.08 -0.08)">
       <use xlink:href="#DejaVuSans-56"/>
       <use x="63.623047" xlink:href="#DejaVuSans-48"/>
      </g>
     </g>
    </g>
    <g id="xtick_6">
     <g id="line2d_6">
      <g>
       <use style="stroke:#000000;stroke-width:0.8;" x="216.909629" xlink:href="#md653e5b8cd" y="135.832068"/>
      </g>
     </g>
     <g id="text_6">
      <!-- 100 -->
      <defs>
       <path d="M 12.40625 8.296875 
L 28.515625 8.296875 
L 28.515625 63.921875 
L 10.984375 60.40625 
L 10.984375 69.390625 
L 28.421875 72.90625 
L 38.28125 72.90625 
L 38.28125 8.296875 
L 54.390625 8.296875 
L 54.390625 0 
L 12.40625 0 
z
" id="DejaVuSans-49"/>
      </defs>
      <g transform="translate(209.274629 148.910818)scale(0.08 -0.08)">
       <use xlink:href="#DejaVuSans-49"/>
       <use x="63.623047" xlink:href="#DejaVuSans-48"/>
       <use x="127.246094" xlink:href="#DejaVuSans-48"/>
      </g>
     </g>
    </g>
    <g id="text_7">
     <!-- Time [a.u.] -->
     <defs>
      <path d="M -0.296875 72.90625 
L 61.375 72.90625 
L 61.375 64.59375 
L 35.5 64.59375 
L 35.5 0 
L 25.59375 0 
L 25.59375 64.59375 
L -0.296875 64.59375 
z
" id="DejaVuSans-84"/>
      <path d="M 9.421875 54.6875 
L 18.40625 54.6875 
L 18.40625 0 
L 9.421875 0 
z
M 9.421875 75.984375 
L 18.40625 75.984375 
L 18.40625 64.59375 
L 9.421875 64.59375 
z
" id="DejaVuSans-105"/>
      <path d="M 52 44.1875 
Q 55.375 50.25 60.0625 53.125 
Q 64.75 56 71.09375 56 
Q 79.640625 56 84.28125 50.015625 
Q 88.921875 44.046875 88.921875 33.015625 
L 88.921875 0 
L 79.890625 0 
L 79.890625 32.71875 
Q 79.890625 40.578125 77.09375 44.375 
Q 74.3125 48.1875 68.609375 48.1875 
Q 61.625 48.1875 57.5625 43.546875 
Q 53.515625 38.921875 53.515625 30.90625 
L 53.515625 0 
L 44.484375 0 
L 44.484375 32.71875 
Q 44.484375 40.625 41.703125 44.40625 
Q 38.921875 48.1875 33.109375 48.1875 
Q 26.21875 48.1875 22.15625 43.53125 
Q 18.109375 38.875 18.109375 30.90625 
L 18.109375 0 
L 9.078125 0 
L 9.078125 54.6875 
L 18.109375 54.6875 
L 18.109375 46.1875 
Q 21.1875 51.21875 25.484375 53.609375 
Q 29.78125 56 35.6875 56 
Q 41.65625 56 45.828125 52.96875 
Q 50 49.953125 52 44.1875 
z
" id="DejaVuSans-109"/>
      <path d="M 56.203125 29.59375 
L 56.203125 25.203125 
L 14.890625 25.203125 
Q 15.484375 15.921875 20.484375 11.0625 
Q 25.484375 6.203125 34.421875 6.203125 
Q 39.59375 6.203125 44.453125 7.46875 
Q 49.3125 8.734375 54.109375 11.28125 
L 54.109375 2.78125 
Q 49.265625 0.734375 44.1875 -0.34375 
Q 39.109375 -1.421875 33.890625 -1.421875 
Q 20.796875 -1.421875 13.15625 6.1875 
Q 5.515625 13.8125 5.515625 26.8125 
Q 5.515625 40.234375 12.765625 48.109375 
Q 20.015625 56 32.328125 56 
Q 43.359375 56 49.78125 48.890625 
Q 56.203125 41.796875 56.203125 29.59375 
z
M 47.21875 32.234375 
Q 47.125 39.59375 43.09375 43.984375 
Q 39.0625 48.390625 32.421875 48.390625 
Q 24.90625 48.390625 20.390625 44.140625 
Q 15.875 39.890625 15.1875 32.171875 
z
" id="DejaVuSans-101"/>
      <path id="DejaVuSans-32"/>
      <path d="M 8.59375 75.984375 
L 29.296875 75.984375 
L 29.296875 69 
L 17.578125 69 
L 17.578125 -6.203125 
L 29.296875 -6.203125 
L 29.296875 -13.1875 
L 8.59375 -13.1875 
z
" id="DejaVuSans-91"/>
      <path d="M 34.28125 27.484375 
Q 23.390625 27.484375 19.1875 25 
Q 14.984375 22.515625 14.984375 16.5 
Q 14.984375 11.71875 18.140625 8.90625 
Q 21.296875 6.109375 26.703125 6.109375 
Q 34.1875 6.109375 38.703125 11.40625 
Q 43.21875 16.703125 43.21875 25.484375 
L 43.21875 27.484375 
z
M 52.203125 31.203125 
L 52.203125 0 
L 43.21875 0 
L 43.21875 8.296875 
Q 40.140625 3.328125 35.546875 0.953125 
Q 30.953125 -1.421875 24.3125 -1.421875 
Q 15.921875 -1.421875 10.953125 3.296875 
Q 6 8.015625 6 15.921875 
Q 6 25.140625 12.171875 29.828125 
Q 18.359375 34.515625 30.609375 34.515625 
L 43.21875 34.515625 
L 43.21875 35.40625 
Q 43.21875 41.609375 39.140625 45 
Q 35.0625 48.390625 27.6875 48.390625 
Q 23 48.390625 18.546875 47.265625 
Q 14.109375 46.140625 10.015625 43.890625 
L 10.015625 52.203125 
Q 14.9375 54.109375 19.578125 55.046875 
Q 24.21875 56 28.609375 56 
Q 40.484375 56 46.34375 49.84375 
Q 52.203125 43.703125 52.203125 31.203125 
z
" id="DejaVuSans-97"/>
      <path d="M 10.6875 12.40625 
L 21 12.40625 
L 21 0 
L 10.6875 0 
z
" id="DejaVuSans-46"/>
      <path d="M 8.5 21.578125 
L 8.5 54.6875 
L 17.484375 54.6875 
L 17.484375 21.921875 
Q 17.484375 14.15625 20.5 10.265625 
Q 23.53125 6.390625 29.59375 6.390625 
Q 36.859375 6.390625 41.078125 11.03125 
Q 45.3125 15.671875 45.3125 23.6875 
L 45.3125 54.6875 
L 54.296875 54.6875 
L 54.296875 0 
L 45.3125 0 
L 45.3125 8.40625 
Q 42.046875 3.421875 37.71875 1 
Q 33.40625 -1.421875 27.6875 -1.421875 
Q 18.265625 -1.421875 13.375 4.4375 
Q 8.5 10.296875 8.5 21.578125 
z
M 31.109375 56 
z
" id="DejaVuSans-117"/>
      <path d="M 30.421875 75.984375 
L 30.421875 -13.1875 
L 9.71875 -13.1875 
L 9.71875 -6.203125 
L 21.390625 -6.203125 
L 21.390625 69 
L 9.71875 69 
L 9.71875 75.984375 
z
" id="DejaVuSans-93"/>
     </defs>
     <g transform="translate(110.323109 160.653318)scale(0.08 -0.08)">
      <use xlink:href="#DejaVuSans-84"/>
      <use x="57.958984" xlink:href="#DejaVuSans-105"/>
      <use x="85.742188" xlink:href="#DejaVuSans-109"/>
      <use x="183.154297" xlink:href="#DejaVuSans-101"/>
      <use x="244.677734" xlink:href="#DejaVuSans-32"/>
      <use x="276.464844" xlink:href="#DejaVuSans-91"/>
      <use x="315.478516" xlink:href="#DejaVuSans-97"/>
      <use x="376.757812" xlink:href="#DejaVuSans-46"/>
      <use x="408.544922" xlink:href="#DejaVuSans-117"/>
      <use x="471.923828" xlink:href="#DejaVuSans-46"/>
      <use x="503.710938" xlink:href="#DejaVuSans-93"/>
     </g>
    </g>
   </g>
   <g id="matplotlib.axis_2">
    <g id="ytick_1">
     <g id="line2d_7">
      <defs>
       <path d="M 0 0 
L -3.5 0 
" id="m6cda40a1f6" style="stroke:#000000;stroke-width:0.8;"/>
      </defs>
      <g>
       <use style="stroke:#000000;stroke-width:0.8;" x="38.665" xlink:href="#m6cda40a1f6" y="129.985156"/>
      </g>
     </g>
     <g id="text_8">
      <!-- 0.0 -->
      <g transform="translate(18.9425 133.024531)scale(0.08 -0.08)">
       <use xlink:href="#DejaVuSans-48"/>
       <use x="63.623047" xlink:href="#DejaVuSans-46"/>
       <use x="95.410156" xlink:href="#DejaVuSans-48"/>
      </g>
     </g>
    </g>
    <g id="ytick_2">
     <g id="line2d_8">
      <g>
       <use style="stroke:#000000;stroke-width:0.8;" x="38.665" xlink:href="#m6cda40a1f6" y="107.437598"/>
      </g>
     </g>
     <g id="text_9">
      <!-- 0.2 -->
      <g transform="translate(18.9425 110.476973)scale(0.08 -0.08)">
       <use xlink:href="#DejaVuSans-48"/>
       <use x="63.623047" xlink:href="#DejaVuSans-46"/>
       <use x="95.410156" xlink:href="#DejaVuSans-50"/>
      </g>
     </g>
    </g>
    <g id="ytick_3">
     <g id="line2d_9">
      <g>
       <use style="stroke:#000000;stroke-width:0.8;" x="38.665" xlink:href="#m6cda40a1f6" y="84.890039"/>
      </g>
     </g>
     <g id="text_10">
      <!-- 0.4 -->
      <g transform="translate(18.9425 87.929414)scale(0.08 -0.08)">
       <use xlink:href="#DejaVuSans-48"/>
       <use x="63.623047" xlink:href="#DejaVuSans-46"/>
       <use x="95.410156" xlink:href="#DejaVuSans-52"/>
      </g>
     </g>
    </g>
    <g id="ytick_4">
     <g id="line2d_10">
      <g>
       <use style="stroke:#000000;stroke-width:0.8;" x="38.665" xlink:href="#m6cda40a1f6" y="62.342481"/>
      </g>
     </g>
     <g id="text_11">
      <!-- 0.6 -->
      <g transform="translate(18.9425 65.381856)scale(0.08 -0.08)">
       <use xlink:href="#DejaVuSans-48"/>
       <use x="63.623047" xlink:href="#DejaVuSans-46"/>
       <use x="95.410156" xlink:href="#DejaVuSans-54"/>
      </g>
     </g>
    </g>
    <g id="ytick_5">
     <g id="line2d_11">
      <g>
       <use style="stroke:#000000;stroke-width:0.8;" x="38.665" xlink:href="#m6cda40a1f6" y="39.794923"/>
      </g>
     </g>
     <g id="text_12">
      <!-- 0.8 -->
      <g transform="translate(18.9425 42.834298)scale(0.08 -0.08)">
       <use xlink:href="#DejaVuSans-48"/>
       <use x="63.623047" xlink:href="#DejaVuSans-46"/>
       <use x="95.410156" xlink:href="#DejaVuSans-56"/>
      </g>
     </g>
    </g>
    <g id="ytick_6">
     <g id="line2d_12">
      <g>
       <use style="stroke:#000000;stroke-width:0.8;" x="38.665" xlink:href="#m6cda40a1f6" y="17.247364"/>
      </g>
     </g>
     <g id="text_13">
      <!-- 1.0 -->
      <g transform="translate(18.9425 20.286739)scale(0.08 -0.08)">
       <use xlink:href="#DejaVuSans-49"/>
       <use x="63.623047" xlink:href="#DejaVuSans-46"/>
       <use x="95.410156" xlink:href="#DejaVuSans-48"/>
      </g>
     </g>
    </g>
    <g id="text_14">
     <!-- Concentration [a.u.] -->
     <defs>
      <path d="M 64.40625 67.28125 
L 64.40625 56.890625 
Q 59.421875 61.53125 53.78125 63.8125 
Q 48.140625 66.109375 41.796875 66.109375 
Q 29.296875 66.109375 22.65625 58.46875 
Q 16.015625 50.828125 16.015625 36.375 
Q 16.015625 21.96875 22.65625 14.328125 
Q 29.296875 6.6875 41.796875 6.6875 
Q 48.140625 6.6875 53.78125 8.984375 
Q 59.421875 11.28125 64.40625 15.921875 
L 64.40625 5.609375 
Q 59.234375 2.09375 53.4375 0.328125 
Q 47.65625 -1.421875 41.21875 -1.421875 
Q 24.65625 -1.421875 15.125 8.703125 
Q 5.609375 18.84375 5.609375 36.375 
Q 5.609375 53.953125 15.125 64.078125 
Q 24.65625 74.21875 41.21875 74.21875 
Q 47.75 74.21875 53.53125 72.484375 
Q 59.328125 70.75 64.40625 67.28125 
z
" id="DejaVuSans-67"/>
      <path d="M 30.609375 48.390625 
Q 23.390625 48.390625 19.1875 42.75 
Q 14.984375 37.109375 14.984375 27.296875 
Q 14.984375 17.484375 19.15625 11.84375 
Q 23.34375 6.203125 30.609375 6.203125 
Q 37.796875 6.203125 41.984375 11.859375 
Q 46.1875 17.53125 46.1875 27.296875 
Q 46.1875 37.015625 41.984375 42.703125 
Q 37.796875 48.390625 30.609375 48.390625 
z
M 30.609375 56 
Q 42.328125 56 49.015625 48.375 
Q 55.71875 40.765625 55.71875 27.296875 
Q 55.71875 13.875 49.015625 6.21875 
Q 42.328125 -1.421875 30.609375 -1.421875 
Q 18.84375 -1.421875 12.171875 6.21875 
Q 5.515625 13.875 5.515625 27.296875 
Q 5.515625 40.765625 12.171875 48.375 
Q 18.84375 56 30.609375 56 
z
" id="DejaVuSans-111"/>
      <path d="M 54.890625 33.015625 
L 54.890625 0 
L 45.90625 0 
L 45.90625 32.71875 
Q 45.90625 40.484375 42.875 44.328125 
Q 39.84375 48.1875 33.796875 48.1875 
Q 26.515625 48.1875 22.3125 43.546875 
Q 18.109375 38.921875 18.109375 30.90625 
L 18.109375 0 
L 9.078125 0 
L 9.078125 54.6875 
L 18.109375 54.6875 
L 18.109375 46.1875 
Q 21.34375 51.125 25.703125 53.5625 
Q 30.078125 56 35.796875 56 
Q 45.21875 56 50.046875 50.171875 
Q 54.890625 44.34375 54.890625 33.015625 
z
" id="DejaVuSans-110"/>
      <path d="M 48.78125 52.59375 
L 48.78125 44.1875 
Q 44.96875 46.296875 41.140625 47.34375 
Q 37.3125 48.390625 33.40625 48.390625 
Q 24.65625 48.390625 19.8125 42.84375 
Q 14.984375 37.3125 14.984375 27.296875 
Q 14.984375 17.28125 19.8125 11.734375 
Q 24.65625 6.203125 33.40625 6.203125 
Q 37.3125 6.203125 41.140625 7.25 
Q 44.96875 8.296875 48.78125 10.40625 
L 48.78125 2.09375 
Q 45.015625 0.34375 40.984375 -0.53125 
Q 36.96875 -1.421875 32.421875 -1.421875 
Q 20.0625 -1.421875 12.78125 6.34375 
Q 5.515625 14.109375 5.515625 27.296875 
Q 5.515625 40.671875 12.859375 48.328125 
Q 20.21875 56 33.015625 56 
Q 37.15625 56 41.109375 55.140625 
Q 45.0625 54.296875 48.78125 52.59375 
z
" id="DejaVuSans-99"/>
      <path d="M 18.3125 70.21875 
L 18.3125 54.6875 
L 36.8125 54.6875 
L 36.8125 47.703125 
L 18.3125 47.703125 
L 18.3125 18.015625 
Q 18.3125 11.328125 20.140625 9.421875 
Q 21.96875 7.515625 27.59375 7.515625 
L 36.8125 7.515625 
L 36.8125 0 
L 27.59375 0 
Q 17.1875 0 13.234375 3.875 
Q 9.28125 7.765625 9.28125 18.015625 
L 9.28125 47.703125 
L 2.6875 47.703125 
L 2.6875 54.6875 
L 9.28125 54.6875 
L 9.28125 70.21875 
z
" id="DejaVuSans-116"/>
      <path d="M 41.109375 46.296875 
Q 39.59375 47.171875 37.8125 47.578125 
Q 36.03125 48 33.890625 48 
Q 26.265625 48 22.1875 43.046875 
Q 18.109375 38.09375 18.109375 28.8125 
L 18.109375 0 
L 9.078125 0 
L 9.078125 54.6875 
L 18.109375 54.6875 
L 18.109375 46.1875 
Q 20.953125 51.171875 25.484375 53.578125 
Q 30.03125 56 36.53125 56 
Q 37.453125 56 38.578125 55.875 
Q 39.703125 55.765625 41.0625 55.515625 
z
" id="DejaVuSans-114"/>
     </defs>
     <g transform="translate(13.27875 111.734159)rotate(-90)scale(0.08 -0.08)">
      <use xlink:href="#DejaVuSans-67"/>
      <use x="69.824219" xlink:href="#DejaVuSans-111"/>
      <use x="131.005859" xlink:href="#DejaVuSans-110"/>
      <use x="194.384766" xlink:href="#DejaVuSans-99"/>
      <use x="249.365234" xlink:href="#DejaVuSans-101"/>
      <use x="310.888672" xlink:href="#DejaVuSans-110"/>
      <use x="374.267578" xlink:href="#DejaVuSans-116"/>
      <use x="413.476562" xlink:href="#DejaVuSans-114"/>
      <use x="454.589844" xlink:href="#DejaVuSans-97"/>
      <use x="515.869141" xlink:href="#DejaVuSans-116"/>
      <use x="555.078125" xlink:href="#DejaVuSans-105"/>
      <use x="582.861328" xlink:href="#DejaVuSans-111"/>
      <use x="644.042969" xlink:href="#DejaVuSans-110"/>
      <use x="707.421875" xlink:href="#DejaVuSans-32"/>
      <use x="739.208984" xlink:href="#DejaVuSans-91"/>
      <use x="778.222656" xlink:href="#DejaVuSans-97"/>
      <use x="839.501953" xlink:href="#DejaVuSans-46"/>
      <use x="871.289062" xlink:href="#DejaVuSans-117"/>
      <use x="934.667969" xlink:href="#DejaVuSans-46"/>
      <use x="966.455078" xlink:href="#DejaVuSans-93"/>
     </g>
    </g>
   </g>
   <g id="line2d_13">
    <defs>
     <path d="M 0 0.75 
C 0.198902 0.75 0.389685 0.670975 0.53033 0.53033 
C 0.670975 0.389685 0.75 0.198902 0.75 0 
C 0.75 -0.198902 0.670975 -0.389685 0.53033 -0.53033 
C 0.389685 -0.670975 0.198902 -0.75 0 -0.75 
C -0.198902 -0.75 -0.389685 -0.670975 -0.53033 -0.53033 
C -0.670975 -0.389685 -0.75 -0.198902 -0.75 0 
C -0.75 0.198902 -0.670975 0.389685 -0.53033 0.53033 
C -0.389685 0.670975 -0.198902 0.75 0 0.75 
z
" id="m0474382786" style="stroke:#0370b8;"/>
    </defs>
    <g clip-path="url(#p8c1ef239ea)">
     <use style="fill:#0370b8;stroke:#0370b8;" x="47.152839" xlink:href="#m0474382786" y="26.386681"/>
     <use style="fill:#0370b8;stroke:#0370b8;" x="50.617264" xlink:href="#m0474382786" y="34.051355"/>
     <use style="fill:#0370b8;stroke:#0370b8;" x="54.081688" xlink:href="#m0474382786" y="60.958055"/>
     <use style="fill:#0370b8;stroke:#0370b8;" x="57.546112" xlink:href="#m0474382786" y="65.026548"/>
     <use style="fill:#0370b8;stroke:#0370b8;" x="61.010537" xlink:href="#m0474382786" y="76.034082"/>
     <use style="fill:#0370b8;stroke:#0370b8;" x="64.474961" xlink:href="#m0474382786" y="86.035496"/>
     <use style="fill:#0370b8;stroke:#0370b8;" x="67.939385" xlink:href="#m0474382786" y="91.19122"/>
     <use style="fill:#0370b8;stroke:#0370b8;" x="71.403809" xlink:href="#m0474382786" y="98.374804"/>
     <use style="fill:#0370b8;stroke:#0370b8;" x="74.868234" xlink:href="#m0474382786" y="100.935138"/>
     <use style="fill:#0370b8;stroke:#0370b8;" x="78.332658" xlink:href="#m0474382786" y="100.292799"/>
     <use style="fill:#0370b8;stroke:#0370b8;" x="81.797082" xlink:href="#m0474382786" y="103.193381"/>
     <use style="fill:#0370b8;stroke:#0370b8;" x="85.261506" xlink:href="#m0474382786" y="107.586261"/>
     <use style="fill:#0370b8;stroke:#0370b8;" x="88.725931" xlink:href="#m0474382786" y="107.440477"/>
     <use style="fill:#0370b8;stroke:#0370b8;" x="92.190355" xlink:href="#m0474382786" y="111.65805"/>
     <use style="fill:#0370b8;stroke:#0370b8;" x="95.654779" xlink:href="#m0474382786" y="113.022859"/>
     <use style="fill:#0370b8;stroke:#0370b8;" x="99.119203" xlink:href="#m0474382786" y="112.438417"/>
     <use style="fill:#0370b8;stroke:#0370b8;" x="102.583628" xlink:href="#m0474382786" y="113.381803"/>
     <use style="fill:#0370b8;stroke:#0370b8;" x="106.048052" xlink:href="#m0474382786" y="114.715668"/>
     <use style="fill:#0370b8;stroke:#0370b8;" x="109.512476" xlink:href="#m0474382786" y="115.753701"/>
     <use style="fill:#0370b8;stroke:#0370b8;" x="112.976901" xlink:href="#m0474382786" y="115.178903"/>
     <use style="fill:#0370b8;stroke:#0370b8;" x="116.441325" xlink:href="#m0474382786" y="116.944875"/>
     <use style="fill:#0370b8;stroke:#0370b8;" x="119.905749" xlink:href="#m0474382786" y="116.116559"/>
     <use style="fill:#0370b8;stroke:#0370b8;" x="123.370173" xlink:href="#m0474382786" y="118.696525"/>
     <use style="fill:#0370b8;stroke:#0370b8;" x="126.834598" xlink:href="#m0474382786" y="117.113402"/>
     <use style="fill:#0370b8;stroke:#0370b8;" x="130.299022" xlink:href="#m0474382786" y="118.587387"/>
     <use style="fill:#0370b8;stroke:#0370b8;" x="133.763446" xlink:href="#m0474382786" y="119.792099"/>
     <use style="fill:#0370b8;stroke:#0370b8;" x="137.22787" xlink:href="#m0474382786" y="118.749288"/>
     <use style="fill:#0370b8;stroke:#0370b8;" x="140.692295" xlink:href="#m0474382786" y="119.679096"/>
     <use style="fill:#0370b8;stroke:#0370b8;" x="144.156719" xlink:href="#m0474382786" y="119.42611"/>
     <use style="fill:#0370b8;stroke:#0370b8;" x="147.621143" xlink:href="#m0474382786" y="120.030811"/>
     <use style="fill:#0370b8;stroke:#0370b8;" x="151.085567" xlink:href="#m0474382786" y="119.941091"/>
     <use style="fill:#0370b8;stroke:#0370b8;" x="154.549992" xlink:href="#m0474382786" y="121.68564"/>
     <use style="fill:#0370b8;stroke:#0370b8;" x="158.014416" xlink:href="#m0474382786" y="121.199647"/>
     <use style="fill:#0370b8;stroke:#0370b8;" x="161.47884" xlink:href="#m0474382786" y="121.279479"/>
     <use style="fill:#0370b8;stroke:#0370b8;" x="164.943265" xlink:href="#m0474382786" y="121.458535"/>
     <use style="fill:#0370b8;stroke:#0370b8;" x="168.407689" xlink:href="#m0474382786" y="121.824635"/>
     <use style="fill:#0370b8;stroke:#0370b8;" x="171.872113" xlink:href="#m0474382786" y="121.967711"/>
     <use style="fill:#0370b8;stroke:#0370b8;" x="175.336537" xlink:href="#m0474382786" y="122.968728"/>
     <use style="fill:#0370b8;stroke:#0370b8;" x="178.800962" xlink:href="#m0474382786" y="122.232916"/>
     <use style="fill:#0370b8;stroke:#0370b8;" x="182.265386" xlink:href="#m0474382786" y="123.554674"/>
     <use style="fill:#0370b8;stroke:#0370b8;" x="185.72981" xlink:href="#m0474382786" y="122.632882"/>
     <use style="fill:#0370b8;stroke:#0370b8;" x="189.194234" xlink:href="#m0474382786" y="123.306947"/>
     <use style="fill:#0370b8;stroke:#0370b8;" x="192.658659" xlink:href="#m0474382786" y="123.805632"/>
     <use style="fill:#0370b8;stroke:#0370b8;" x="196.123083" xlink:href="#m0474382786" y="123.464556"/>
     <use style="fill:#0370b8;stroke:#0370b8;" x="199.587507" xlink:href="#m0474382786" y="124.475861"/>
     <use style="fill:#0370b8;stroke:#0370b8;" x="203.051931" xlink:href="#m0474382786" y="124.319642"/>
     <use style="fill:#0370b8;stroke:#0370b8;" x="206.516356" xlink:href="#m0474382786" y="124.790279"/>
     <use style="fill:#0370b8;stroke:#0370b8;" x="209.98078" xlink:href="#m0474382786" y="125.020123"/>
     <use style="fill:#0370b8;stroke:#0370b8;" x="213.445204" xlink:href="#m0474382786" y="125.082053"/>
     <use style="fill:#0370b8;stroke:#0370b8;" x="216.909629" xlink:href="#m0474382786" y="125.131871"/>
    </g>
   </g>
   <g id="line2d_14">
    <defs>
     <path d="M 0 0.75 
C 0.198902 0.75 0.389685 0.670975 0.53033 0.53033 
C 0.670975 0.389685 0.75 0.198902 0.75 0 
C 0.75 -0.198902 0.670975 -0.389685 0.53033 -0.53033 
C 0.389685 -0.670975 0.198902 -0.75 0 -0.75 
C -0.198902 -0.75 -0.389685 -0.670975 -0.53033 -0.53033 
C -0.670975 -0.389685 -0.75 -0.198902 -0.75 0 
C -0.75 0.198902 -0.670975 0.389685 -0.53033 0.53033 
C -0.389685 0.670975 -0.198902 0.75 0 0.75 
z
" id="m9d914ce660" style="stroke:#d56339;"/>
    </defs>
    <g clip-path="url(#p8c1ef239ea)">
     <use style="fill:#d56339;stroke:#d56339;" x="47.152839" xlink:href="#m9d914ce660" y="129.985156"/>
     <use style="fill:#d56339;stroke:#d56339;" x="50.617264" xlink:href="#m9d914ce660" y="111.981059"/>
     <use style="fill:#d56339;stroke:#d56339;" x="54.081688" xlink:href="#m9d914ce660" y="98.392103"/>
     <use style="fill:#d56339;stroke:#d56339;" x="57.546112" xlink:href="#m9d914ce660" y="81.46699"/>
     <use style="fill:#d56339;stroke:#d56339;" x="61.010537" xlink:href="#m9d914ce660" y="75.193382"/>
     <use style="fill:#d56339;stroke:#d56339;" x="64.474961" xlink:href="#m9d914ce660" y="67.261642"/>
     <use style="fill:#d56339;stroke:#d56339;" x="67.939385" xlink:href="#m9d914ce660" y="63.541143"/>
     <use style="fill:#d56339;stroke:#d56339;" x="71.403809" xlink:href="#m9d914ce660" y="66.909507"/>
     <use style="fill:#d56339;stroke:#d56339;" x="74.868234" xlink:href="#m9d914ce660" y="60.561628"/>
     <use style="fill:#d56339;stroke:#d56339;" x="78.332658" xlink:href="#m9d914ce660" y="56.492146"/>
     <use style="fill:#d56339;stroke:#d56339;" x="81.797082" xlink:href="#m9d914ce660" y="66.666226"/>
     <use style="fill:#d56339;stroke:#d56339;" x="85.261506" xlink:href="#m9d914ce660" y="61.504596"/>
     <use style="fill:#d56339;stroke:#d56339;" x="88.725931" xlink:href="#m9d914ce660" y="63.127659"/>
     <use style="fill:#d56339;stroke:#d56339;" x="92.190355" xlink:href="#m9d914ce660" y="62.681936"/>
     <use style="fill:#d56339;stroke:#d56339;" x="95.654779" xlink:href="#m9d914ce660" y="71.229748"/>
     <use style="fill:#d56339;stroke:#d56339;" x="99.119203" xlink:href="#m9d914ce660" y="72.385249"/>
     <use style="fill:#d56339;stroke:#d56339;" x="102.583628" xlink:href="#m9d914ce660" y="67.909563"/>
     <use style="fill:#d56339;stroke:#d56339;" x="106.048052" xlink:href="#m9d914ce660" y="68.187813"/>
     <use style="fill:#d56339;stroke:#d56339;" x="109.512476" xlink:href="#m9d914ce660" y="70.861488"/>
     <use style="fill:#d56339;stroke:#d56339;" x="112.976901" xlink:href="#m9d914ce660" y="70.894693"/>
     <use style="fill:#d56339;stroke:#d56339;" x="116.441325" xlink:href="#m9d914ce660" y="79.469305"/>
     <use style="fill:#d56339;stroke:#d56339;" x="119.905749" xlink:href="#m9d914ce660" y="76.945876"/>
     <use style="fill:#d56339;stroke:#d56339;" x="123.370173" xlink:href="#m9d914ce660" y="74.954748"/>
     <use style="fill:#d56339;stroke:#d56339;" x="126.834598" xlink:href="#m9d914ce660" y="77.148668"/>
     <use style="fill:#d56339;stroke:#d56339;" x="130.299022" xlink:href="#m9d914ce660" y="80.881208"/>
     <use style="fill:#d56339;stroke:#d56339;" x="133.763446" xlink:href="#m9d914ce660" y="85.158034"/>
     <use style="fill:#d56339;stroke:#d56339;" x="137.22787" xlink:href="#m9d914ce660" y="84.111141"/>
     <use style="fill:#d56339;stroke:#d56339;" x="140.692295" xlink:href="#m9d914ce660" y="85.157646"/>
     <use style="fill:#d56339;stroke:#d56339;" x="144.156719" xlink:href="#m9d914ce660" y="87.472766"/>
     <use style="fill:#d56339;stroke:#d56339;" x="147.621143" xlink:href="#m9d914ce660" y="89.336329"/>
     <use style="fill:#d56339;stroke:#d56339;" x="151.085567" xlink:href="#m9d914ce660" y="91.884573"/>
     <use style="fill:#d56339;stroke:#d56339;" x="154.549992" xlink:href="#m9d914ce660" y="89.040298"/>
     <use style="fill:#d56339;stroke:#d56339;" x="158.014416" xlink:href="#m9d914ce660" y="95.181275"/>
     <use style="fill:#d56339;stroke:#d56339;" x="161.47884" xlink:href="#m9d914ce660" y="91.397288"/>
     <use style="fill:#d56339;stroke:#d56339;" x="164.943265" xlink:href="#m9d914ce660" y="95.021551"/>
     <use style="fill:#d56339;stroke:#d56339;" x="168.407689" xlink:href="#m9d914ce660" y="96.36774"/>
     <use style="fill:#d56339;stroke:#d56339;" x="171.872113" xlink:href="#m9d914ce660" y="99.049091"/>
     <use style="fill:#d56339;stroke:#d56339;" x="175.336537" xlink:href="#m9d914ce660" y="101.275848"/>
     <use style="fill:#d56339;stroke:#d56339;" x="178.800962" xlink:href="#m9d914ce660" y="102.865859"/>
     <use style="fill:#d56339;stroke:#d56339;" x="182.265386" xlink:href="#m9d914ce660" y="98.67243"/>
     <use style="fill:#d56339;stroke:#d56339;" x="185.72981" xlink:href="#m9d914ce660" y="103.289196"/>
     <use style="fill:#d56339;stroke:#d56339;" x="189.194234" xlink:href="#m9d914ce660" y="102.364602"/>
     <use style="fill:#d56339;stroke:#d56339;" x="192.658659" xlink:href="#m9d914ce660" y="101.412531"/>
     <use style="fill:#d56339;stroke:#d56339;" x="196.123083" xlink:href="#m9d914ce660" y="102.797898"/>
     <use style="fill:#d56339;stroke:#d56339;" x="199.587507" xlink:href="#m9d914ce660" y="104.038093"/>
     <use style="fill:#d56339;stroke:#d56339;" x="203.051931" xlink:href="#m9d914ce660" y="108.072763"/>
     <use style="fill:#d56339;stroke:#d56339;" x="206.516356" xlink:href="#m9d914ce660" y="107.856593"/>
     <use style="fill:#d56339;stroke:#d56339;" x="209.98078" xlink:href="#m9d914ce660" y="108.047619"/>
     <use style="fill:#d56339;stroke:#d56339;" x="213.445204" xlink:href="#m9d914ce660" y="108.248448"/>
     <use style="fill:#d56339;stroke:#d56339;" x="216.909629" xlink:href="#m9d914ce660" y="107.49175"/>
    </g>
   </g>
   <g id="line2d_15">
    <defs>
     <path d="M 0 0.75 
C 0.198902 0.75 0.389685 0.670975 0.53033 0.53033 
C 0.670975 0.389685 0.75 0.198902 0.75 0 
C 0.75 -0.198902 0.670975 -0.389685 0.53033 -0.53033 
C 0.389685 -0.670975 0.198902 -0.75 0 -0.75 
C -0.198902 -0.75 -0.389685 -0.670975 -0.53033 -0.53033 
C -0.670975 -0.389685 -0.75 -0.198902 -0.75 0 
C -0.75 0.198902 -0.670975 0.389685 -0.53033 0.53033 
C -0.389685 0.670975 -0.198902 0.75 0 0.75 
z
" id="m39f66a437f" style="stroke:#eeb92e;"/>
    </defs>
    <g clip-path="url(#p8c1ef239ea)">
     <use style="fill:#eeb92e;stroke:#eeb92e;" x="47.152839" xlink:href="#m39f66a437f" y="109.080087"/>
     <use style="fill:#eeb92e;stroke:#eeb92e;" x="50.617264" xlink:href="#m39f66a437f" y="106.010634"/>
     <use style="fill:#eeb92e;stroke:#eeb92e;" x="54.081688" xlink:href="#m39f66a437f" y="107.982084"/>
     <use style="fill:#eeb92e;stroke:#eeb92e;" x="57.546112" xlink:href="#m39f66a437f" y="104.021668"/>
     <use style="fill:#eeb92e;stroke:#eeb92e;" x="61.010537" xlink:href="#m39f66a437f" y="104.555062"/>
     <use style="fill:#eeb92e;stroke:#eeb92e;" x="64.474961" xlink:href="#m39f66a437f" y="100.57078"/>
     <use style="fill:#eeb92e;stroke:#eeb92e;" x="67.939385" xlink:href="#m39f66a437f" y="99.732501"/>
     <use style="fill:#eeb92e;stroke:#eeb92e;" x="71.403809" xlink:href="#m39f66a437f" y="91.271593"/>
     <use style="fill:#eeb92e;stroke:#eeb92e;" x="74.868234" xlink:href="#m39f66a437f" y="89.752546"/>
     <use style="fill:#eeb92e;stroke:#eeb92e;" x="78.332658" xlink:href="#m39f66a437f" y="90.261586"/>
     <use style="fill:#eeb92e;stroke:#eeb92e;" x="81.797082" xlink:href="#m39f66a437f" y="86.969543"/>
     <use style="fill:#eeb92e;stroke:#eeb92e;" x="85.261506" xlink:href="#m39f66a437f" y="81.679337"/>
     <use style="fill:#eeb92e;stroke:#eeb92e;" x="88.725931" xlink:href="#m39f66a437f" y="84.845427"/>
     <use style="fill:#eeb92e;stroke:#eeb92e;" x="92.190355" xlink:href="#m39f66a437f" y="77.06594"/>
     <use style="fill:#eeb92e;stroke:#eeb92e;" x="95.654779" xlink:href="#m39f66a437f" y="81.259432"/>
     <use style="fill:#eeb92e;stroke:#eeb92e;" x="99.119203" xlink:href="#m39f66a437f" y="69.266097"/>
     <use style="fill:#eeb92e;stroke:#eeb92e;" x="102.583628" xlink:href="#m39f66a437f" y="71.452151"/>
     <use style="fill:#eeb92e;stroke:#eeb92e;" x="106.048052" xlink:href="#m39f66a437f" y="70.340651"/>
     <use style="fill:#eeb92e;stroke:#eeb92e;" x="109.512476" xlink:href="#m39f66a437f" y="63.616801"/>
     <use style="fill:#eeb92e;stroke:#eeb92e;" x="112.976901" xlink:href="#m39f66a437f" y="58.27824"/>
     <use style="fill:#eeb92e;stroke:#eeb92e;" x="116.441325" xlink:href="#m39f66a437f" y="63.226705"/>
     <use style="fill:#eeb92e;stroke:#eeb92e;" x="119.905749" xlink:href="#m39f66a437f" y="55.642589"/>
     <use style="fill:#eeb92e;stroke:#eeb92e;" x="123.370173" xlink:href="#m39f66a437f" y="57.740834"/>
     <use style="fill:#eeb92e;stroke:#eeb92e;" x="126.834598" xlink:href="#m39f66a437f" y="52.557694"/>
     <use style="fill:#eeb92e;stroke:#eeb92e;" x="130.299022" xlink:href="#m39f66a437f" y="58.608703"/>
     <use style="fill:#eeb92e;stroke:#eeb92e;" x="133.763446" xlink:href="#m39f66a437f" y="58.1508"/>
     <use style="fill:#eeb92e;stroke:#eeb92e;" x="137.22787" xlink:href="#m39f66a437f" y="55.96028"/>
     <use style="fill:#eeb92e;stroke:#eeb92e;" x="140.692295" xlink:href="#m39f66a437f" y="55.783142"/>
     <use style="fill:#eeb92e;stroke:#eeb92e;" x="144.156719" xlink:href="#m39f66a437f" y="38.877479"/>
     <use style="fill:#eeb92e;stroke:#eeb92e;" x="147.621143" xlink:href="#m39f66a437f" y="43.930995"/>
     <use style="fill:#eeb92e;stroke:#eeb92e;" x="151.085567" xlink:href="#m39f66a437f" y="45.594046"/>
     <use style="fill:#eeb92e;stroke:#eeb92e;" x="154.549992" xlink:href="#m39f66a437f" y="44.866557"/>
     <use style="fill:#eeb92e;stroke:#eeb92e;" x="158.014416" xlink:href="#m39f66a437f" y="42.591788"/>
     <use style="fill:#eeb92e;stroke:#eeb92e;" x="161.47884" xlink:href="#m39f66a437f" y="47.362124"/>
     <use style="fill:#eeb92e;stroke:#eeb92e;" x="164.943265" xlink:href="#m39f66a437f" y="29.440158"/>
     <use style="fill:#eeb92e;stroke:#eeb92e;" x="168.407689" xlink:href="#m39f66a437f" y="29.522334"/>
     <use style="fill:#eeb92e;stroke:#eeb92e;" x="171.872113" xlink:href="#m39f66a437f" y="32.08449"/>
     <use style="fill:#eeb92e;stroke:#eeb92e;" x="175.336537" xlink:href="#m39f66a437f" y="23.365903"/>
     <use style="fill:#eeb92e;stroke:#eeb92e;" x="178.800962" xlink:href="#m39f66a437f" y="29.4029"/>
     <use style="fill:#eeb92e;stroke:#eeb92e;" x="182.265386" xlink:href="#m39f66a437f" y="34.704609"/>
     <use style="fill:#eeb92e;stroke:#eeb92e;" x="185.72981" xlink:href="#m39f66a437f" y="22.301542"/>
     <use style="fill:#eeb92e;stroke:#eeb92e;" x="189.194234" xlink:href="#m39f66a437f" y="31.991424"/>
     <use style="fill:#eeb92e;stroke:#eeb92e;" x="192.658659" xlink:href="#m39f66a437f" y="33.515665"/>
     <use style="fill:#eeb92e;stroke:#eeb92e;" x="196.123083" xlink:href="#m39f66a437f" y="16.791616"/>
     <use style="fill:#eeb92e;stroke:#eeb92e;" x="199.587507" xlink:href="#m39f66a437f" y="33.91933"/>
     <use style="fill:#eeb92e;stroke:#eeb92e;" x="203.051931" xlink:href="#m39f66a437f" y="30.424991"/>
     <use style="fill:#eeb92e;stroke:#eeb92e;" x="206.516356" xlink:href="#m39f66a437f" y="24.284225"/>
     <use style="fill:#eeb92e;stroke:#eeb92e;" x="209.98078" xlink:href="#m39f66a437f" y="21.872099"/>
     <use style="fill:#eeb92e;stroke:#eeb92e;" x="213.445204" xlink:href="#m39f66a437f" y="13.046912"/>
     <use style="fill:#eeb92e;stroke:#eeb92e;" x="216.909629" xlink:href="#m39f66a437f" y="22.683979"/>
    </g>
   </g>
   <g id="line2d_16">
    <path clip-path="url(#p8c1ef239ea)" d="M 47.152839 16.68507 
L 49.431454 30.800264 
L 51.710069 42.817519 
L 53.988683 53.057577 
L 56.267298 61.791949 
L 58.545913 69.250474 
L 60.824527 75.627718 
L 63.103142 81.088391 
L 65.381756 85.771935 
L 67.660371 89.796399 
L 69.938986 93.261731 
L 72.2176 96.252555 
L 74.496215 98.840522 
L 76.774829 101.086304 
L 79.053444 103.041279 
L 81.332059 104.748961 
L 83.610673 106.246203 
L 87.028595 108.164452 
L 90.446517 109.764334 
L 93.864439 111.112926 
L 98.421668 112.608918 
L 102.978898 113.843415 
L 108.675434 115.11945 
L 115.511278 116.37507 
L 123.486429 117.584006 
L 132.600888 118.742805 
L 143.993961 119.970723 
L 157.665648 121.223859 
L 173.615951 122.466281 
L 191.844868 123.662537 
L 212.352399 124.779204 
L 216.909629 124.999071 
L 216.909629 124.999071 
" style="fill:none;stroke:#0370b8;stroke-linecap:square;"/>
   </g>
   <g id="line2d_17">
    <path clip-path="url(#p8c1ef239ea)" d="M 47.152839 129.985156 
L 49.431454 116.061411 
L 51.710069 104.573366 
L 53.988683 95.140567 
L 56.267298 87.441127 
L 58.545913 81.202738 
L 59.68522 78.557997 
L 60.824527 76.195043 
L 61.963834 74.090584 
L 63.103142 72.223196 
L 64.242449 70.573176 
L 65.381756 69.122405 
L 66.521064 67.854223 
L 68.799678 65.805577 
L 71.078293 64.318888 
L 73.356908 63.302565 
L 75.635522 62.679197 
L 77.914137 62.383376 
L 80.192751 62.359845 
L 82.471366 62.561942 
L 84.749981 62.950274 
L 88.167903 63.810695 
L 91.585825 64.925497 
L 96.143054 66.688215 
L 101.83959 69.168294 
L 112.093356 73.954979 
L 125.765044 80.290809 
L 134.879502 84.262573 
L 143.993961 87.97181 
L 153.108419 91.408234 
L 162.222878 94.577978 
L 171.337336 97.494656 
L 180.451795 100.174858 
L 189.566253 102.635909 
L 199.820019 105.163736 
L 210.073785 107.458515 
L 216.909629 108.869426 
L 216.909629 108.869426 
" style="fill:none;stroke:#d56339;stroke-linecap:square;"/>
   </g>
   <g id="line2d_18">
    <path clip-path="url(#p8c1ef239ea)" d="M 47.152839 107.981462 
L 49.431454 107.790013 
L 51.710069 107.260803 
L 53.988683 106.453544 
L 56.267298 105.418611 
L 59.68522 103.530373 
L 63.103142 101.3401 
L 67.660371 98.101979 
L 73.356908 93.756255 
L 96.143054 76.064739 
L 102.978898 71.121047 
L 109.814741 66.426256 
L 116.650585 61.988703 
L 123.486429 57.806782 
L 130.322273 53.873279 
L 137.158117 50.177965 
L 143.993961 46.709155 
L 151.969112 42.932169 
L 159.944263 39.427456 
L 167.919414 36.176238 
L 175.894565 33.160654 
L 183.869717 30.363891 
L 192.984175 27.415402 
L 202.098634 24.710427 
L 211.213092 22.228913 
L 216.909629 20.783191 
L 216.909629 20.783191 
" style="fill:none;stroke:#eeb92e;stroke-linecap:square;"/>
   </g>
   <g id="patch_3">
    <path d="M 38.665 135.832068 
L 38.665 7.2 
" style="fill:none;stroke:#000000;stroke-linecap:square;stroke-linejoin:miter;stroke-width:0.8;"/>
   </g>
   <g id="patch_4">
    <path d="M 225.397468 135.832068 
L 225.397468 7.2 
" style="fill:none;stroke:#000000;stroke-linecap:square;stroke-linejoin:miter;stroke-width:0.8;"/>
   </g>
   <g id="patch_5">
    <path d="M 38.665 135.832068 
L 225.397468 135.832068 
" style="fill:none;stroke:#000000;stroke-linecap:square;stroke-linejoin:miter;stroke-width:0.8;"/>
   </g>
   <g id="patch_6">
    <path d="M 38.665 7.2 
L 225.397468 7.2 
" style="fill:none;stroke:#000000;stroke-linecap:square;stroke-linejoin:miter;stroke-width:0.8;"/>
   </g>
   <g id="legend_1">
    <g id="patch_7">
     <path d="M 188.611218 90.329784 
L 219.797468 90.329784 
Q 221.397468 90.329784 221.397468 88.729784 
L 221.397468 54.302284 
Q 221.397468 52.702284 219.797468 52.702284 
L 188.611218 52.702284 
Q 187.011218 52.702284 187.011218 54.302284 
L 187.011218 88.729784 
Q 187.011218 90.329784 188.611218 90.329784 
z
" style="fill:#ffffff;opacity:0.8;stroke:#cccccc;stroke-linejoin:miter;"/>
    </g>
    <g id="line2d_19"/>
    <g id="line2d_20">
     <g>
      <use style="fill:#0370b8;stroke:#0370b8;" x="198.211218" xlink:href="#m0474382786" y="59.181034"/>
     </g>
    </g>
    <g id="text_15">
     <!-- A -->
     <defs>
      <path d="M 34.1875 63.1875 
L 20.796875 26.90625 
L 47.609375 26.90625 
z
M 28.609375 72.90625 
L 39.796875 72.90625 
L 67.578125 0 
L 57.328125 0 
L 50.6875 18.703125 
L 17.828125 18.703125 
L 11.1875 0 
L 0.78125 0 
z
" id="DejaVuSans-65"/>
     </defs>
     <g transform="translate(212.611218 61.981034)scale(0.08 -0.08)">
      <use xlink:href="#DejaVuSans-65"/>
     </g>
    </g>
    <g id="line2d_21"/>
    <g id="line2d_22">
     <g>
      <use style="fill:#d56339;stroke:#d56339;" x="198.211218" xlink:href="#m9d914ce660" y="70.923534"/>
     </g>
    </g>
    <g id="text_16">
     <!-- B -->
     <defs>
      <path d="M 19.671875 34.8125 
L 19.671875 8.109375 
L 35.5 8.109375 
Q 43.453125 8.109375 47.28125 11.40625 
Q 51.125 14.703125 51.125 21.484375 
Q 51.125 28.328125 47.28125 31.5625 
Q 43.453125 34.8125 35.5 34.8125 
z
M 19.671875 64.796875 
L 19.671875 42.828125 
L 34.28125 42.828125 
Q 41.5 42.828125 45.03125 45.53125 
Q 48.578125 48.25 48.578125 53.8125 
Q 48.578125 59.328125 45.03125 62.0625 
Q 41.5 64.796875 34.28125 64.796875 
z
M 9.8125 72.90625 
L 35.015625 72.90625 
Q 46.296875 72.90625 52.390625 68.21875 
Q 58.5 63.53125 58.5 54.890625 
Q 58.5 48.1875 55.375 44.234375 
Q 52.25 40.28125 46.1875 39.3125 
Q 53.46875 37.75 57.5 32.78125 
Q 61.53125 27.828125 61.53125 20.40625 
Q 61.53125 10.640625 54.890625 5.3125 
Q 48.25 0 35.984375 0 
L 9.8125 0 
z
" id="DejaVuSans-66"/>
     </defs>
     <g transform="translate(212.611218 73.723534)scale(0.08 -0.08)">
      <use xlink:href="#DejaVuSans-66"/>
     </g>
    </g>
    <g id="line2d_23"/>
    <g id="line2d_24">
     <g>
      <use style="fill:#eeb92e;stroke:#eeb92e;" x="198.211218" xlink:href="#m39f66a437f" y="82.666034"/>
     </g>
    </g>
    <g id="text_17">
     <!-- C -->
     <g transform="translate(212.611218 85.466034)scale(0.08 -0.08)">
      <use xlink:href="#DejaVuSans-67"/>
     </g>
    </g>
   </g>
  </g>
 </g>
 <defs>
  <clipPath id="p8c1ef239ea">
   <rect height="128.632068" width="186.732468" x="38.665" y="7.2"/>
  </clipPath>
 </defs>
</svg>
