<?xml version="1.0" encoding="utf-8" standalone="no"?>
<!DOCTYPE svg PUBLIC "-//W3C//DTD SVG 1.1//EN"
  "http://www.w3.org/Graphics/SVG/1.1/DTD/svg11.dtd">
<!-- Created with matplotlib (https://matplotlib.org/) -->
<svg height="242.387875pt" version="1.1" viewBox="0 0 332.539375 242.387875" width="332.539375pt" xmlns="http://www.w3.org/2000/svg" xmlns:xlink="http://www.w3.org/1999/xlink">
 <defs>
  <style type="text/css">
*{stroke-linecap:butt;stroke-linejoin:round;}
  </style>
 </defs>
 <g id="figure_1">
  <g id="patch_1">
   <path d="M 0 242.387875 
L 332.539375 242.387875 
L 332.539375 0 
L 0 0 
z
" style="fill:#ffffff;"/>
  </g>
  <g id="axes_1">
   <g id="patch_2">
    <path d="M 46.339375 202.896 
L 325.339375 202.896 
L 325.339375 7.2 
L 46.339375 7.2 
z
" style="fill:#ffffff;"/>
   </g>
   <g id="matplotlib.axis_1">
    <g id="xtick_1">
     <g id="line2d_1">
      <defs>
       <path d="M 0 0 
L 0 3.5 
" id="m67a2cd7af2" style="stroke:#000000;stroke-width:0.8;"/>
      </defs>
      <g>
       <use style="stroke:#000000;stroke-width:0.8;" x="59.021193" xlink:href="#m67a2cd7af2" y="202.896"/>
      </g>
     </g>
     <g id="text_1">
      <!-- 0 -->
      <defs>
       <path d="M 31.78125 66.40625 
Q 24.171875 66.40625 20.328125 58.90625 
Q 16.5 51.421875 16.5 36.375 
Q 16.5 21.390625 20.328125 13.890625 
Q 24.171875 6.390625 31.78125 6.390625 
Q 39.453125 6.390625 43.28125 13.890625 
Q 47.125 21.390625 47.125 36.375 
Q 47.125 51.421875 43.28125 58.90625 
Q 39.453125 66.40625 31.78125 66.40625 
z
M 31.78125 74.21875 
Q 44.046875 74.21875 50.515625 64.515625 
Q 56.984375 54.828125 56.984375 36.375 
Q 56.984375 17.96875 50.515625 8.265625 
Q 44.046875 -1.421875 31.78125 -1.421875 
Q 19.53125 -1.421875 13.0625 8.265625 
Q 6.59375 17.96875 6.59375 36.375 
Q 6.59375 54.828125 13.0625 64.515625 
Q 19.53125 74.21875 31.78125 74.21875 
z
" id="DejaVuSans-48"/>
      </defs>
      <g transform="translate(55.521818 218.254281)scale(0.11 -0.11)">
       <use xlink:href="#DejaVuSans-48"/>
      </g>
     </g>
    </g>
    <g id="xtick_2">
     <g id="line2d_2">
      <g>
       <use style="stroke:#000000;stroke-width:0.8;" x="109.748466" xlink:href="#m67a2cd7af2" y="202.896"/>
      </g>
     </g>
     <g id="text_2">
      <!-- 20 -->
      <defs>
       <path d="M 19.1875 8.296875 
L 53.609375 8.296875 
L 53.609375 0 
L 7.328125 0 
L 7.328125 8.296875 
Q 12.9375 14.109375 22.625 23.890625 
Q 32.328125 33.6875 34.8125 36.53125 
Q 39.546875 41.84375 41.421875 45.53125 
Q 43.3125 49.21875 43.3125 52.78125 
Q 43.3125 58.59375 39.234375 62.25 
Q 35.15625 65.921875 28.609375 65.921875 
Q 23.96875 65.921875 18.8125 64.3125 
Q 13.671875 62.703125 7.8125 59.421875 
L 7.8125 69.390625 
Q 13.765625 71.78125 18.9375 73 
Q 24.125 74.21875 28.421875 74.21875 
Q 39.75 74.21875 46.484375 68.546875 
Q 53.21875 62.890625 53.21875 53.421875 
Q 53.21875 48.921875 51.53125 44.890625 
Q 49.859375 40.875 45.40625 35.40625 
Q 44.1875 33.984375 37.640625 27.21875 
Q 31.109375 20.453125 19.1875 8.296875 
z
" id="DejaVuSans-50"/>
      </defs>
      <g transform="translate(102.749716 218.254281)scale(0.11 -0.11)">
       <use xlink:href="#DejaVuSans-50"/>
       <use x="63.623047" xlink:href="#DejaVuSans-48"/>
      </g>
     </g>
    </g>
    <g id="xtick_3">
     <g id="line2d_3">
      <g>
       <use style="stroke:#000000;stroke-width:0.8;" x="160.475739" xlink:href="#m67a2cd7af2" y="202.896"/>
      </g>
     </g>
     <g id="text_3">
      <!-- 40 -->
      <defs>
       <path d="M 37.796875 64.3125 
L 12.890625 25.390625 
L 37.796875 25.390625 
z
M 35.203125 72.90625 
L 47.609375 72.90625 
L 47.609375 25.390625 
L 58.015625 25.390625 
L 58.015625 17.1875 
L 47.609375 17.1875 
L 47.609375 0 
L 37.796875 0 
L 37.796875 17.1875 
L 4.890625 17.1875 
L 4.890625 26.703125 
z
" id="DejaVuSans-52"/>
      </defs>
      <g transform="translate(153.476989 218.254281)scale(0.11 -0.11)">
       <use xlink:href="#DejaVuSans-52"/>
       <use x="63.623047" xlink:href="#DejaVuSans-48"/>
      </g>
     </g>
    </g>
    <g id="xtick_4">
     <g id="line2d_4">
      <g>
       <use style="stroke:#000000;stroke-width:0.8;" x="211.203011" xlink:href="#m67a2cd7af2" y="202.896"/>
      </g>
     </g>
     <g id="text_4">
      <!-- 60 -->
      <defs>
       <path d="M 33.015625 40.375 
Q 26.375 40.375 22.484375 35.828125 
Q 18.609375 31.296875 18.609375 23.390625 
Q 18.609375 15.53125 22.484375 10.953125 
Q 26.375 6.390625 33.015625 6.390625 
Q 39.65625 6.390625 43.53125 10.953125 
Q 47.40625 15.53125 47.40625 23.390625 
Q 47.40625 31.296875 43.53125 35.828125 
Q 39.65625 40.375 33.015625 40.375 
z
M 52.59375 71.296875 
L 52.59375 62.3125 
Q 48.875 64.0625 45.09375 64.984375 
Q 41.3125 65.921875 37.59375 65.921875 
Q 27.828125 65.921875 22.671875 59.328125 
Q 17.53125 52.734375 16.796875 39.40625 
Q 19.671875 43.65625 24.015625 45.921875 
Q 28.375 48.1875 33.59375 48.1875 
Q 44.578125 48.1875 50.953125 41.515625 
Q 57.328125 34.859375 57.328125 23.390625 
Q 57.328125 12.15625 50.6875 5.359375 
Q 44.046875 -1.421875 33.015625 -1.421875 
Q 20.359375 -1.421875 13.671875 8.265625 
Q 6.984375 17.96875 6.984375 36.375 
Q 6.984375 53.65625 15.1875 63.9375 
Q 23.390625 74.21875 37.203125 74.21875 
Q 40.921875 74.21875 44.703125 73.484375 
Q 48.484375 72.75 52.59375 71.296875 
z
" id="DejaVuSans-54"/>
      </defs>
      <g transform="translate(204.204261 218.254281)scale(0.11 -0.11)">
       <use xlink:href="#DejaVuSans-54"/>
       <use x="63.623047" xlink:href="#DejaVuSans-48"/>
      </g>
     </g>
    </g>
    <g id="xtick_5">
     <g id="line2d_5">
      <g>
       <use style="stroke:#000000;stroke-width:0.8;" x="261.930284" xlink:href="#m67a2cd7af2" y="202.896"/>
      </g>
     </g>
     <g id="text_5">
      <!-- 80 -->
      <defs>
       <path d="M 31.78125 34.625 
Q 24.75 34.625 20.71875 30.859375 
Q 16.703125 27.09375 16.703125 20.515625 
Q 16.703125 13.921875 20.71875 10.15625 
Q 24.75 6.390625 31.78125 6.390625 
Q 38.8125 6.390625 42.859375 10.171875 
Q 46.921875 13.96875 46.921875 20.515625 
Q 46.921875 27.09375 42.890625 30.859375 
Q 38.875 34.625 31.78125 34.625 
z
M 21.921875 38.8125 
Q 15.578125 40.375 12.03125 44.71875 
Q 8.5 49.078125 8.5 55.328125 
Q 8.5 64.0625 14.71875 69.140625 
Q 20.953125 74.21875 31.78125 74.21875 
Q 42.671875 74.21875 48.875 69.140625 
Q 55.078125 64.0625 55.078125 55.328125 
Q 55.078125 49.078125 51.53125 44.71875 
Q 48 40.375 41.703125 38.8125 
Q 48.828125 37.15625 52.796875 32.3125 
Q 56.78125 27.484375 56.78125 20.515625 
Q 56.78125 9.90625 50.3125 4.234375 
Q 43.84375 -1.421875 31.78125 -1.421875 
Q 19.734375 -1.421875 13.25 4.234375 
Q 6.78125 9.90625 6.78125 20.515625 
Q 6.78125 27.484375 10.78125 32.3125 
Q 14.796875 37.15625 21.921875 38.8125 
z
M 18.3125 54.390625 
Q 18.3125 48.734375 21.84375 45.5625 
Q 25.390625 42.390625 31.78125 42.390625 
Q 38.140625 42.390625 41.71875 45.5625 
Q 45.3125 48.734375 45.3125 54.390625 
Q 45.3125 60.0625 41.71875 63.234375 
Q 38.140625 66.40625 31.78125 66.40625 
Q 25.390625 66.40625 21.84375 63.234375 
Q 18.3125 60.0625 18.3125 54.390625 
z
" id="DejaVuSans-56"/>
      </defs>
      <g transform="translate(254.931534 218.254281)scale(0.11 -0.11)">
       <use xlink:href="#DejaVuSans-56"/>
       <use x="63.623047" xlink:href="#DejaVuSans-48"/>
      </g>
     </g>
    </g>
    <g id="xtick_6">
     <g id="line2d_6">
      <g>
       <use style="stroke:#000000;stroke-width:0.8;" x="312.657557" xlink:href="#m67a2cd7af2" y="202.896"/>
      </g>
     </g>
     <g id="text_6">
      <!-- 100 -->
      <defs>
       <path d="M 12.40625 8.296875 
L 28.515625 8.296875 
L 28.515625 63.921875 
L 10.984375 60.40625 
L 10.984375 69.390625 
L 28.421875 72.90625 
L 38.28125 72.90625 
L 38.28125 8.296875 
L 54.390625 8.296875 
L 54.390625 0 
L 12.40625 0 
z
" id="DejaVuSans-49"/>
      </defs>
      <g transform="translate(302.159432 218.254281)scale(0.11 -0.11)">
       <use xlink:href="#DejaVuSans-49"/>
       <use x="63.623047" xlink:href="#DejaVuSans-48"/>
       <use x="127.246094" xlink:href="#DejaVuSans-48"/>
      </g>
     </g>
    </g>
    <g id="text_7">
     <!-- Time [a.u.] -->
     <defs>
      <path d="M -0.296875 72.90625 
L 61.375 72.90625 
L 61.375 64.59375 
L 35.5 64.59375 
L 35.5 0 
L 25.59375 0 
L 25.59375 64.59375 
L -0.296875 64.59375 
z
" id="DejaVuSans-84"/>
      <path d="M 9.421875 54.6875 
L 18.40625 54.6875 
L 18.40625 0 
L 9.421875 0 
z
M 9.421875 75.984375 
L 18.40625 75.984375 
L 18.40625 64.59375 
L 9.421875 64.59375 
z
" id="DejaVuSans-105"/>
      <path d="M 52 44.1875 
Q 55.375 50.25 60.0625 53.125 
Q 64.75 56 71.09375 56 
Q 79.640625 56 84.28125 50.015625 
Q 88.921875 44.046875 88.921875 33.015625 
L 88.921875 0 
L 79.890625 0 
L 79.890625 32.71875 
Q 79.890625 40.578125 77.09375 44.375 
Q 74.3125 48.1875 68.609375 48.1875 
Q 61.625 48.1875 57.5625 43.546875 
Q 53.515625 38.921875 53.515625 30.90625 
L 53.515625 0 
L 44.484375 0 
L 44.484375 32.71875 
Q 44.484375 40.625 41.703125 44.40625 
Q 38.921875 48.1875 33.109375 48.1875 
Q 26.21875 48.1875 22.15625 43.53125 
Q 18.109375 38.875 18.109375 30.90625 
L 18.109375 0 
L 9.078125 0 
L 9.078125 54.6875 
L 18.109375 54.6875 
L 18.109375 46.1875 
Q 21.1875 51.21875 25.484375 53.609375 
Q 29.78125 56 35.6875 56 
Q 41.65625 56 45.828125 52.96875 
Q 50 49.953125 52 44.1875 
z
" id="DejaVuSans-109"/>
      <path d="M 56.203125 29.59375 
L 56.203125 25.203125 
L 14.890625 25.203125 
Q 15.484375 15.921875 20.484375 11.0625 
Q 25.484375 6.203125 34.421875 6.203125 
Q 39.59375 6.203125 44.453125 7.46875 
Q 49.3125 8.734375 54.109375 11.28125 
L 54.109375 2.78125 
Q 49.265625 0.734375 44.1875 -0.34375 
Q 39.109375 -1.421875 33.890625 -1.421875 
Q 20.796875 -1.421875 13.15625 6.1875 
Q 5.515625 13.8125 5.515625 26.8125 
Q 5.515625 40.234375 12.765625 48.109375 
Q 20.015625 56 32.328125 56 
Q 43.359375 56 49.78125 48.890625 
Q 56.203125 41.796875 56.203125 29.59375 
z
M 47.21875 32.234375 
Q 47.125 39.59375 43.09375 43.984375 
Q 39.0625 48.390625 32.421875 48.390625 
Q 24.90625 48.390625 20.390625 44.140625 
Q 15.875 39.890625 15.1875 32.171875 
z
" id="DejaVuSans-101"/>
      <path id="DejaVuSans-32"/>
      <path d="M 8.59375 75.984375 
L 29.296875 75.984375 
L 29.296875 69 
L 17.578125 69 
L 17.578125 -6.203125 
L 29.296875 -6.203125 
L 29.296875 -13.1875 
L 8.59375 -13.1875 
z
" id="DejaVuSans-91"/>
      <path d="M 34.28125 27.484375 
Q 23.390625 27.484375 19.1875 25 
Q 14.984375 22.515625 14.984375 16.5 
Q 14.984375 11.71875 18.140625 8.90625 
Q 21.296875 6.109375 26.703125 6.109375 
Q 34.1875 6.109375 38.703125 11.40625 
Q 43.21875 16.703125 43.21875 25.484375 
L 43.21875 27.484375 
z
M 52.203125 31.203125 
L 52.203125 0 
L 43.21875 0 
L 43.21875 8.296875 
Q 40.140625 3.328125 35.546875 0.953125 
Q 30.953125 -1.421875 24.3125 -1.421875 
Q 15.921875 -1.421875 10.953125 3.296875 
Q 6 8.015625 6 15.921875 
Q 6 25.140625 12.171875 29.828125 
Q 18.359375 34.515625 30.609375 34.515625 
L 43.21875 34.515625 
L 43.21875 35.40625 
Q 43.21875 41.609375 39.140625 45 
Q 35.0625 48.390625 27.6875 48.390625 
Q 23 48.390625 18.546875 47.265625 
Q 14.109375 46.140625 10.015625 43.890625 
L 10.015625 52.203125 
Q 14.9375 54.109375 19.578125 55.046875 
Q 24.21875 56 28.609375 56 
Q 40.484375 56 46.34375 49.84375 
Q 52.203125 43.703125 52.203125 31.203125 
z
" id="DejaVuSans-97"/>
      <path d="M 10.6875 12.40625 
L 21 12.40625 
L 21 0 
L 10.6875 0 
z
" id="DejaVuSans-46"/>
      <path d="M 8.5 21.578125 
L 8.5 54.6875 
L 17.484375 54.6875 
L 17.484375 21.921875 
Q 17.484375 14.15625 20.5 10.265625 
Q 23.53125 6.390625 29.59375 6.390625 
Q 36.859375 6.390625 41.078125 11.03125 
Q 45.3125 15.671875 45.3125 23.6875 
L 45.3125 54.6875 
L 54.296875 54.6875 
L 54.296875 0 
L 45.3125 0 
L 45.3125 8.40625 
Q 42.046875 3.421875 37.71875 1 
Q 33.40625 -1.421875 27.6875 -1.421875 
Q 18.265625 -1.421875 13.375 4.4375 
Q 8.5 10.296875 8.5 21.578125 
z
M 31.109375 56 
z
" id="DejaVuSans-117"/>
      <path d="M 30.421875 75.984375 
L 30.421875 -13.1875 
L 9.71875 -13.1875 
L 9.71875 -6.203125 
L 21.390625 -6.203125 
L 21.390625 69 
L 9.71875 69 
L 9.71875 75.984375 
z
" id="DejaVuSans-93"/>
     </defs>
     <g transform="translate(155.821406 232.900219)scale(0.11 -0.11)">
      <use xlink:href="#DejaVuSans-84"/>
      <use x="61.037109" xlink:href="#DejaVuSans-105"/>
      <use x="88.820312" xlink:href="#DejaVuSans-109"/>
      <use x="186.232422" xlink:href="#DejaVuSans-101"/>
      <use x="247.755859" xlink:href="#DejaVuSans-32"/>
      <use x="279.542969" xlink:href="#DejaVuSans-91"/>
      <use x="318.556641" xlink:href="#DejaVuSans-97"/>
      <use x="379.835938" xlink:href="#DejaVuSans-46"/>
      <use x="411.623047" xlink:href="#DejaVuSans-117"/>
      <use x="475.001953" xlink:href="#DejaVuSans-46"/>
      <use x="506.789062" xlink:href="#DejaVuSans-93"/>
     </g>
    </g>
   </g>
   <g id="matplotlib.axis_2">
    <g id="ytick_1">
     <g id="line2d_7">
      <defs>
       <path d="M 0 0 
L -3.5 0 
" id="m3150718258" style="stroke:#000000;stroke-width:0.8;"/>
      </defs>
      <g>
       <use style="stroke:#000000;stroke-width:0.8;" x="46.339375" xlink:href="#m3150718258" y="194.000727"/>
      </g>
     </g>
     <g id="text_8">
      <!-- 0.0 -->
      <g transform="translate(21.845938 198.179868)scale(0.11 -0.11)">
       <use xlink:href="#DejaVuSans-48"/>
       <use x="63.623047" xlink:href="#DejaVuSans-46"/>
       <use x="95.410156" xlink:href="#DejaVuSans-48"/>
      </g>
     </g>
    </g>
    <g id="ytick_2">
     <g id="line2d_8">
      <g>
       <use style="stroke:#000000;stroke-width:0.8;" x="46.339375" xlink:href="#m3150718258" y="159.387003"/>
      </g>
     </g>
     <g id="text_9">
      <!-- 0.2 -->
      <g transform="translate(21.845938 163.566143)scale(0.11 -0.11)">
       <use xlink:href="#DejaVuSans-48"/>
       <use x="63.623047" xlink:href="#DejaVuSans-46"/>
       <use x="95.410156" xlink:href="#DejaVuSans-50"/>
      </g>
     </g>
    </g>
    <g id="ytick_3">
     <g id="line2d_9">
      <g>
       <use style="stroke:#000000;stroke-width:0.8;" x="46.339375" xlink:href="#m3150718258" y="124.773278"/>
      </g>
     </g>
     <g id="text_10">
      <!-- 0.4 -->
      <g transform="translate(21.845938 128.952419)scale(0.11 -0.11)">
       <use xlink:href="#DejaVuSans-48"/>
       <use x="63.623047" xlink:href="#DejaVuSans-46"/>
       <use x="95.410156" xlink:href="#DejaVuSans-52"/>
      </g>
     </g>
    </g>
    <g id="ytick_4">
     <g id="line2d_10">
      <g>
       <use style="stroke:#000000;stroke-width:0.8;" x="46.339375" xlink:href="#m3150718258" y="90.159553"/>
      </g>
     </g>
     <g id="text_11">
      <!-- 0.6 -->
      <g transform="translate(21.845938 94.338694)scale(0.11 -0.11)">
       <use xlink:href="#DejaVuSans-48"/>
       <use x="63.623047" xlink:href="#DejaVuSans-46"/>
       <use x="95.410156" xlink:href="#DejaVuSans-54"/>
      </g>
     </g>
    </g>
    <g id="ytick_5">
     <g id="line2d_11">
      <g>
       <use style="stroke:#000000;stroke-width:0.8;" x="46.339375" xlink:href="#m3150718258" y="55.545829"/>
      </g>
     </g>
     <g id="text_12">
      <!-- 0.8 -->
      <g transform="translate(21.845938 59.724969)scale(0.11 -0.11)">
       <use xlink:href="#DejaVuSans-48"/>
       <use x="63.623047" xlink:href="#DejaVuSans-46"/>
       <use x="95.410156" xlink:href="#DejaVuSans-56"/>
      </g>
     </g>
    </g>
    <g id="ytick_6">
     <g id="line2d_12">
      <g>
       <use style="stroke:#000000;stroke-width:0.8;" x="46.339375" xlink:href="#m3150718258" y="20.932104"/>
      </g>
     </g>
     <g id="text_13">
      <!-- 1.0 -->
      <g transform="translate(21.845938 25.111245)scale(0.11 -0.11)">
       <use xlink:href="#DejaVuSans-49"/>
       <use x="63.623047" xlink:href="#DejaVuSans-46"/>
       <use x="95.410156" xlink:href="#DejaVuSans-48"/>
      </g>
     </g>
    </g>
    <g id="text_14">
     <!-- Concentration [a.u.] -->
     <defs>
      <path d="M 64.40625 67.28125 
L 64.40625 56.890625 
Q 59.421875 61.53125 53.78125 63.8125 
Q 48.140625 66.109375 41.796875 66.109375 
Q 29.296875 66.109375 22.65625 58.46875 
Q 16.015625 50.828125 16.015625 36.375 
Q 16.015625 21.96875 22.65625 14.328125 
Q 29.296875 6.6875 41.796875 6.6875 
Q 48.140625 6.6875 53.78125 8.984375 
Q 59.421875 11.28125 64.40625 15.921875 
L 64.40625 5.609375 
Q 59.234375 2.09375 53.4375 0.328125 
Q 47.65625 -1.421875 41.21875 -1.421875 
Q 24.65625 -1.421875 15.125 8.703125 
Q 5.609375 18.84375 5.609375 36.375 
Q 5.609375 53.953125 15.125 64.078125 
Q 24.65625 74.21875 41.21875 74.21875 
Q 47.75 74.21875 53.53125 72.484375 
Q 59.328125 70.75 64.40625 67.28125 
z
" id="DejaVuSans-67"/>
      <path d="M 30.609375 48.390625 
Q 23.390625 48.390625 19.1875 42.75 
Q 14.984375 37.109375 14.984375 27.296875 
Q 14.984375 17.484375 19.15625 11.84375 
Q 23.34375 6.203125 30.609375 6.203125 
Q 37.796875 6.203125 41.984375 11.859375 
Q 46.1875 17.53125 46.1875 27.296875 
Q 46.1875 37.015625 41.984375 42.703125 
Q 37.796875 48.390625 30.609375 48.390625 
z
M 30.609375 56 
Q 42.328125 56 49.015625 48.375 
Q 55.71875 40.765625 55.71875 27.296875 
Q 55.71875 13.875 49.015625 6.21875 
Q 42.328125 -1.421875 30.609375 -1.421875 
Q 18.84375 -1.421875 12.171875 6.21875 
Q 5.515625 13.875 5.515625 27.296875 
Q 5.515625 40.765625 12.171875 48.375 
Q 18.84375 56 30.609375 56 
z
" id="DejaVuSans-111"/>
      <path d="M 54.890625 33.015625 
L 54.890625 0 
L 45.90625 0 
L 45.90625 32.71875 
Q 45.90625 40.484375 42.875 44.328125 
Q 39.84375 48.1875 33.796875 48.1875 
Q 26.515625 48.1875 22.3125 43.546875 
Q 18.109375 38.921875 18.109375 30.90625 
L 18.109375 0 
L 9.078125 0 
L 9.078125 54.6875 
L 18.109375 54.6875 
L 18.109375 46.1875 
Q 21.34375 51.125 25.703125 53.5625 
Q 30.078125 56 35.796875 56 
Q 45.21875 56 50.046875 50.171875 
Q 54.890625 44.34375 54.890625 33.015625 
z
" id="DejaVuSans-110"/>
      <path d="M 48.78125 52.59375 
L 48.78125 44.1875 
Q 44.96875 46.296875 41.140625 47.34375 
Q 37.3125 48.390625 33.40625 48.390625 
Q 24.65625 48.390625 19.8125 42.84375 
Q 14.984375 37.3125 14.984375 27.296875 
Q 14.984375 17.28125 19.8125 11.734375 
Q 24.65625 6.203125 33.40625 6.203125 
Q 37.3125 6.203125 41.140625 7.25 
Q 44.96875 8.296875 48.78125 10.40625 
L 48.78125 2.09375 
Q 45.015625 0.34375 40.984375 -0.53125 
Q 36.96875 -1.421875 32.421875 -1.421875 
Q 20.0625 -1.421875 12.78125 6.34375 
Q 5.515625 14.109375 5.515625 27.296875 
Q 5.515625 40.671875 12.859375 48.328125 
Q 20.21875 56 33.015625 56 
Q 37.15625 56 41.109375 55.140625 
Q 45.0625 54.296875 48.78125 52.59375 
z
" id="DejaVuSans-99"/>
      <path d="M 18.3125 70.21875 
L 18.3125 54.6875 
L 36.8125 54.6875 
L 36.8125 47.703125 
L 18.3125 47.703125 
L 18.3125 18.015625 
Q 18.3125 11.328125 20.140625 9.421875 
Q 21.96875 7.515625 27.59375 7.515625 
L 36.8125 7.515625 
L 36.8125 0 
L 27.59375 0 
Q 17.1875 0 13.234375 3.875 
Q 9.28125 7.765625 9.28125 18.015625 
L 9.28125 47.703125 
L 2.6875 47.703125 
L 2.6875 54.6875 
L 9.28125 54.6875 
L 9.28125 70.21875 
z
" id="DejaVuSans-116"/>
      <path d="M 41.109375 46.296875 
Q 39.59375 47.171875 37.8125 47.578125 
Q 36.03125 48 33.890625 48 
Q 26.265625 48 22.1875 43.046875 
Q 18.109375 38.09375 18.109375 28.8125 
L 18.109375 0 
L 9.078125 0 
L 9.078125 54.6875 
L 18.109375 54.6875 
L 18.109375 46.1875 
Q 20.953125 51.171875 25.484375 53.578125 
Q 30.03125 56 36.53125 56 
Q 37.453125 56 38.578125 55.875 
Q 39.703125 55.765625 41.0625 55.515625 
z
" id="DejaVuSans-114"/>
     </defs>
     <g transform="translate(15.558281 160.347922)rotate(-90)scale(0.11 -0.11)">
      <use xlink:href="#DejaVuSans-67"/>
      <use x="69.824219" xlink:href="#DejaVuSans-111"/>
      <use x="131.005859" xlink:href="#DejaVuSans-110"/>
      <use x="194.384766" xlink:href="#DejaVuSans-99"/>
      <use x="249.365234" xlink:href="#DejaVuSans-101"/>
      <use x="310.888672" xlink:href="#DejaVuSans-110"/>
      <use x="374.267578" xlink:href="#DejaVuSans-116"/>
      <use x="413.476562" xlink:href="#DejaVuSans-114"/>
      <use x="454.589844" xlink:href="#DejaVuSans-97"/>
      <use x="515.869141" xlink:href="#DejaVuSans-116"/>
      <use x="555.078125" xlink:href="#DejaVuSans-105"/>
      <use x="582.861328" xlink:href="#DejaVuSans-111"/>
      <use x="644.042969" xlink:href="#DejaVuSans-110"/>
      <use x="707.421875" xlink:href="#DejaVuSans-32"/>
      <use x="739.208984" xlink:href="#DejaVuSans-91"/>
      <use x="778.222656" xlink:href="#DejaVuSans-97"/>
      <use x="839.501953" xlink:href="#DejaVuSans-46"/>
      <use x="871.289062" xlink:href="#DejaVuSans-117"/>
      <use x="934.667969" xlink:href="#DejaVuSans-46"/>
      <use x="966.455078" xlink:href="#DejaVuSans-93"/>
     </g>
    </g>
   </g>
   <g id="line2d_13">
    <defs>
     <path d="M 0 1.5 
C 0.397805 1.5 0.77937 1.341951 1.06066 1.06066 
C 1.341951 0.77937 1.5 0.397805 1.5 0 
C 1.5 -0.397805 1.341951 -0.77937 1.06066 -1.06066 
C 0.77937 -1.341951 0.397805 -1.5 0 -1.5 
C -0.397805 -1.5 -0.77937 -1.341951 -1.06066 -1.06066 
C -1.341951 -0.77937 -1.5 -0.397805 -1.5 0 
C -1.5 0.397805 -1.341951 0.77937 -1.06066 1.06066 
C -0.77937 1.341951 -0.397805 1.5 0 1.5 
z
" id="m3334ea4b0b" style="stroke:#0370b8;"/>
    </defs>
    <g clip-path="url(#pf6bf25aa1e)">
     <use style="fill:#0370b8;stroke:#0370b8;" x="59.021193" xlink:href="#m3334ea4b0b" y="26.299849"/>
     <use style="fill:#0370b8;stroke:#0370b8;" x="64.197446" xlink:href="#m3334ea4b0b" y="49.288422"/>
     <use style="fill:#0370b8;stroke:#0370b8;" x="69.373698" xlink:href="#m3334ea4b0b" y="71.175581"/>
     <use style="fill:#0370b8;stroke:#0370b8;" x="74.54995" xlink:href="#m3334ea4b0b" y="94.653049"/>
     <use style="fill:#0370b8;stroke:#0370b8;" x="79.726202" xlink:href="#m3334ea4b0b" y="106.156718"/>
     <use style="fill:#0370b8;stroke:#0370b8;" x="84.902455" xlink:href="#m3334ea4b0b" y="123.283835"/>
     <use style="fill:#0370b8;stroke:#0370b8;" x="90.078707" xlink:href="#m3334ea4b0b" y="136.523223"/>
     <use style="fill:#0370b8;stroke:#0370b8;" x="95.254959" xlink:href="#m3334ea4b0b" y="135.813269"/>
     <use style="fill:#0370b8;stroke:#0370b8;" x="100.431212" xlink:href="#m3334ea4b0b" y="146.712393"/>
     <use style="fill:#0370b8;stroke:#0370b8;" x="105.607464" xlink:href="#m3334ea4b0b" y="155.070357"/>
     <use style="fill:#0370b8;stroke:#0370b8;" x="110.783716" xlink:href="#m3334ea4b0b" y="157.690949"/>
     <use style="fill:#0370b8;stroke:#0370b8;" x="115.959969" xlink:href="#m3334ea4b0b" y="157.750625"/>
     <use style="fill:#0370b8;stroke:#0370b8;" x="121.136221" xlink:href="#m3334ea4b0b" y="163.864527"/>
     <use style="fill:#0370b8;stroke:#0370b8;" x="126.312473" xlink:href="#m3334ea4b0b" y="163.836497"/>
     <use style="fill:#0370b8;stroke:#0370b8;" x="131.488726" xlink:href="#m3334ea4b0b" y="165.744895"/>
     <use style="fill:#0370b8;stroke:#0370b8;" x="136.664978" xlink:href="#m3334ea4b0b" y="169.772381"/>
     <use style="fill:#0370b8;stroke:#0370b8;" x="141.84123" xlink:href="#m3334ea4b0b" y="170.92843"/>
     <use style="fill:#0370b8;stroke:#0370b8;" x="147.017483" xlink:href="#m3334ea4b0b" y="169.947448"/>
     <use style="fill:#0370b8;stroke:#0370b8;" x="152.193735" xlink:href="#m3334ea4b0b" y="169.46965"/>
     <use style="fill:#0370b8;stroke:#0370b8;" x="157.369987" xlink:href="#m3334ea4b0b" y="172.946989"/>
     <use style="fill:#0370b8;stroke:#0370b8;" x="162.54624" xlink:href="#m3334ea4b0b" y="172.958219"/>
     <use style="fill:#0370b8;stroke:#0370b8;" x="167.722492" xlink:href="#m3334ea4b0b" y="172.965256"/>
     <use style="fill:#0370b8;stroke:#0370b8;" x="172.898744" xlink:href="#m3334ea4b0b" y="173.623511"/>
     <use style="fill:#0370b8;stroke:#0370b8;" x="178.074997" xlink:href="#m3334ea4b0b" y="174.934583"/>
     <use style="fill:#0370b8;stroke:#0370b8;" x="183.251249" xlink:href="#m3334ea4b0b" y="175.461839"/>
     <use style="fill:#0370b8;stroke:#0370b8;" x="188.427501" xlink:href="#m3334ea4b0b" y="176.027367"/>
     <use style="fill:#0370b8;stroke:#0370b8;" x="193.603753" xlink:href="#m3334ea4b0b" y="175.950662"/>
     <use style="fill:#0370b8;stroke:#0370b8;" x="198.780006" xlink:href="#m3334ea4b0b" y="178.207029"/>
     <use style="fill:#0370b8;stroke:#0370b8;" x="203.956258" xlink:href="#m3334ea4b0b" y="179.047692"/>
     <use style="fill:#0370b8;stroke:#0370b8;" x="209.13251" xlink:href="#m3334ea4b0b" y="178.928443"/>
     <use style="fill:#0370b8;stroke:#0370b8;" x="214.308763" xlink:href="#m3334ea4b0b" y="179.834717"/>
     <use style="fill:#0370b8;stroke:#0370b8;" x="219.485015" xlink:href="#m3334ea4b0b" y="179.663841"/>
     <use style="fill:#0370b8;stroke:#0370b8;" x="224.661267" xlink:href="#m3334ea4b0b" y="181.245545"/>
     <use style="fill:#0370b8;stroke:#0370b8;" x="229.83752" xlink:href="#m3334ea4b0b" y="181.565818"/>
     <use style="fill:#0370b8;stroke:#0370b8;" x="235.013772" xlink:href="#m3334ea4b0b" y="181.789833"/>
     <use style="fill:#0370b8;stroke:#0370b8;" x="240.190024" xlink:href="#m3334ea4b0b" y="182.187597"/>
     <use style="fill:#0370b8;stroke:#0370b8;" x="245.366277" xlink:href="#m3334ea4b0b" y="182.77393"/>
     <use style="fill:#0370b8;stroke:#0370b8;" x="250.542529" xlink:href="#m3334ea4b0b" y="183.633373"/>
     <use style="fill:#0370b8;stroke:#0370b8;" x="255.718781" xlink:href="#m3334ea4b0b" y="184.087383"/>
     <use style="fill:#0370b8;stroke:#0370b8;" x="260.895034" xlink:href="#m3334ea4b0b" y="182.625149"/>
     <use style="fill:#0370b8;stroke:#0370b8;" x="266.071286" xlink:href="#m3334ea4b0b" y="183.310782"/>
     <use style="fill:#0370b8;stroke:#0370b8;" x="271.247538" xlink:href="#m3334ea4b0b" y="183.214896"/>
     <use style="fill:#0370b8;stroke:#0370b8;" x="276.423791" xlink:href="#m3334ea4b0b" y="183.457627"/>
     <use style="fill:#0370b8;stroke:#0370b8;" x="281.600043" xlink:href="#m3334ea4b0b" y="184.390252"/>
     <use style="fill:#0370b8;stroke:#0370b8;" x="286.776295" xlink:href="#m3334ea4b0b" y="184.509529"/>
     <use style="fill:#0370b8;stroke:#0370b8;" x="291.952548" xlink:href="#m3334ea4b0b" y="185.069696"/>
     <use style="fill:#0370b8;stroke:#0370b8;" x="297.1288" xlink:href="#m3334ea4b0b" y="185.0729"/>
     <use style="fill:#0370b8;stroke:#0370b8;" x="302.305052" xlink:href="#m3334ea4b0b" y="185.599573"/>
     <use style="fill:#0370b8;stroke:#0370b8;" x="307.481304" xlink:href="#m3334ea4b0b" y="185.718923"/>
     <use style="fill:#0370b8;stroke:#0370b8;" x="312.657557" xlink:href="#m3334ea4b0b" y="185.83587"/>
    </g>
   </g>
   <g id="line2d_14">
    <defs>
     <path d="M 0 1.5 
C 0.397805 1.5 0.77937 1.341951 1.06066 1.06066 
C 1.341951 0.77937 1.5 0.397805 1.5 0 
C 1.5 -0.397805 1.341951 -0.77937 1.06066 -1.06066 
C 0.77937 -1.341951 0.397805 -1.5 0 -1.5 
C -0.397805 -1.5 -0.77937 -1.341951 -1.06066 -1.06066 
C -1.341951 -0.77937 -1.5 -0.397805 -1.5 0 
C -1.5 0.397805 -1.341951 0.77937 -1.06066 1.06066 
C -0.77937 1.341951 -0.397805 1.5 0 1.5 
z
" id="mb8a8a9ef34" style="stroke:#d56339;"/>
    </defs>
    <g clip-path="url(#pf6bf25aa1e)">
     <use style="fill:#d56339;stroke:#d56339;" x="59.021193" xlink:href="#mb8a8a9ef34" y="194.000727"/>
     <use style="fill:#d56339;stroke:#d56339;" x="64.197446" xlink:href="#mb8a8a9ef34" y="164.026009"/>
     <use style="fill:#d56339;stroke:#d56339;" x="69.373698" xlink:href="#mb8a8a9ef34" y="140.555399"/>
     <use style="fill:#d56339;stroke:#d56339;" x="74.54995" xlink:href="#mb8a8a9ef34" y="124.113947"/>
     <use style="fill:#d56339;stroke:#d56339;" x="79.726202" xlink:href="#mb8a8a9ef34" y="113.179417"/>
     <use style="fill:#d56339;stroke:#d56339;" x="84.902455" xlink:href="#mb8a8a9ef34" y="110.534448"/>
     <use style="fill:#d56339;stroke:#d56339;" x="90.078707" xlink:href="#mb8a8a9ef34" y="92.329984"/>
     <use style="fill:#d56339;stroke:#d56339;" x="95.254959" xlink:href="#mb8a8a9ef34" y="88.739127"/>
     <use style="fill:#d56339;stroke:#d56339;" x="100.431212" xlink:href="#mb8a8a9ef34" y="100.690943"/>
     <use style="fill:#d56339;stroke:#d56339;" x="105.607464" xlink:href="#mb8a8a9ef34" y="98.311145"/>
     <use style="fill:#d56339;stroke:#d56339;" x="110.783716" xlink:href="#mb8a8a9ef34" y="101.108183"/>
     <use style="fill:#d56339;stroke:#d56339;" x="115.959969" xlink:href="#mb8a8a9ef34" y="101.54773"/>
     <use style="fill:#d56339;stroke:#d56339;" x="121.136221" xlink:href="#mb8a8a9ef34" y="96.020303"/>
     <use style="fill:#d56339;stroke:#d56339;" x="126.312473" xlink:href="#mb8a8a9ef34" y="95.507158"/>
     <use style="fill:#d56339;stroke:#d56339;" x="131.488726" xlink:href="#mb8a8a9ef34" y="100.639959"/>
     <use style="fill:#d56339;stroke:#d56339;" x="136.664978" xlink:href="#mb8a8a9ef34" y="99.779217"/>
     <use style="fill:#d56339;stroke:#d56339;" x="141.84123" xlink:href="#mb8a8a9ef34" y="105.239169"/>
     <use style="fill:#d56339;stroke:#d56339;" x="147.017483" xlink:href="#mb8a8a9ef34" y="105.662937"/>
     <use style="fill:#d56339;stroke:#d56339;" x="152.193735" xlink:href="#mb8a8a9ef34" y="108.410294"/>
     <use style="fill:#d56339;stroke:#d56339;" x="157.369987" xlink:href="#mb8a8a9ef34" y="108.292707"/>
     <use style="fill:#d56339;stroke:#d56339;" x="162.54624" xlink:href="#mb8a8a9ef34" y="114.157794"/>
     <use style="fill:#d56339;stroke:#d56339;" x="167.722492" xlink:href="#mb8a8a9ef34" y="115.596275"/>
     <use style="fill:#d56339;stroke:#d56339;" x="172.898744" xlink:href="#mb8a8a9ef34" y="116.048099"/>
     <use style="fill:#d56339;stroke:#d56339;" x="178.074997" xlink:href="#mb8a8a9ef34" y="115.730919"/>
     <use style="fill:#d56339;stroke:#d56339;" x="183.251249" xlink:href="#mb8a8a9ef34" y="115.69676"/>
     <use style="fill:#d56339;stroke:#d56339;" x="188.427501" xlink:href="#mb8a8a9ef34" y="129.56355"/>
     <use style="fill:#d56339;stroke:#d56339;" x="193.603753" xlink:href="#mb8a8a9ef34" y="119.576456"/>
     <use style="fill:#d56339;stroke:#d56339;" x="198.780006" xlink:href="#mb8a8a9ef34" y="132.031964"/>
     <use style="fill:#d56339;stroke:#d56339;" x="203.956258" xlink:href="#mb8a8a9ef34" y="131.013569"/>
     <use style="fill:#d56339;stroke:#d56339;" x="209.13251" xlink:href="#mb8a8a9ef34" y="127.854563"/>
     <use style="fill:#d56339;stroke:#d56339;" x="214.308763" xlink:href="#mb8a8a9ef34" y="131.126119"/>
     <use style="fill:#d56339;stroke:#d56339;" x="219.485015" xlink:href="#mb8a8a9ef34" y="130.663246"/>
     <use style="fill:#d56339;stroke:#d56339;" x="224.661267" xlink:href="#mb8a8a9ef34" y="132.838623"/>
     <use style="fill:#d56339;stroke:#d56339;" x="229.83752" xlink:href="#mb8a8a9ef34" y="136.981842"/>
     <use style="fill:#d56339;stroke:#d56339;" x="235.013772" xlink:href="#mb8a8a9ef34" y="145.423933"/>
     <use style="fill:#d56339;stroke:#d56339;" x="240.190024" xlink:href="#mb8a8a9ef34" y="144.453925"/>
     <use style="fill:#d56339;stroke:#d56339;" x="245.366277" xlink:href="#mb8a8a9ef34" y="142.131682"/>
     <use style="fill:#d56339;stroke:#d56339;" x="250.542529" xlink:href="#mb8a8a9ef34" y="142.655252"/>
     <use style="fill:#d56339;stroke:#d56339;" x="255.718781" xlink:href="#mb8a8a9ef34" y="146.716493"/>
     <use style="fill:#d56339;stroke:#d56339;" x="260.895034" xlink:href="#mb8a8a9ef34" y="146.691352"/>
     <use style="fill:#d56339;stroke:#d56339;" x="266.071286" xlink:href="#mb8a8a9ef34" y="155.141798"/>
     <use style="fill:#d56339;stroke:#d56339;" x="271.247538" xlink:href="#mb8a8a9ef34" y="155.030558"/>
     <use style="fill:#d56339;stroke:#d56339;" x="276.423791" xlink:href="#mb8a8a9ef34" y="152.74962"/>
     <use style="fill:#d56339;stroke:#d56339;" x="281.600043" xlink:href="#mb8a8a9ef34" y="154.31465"/>
     <use style="fill:#d56339;stroke:#d56339;" x="286.776295" xlink:href="#mb8a8a9ef34" y="154.767002"/>
     <use style="fill:#d56339;stroke:#d56339;" x="291.952548" xlink:href="#mb8a8a9ef34" y="159.205199"/>
     <use style="fill:#d56339;stroke:#d56339;" x="297.1288" xlink:href="#mb8a8a9ef34" y="157.349005"/>
     <use style="fill:#d56339;stroke:#d56339;" x="302.305052" xlink:href="#mb8a8a9ef34" y="158.698151"/>
     <use style="fill:#d56339;stroke:#d56339;" x="307.481304" xlink:href="#mb8a8a9ef34" y="158.945495"/>
     <use style="fill:#d56339;stroke:#d56339;" x="312.657557" xlink:href="#mb8a8a9ef34" y="164.92617"/>
    </g>
   </g>
   <g id="line2d_15">
    <defs>
     <path d="M 0 1.5 
C 0.397805 1.5 0.77937 1.341951 1.06066 1.06066 
C 1.341951 0.77937 1.5 0.397805 1.5 0 
C 1.5 -0.397805 1.341951 -0.77937 1.06066 -1.06066 
C 0.77937 -1.341951 0.397805 -1.5 0 -1.5 
C -0.397805 -1.5 -0.77937 -1.341951 -1.06066 -1.06066 
C -1.341951 -0.77937 -1.5 -0.397805 -1.5 0 
C -1.5 0.397805 -1.341951 0.77937 -1.06066 1.06066 
C -0.77937 1.341951 -0.397805 1.5 0 1.5 
z
" id="m6f791db7f9" style="stroke:#eeb92e;"/>
    </defs>
    <g clip-path="url(#pf6bf25aa1e)">
     <use style="fill:#eeb92e;stroke:#eeb92e;" x="59.021193" xlink:href="#m6f791db7f9" y="156.918067"/>
     <use style="fill:#eeb92e;stroke:#eeb92e;" x="64.197446" xlink:href="#m6f791db7f9" y="160.522745"/>
     <use style="fill:#eeb92e;stroke:#eeb92e;" x="69.373698" xlink:href="#m6f791db7f9" y="160.104247"/>
     <use style="fill:#eeb92e;stroke:#eeb92e;" x="74.54995" xlink:href="#m6f791db7f9" y="150.649159"/>
     <use style="fill:#eeb92e;stroke:#eeb92e;" x="79.726202" xlink:href="#m6f791db7f9" y="154.87639"/>
     <use style="fill:#eeb92e;stroke:#eeb92e;" x="84.902455" xlink:href="#m6f791db7f9" y="148.420055"/>
     <use style="fill:#eeb92e;stroke:#eeb92e;" x="90.078707" xlink:href="#m6f791db7f9" y="147.870556"/>
     <use style="fill:#eeb92e;stroke:#eeb92e;" x="95.254959" xlink:href="#m6f791db7f9" y="141.495894"/>
     <use style="fill:#eeb92e;stroke:#eeb92e;" x="100.431212" xlink:href="#m6f791db7f9" y="130.879586"/>
     <use style="fill:#eeb92e;stroke:#eeb92e;" x="105.607464" xlink:href="#m6f791db7f9" y="131.469124"/>
     <use style="fill:#eeb92e;stroke:#eeb92e;" x="110.783716" xlink:href="#m6f791db7f9" y="133.591157"/>
     <use style="fill:#eeb92e;stroke:#eeb92e;" x="115.959969" xlink:href="#m6f791db7f9" y="125.370703"/>
     <use style="fill:#eeb92e;stroke:#eeb92e;" x="121.136221" xlink:href="#m6f791db7f9" y="122.325372"/>
     <use style="fill:#eeb92e;stroke:#eeb92e;" x="126.312473" xlink:href="#m6f791db7f9" y="109.137965"/>
     <use style="fill:#eeb92e;stroke:#eeb92e;" x="131.488726" xlink:href="#m6f791db7f9" y="107.153867"/>
     <use style="fill:#eeb92e;stroke:#eeb92e;" x="136.664978" xlink:href="#m6f791db7f9" y="110.821448"/>
     <use style="fill:#eeb92e;stroke:#eeb92e;" x="141.84123" xlink:href="#m6f791db7f9" y="104.958886"/>
     <use style="fill:#eeb92e;stroke:#eeb92e;" x="147.017483" xlink:href="#m6f791db7f9" y="107.243785"/>
     <use style="fill:#eeb92e;stroke:#eeb92e;" x="152.193735" xlink:href="#m6f791db7f9" y="86.541333"/>
     <use style="fill:#eeb92e;stroke:#eeb92e;" x="157.369987" xlink:href="#m6f791db7f9" y="98.332064"/>
     <use style="fill:#eeb92e;stroke:#eeb92e;" x="162.54624" xlink:href="#m6f791db7f9" y="97.726786"/>
     <use style="fill:#eeb92e;stroke:#eeb92e;" x="167.722492" xlink:href="#m6f791db7f9" y="91.994306"/>
     <use style="fill:#eeb92e;stroke:#eeb92e;" x="172.898744" xlink:href="#m6f791db7f9" y="71.624811"/>
     <use style="fill:#eeb92e;stroke:#eeb92e;" x="178.074997" xlink:href="#m6f791db7f9" y="81.857546"/>
     <use style="fill:#eeb92e;stroke:#eeb92e;" x="183.251249" xlink:href="#m6f791db7f9" y="86.738197"/>
     <use style="fill:#eeb92e;stroke:#eeb92e;" x="188.427501" xlink:href="#m6f791db7f9" y="62.333244"/>
     <use style="fill:#eeb92e;stroke:#eeb92e;" x="193.603753" xlink:href="#m6f791db7f9" y="59.041048"/>
     <use style="fill:#eeb92e;stroke:#eeb92e;" x="198.780006" xlink:href="#m6f791db7f9" y="63.652686"/>
     <use style="fill:#eeb92e;stroke:#eeb92e;" x="203.956258" xlink:href="#m6f791db7f9" y="54.59281"/>
     <use style="fill:#eeb92e;stroke:#eeb92e;" x="209.13251" xlink:href="#m6f791db7f9" y="74.189253"/>
     <use style="fill:#eeb92e;stroke:#eeb92e;" x="214.308763" xlink:href="#m6f791db7f9" y="56.32242"/>
     <use style="fill:#eeb92e;stroke:#eeb92e;" x="219.485015" xlink:href="#m6f791db7f9" y="64.673637"/>
     <use style="fill:#eeb92e;stroke:#eeb92e;" x="224.661267" xlink:href="#m6f791db7f9" y="62.946779"/>
     <use style="fill:#eeb92e;stroke:#eeb92e;" x="229.83752" xlink:href="#m6f791db7f9" y="56.968773"/>
     <use style="fill:#eeb92e;stroke:#eeb92e;" x="235.013772" xlink:href="#m6f791db7f9" y="56.610485"/>
     <use style="fill:#eeb92e;stroke:#eeb92e;" x="240.190024" xlink:href="#m6f791db7f9" y="52.177284"/>
     <use style="fill:#eeb92e;stroke:#eeb92e;" x="245.366277" xlink:href="#m6f791db7f9" y="33.437844"/>
     <use style="fill:#eeb92e;stroke:#eeb92e;" x="250.542529" xlink:href="#m6f791db7f9" y="34.957904"/>
     <use style="fill:#eeb92e;stroke:#eeb92e;" x="255.718781" xlink:href="#m6f791db7f9" y="41.443915"/>
     <use style="fill:#eeb92e;stroke:#eeb92e;" x="260.895034" xlink:href="#m6f791db7f9" y="46.766199"/>
     <use style="fill:#eeb92e;stroke:#eeb92e;" x="266.071286" xlink:href="#m6f791db7f9" y="47.015866"/>
     <use style="fill:#eeb92e;stroke:#eeb92e;" x="271.247538" xlink:href="#m6f791db7f9" y="38.531158"/>
     <use style="fill:#eeb92e;stroke:#eeb92e;" x="276.423791" xlink:href="#m6f791db7f9" y="41.987468"/>
     <use style="fill:#eeb92e;stroke:#eeb92e;" x="281.600043" xlink:href="#m6f791db7f9" y="30.136012"/>
     <use style="fill:#eeb92e;stroke:#eeb92e;" x="286.776295" xlink:href="#m6f791db7f9" y="19.747889"/>
     <use style="fill:#eeb92e;stroke:#eeb92e;" x="291.952548" xlink:href="#m6f791db7f9" y="33.331513"/>
     <use style="fill:#eeb92e;stroke:#eeb92e;" x="297.1288" xlink:href="#m6f791db7f9" y="16.095273"/>
     <use style="fill:#eeb92e;stroke:#eeb92e;" x="302.305052" xlink:href="#m6f791db7f9" y="39.219724"/>
     <use style="fill:#eeb92e;stroke:#eeb92e;" x="307.481304" xlink:href="#m6f791db7f9" y="21.065586"/>
     <use style="fill:#eeb92e;stroke:#eeb92e;" x="312.657557" xlink:href="#m6f791db7f9" y="36.500249"/>
    </g>
   </g>
   <g id="line2d_16">
    <path clip-path="url(#pf6bf25aa1e)" d="M 59.021193 21.887934 
L 60.723451 32.913832 
L 62.425708 43.092688 
L 64.127966 52.491428 
L 65.830223 61.171664 
L 67.532481 69.190132 
L 69.234738 76.599063 
L 70.936996 83.446547 
L 72.639253 89.77686 
L 74.34151 95.630767 
L 76.043768 101.045799 
L 77.746025 106.056513 
L 79.448283 110.694733 
L 81.15054 114.98975 
L 82.852798 118.968533 
L 84.555055 122.655921 
L 87.95957 129.246166 
L 91.364085 134.922527 
L 94.7686 139.822388 
L 98.173115 144.062232 
L 101.57763 147.740827 
L 104.982145 150.941923 
L 108.38666 153.736545 
L 111.791175 156.184926 
L 115.19569 158.338158 
L 118.600205 160.239577 
L 122.00472 161.92595 
L 125.409235 163.428475 
L 130.516007 165.394347 
L 135.62278 167.078301 
L 140.729552 168.537538 
L 147.538582 170.209592 
L 154.347612 171.640992 
L 162.858899 173.178795 
L 173.072444 174.756472 
L 184.988246 176.337214 
L 198.606306 177.903684 
L 213.926623 179.446365 
L 232.651456 181.096496 
L 253.078545 182.665219 
L 275.207892 184.141986 
L 299.039497 185.514664 
L 312.657557 186.210852 
L 312.657557 186.210852 
" style="fill:none;stroke:#0370b8;stroke-linecap:square;stroke-width:1.5;"/>
   </g>
   <g id="line2d_17">
    <path clip-path="url(#pf6bf25aa1e)" d="M 59.021193 194.000727 
L 60.723451 183.048599 
L 62.425708 173.082149 
L 64.127966 164.021915 
L 65.830223 155.794754 
L 67.532481 148.333336 
L 69.234738 141.575688 
L 70.936996 135.464769 
L 72.639253 129.948079 
L 74.34151 124.977295 
L 76.043768 120.507944 
L 77.746025 116.499095 
L 79.448283 112.913068 
L 81.15054 109.715197 
L 82.852798 106.87358 
L 84.555055 104.358849 
L 86.257313 102.143984 
L 87.95957 100.20412 
L 89.661828 98.516377 
L 91.364085 97.059701 
L 93.066343 95.814722 
L 94.7686 94.763615 
L 96.470858 93.889985 
L 98.173115 93.178744 
L 99.875373 92.616016 
L 101.57763 92.189035 
L 103.279888 91.886058 
L 106.684402 91.609788 
L 110.088917 91.710806 
L 113.493432 92.124509 
L 116.897947 92.796295 
L 120.302462 93.680029 
L 125.409235 95.319502 
L 130.516007 97.24281 
L 137.325037 100.108614 
L 145.836324 103.978739 
L 183.285989 121.373205 
L 193.499534 125.761037 
L 203.713078 129.925216 
L 213.926623 133.86047 
L 224.140168 137.569354 
L 234.353713 141.058828 
L 244.567258 144.338199 
L 256.48306 147.912514 
L 268.398862 151.232198 
L 280.314665 154.314236 
L 292.230467 157.174996 
L 305.848527 160.193356 
L 312.657557 161.608587 
L 312.657557 161.608587 
" style="fill:none;stroke:#d56339;stroke-linecap:square;stroke-width:1.5;"/>
   </g>
   <g id="line2d_18">
    <path clip-path="url(#pf6bf25aa1e)" d="M 59.021193 159.462115 
L 60.723451 159.388345 
L 62.425708 159.175938 
L 64.127966 158.837433 
L 67.532481 157.827308 
L 70.936996 156.43946 
L 74.34151 154.742714 
L 77.746025 152.795167 
L 82.852798 149.508663 
L 87.95957 145.900489 
L 94.7686 140.764772 
L 104.982145 132.712565 
L 123.706977 117.915584 
L 133.920522 110.165243 
L 142.431809 103.964195 
L 150.943097 98.020739 
L 159.454384 92.343554 
L 167.965672 86.933386 
L 176.476959 81.785997 
L 184.988246 76.894096 
L 193.499534 72.248608 
L 202.010821 67.839502 
L 210.522108 63.656318 
L 219.033396 59.68852 
L 229.246941 55.196837 
L 239.460485 50.982888 
L 249.67403 47.029953 
L 259.887575 43.322145 
L 270.10112 39.84443 
L 280.314665 36.582633 
L 292.230467 33.032344 
L 304.146269 29.737997 
L 312.657557 27.531337 
L 312.657557 27.531337 
" style="fill:none;stroke:#eeb92e;stroke-linecap:square;stroke-width:1.5;"/>
   </g>
   <g id="patch_3">
    <path d="M 46.339375 202.896 
L 46.339375 7.2 
" style="fill:none;stroke:#000000;stroke-linecap:square;stroke-linejoin:miter;stroke-width:0.8;"/>
   </g>
   <g id="patch_4">
    <path d="M 325.339375 202.896 
L 325.339375 7.2 
" style="fill:none;stroke:#000000;stroke-linecap:square;stroke-linejoin:miter;stroke-width:0.8;"/>
   </g>
   <g id="patch_5">
    <path d="M 46.339375 202.896 
L 325.339375 202.896 
" style="fill:none;stroke:#000000;stroke-linecap:square;stroke-linejoin:miter;stroke-width:0.8;"/>
   </g>
   <g id="patch_6">
    <path d="M 46.339375 7.2 
L 325.339375 7.2 
" style="fill:none;stroke:#000000;stroke-linecap:square;stroke-linejoin:miter;stroke-width:0.8;"/>
   </g>
   <g id="legend_1">
    <g id="patch_7">
     <path d="M 274.758281 130.916906 
L 317.639375 130.916906 
Q 319.839375 130.916906 319.839375 128.716906 
L 319.839375 81.379094 
Q 319.839375 79.179094 317.639375 79.179094 
L 274.758281 79.179094 
Q 272.558281 79.179094 272.558281 81.379094 
L 272.558281 128.716906 
Q 272.558281 130.916906 274.758281 130.916906 
z
" style="fill:#ffffff;opacity:0.8;stroke:#cccccc;stroke-linejoin:miter;"/>
    </g>
    <g id="line2d_19"/>
    <g id="line2d_20">
     <g>
      <use style="fill:#0370b8;stroke:#0370b8;" x="287.958281" xlink:href="#m3334ea4b0b" y="88.087375"/>
     </g>
    </g>
    <g id="text_15">
     <!-- A -->
     <defs>
      <path d="M 34.1875 63.1875 
L 20.796875 26.90625 
L 47.609375 26.90625 
z
M 28.609375 72.90625 
L 39.796875 72.90625 
L 67.578125 0 
L 57.328125 0 
L 50.6875 18.703125 
L 17.828125 18.703125 
L 11.1875 0 
L 0.78125 0 
z
" id="DejaVuSans-65"/>
     </defs>
     <g transform="translate(307.758281 91.937375)scale(0.11 -0.11)">
      <use xlink:href="#DejaVuSans-65"/>
     </g>
    </g>
    <g id="line2d_21"/>
    <g id="line2d_22">
     <g>
      <use style="fill:#d56339;stroke:#d56339;" x="287.958281" xlink:href="#mb8a8a9ef34" y="104.233312"/>
     </g>
    </g>
    <g id="text_16">
     <!-- B -->
     <defs>
      <path d="M 19.671875 34.8125 
L 19.671875 8.109375 
L 35.5 8.109375 
Q 43.453125 8.109375 47.28125 11.40625 
Q 51.125 14.703125 51.125 21.484375 
Q 51.125 28.328125 47.28125 31.5625 
Q 43.453125 34.8125 35.5 34.8125 
z
M 19.671875 64.796875 
L 19.671875 42.828125 
L 34.28125 42.828125 
Q 41.5 42.828125 45.03125 45.53125 
Q 48.578125 48.25 48.578125 53.8125 
Q 48.578125 59.328125 45.03125 62.0625 
Q 41.5 64.796875 34.28125 64.796875 
z
M 9.8125 72.90625 
L 35.015625 72.90625 
Q 46.296875 72.90625 52.390625 68.21875 
Q 58.5 63.53125 58.5 54.890625 
Q 58.5 48.1875 55.375 44.234375 
Q 52.25 40.28125 46.1875 39.3125 
Q 53.46875 37.75 57.5 32.78125 
Q 61.53125 27.828125 61.53125 20.40625 
Q 61.53125 10.640625 54.890625 5.3125 
Q 48.25 0 35.984375 0 
L 9.8125 0 
z
" id="DejaVuSans-66"/>
     </defs>
     <g transform="translate(307.758281 108.083312)scale(0.11 -0.11)">
      <use xlink:href="#DejaVuSans-66"/>
     </g>
    </g>
    <g id="line2d_23"/>
    <g id="line2d_24">
     <g>
      <use style="fill:#eeb92e;stroke:#eeb92e;" x="287.958281" xlink:href="#m6f791db7f9" y="120.37925"/>
     </g>
    </g>
    <g id="text_17">
     <!-- C -->
     <g transform="translate(307.758281 124.22925)scale(0.11 -0.11)">
      <use xlink:href="#DejaVuSans-67"/>
     </g>
    </g>
   </g>
  </g>
 </g>
 <defs>
  <clipPath id="pf6bf25aa1e">
   <rect height="195.696" width="279" x="46.339375" y="7.2"/>
  </clipPath>
 </defs>
</svg>
