<?xml version="1.0" encoding="utf-8" standalone="no"?>
<!DOCTYPE svg PUBLIC "-//W3C//DTD SVG 1.1//EN"
  "http://www.w3.org/Graphics/SVG/1.1/DTD/svg11.dtd">
<!-- Created with matplotlib (https://matplotlib.org/) -->
<svg height="242.387875pt" version="1.1" viewBox="0 0 332.539375 242.387875" width="332.539375pt" xmlns="http://www.w3.org/2000/svg" xmlns:xlink="http://www.w3.org/1999/xlink">
 <defs>
  <style type="text/css">
*{stroke-linecap:butt;stroke-linejoin:round;}
  </style>
 </defs>
 <g id="figure_1">
  <g id="patch_1">
   <path d="M 0 242.387875 
L 332.539375 242.387875 
L 332.539375 0 
L 0 0 
z
" style="fill:#ffffff;"/>
  </g>
  <g id="axes_1">
   <g id="patch_2">
    <path d="M 46.339375 202.896 
L 325.339375 202.896 
L 325.339375 7.2 
L 46.339375 7.2 
z
" style="fill:#ffffff;"/>
   </g>
   <g id="matplotlib.axis_1">
    <g id="xtick_1">
     <g id="line2d_1">
      <defs>
       <path d="M 0 0 
L 0 3.5 
" id="m94e0275bf9" style="stroke:#000000;stroke-width:0.8;"/>
      </defs>
      <g>
       <use style="stroke:#000000;stroke-width:0.8;" x="59.021193" xlink:href="#m94e0275bf9" y="202.896"/>
      </g>
     </g>
     <g id="text_1">
      <!-- 0 -->
      <defs>
       <path d="M 31.78125 66.40625 
Q 24.171875 66.40625 20.328125 58.90625 
Q 16.5 51.421875 16.5 36.375 
Q 16.5 21.390625 20.328125 13.890625 
Q 24.171875 6.390625 31.78125 6.390625 
Q 39.453125 6.390625 43.28125 13.890625 
Q 47.125 21.390625 47.125 36.375 
Q 47.125 51.421875 43.28125 58.90625 
Q 39.453125 66.40625 31.78125 66.40625 
z
M 31.78125 74.21875 
Q 44.046875 74.21875 50.515625 64.515625 
Q 56.984375 54.828125 56.984375 36.375 
Q 56.984375 17.96875 50.515625 8.265625 
Q 44.046875 -1.421875 31.78125 -1.421875 
Q 19.53125 -1.421875 13.0625 8.265625 
Q 6.59375 17.96875 6.59375 36.375 
Q 6.59375 54.828125 13.0625 64.515625 
Q 19.53125 74.21875 31.78125 74.21875 
z
" id="DejaVuSans-48"/>
      </defs>
      <g transform="translate(55.521818 218.254281)scale(0.11 -0.11)">
       <use xlink:href="#DejaVuSans-48"/>
      </g>
     </g>
    </g>
    <g id="xtick_2">
     <g id="line2d_2">
      <g>
       <use style="stroke:#000000;stroke-width:0.8;" x="109.748466" xlink:href="#m94e0275bf9" y="202.896"/>
      </g>
     </g>
     <g id="text_2">
      <!-- 20 -->
      <defs>
       <path d="M 19.1875 8.296875 
L 53.609375 8.296875 
L 53.609375 0 
L 7.328125 0 
L 7.328125 8.296875 
Q 12.9375 14.109375 22.625 23.890625 
Q 32.328125 33.6875 34.8125 36.53125 
Q 39.546875 41.84375 41.421875 45.53125 
Q 43.3125 49.21875 43.3125 52.78125 
Q 43.3125 58.59375 39.234375 62.25 
Q 35.15625 65.921875 28.609375 65.921875 
Q 23.96875 65.921875 18.8125 64.3125 
Q 13.671875 62.703125 7.8125 59.421875 
L 7.8125 69.390625 
Q 13.765625 71.78125 18.9375 73 
Q 24.125 74.21875 28.421875 74.21875 
Q 39.75 74.21875 46.484375 68.546875 
Q 53.21875 62.890625 53.21875 53.421875 
Q 53.21875 48.921875 51.53125 44.890625 
Q 49.859375 40.875 45.40625 35.40625 
Q 44.1875 33.984375 37.640625 27.21875 
Q 31.109375 20.453125 19.1875 8.296875 
z
" id="DejaVuSans-50"/>
      </defs>
      <g transform="translate(102.749716 218.254281)scale(0.11 -0.11)">
       <use xlink:href="#DejaVuSans-50"/>
       <use x="63.623047" xlink:href="#DejaVuSans-48"/>
      </g>
     </g>
    </g>
    <g id="xtick_3">
     <g id="line2d_3">
      <g>
       <use style="stroke:#000000;stroke-width:0.8;" x="160.475739" xlink:href="#m94e0275bf9" y="202.896"/>
      </g>
     </g>
     <g id="text_3">
      <!-- 40 -->
      <defs>
       <path d="M 37.796875 64.3125 
L 12.890625 25.390625 
L 37.796875 25.390625 
z
M 35.203125 72.90625 
L 47.609375 72.90625 
L 47.609375 25.390625 
L 58.015625 25.390625 
L 58.015625 17.1875 
L 47.609375 17.1875 
L 47.609375 0 
L 37.796875 0 
L 37.796875 17.1875 
L 4.890625 17.1875 
L 4.890625 26.703125 
z
" id="DejaVuSans-52"/>
      </defs>
      <g transform="translate(153.476989 218.254281)scale(0.11 -0.11)">
       <use xlink:href="#DejaVuSans-52"/>
       <use x="63.623047" xlink:href="#DejaVuSans-48"/>
      </g>
     </g>
    </g>
    <g id="xtick_4">
     <g id="line2d_4">
      <g>
       <use style="stroke:#000000;stroke-width:0.8;" x="211.203011" xlink:href="#m94e0275bf9" y="202.896"/>
      </g>
     </g>
     <g id="text_4">
      <!-- 60 -->
      <defs>
       <path d="M 33.015625 40.375 
Q 26.375 40.375 22.484375 35.828125 
Q 18.609375 31.296875 18.609375 23.390625 
Q 18.609375 15.53125 22.484375 10.953125 
Q 26.375 6.390625 33.015625 6.390625 
Q 39.65625 6.390625 43.53125 10.953125 
Q 47.40625 15.53125 47.40625 23.390625 
Q 47.40625 31.296875 43.53125 35.828125 
Q 39.65625 40.375 33.015625 40.375 
z
M 52.59375 71.296875 
L 52.59375 62.3125 
Q 48.875 64.0625 45.09375 64.984375 
Q 41.3125 65.921875 37.59375 65.921875 
Q 27.828125 65.921875 22.671875 59.328125 
Q 17.53125 52.734375 16.796875 39.40625 
Q 19.671875 43.65625 24.015625 45.921875 
Q 28.375 48.1875 33.59375 48.1875 
Q 44.578125 48.1875 50.953125 41.515625 
Q 57.328125 34.859375 57.328125 23.390625 
Q 57.328125 12.15625 50.6875 5.359375 
Q 44.046875 -1.421875 33.015625 -1.421875 
Q 20.359375 -1.421875 13.671875 8.265625 
Q 6.984375 17.96875 6.984375 36.375 
Q 6.984375 53.65625 15.1875 63.9375 
Q 23.390625 74.21875 37.203125 74.21875 
Q 40.921875 74.21875 44.703125 73.484375 
Q 48.484375 72.75 52.59375 71.296875 
z
" id="DejaVuSans-54"/>
      </defs>
      <g transform="translate(204.204261 218.254281)scale(0.11 -0.11)">
       <use xlink:href="#DejaVuSans-54"/>
       <use x="63.623047" xlink:href="#DejaVuSans-48"/>
      </g>
     </g>
    </g>
    <g id="xtick_5">
     <g id="line2d_5">
      <g>
       <use style="stroke:#000000;stroke-width:0.8;" x="261.930284" xlink:href="#m94e0275bf9" y="202.896"/>
      </g>
     </g>
     <g id="text_5">
      <!-- 80 -->
      <defs>
       <path d="M 31.78125 34.625 
Q 24.75 34.625 20.71875 30.859375 
Q 16.703125 27.09375 16.703125 20.515625 
Q 16.703125 13.921875 20.71875 10.15625 
Q 24.75 6.390625 31.78125 6.390625 
Q 38.8125 6.390625 42.859375 10.171875 
Q 46.921875 13.96875 46.921875 20.515625 
Q 46.921875 27.09375 42.890625 30.859375 
Q 38.875 34.625 31.78125 34.625 
z
M 21.921875 38.8125 
Q 15.578125 40.375 12.03125 44.71875 
Q 8.5 49.078125 8.5 55.328125 
Q 8.5 64.0625 14.71875 69.140625 
Q 20.953125 74.21875 31.78125 74.21875 
Q 42.671875 74.21875 48.875 69.140625 
Q 55.078125 64.0625 55.078125 55.328125 
Q 55.078125 49.078125 51.53125 44.71875 
Q 48 40.375 41.703125 38.8125 
Q 48.828125 37.15625 52.796875 32.3125 
Q 56.78125 27.484375 56.78125 20.515625 
Q 56.78125 9.90625 50.3125 4.234375 
Q 43.84375 -1.421875 31.78125 -1.421875 
Q 19.734375 -1.421875 13.25 4.234375 
Q 6.78125 9.90625 6.78125 20.515625 
Q 6.78125 27.484375 10.78125 32.3125 
Q 14.796875 37.15625 21.921875 38.8125 
z
M 18.3125 54.390625 
Q 18.3125 48.734375 21.84375 45.5625 
Q 25.390625 42.390625 31.78125 42.390625 
Q 38.140625 42.390625 41.71875 45.5625 
Q 45.3125 48.734375 45.3125 54.390625 
Q 45.3125 60.0625 41.71875 63.234375 
Q 38.140625 66.40625 31.78125 66.40625 
Q 25.390625 66.40625 21.84375 63.234375 
Q 18.3125 60.0625 18.3125 54.390625 
z
" id="DejaVuSans-56"/>
      </defs>
      <g transform="translate(254.931534 218.254281)scale(0.11 -0.11)">
       <use xlink:href="#DejaVuSans-56"/>
       <use x="63.623047" xlink:href="#DejaVuSans-48"/>
      </g>
     </g>
    </g>
    <g id="xtick_6">
     <g id="line2d_6">
      <g>
       <use style="stroke:#000000;stroke-width:0.8;" x="312.657557" xlink:href="#m94e0275bf9" y="202.896"/>
      </g>
     </g>
     <g id="text_6">
      <!-- 100 -->
      <defs>
       <path d="M 12.40625 8.296875 
L 28.515625 8.296875 
L 28.515625 63.921875 
L 10.984375 60.40625 
L 10.984375 69.390625 
L 28.421875 72.90625 
L 38.28125 72.90625 
L 38.28125 8.296875 
L 54.390625 8.296875 
L 54.390625 0 
L 12.40625 0 
z
" id="DejaVuSans-49"/>
      </defs>
      <g transform="translate(302.159432 218.254281)scale(0.11 -0.11)">
       <use xlink:href="#DejaVuSans-49"/>
       <use x="63.623047" xlink:href="#DejaVuSans-48"/>
       <use x="127.246094" xlink:href="#DejaVuSans-48"/>
      </g>
     </g>
    </g>
    <g id="text_7">
     <!-- Time [a.u.] -->
     <defs>
      <path d="M -0.296875 72.90625 
L 61.375 72.90625 
L 61.375 64.59375 
L 35.5 64.59375 
L 35.5 0 
L 25.59375 0 
L 25.59375 64.59375 
L -0.296875 64.59375 
z
" id="DejaVuSans-84"/>
      <path d="M 9.421875 54.6875 
L 18.40625 54.6875 
L 18.40625 0 
L 9.421875 0 
z
M 9.421875 75.984375 
L 18.40625 75.984375 
L 18.40625 64.59375 
L 9.421875 64.59375 
z
" id="DejaVuSans-105"/>
      <path d="M 52 44.1875 
Q 55.375 50.25 60.0625 53.125 
Q 64.75 56 71.09375 56 
Q 79.640625 56 84.28125 50.015625 
Q 88.921875 44.046875 88.921875 33.015625 
L 88.921875 0 
L 79.890625 0 
L 79.890625 32.71875 
Q 79.890625 40.578125 77.09375 44.375 
Q 74.3125 48.1875 68.609375 48.1875 
Q 61.625 48.1875 57.5625 43.546875 
Q 53.515625 38.921875 53.515625 30.90625 
L 53.515625 0 
L 44.484375 0 
L 44.484375 32.71875 
Q 44.484375 40.625 41.703125 44.40625 
Q 38.921875 48.1875 33.109375 48.1875 
Q 26.21875 48.1875 22.15625 43.53125 
Q 18.109375 38.875 18.109375 30.90625 
L 18.109375 0 
L 9.078125 0 
L 9.078125 54.6875 
L 18.109375 54.6875 
L 18.109375 46.1875 
Q 21.1875 51.21875 25.484375 53.609375 
Q 29.78125 56 35.6875 56 
Q 41.65625 56 45.828125 52.96875 
Q 50 49.953125 52 44.1875 
z
" id="DejaVuSans-109"/>
      <path d="M 56.203125 29.59375 
L 56.203125 25.203125 
L 14.890625 25.203125 
Q 15.484375 15.921875 20.484375 11.0625 
Q 25.484375 6.203125 34.421875 6.203125 
Q 39.59375 6.203125 44.453125 7.46875 
Q 49.3125 8.734375 54.109375 11.28125 
L 54.109375 2.78125 
Q 49.265625 0.734375 44.1875 -0.34375 
Q 39.109375 -1.421875 33.890625 -1.421875 
Q 20.796875 -1.421875 13.15625 6.1875 
Q 5.515625 13.8125 5.515625 26.8125 
Q 5.515625 40.234375 12.765625 48.109375 
Q 20.015625 56 32.328125 56 
Q 43.359375 56 49.78125 48.890625 
Q 56.203125 41.796875 56.203125 29.59375 
z
M 47.21875 32.234375 
Q 47.125 39.59375 43.09375 43.984375 
Q 39.0625 48.390625 32.421875 48.390625 
Q 24.90625 48.390625 20.390625 44.140625 
Q 15.875 39.890625 15.1875 32.171875 
z
" id="DejaVuSans-101"/>
      <path id="DejaVuSans-32"/>
      <path d="M 8.59375 75.984375 
L 29.296875 75.984375 
L 29.296875 69 
L 17.578125 69 
L 17.578125 -6.203125 
L 29.296875 -6.203125 
L 29.296875 -13.1875 
L 8.59375 -13.1875 
z
" id="DejaVuSans-91"/>
      <path d="M 34.28125 27.484375 
Q 23.390625 27.484375 19.1875 25 
Q 14.984375 22.515625 14.984375 16.5 
Q 14.984375 11.71875 18.140625 8.90625 
Q 21.296875 6.109375 26.703125 6.109375 
Q 34.1875 6.109375 38.703125 11.40625 
Q 43.21875 16.703125 43.21875 25.484375 
L 43.21875 27.484375 
z
M 52.203125 31.203125 
L 52.203125 0 
L 43.21875 0 
L 43.21875 8.296875 
Q 40.140625 3.328125 35.546875 0.953125 
Q 30.953125 -1.421875 24.3125 -1.421875 
Q 15.921875 -1.421875 10.953125 3.296875 
Q 6 8.015625 6 15.921875 
Q 6 25.140625 12.171875 29.828125 
Q 18.359375 34.515625 30.609375 34.515625 
L 43.21875 34.515625 
L 43.21875 35.40625 
Q 43.21875 41.609375 39.140625 45 
Q 35.0625 48.390625 27.6875 48.390625 
Q 23 48.390625 18.546875 47.265625 
Q 14.109375 46.140625 10.015625 43.890625 
L 10.015625 52.203125 
Q 14.9375 54.109375 19.578125 55.046875 
Q 24.21875 56 28.609375 56 
Q 40.484375 56 46.34375 49.84375 
Q 52.203125 43.703125 52.203125 31.203125 
z
" id="DejaVuSans-97"/>
      <path d="M 10.6875 12.40625 
L 21 12.40625 
L 21 0 
L 10.6875 0 
z
" id="DejaVuSans-46"/>
      <path d="M 8.5 21.578125 
L 8.5 54.6875 
L 17.484375 54.6875 
L 17.484375 21.921875 
Q 17.484375 14.15625 20.5 10.265625 
Q 23.53125 6.390625 29.59375 6.390625 
Q 36.859375 6.390625 41.078125 11.03125 
Q 45.3125 15.671875 45.3125 23.6875 
L 45.3125 54.6875 
L 54.296875 54.6875 
L 54.296875 0 
L 45.3125 0 
L 45.3125 8.40625 
Q 42.046875 3.421875 37.71875 1 
Q 33.40625 -1.421875 27.6875 -1.421875 
Q 18.265625 -1.421875 13.375 4.4375 
Q 8.5 10.296875 8.5 21.578125 
z
M 31.109375 56 
z
" id="DejaVuSans-117"/>
      <path d="M 30.421875 75.984375 
L 30.421875 -13.1875 
L 9.71875 -13.1875 
L 9.71875 -6.203125 
L 21.390625 -6.203125 
L 21.390625 69 
L 9.71875 69 
L 9.71875 75.984375 
z
" id="DejaVuSans-93"/>
     </defs>
     <g transform="translate(155.821406 232.900219)scale(0.11 -0.11)">
      <use xlink:href="#DejaVuSans-84"/>
      <use x="61.037109" xlink:href="#DejaVuSans-105"/>
      <use x="88.820312" xlink:href="#DejaVuSans-109"/>
      <use x="186.232422" xlink:href="#DejaVuSans-101"/>
      <use x="247.755859" xlink:href="#DejaVuSans-32"/>
      <use x="279.542969" xlink:href="#DejaVuSans-91"/>
      <use x="318.556641" xlink:href="#DejaVuSans-97"/>
      <use x="379.835938" xlink:href="#DejaVuSans-46"/>
      <use x="411.623047" xlink:href="#DejaVuSans-117"/>
      <use x="475.001953" xlink:href="#DejaVuSans-46"/>
      <use x="506.789062" xlink:href="#DejaVuSans-93"/>
     </g>
    </g>
   </g>
   <g id="matplotlib.axis_2">
    <g id="ytick_1">
     <g id="line2d_7">
      <defs>
       <path d="M 0 0 
L -3.5 0 
" id="mdbdbb133b3" style="stroke:#000000;stroke-width:0.8;"/>
      </defs>
      <g>
       <use style="stroke:#000000;stroke-width:0.8;" x="46.339375" xlink:href="#mdbdbb133b3" y="194.000727"/>
      </g>
     </g>
     <g id="text_8">
      <!-- 0.0 -->
      <g transform="translate(21.845938 198.179868)scale(0.11 -0.11)">
       <use xlink:href="#DejaVuSans-48"/>
       <use x="63.623047" xlink:href="#DejaVuSans-46"/>
       <use x="95.410156" xlink:href="#DejaVuSans-48"/>
      </g>
     </g>
    </g>
    <g id="ytick_2">
     <g id="line2d_8">
      <g>
       <use style="stroke:#000000;stroke-width:0.8;" x="46.339375" xlink:href="#mdbdbb133b3" y="158.84509"/>
      </g>
     </g>
     <g id="text_9">
      <!-- 0.2 -->
      <g transform="translate(21.845938 163.024231)scale(0.11 -0.11)">
       <use xlink:href="#DejaVuSans-48"/>
       <use x="63.623047" xlink:href="#DejaVuSans-46"/>
       <use x="95.410156" xlink:href="#DejaVuSans-50"/>
      </g>
     </g>
    </g>
    <g id="ytick_3">
     <g id="line2d_9">
      <g>
       <use style="stroke:#000000;stroke-width:0.8;" x="46.339375" xlink:href="#mdbdbb133b3" y="123.689452"/>
      </g>
     </g>
     <g id="text_10">
      <!-- 0.4 -->
      <g transform="translate(21.845938 127.868593)scale(0.11 -0.11)">
       <use xlink:href="#DejaVuSans-48"/>
       <use x="63.623047" xlink:href="#DejaVuSans-46"/>
       <use x="95.410156" xlink:href="#DejaVuSans-52"/>
      </g>
     </g>
    </g>
    <g id="ytick_4">
     <g id="line2d_10">
      <g>
       <use style="stroke:#000000;stroke-width:0.8;" x="46.339375" xlink:href="#mdbdbb133b3" y="88.533815"/>
      </g>
     </g>
     <g id="text_11">
      <!-- 0.6 -->
      <g transform="translate(21.845938 92.712956)scale(0.11 -0.11)">
       <use xlink:href="#DejaVuSans-48"/>
       <use x="63.623047" xlink:href="#DejaVuSans-46"/>
       <use x="95.410156" xlink:href="#DejaVuSans-54"/>
      </g>
     </g>
    </g>
    <g id="ytick_5">
     <g id="line2d_11">
      <g>
       <use style="stroke:#000000;stroke-width:0.8;" x="46.339375" xlink:href="#mdbdbb133b3" y="53.378178"/>
      </g>
     </g>
     <g id="text_12">
      <!-- 0.8 -->
      <g transform="translate(21.845938 57.557318)scale(0.11 -0.11)">
       <use xlink:href="#DejaVuSans-48"/>
       <use x="63.623047" xlink:href="#DejaVuSans-46"/>
       <use x="95.410156" xlink:href="#DejaVuSans-56"/>
      </g>
     </g>
    </g>
    <g id="ytick_6">
     <g id="line2d_12">
      <g>
       <use style="stroke:#000000;stroke-width:0.8;" x="46.339375" xlink:href="#mdbdbb133b3" y="18.22254"/>
      </g>
     </g>
     <g id="text_13">
      <!-- 1.0 -->
      <g transform="translate(21.845938 22.401681)scale(0.11 -0.11)">
       <use xlink:href="#DejaVuSans-49"/>
       <use x="63.623047" xlink:href="#DejaVuSans-46"/>
       <use x="95.410156" xlink:href="#DejaVuSans-48"/>
      </g>
     </g>
    </g>
    <g id="text_14">
     <!-- Concentration [a.u.] -->
     <defs>
      <path d="M 64.40625 67.28125 
L 64.40625 56.890625 
Q 59.421875 61.53125 53.78125 63.8125 
Q 48.140625 66.109375 41.796875 66.109375 
Q 29.296875 66.109375 22.65625 58.46875 
Q 16.015625 50.828125 16.015625 36.375 
Q 16.015625 21.96875 22.65625 14.328125 
Q 29.296875 6.6875 41.796875 6.6875 
Q 48.140625 6.6875 53.78125 8.984375 
Q 59.421875 11.28125 64.40625 15.921875 
L 64.40625 5.609375 
Q 59.234375 2.09375 53.4375 0.328125 
Q 47.65625 -1.421875 41.21875 -1.421875 
Q 24.65625 -1.421875 15.125 8.703125 
Q 5.609375 18.84375 5.609375 36.375 
Q 5.609375 53.953125 15.125 64.078125 
Q 24.65625 74.21875 41.21875 74.21875 
Q 47.75 74.21875 53.53125 72.484375 
Q 59.328125 70.75 64.40625 67.28125 
z
" id="DejaVuSans-67"/>
      <path d="M 30.609375 48.390625 
Q 23.390625 48.390625 19.1875 42.75 
Q 14.984375 37.109375 14.984375 27.296875 
Q 14.984375 17.484375 19.15625 11.84375 
Q 23.34375 6.203125 30.609375 6.203125 
Q 37.796875 6.203125 41.984375 11.859375 
Q 46.1875 17.53125 46.1875 27.296875 
Q 46.1875 37.015625 41.984375 42.703125 
Q 37.796875 48.390625 30.609375 48.390625 
z
M 30.609375 56 
Q 42.328125 56 49.015625 48.375 
Q 55.71875 40.765625 55.71875 27.296875 
Q 55.71875 13.875 49.015625 6.21875 
Q 42.328125 -1.421875 30.609375 -1.421875 
Q 18.84375 -1.421875 12.171875 6.21875 
Q 5.515625 13.875 5.515625 27.296875 
Q 5.515625 40.765625 12.171875 48.375 
Q 18.84375 56 30.609375 56 
z
" id="DejaVuSans-111"/>
      <path d="M 54.890625 33.015625 
L 54.890625 0 
L 45.90625 0 
L 45.90625 32.71875 
Q 45.90625 40.484375 42.875 44.328125 
Q 39.84375 48.1875 33.796875 48.1875 
Q 26.515625 48.1875 22.3125 43.546875 
Q 18.109375 38.921875 18.109375 30.90625 
L 18.109375 0 
L 9.078125 0 
L 9.078125 54.6875 
L 18.109375 54.6875 
L 18.109375 46.1875 
Q 21.34375 51.125 25.703125 53.5625 
Q 30.078125 56 35.796875 56 
Q 45.21875 56 50.046875 50.171875 
Q 54.890625 44.34375 54.890625 33.015625 
z
" id="DejaVuSans-110"/>
      <path d="M 48.78125 52.59375 
L 48.78125 44.1875 
Q 44.96875 46.296875 41.140625 47.34375 
Q 37.3125 48.390625 33.40625 48.390625 
Q 24.65625 48.390625 19.8125 42.84375 
Q 14.984375 37.3125 14.984375 27.296875 
Q 14.984375 17.28125 19.8125 11.734375 
Q 24.65625 6.203125 33.40625 6.203125 
Q 37.3125 6.203125 41.140625 7.25 
Q 44.96875 8.296875 48.78125 10.40625 
L 48.78125 2.09375 
Q 45.015625 0.34375 40.984375 -0.53125 
Q 36.96875 -1.421875 32.421875 -1.421875 
Q 20.0625 -1.421875 12.78125 6.34375 
Q 5.515625 14.109375 5.515625 27.296875 
Q 5.515625 40.671875 12.859375 48.328125 
Q 20.21875 56 33.015625 56 
Q 37.15625 56 41.109375 55.140625 
Q 45.0625 54.296875 48.78125 52.59375 
z
" id="DejaVuSans-99"/>
      <path d="M 18.3125 70.21875 
L 18.3125 54.6875 
L 36.8125 54.6875 
L 36.8125 47.703125 
L 18.3125 47.703125 
L 18.3125 18.015625 
Q 18.3125 11.328125 20.140625 9.421875 
Q 21.96875 7.515625 27.59375 7.515625 
L 36.8125 7.515625 
L 36.8125 0 
L 27.59375 0 
Q 17.1875 0 13.234375 3.875 
Q 9.28125 7.765625 9.28125 18.015625 
L 9.28125 47.703125 
L 2.6875 47.703125 
L 2.6875 54.6875 
L 9.28125 54.6875 
L 9.28125 70.21875 
z
" id="DejaVuSans-116"/>
      <path d="M 41.109375 46.296875 
Q 39.59375 47.171875 37.8125 47.578125 
Q 36.03125 48 33.890625 48 
Q 26.265625 48 22.1875 43.046875 
Q 18.109375 38.09375 18.109375 28.8125 
L 18.109375 0 
L 9.078125 0 
L 9.078125 54.6875 
L 18.109375 54.6875 
L 18.109375 46.1875 
Q 20.953125 51.171875 25.484375 53.578125 
Q 30.03125 56 36.53125 56 
Q 37.453125 56 38.578125 55.875 
Q 39.703125 55.765625 41.0625 55.515625 
z
" id="DejaVuSans-114"/>
     </defs>
     <g transform="translate(15.558281 160.347922)rotate(-90)scale(0.11 -0.11)">
      <use xlink:href="#DejaVuSans-67"/>
      <use x="69.824219" xlink:href="#DejaVuSans-111"/>
      <use x="131.005859" xlink:href="#DejaVuSans-110"/>
      <use x="194.384766" xlink:href="#DejaVuSans-99"/>
      <use x="249.365234" xlink:href="#DejaVuSans-101"/>
      <use x="310.888672" xlink:href="#DejaVuSans-110"/>
      <use x="374.267578" xlink:href="#DejaVuSans-116"/>
      <use x="413.476562" xlink:href="#DejaVuSans-114"/>
      <use x="454.589844" xlink:href="#DejaVuSans-97"/>
      <use x="515.869141" xlink:href="#DejaVuSans-116"/>
      <use x="555.078125" xlink:href="#DejaVuSans-105"/>
      <use x="582.861328" xlink:href="#DejaVuSans-111"/>
      <use x="644.042969" xlink:href="#DejaVuSans-110"/>
      <use x="707.421875" xlink:href="#DejaVuSans-32"/>
      <use x="739.208984" xlink:href="#DejaVuSans-91"/>
      <use x="778.222656" xlink:href="#DejaVuSans-97"/>
      <use x="839.501953" xlink:href="#DejaVuSans-46"/>
      <use x="871.289062" xlink:href="#DejaVuSans-117"/>
      <use x="934.667969" xlink:href="#DejaVuSans-46"/>
      <use x="966.455078" xlink:href="#DejaVuSans-93"/>
     </g>
    </g>
   </g>
   <g id="line2d_13">
    <defs>
     <path d="M 0 1.5 
C 0.397805 1.5 0.77937 1.341951 1.06066 1.06066 
C 1.341951 0.77937 1.5 0.397805 1.5 0 
C 1.5 -0.397805 1.341951 -0.77937 1.06066 -1.06066 
C 0.77937 -1.341951 0.397805 -1.5 0 -1.5 
C -0.397805 -1.5 -0.77937 -1.341951 -1.06066 -1.06066 
C -1.341951 -0.77937 -1.5 -0.397805 -1.5 0 
C -1.5 0.397805 -1.341951 0.77937 -1.06066 1.06066 
C -0.77937 1.341951 -0.397805 1.5 0 1.5 
z
" id="mf13ac674d0" style="stroke:#0370b8;"/>
    </defs>
    <g clip-path="url(#p76d4804355)">
     <use style="fill:#0370b8;stroke:#0370b8;" x="59.021193" xlink:href="#mf13ac674d0" y="22.778197"/>
     <use style="fill:#0370b8;stroke:#0370b8;" x="64.197446" xlink:href="#mf13ac674d0" y="49.144858"/>
     <use style="fill:#0370b8;stroke:#0370b8;" x="69.373698" xlink:href="#mf13ac674d0" y="69.915686"/>
     <use style="fill:#0370b8;stroke:#0370b8;" x="74.54995" xlink:href="#mf13ac674d0" y="85.71616"/>
     <use style="fill:#0370b8;stroke:#0370b8;" x="79.726202" xlink:href="#mf13ac674d0" y="101.743933"/>
     <use style="fill:#0370b8;stroke:#0370b8;" x="84.902455" xlink:href="#mf13ac674d0" y="123.616587"/>
     <use style="fill:#0370b8;stroke:#0370b8;" x="90.078707" xlink:href="#mf13ac674d0" y="135.947614"/>
     <use style="fill:#0370b8;stroke:#0370b8;" x="95.254959" xlink:href="#mf13ac674d0" y="145.113457"/>
     <use style="fill:#0370b8;stroke:#0370b8;" x="100.431212" xlink:href="#mf13ac674d0" y="143.740788"/>
     <use style="fill:#0370b8;stroke:#0370b8;" x="105.607464" xlink:href="#mf13ac674d0" y="152.46666"/>
     <use style="fill:#0370b8;stroke:#0370b8;" x="110.783716" xlink:href="#mf13ac674d0" y="157.884056"/>
     <use style="fill:#0370b8;stroke:#0370b8;" x="115.959969" xlink:href="#mf13ac674d0" y="155.717415"/>
     <use style="fill:#0370b8;stroke:#0370b8;" x="121.136221" xlink:href="#mf13ac674d0" y="158.407905"/>
     <use style="fill:#0370b8;stroke:#0370b8;" x="126.312473" xlink:href="#mf13ac674d0" y="165.115869"/>
     <use style="fill:#0370b8;stroke:#0370b8;" x="131.488726" xlink:href="#mf13ac674d0" y="167.124667"/>
     <use style="fill:#0370b8;stroke:#0370b8;" x="136.664978" xlink:href="#mf13ac674d0" y="164.783852"/>
     <use style="fill:#0370b8;stroke:#0370b8;" x="141.84123" xlink:href="#mf13ac674d0" y="166.526011"/>
     <use style="fill:#0370b8;stroke:#0370b8;" x="147.017483" xlink:href="#mf13ac674d0" y="169.550055"/>
     <use style="fill:#0370b8;stroke:#0370b8;" x="152.193735" xlink:href="#mf13ac674d0" y="171.297516"/>
     <use style="fill:#0370b8;stroke:#0370b8;" x="157.369987" xlink:href="#mf13ac674d0" y="173.529497"/>
     <use style="fill:#0370b8;stroke:#0370b8;" x="162.54624" xlink:href="#mf13ac674d0" y="175.089451"/>
     <use style="fill:#0370b8;stroke:#0370b8;" x="167.722492" xlink:href="#mf13ac674d0" y="172.44072"/>
     <use style="fill:#0370b8;stroke:#0370b8;" x="172.898744" xlink:href="#mf13ac674d0" y="173.563943"/>
     <use style="fill:#0370b8;stroke:#0370b8;" x="178.074997" xlink:href="#mf13ac674d0" y="174.882326"/>
     <use style="fill:#0370b8;stroke:#0370b8;" x="183.251249" xlink:href="#mf13ac674d0" y="176.920265"/>
     <use style="fill:#0370b8;stroke:#0370b8;" x="188.427501" xlink:href="#mf13ac674d0" y="178.222707"/>
     <use style="fill:#0370b8;stroke:#0370b8;" x="193.603753" xlink:href="#mf13ac674d0" y="176.08191"/>
     <use style="fill:#0370b8;stroke:#0370b8;" x="198.780006" xlink:href="#mf13ac674d0" y="177.951717"/>
     <use style="fill:#0370b8;stroke:#0370b8;" x="203.956258" xlink:href="#mf13ac674d0" y="178.028154"/>
     <use style="fill:#0370b8;stroke:#0370b8;" x="209.13251" xlink:href="#mf13ac674d0" y="177.608709"/>
     <use style="fill:#0370b8;stroke:#0370b8;" x="214.308763" xlink:href="#mf13ac674d0" y="180.713878"/>
     <use style="fill:#0370b8;stroke:#0370b8;" x="219.485015" xlink:href="#mf13ac674d0" y="180.679617"/>
     <use style="fill:#0370b8;stroke:#0370b8;" x="224.661267" xlink:href="#mf13ac674d0" y="179.481216"/>
     <use style="fill:#0370b8;stroke:#0370b8;" x="229.83752" xlink:href="#mf13ac674d0" y="179.731989"/>
     <use style="fill:#0370b8;stroke:#0370b8;" x="235.013772" xlink:href="#mf13ac674d0" y="182.034527"/>
     <use style="fill:#0370b8;stroke:#0370b8;" x="240.190024" xlink:href="#mf13ac674d0" y="181.090454"/>
     <use style="fill:#0370b8;stroke:#0370b8;" x="245.366277" xlink:href="#mf13ac674d0" y="181.634166"/>
     <use style="fill:#0370b8;stroke:#0370b8;" x="250.542529" xlink:href="#mf13ac674d0" y="183.460739"/>
     <use style="fill:#0370b8;stroke:#0370b8;" x="255.718781" xlink:href="#mf13ac674d0" y="182.264727"/>
     <use style="fill:#0370b8;stroke:#0370b8;" x="260.895034" xlink:href="#mf13ac674d0" y="182.427975"/>
     <use style="fill:#0370b8;stroke:#0370b8;" x="266.071286" xlink:href="#mf13ac674d0" y="183.278396"/>
     <use style="fill:#0370b8;stroke:#0370b8;" x="271.247538" xlink:href="#mf13ac674d0" y="182.971129"/>
     <use style="fill:#0370b8;stroke:#0370b8;" x="276.423791" xlink:href="#mf13ac674d0" y="184.195337"/>
     <use style="fill:#0370b8;stroke:#0370b8;" x="281.600043" xlink:href="#mf13ac674d0" y="184.088914"/>
     <use style="fill:#0370b8;stroke:#0370b8;" x="286.776295" xlink:href="#mf13ac674d0" y="185.515776"/>
     <use style="fill:#0370b8;stroke:#0370b8;" x="291.952548" xlink:href="#mf13ac674d0" y="185.047733"/>
     <use style="fill:#0370b8;stroke:#0370b8;" x="297.1288" xlink:href="#mf13ac674d0" y="185.492608"/>
     <use style="fill:#0370b8;stroke:#0370b8;" x="302.305052" xlink:href="#mf13ac674d0" y="186.035996"/>
     <use style="fill:#0370b8;stroke:#0370b8;" x="307.481304" xlink:href="#mf13ac674d0" y="185.453326"/>
     <use style="fill:#0370b8;stroke:#0370b8;" x="312.657557" xlink:href="#mf13ac674d0" y="186.101166"/>
    </g>
   </g>
   <g id="line2d_14">
    <defs>
     <path d="M 0 1.5 
C 0.397805 1.5 0.77937 1.341951 1.06066 1.06066 
C 1.341951 0.77937 1.5 0.397805 1.5 0 
C 1.5 -0.397805 1.341951 -0.77937 1.06066 -1.06066 
C 0.77937 -1.341951 0.397805 -1.5 0 -1.5 
C -0.397805 -1.5 -0.77937 -1.341951 -1.06066 -1.06066 
C -1.341951 -0.77937 -1.5 -0.397805 -1.5 0 
C -1.5 0.397805 -1.341951 0.77937 -1.06066 1.06066 
C -0.77937 1.341951 -0.397805 1.5 0 1.5 
z
" id="m4376dec733" style="stroke:#d56339;"/>
    </defs>
    <g clip-path="url(#p76d4804355)">
     <use style="fill:#d56339;stroke:#d56339;" x="59.021193" xlink:href="#m4376dec733" y="194.000727"/>
     <use style="fill:#d56339;stroke:#d56339;" x="64.197446" xlink:href="#m4376dec733" y="160.359667"/>
     <use style="fill:#d56339;stroke:#d56339;" x="69.373698" xlink:href="#m4376dec733" y="137.525136"/>
     <use style="fill:#d56339;stroke:#d56339;" x="74.54995" xlink:href="#m4376dec733" y="127.005095"/>
     <use style="fill:#d56339;stroke:#d56339;" x="79.726202" xlink:href="#m4376dec733" y="114.603516"/>
     <use style="fill:#d56339;stroke:#d56339;" x="84.902455" xlink:href="#m4376dec733" y="106.819064"/>
     <use style="fill:#d56339;stroke:#d56339;" x="90.078707" xlink:href="#m4376dec733" y="104.59963"/>
     <use style="fill:#d56339;stroke:#d56339;" x="95.254959" xlink:href="#m4376dec733" y="91.724233"/>
     <use style="fill:#d56339;stroke:#d56339;" x="100.431212" xlink:href="#m4376dec733" y="80.974102"/>
     <use style="fill:#d56339;stroke:#d56339;" x="105.607464" xlink:href="#m4376dec733" y="89.601443"/>
     <use style="fill:#d56339;stroke:#d56339;" x="110.783716" xlink:href="#m4376dec733" y="97.249486"/>
     <use style="fill:#d56339;stroke:#d56339;" x="115.959969" xlink:href="#m4376dec733" y="90.064041"/>
     <use style="fill:#d56339;stroke:#d56339;" x="121.136221" xlink:href="#m4376dec733" y="84.891045"/>
     <use style="fill:#d56339;stroke:#d56339;" x="126.312473" xlink:href="#m4376dec733" y="95.613025"/>
     <use style="fill:#d56339;stroke:#d56339;" x="131.488726" xlink:href="#m4376dec733" y="92.604205"/>
     <use style="fill:#d56339;stroke:#d56339;" x="136.664978" xlink:href="#m4376dec733" y="96.24222"/>
     <use style="fill:#d56339;stroke:#d56339;" x="141.84123" xlink:href="#m4376dec733" y="104.138688"/>
     <use style="fill:#d56339;stroke:#d56339;" x="147.017483" xlink:href="#m4376dec733" y="99.539762"/>
     <use style="fill:#d56339;stroke:#d56339;" x="152.193735" xlink:href="#m4376dec733" y="108.623968"/>
     <use style="fill:#d56339;stroke:#d56339;" x="157.369987" xlink:href="#m4376dec733" y="108.499363"/>
     <use style="fill:#d56339;stroke:#d56339;" x="162.54624" xlink:href="#m4376dec733" y="110.44924"/>
     <use style="fill:#d56339;stroke:#d56339;" x="167.722492" xlink:href="#m4376dec733" y="107.883744"/>
     <use style="fill:#d56339;stroke:#d56339;" x="172.898744" xlink:href="#m4376dec733" y="116.669988"/>
     <use style="fill:#d56339;stroke:#d56339;" x="178.074997" xlink:href="#m4376dec733" y="119.900769"/>
     <use style="fill:#d56339;stroke:#d56339;" x="183.251249" xlink:href="#m4376dec733" y="113.126083"/>
     <use style="fill:#d56339;stroke:#d56339;" x="188.427501" xlink:href="#m4376dec733" y="120.121707"/>
     <use style="fill:#d56339;stroke:#d56339;" x="193.603753" xlink:href="#m4376dec733" y="125.344618"/>
     <use style="fill:#d56339;stroke:#d56339;" x="198.780006" xlink:href="#m4376dec733" y="132.934573"/>
     <use style="fill:#d56339;stroke:#d56339;" x="203.956258" xlink:href="#m4376dec733" y="133.979749"/>
     <use style="fill:#d56339;stroke:#d56339;" x="209.13251" xlink:href="#m4376dec733" y="128.142279"/>
     <use style="fill:#d56339;stroke:#d56339;" x="214.308763" xlink:href="#m4376dec733" y="128.961468"/>
     <use style="fill:#d56339;stroke:#d56339;" x="219.485015" xlink:href="#m4376dec733" y="130.968237"/>
     <use style="fill:#d56339;stroke:#d56339;" x="224.661267" xlink:href="#m4376dec733" y="140.004994"/>
     <use style="fill:#d56339;stroke:#d56339;" x="229.83752" xlink:href="#m4376dec733" y="137.356694"/>
     <use style="fill:#d56339;stroke:#d56339;" x="235.013772" xlink:href="#m4376dec733" y="144.528376"/>
     <use style="fill:#d56339;stroke:#d56339;" x="240.190024" xlink:href="#m4376dec733" y="142.258289"/>
     <use style="fill:#d56339;stroke:#d56339;" x="245.366277" xlink:href="#m4376dec733" y="142.742184"/>
     <use style="fill:#d56339;stroke:#d56339;" x="250.542529" xlink:href="#m4376dec733" y="148.383101"/>
     <use style="fill:#d56339;stroke:#d56339;" x="255.718781" xlink:href="#m4376dec733" y="143.054844"/>
     <use style="fill:#d56339;stroke:#d56339;" x="260.895034" xlink:href="#m4376dec733" y="145.655453"/>
     <use style="fill:#d56339;stroke:#d56339;" x="266.071286" xlink:href="#m4376dec733" y="152.83662"/>
     <use style="fill:#d56339;stroke:#d56339;" x="271.247538" xlink:href="#m4376dec733" y="149.618558"/>
     <use style="fill:#d56339;stroke:#d56339;" x="276.423791" xlink:href="#m4376dec733" y="153.341444"/>
     <use style="fill:#d56339;stroke:#d56339;" x="281.600043" xlink:href="#m4376dec733" y="152.165587"/>
     <use style="fill:#d56339;stroke:#d56339;" x="286.776295" xlink:href="#m4376dec733" y="154.354575"/>
     <use style="fill:#d56339;stroke:#d56339;" x="291.952548" xlink:href="#m4376dec733" y="160.021888"/>
     <use style="fill:#d56339;stroke:#d56339;" x="297.1288" xlink:href="#m4376dec733" y="157.127257"/>
     <use style="fill:#d56339;stroke:#d56339;" x="302.305052" xlink:href="#m4376dec733" y="156.762395"/>
     <use style="fill:#d56339;stroke:#d56339;" x="307.481304" xlink:href="#m4376dec733" y="163.417973"/>
     <use style="fill:#d56339;stroke:#d56339;" x="312.657557" xlink:href="#m4376dec733" y="161.04257"/>
    </g>
   </g>
   <g id="line2d_15">
    <defs>
     <path d="M 0 1.5 
C 0.397805 1.5 0.77937 1.341951 1.06066 1.06066 
C 1.341951 0.77937 1.5 0.397805 1.5 0 
C 1.5 -0.397805 1.341951 -0.77937 1.06066 -1.06066 
C 0.77937 -1.341951 0.397805 -1.5 0 -1.5 
C -0.397805 -1.5 -0.77937 -1.341951 -1.06066 -1.06066 
C -1.341951 -0.77937 -1.5 -0.397805 -1.5 0 
C -1.5 0.397805 -1.341951 0.77937 -1.06066 1.06066 
C -0.77937 1.341951 -0.397805 1.5 0 1.5 
z
" id="m68fbc3f227" style="stroke:#eeb92e;"/>
    </defs>
    <g clip-path="url(#p76d4804355)">
     <use style="fill:#eeb92e;stroke:#eeb92e;" x="59.021193" xlink:href="#m68fbc3f227" y="155.99806"/>
     <use style="fill:#eeb92e;stroke:#eeb92e;" x="64.197446" xlink:href="#m68fbc3f227" y="159.856072"/>
     <use style="fill:#eeb92e;stroke:#eeb92e;" x="69.373698" xlink:href="#m68fbc3f227" y="156.483548"/>
     <use style="fill:#eeb92e;stroke:#eeb92e;" x="74.54995" xlink:href="#m68fbc3f227" y="154.420851"/>
     <use style="fill:#eeb92e;stroke:#eeb92e;" x="79.726202" xlink:href="#m68fbc3f227" y="146.686958"/>
     <use style="fill:#eeb92e;stroke:#eeb92e;" x="84.902455" xlink:href="#m68fbc3f227" y="143.936501"/>
     <use style="fill:#eeb92e;stroke:#eeb92e;" x="90.078707" xlink:href="#m68fbc3f227" y="141.698685"/>
     <use style="fill:#eeb92e;stroke:#eeb92e;" x="95.254959" xlink:href="#m68fbc3f227" y="140.781139"/>
     <use style="fill:#eeb92e;stroke:#eeb92e;" x="100.431212" xlink:href="#m68fbc3f227" y="137.581942"/>
     <use style="fill:#eeb92e;stroke:#eeb92e;" x="105.607464" xlink:href="#m68fbc3f227" y="135.144596"/>
     <use style="fill:#eeb92e;stroke:#eeb92e;" x="110.783716" xlink:href="#m68fbc3f227" y="124.337559"/>
     <use style="fill:#eeb92e;stroke:#eeb92e;" x="115.959969" xlink:href="#m68fbc3f227" y="120.25816"/>
     <use style="fill:#eeb92e;stroke:#eeb92e;" x="121.136221" xlink:href="#m68fbc3f227" y="116.780183"/>
     <use style="fill:#eeb92e;stroke:#eeb92e;" x="126.312473" xlink:href="#m68fbc3f227" y="110.264103"/>
     <use style="fill:#eeb92e;stroke:#eeb92e;" x="131.488726" xlink:href="#m68fbc3f227" y="110.58481"/>
     <use style="fill:#eeb92e;stroke:#eeb92e;" x="136.664978" xlink:href="#m68fbc3f227" y="101.632921"/>
     <use style="fill:#eeb92e;stroke:#eeb92e;" x="141.84123" xlink:href="#m68fbc3f227" y="93.877396"/>
     <use style="fill:#eeb92e;stroke:#eeb92e;" x="147.017483" xlink:href="#m68fbc3f227" y="89.528509"/>
     <use style="fill:#eeb92e;stroke:#eeb92e;" x="152.193735" xlink:href="#m68fbc3f227" y="102.601169"/>
     <use style="fill:#eeb92e;stroke:#eeb92e;" x="157.369987" xlink:href="#m68fbc3f227" y="91.177992"/>
     <use style="fill:#eeb92e;stroke:#eeb92e;" x="162.54624" xlink:href="#m68fbc3f227" y="83.79398"/>
     <use style="fill:#eeb92e;stroke:#eeb92e;" x="167.722492" xlink:href="#m68fbc3f227" y="90.138568"/>
     <use style="fill:#eeb92e;stroke:#eeb92e;" x="172.898744" xlink:href="#m68fbc3f227" y="78.085459"/>
     <use style="fill:#eeb92e;stroke:#eeb92e;" x="178.074997" xlink:href="#m68fbc3f227" y="88.620871"/>
     <use style="fill:#eeb92e;stroke:#eeb92e;" x="183.251249" xlink:href="#m68fbc3f227" y="75.97638"/>
     <use style="fill:#eeb92e;stroke:#eeb92e;" x="188.427501" xlink:href="#m68fbc3f227" y="65.191092"/>
     <use style="fill:#eeb92e;stroke:#eeb92e;" x="193.603753" xlink:href="#m68fbc3f227" y="57.379098"/>
     <use style="fill:#eeb92e;stroke:#eeb92e;" x="198.780006" xlink:href="#m68fbc3f227" y="66.896454"/>
     <use style="fill:#eeb92e;stroke:#eeb92e;" x="203.956258" xlink:href="#m68fbc3f227" y="63.007531"/>
     <use style="fill:#eeb92e;stroke:#eeb92e;" x="209.13251" xlink:href="#m68fbc3f227" y="54.555066"/>
     <use style="fill:#eeb92e;stroke:#eeb92e;" x="214.308763" xlink:href="#m68fbc3f227" y="51.132943"/>
     <use style="fill:#eeb92e;stroke:#eeb92e;" x="219.485015" xlink:href="#m68fbc3f227" y="48.390914"/>
     <use style="fill:#eeb92e;stroke:#eeb92e;" x="224.661267" xlink:href="#m68fbc3f227" y="43.306224"/>
     <use style="fill:#eeb92e;stroke:#eeb92e;" x="229.83752" xlink:href="#m68fbc3f227" y="43.133102"/>
     <use style="fill:#eeb92e;stroke:#eeb92e;" x="235.013772" xlink:href="#m68fbc3f227" y="50.677727"/>
     <use style="fill:#eeb92e;stroke:#eeb92e;" x="240.190024" xlink:href="#m68fbc3f227" y="59.874497"/>
     <use style="fill:#eeb92e;stroke:#eeb92e;" x="245.366277" xlink:href="#m68fbc3f227" y="55.930876"/>
     <use style="fill:#eeb92e;stroke:#eeb92e;" x="250.542529" xlink:href="#m68fbc3f227" y="51.420285"/>
     <use style="fill:#eeb92e;stroke:#eeb92e;" x="255.718781" xlink:href="#m68fbc3f227" y="33.31355"/>
     <use style="fill:#eeb92e;stroke:#eeb92e;" x="260.895034" xlink:href="#m68fbc3f227" y="26.795407"/>
     <use style="fill:#eeb92e;stroke:#eeb92e;" x="266.071286" xlink:href="#m68fbc3f227" y="45.570742"/>
     <use style="fill:#eeb92e;stroke:#eeb92e;" x="271.247538" xlink:href="#m68fbc3f227" y="19.591366"/>
     <use style="fill:#eeb92e;stroke:#eeb92e;" x="276.423791" xlink:href="#m68fbc3f227" y="35.838466"/>
     <use style="fill:#eeb92e;stroke:#eeb92e;" x="281.600043" xlink:href="#m68fbc3f227" y="27.423763"/>
     <use style="fill:#eeb92e;stroke:#eeb92e;" x="286.776295" xlink:href="#m68fbc3f227" y="22.862188"/>
     <use style="fill:#eeb92e;stroke:#eeb92e;" x="291.952548" xlink:href="#m68fbc3f227" y="42.248441"/>
     <use style="fill:#eeb92e;stroke:#eeb92e;" x="297.1288" xlink:href="#m68fbc3f227" y="39.608491"/>
     <use style="fill:#eeb92e;stroke:#eeb92e;" x="302.305052" xlink:href="#m68fbc3f227" y="31.263889"/>
     <use style="fill:#eeb92e;stroke:#eeb92e;" x="307.481304" xlink:href="#m68fbc3f227" y="32.256307"/>
     <use style="fill:#eeb92e;stroke:#eeb92e;" x="312.657557" xlink:href="#m68fbc3f227" y="16.095273"/>
    </g>
   </g>
   <g id="line2d_16">
    <path clip-path="url(#p76d4804355)" d="M 59.021193 18.105874 
L 60.723451 29.44864 
L 62.425708 39.914945 
L 64.127966 49.574435 
L 65.830223 58.491198 
L 67.532481 66.724216 
L 69.234738 74.327766 
L 70.936996 81.351793 
L 72.639253 87.84226 
L 74.34151 93.841464 
L 76.043768 99.388328 
L 77.746025 104.518674 
L 79.448283 109.265471 
L 81.15054 113.659051 
L 82.852798 117.72733 
L 84.555055 121.496003 
L 86.257313 124.988715 
L 89.661828 131.231563 
L 93.066343 136.609968 
L 96.470858 141.254449 
L 99.875373 145.275566 
L 103.279888 148.766971 
L 106.684402 151.808006 
L 110.088917 154.465891 
L 113.493432 156.797582 
L 116.897947 158.851342 
L 120.302462 160.668077 
L 123.706977 162.282457 
L 128.81375 164.387663 
L 133.920522 166.183721 
L 139.027294 167.733952 
L 144.134067 169.08785 
L 150.943097 170.653312 
L 157.752127 172.007004 
L 166.263414 173.476396 
L 176.476959 175.000274 
L 188.392761 176.542391 
L 202.010821 178.082838 
L 219.033396 179.766604 
L 237.758228 181.383721 
L 258.185318 182.924634 
L 280.314665 184.376059 
L 304.146269 185.724688 
L 312.657557 186.15882 
L 312.657557 186.15882 
" style="fill:none;stroke:#0370b8;stroke-linecap:square;stroke-width:1.5;"/>
   </g>
   <g id="line2d_17">
    <path clip-path="url(#p76d4804355)" d="M 59.021193 194.000727 
L 60.723451 182.734338 
L 62.425708 172.48789 
L 64.127966 163.178685 
L 65.830223 154.730641 
L 67.532481 147.073751 
L 69.234738 140.143616 
L 70.936996 133.88099 
L 72.639253 128.231369 
L 74.34151 123.144613 
L 76.043768 118.574597 
L 77.746025 114.478891 
L 79.448283 110.818456 
L 81.15054 107.557395 
L 82.852798 104.662684 
L 84.555055 102.103942 
L 86.257313 99.853231 
L 87.95957 97.884852 
L 89.661828 96.17517 
L 91.364085 94.702448 
L 93.066343 93.446696 
L 94.7686 92.389531 
L 96.470858 91.514048 
L 98.173115 90.804704 
L 99.875373 90.247207 
L 101.57763 89.828416 
L 103.279888 89.536252 
L 106.684402 89.288278 
L 110.088917 89.424781 
L 113.493432 89.879453 
L 116.897947 90.596303 
L 120.302462 91.528076 
L 125.409235 93.24326 
L 130.516007 95.244647 
L 137.325037 98.215443 
L 145.836324 102.214737 
L 179.881474 118.55606 
L 190.095019 123.130539 
L 200.308564 127.476382 
L 210.522108 131.585255 
L 220.735653 135.458243 
L 230.949198 139.101761 
L 241.162743 142.525104 
L 251.376288 145.738975 
L 263.29209 149.238742 
L 275.207892 152.486554 
L 287.123695 155.499738 
L 299.039497 158.294791 
L 312.657557 161.241926 
L 312.657557 161.241926 
" style="fill:none;stroke:#d56339;stroke-linecap:square;stroke-width:1.5;"/>
   </g>
   <g id="line2d_18">
    <path clip-path="url(#p76d4804355)" d="M 59.021193 158.051581 
L 60.723451 157.975205 
L 62.425708 157.755347 
L 64.127966 157.405062 
L 67.532481 156.360215 
L 70.936996 154.925399 
L 74.34151 153.172105 
L 77.746025 151.160617 
L 81.15054 148.941736 
L 86.257313 145.316235 
L 93.066343 140.101519 
L 101.57763 133.24755 
L 125.409235 113.891791 
L 135.62278 105.985214 
L 144.134067 99.671596 
L 152.645354 93.628313 
L 161.156642 87.861835 
L 169.667929 82.371269 
L 178.179216 77.151134 
L 186.690504 72.19318 
L 195.201791 67.487573 
L 203.713078 63.023663 
L 212.224366 58.79048 
L 220.735653 54.777052 
L 229.246941 50.972598 
L 239.460485 46.668387 
L 249.67403 42.632695 
L 259.887575 38.849042 
L 270.10112 35.301856 
L 280.314665 31.976457 
L 290.52821 28.859041 
L 302.444012 25.467663 
L 312.657557 22.757436 
L 312.657557 22.757436 
" style="fill:none;stroke:#eeb92e;stroke-linecap:square;stroke-width:1.5;"/>
   </g>
   <g id="patch_3">
    <path d="M 46.339375 202.896 
L 46.339375 7.2 
" style="fill:none;stroke:#000000;stroke-linecap:square;stroke-linejoin:miter;stroke-width:0.8;"/>
   </g>
   <g id="patch_4">
    <path d="M 325.339375 202.896 
L 325.339375 7.2 
" style="fill:none;stroke:#000000;stroke-linecap:square;stroke-linejoin:miter;stroke-width:0.8;"/>
   </g>
   <g id="patch_5">
    <path d="M 46.339375 202.896 
L 325.339375 202.896 
" style="fill:none;stroke:#000000;stroke-linecap:square;stroke-linejoin:miter;stroke-width:0.8;"/>
   </g>
   <g id="patch_6">
    <path d="M 46.339375 7.2 
L 325.339375 7.2 
" style="fill:none;stroke:#000000;stroke-linecap:square;stroke-linejoin:miter;stroke-width:0.8;"/>
   </g>
   <g id="legend_1">
    <g id="patch_7">
     <path d="M 274.758281 130.916906 
L 317.639375 130.916906 
Q 319.839375 130.916906 319.839375 128.716906 
L 319.839375 81.379094 
Q 319.839375 79.179094 317.639375 79.179094 
L 274.758281 79.179094 
Q 272.558281 79.179094 272.558281 81.379094 
L 272.558281 128.716906 
Q 272.558281 130.916906 274.758281 130.916906 
z
" style="fill:#ffffff;opacity:0.8;stroke:#cccccc;stroke-linejoin:miter;"/>
    </g>
    <g id="line2d_19"/>
    <g id="line2d_20">
     <g>
      <use style="fill:#0370b8;stroke:#0370b8;" x="287.958281" xlink:href="#mf13ac674d0" y="88.087375"/>
     </g>
    </g>
    <g id="text_15">
     <!-- A -->
     <defs>
      <path d="M 34.1875 63.1875 
L 20.796875 26.90625 
L 47.609375 26.90625 
z
M 28.609375 72.90625 
L 39.796875 72.90625 
L 67.578125 0 
L 57.328125 0 
L 50.6875 18.703125 
L 17.828125 18.703125 
L 11.1875 0 
L 0.78125 0 
z
" id="DejaVuSans-65"/>
     </defs>
     <g transform="translate(307.758281 91.937375)scale(0.11 -0.11)">
      <use xlink:href="#DejaVuSans-65"/>
     </g>
    </g>
    <g id="line2d_21"/>
    <g id="line2d_22">
     <g>
      <use style="fill:#d56339;stroke:#d56339;" x="287.958281" xlink:href="#m4376dec733" y="104.233312"/>
     </g>
    </g>
    <g id="text_16">
     <!-- B -->
     <defs>
      <path d="M 19.671875 34.8125 
L 19.671875 8.109375 
L 35.5 8.109375 
Q 43.453125 8.109375 47.28125 11.40625 
Q 51.125 14.703125 51.125 21.484375 
Q 51.125 28.328125 47.28125 31.5625 
Q 43.453125 34.8125 35.5 34.8125 
z
M 19.671875 64.796875 
L 19.671875 42.828125 
L 34.28125 42.828125 
Q 41.5 42.828125 45.03125 45.53125 
Q 48.578125 48.25 48.578125 53.8125 
Q 48.578125 59.328125 45.03125 62.0625 
Q 41.5 64.796875 34.28125 64.796875 
z
M 9.8125 72.90625 
L 35.015625 72.90625 
Q 46.296875 72.90625 52.390625 68.21875 
Q 58.5 63.53125 58.5 54.890625 
Q 58.5 48.1875 55.375 44.234375 
Q 52.25 40.28125 46.1875 39.3125 
Q 53.46875 37.75 57.5 32.78125 
Q 61.53125 27.828125 61.53125 20.40625 
Q 61.53125 10.640625 54.890625 5.3125 
Q 48.25 0 35.984375 0 
L 9.8125 0 
z
" id="DejaVuSans-66"/>
     </defs>
     <g transform="translate(307.758281 108.083312)scale(0.11 -0.11)">
      <use xlink:href="#DejaVuSans-66"/>
     </g>
    </g>
    <g id="line2d_23"/>
    <g id="line2d_24">
     <g>
      <use style="fill:#eeb92e;stroke:#eeb92e;" x="287.958281" xlink:href="#m68fbc3f227" y="120.37925"/>
     </g>
    </g>
    <g id="text_17">
     <!-- C -->
     <g transform="translate(307.758281 124.22925)scale(0.11 -0.11)">
      <use xlink:href="#DejaVuSans-67"/>
     </g>
    </g>
   </g>
  </g>
 </g>
 <defs>
  <clipPath id="p76d4804355">
   <rect height="195.696" width="279" x="46.339375" y="7.2"/>
  </clipPath>
 </defs>
</svg>
