<?xml version="1.0" encoding="utf-8" standalone="no"?>
<!DOCTYPE svg PUBLIC "-//W3C//DTD SVG 1.1//EN"
  "http://www.w3.org/Graphics/SVG/1.1/DTD/svg11.dtd">
<!-- Created with matplotlib (https://matplotlib.org/) -->
<svg height="169.517068pt" version="1.1" viewBox="0 0 240.252468 169.517068" width="240.252468pt" xmlns="http://www.w3.org/2000/svg" xmlns:xlink="http://www.w3.org/1999/xlink">
 <defs>
  <style type="text/css">
*{stroke-linecap:butt;stroke-linejoin:round;}
  </style>
 </defs>
 <g id="figure_1">
  <g id="patch_1">
   <path d="M 0 169.517068 
L 240.252468 169.517068 
L 240.252468 0 
L 0 0 
z
" style="fill:#ffffff;"/>
  </g>
  <g id="axes_1">
   <g id="patch_2">
    <path d="M 46.32 135.832068 
L 233.052468 135.832068 
L 233.052468 7.2 
L 46.32 7.2 
z
" style="fill:#ffffff;"/>
   </g>
   <g id="matplotlib.axis_1">
    <g id="xtick_1">
     <g id="line2d_1">
      <defs>
       <path d="M 0 0 
L 0 3.5 
" id="macab66eaeb" style="stroke:#000000;stroke-width:0.8;"/>
      </defs>
      <g>
       <use style="stroke:#000000;stroke-width:0.8;" x="54.807839" xlink:href="#macab66eaeb" y="135.832068"/>
      </g>
     </g>
     <g id="text_1">
      <!-- 0 -->
      <defs>
       <path d="M 31.78125 66.40625 
Q 24.171875 66.40625 20.328125 58.90625 
Q 16.5 51.421875 16.5 36.375 
Q 16.5 21.390625 20.328125 13.890625 
Q 24.171875 6.390625 31.78125 6.390625 
Q 39.453125 6.390625 43.28125 13.890625 
Q 47.125 21.390625 47.125 36.375 
Q 47.125 51.421875 43.28125 58.90625 
Q 39.453125 66.40625 31.78125 66.40625 
z
M 31.78125 74.21875 
Q 44.046875 74.21875 50.515625 64.515625 
Q 56.984375 54.828125 56.984375 36.375 
Q 56.984375 17.96875 50.515625 8.265625 
Q 44.046875 -1.421875 31.78125 -1.421875 
Q 19.53125 -1.421875 13.0625 8.265625 
Q 6.59375 17.96875 6.59375 36.375 
Q 6.59375 54.828125 13.0625 64.515625 
Q 19.53125 74.21875 31.78125 74.21875 
z
" id="DejaVuSans-48"/>
      </defs>
      <g transform="translate(52.262839 148.910818)scale(0.08 -0.08)">
       <use xlink:href="#DejaVuSans-48"/>
      </g>
     </g>
    </g>
    <g id="xtick_2">
     <g id="line2d_2">
      <g>
       <use style="stroke:#000000;stroke-width:0.8;" x="107.040698" xlink:href="#macab66eaeb" y="135.832068"/>
      </g>
     </g>
     <g id="text_2">
      <!-- 20 -->
      <defs>
       <path d="M 19.1875 8.296875 
L 53.609375 8.296875 
L 53.609375 0 
L 7.328125 0 
L 7.328125 8.296875 
Q 12.9375 14.109375 22.625 23.890625 
Q 32.328125 33.6875 34.8125 36.53125 
Q 39.546875 41.84375 41.421875 45.53125 
Q 43.3125 49.21875 43.3125 52.78125 
Q 43.3125 58.59375 39.234375 62.25 
Q 35.15625 65.921875 28.609375 65.921875 
Q 23.96875 65.921875 18.8125 64.3125 
Q 13.671875 62.703125 7.8125 59.421875 
L 7.8125 69.390625 
Q 13.765625 71.78125 18.9375 73 
Q 24.125 74.21875 28.421875 74.21875 
Q 39.75 74.21875 46.484375 68.546875 
Q 53.21875 62.890625 53.21875 53.421875 
Q 53.21875 48.921875 51.53125 44.890625 
Q 49.859375 40.875 45.40625 35.40625 
Q 44.1875 33.984375 37.640625 27.21875 
Q 31.109375 20.453125 19.1875 8.296875 
z
" id="DejaVuSans-50"/>
      </defs>
      <g transform="translate(101.950698 148.910818)scale(0.08 -0.08)">
       <use xlink:href="#DejaVuSans-50"/>
       <use x="63.623047" xlink:href="#DejaVuSans-48"/>
      </g>
     </g>
    </g>
    <g id="xtick_3">
     <g id="line2d_3">
      <g>
       <use style="stroke:#000000;stroke-width:0.8;" x="159.273556" xlink:href="#macab66eaeb" y="135.832068"/>
      </g>
     </g>
     <g id="text_3">
      <!-- 40 -->
      <defs>
       <path d="M 37.796875 64.3125 
L 12.890625 25.390625 
L 37.796875 25.390625 
z
M 35.203125 72.90625 
L 47.609375 72.90625 
L 47.609375 25.390625 
L 58.015625 25.390625 
L 58.015625 17.1875 
L 47.609375 17.1875 
L 47.609375 0 
L 37.796875 0 
L 37.796875 17.1875 
L 4.890625 17.1875 
L 4.890625 26.703125 
z
" id="DejaVuSans-52"/>
      </defs>
      <g transform="translate(154.183556 148.910818)scale(0.08 -0.08)">
       <use xlink:href="#DejaVuSans-52"/>
       <use x="63.623047" xlink:href="#DejaVuSans-48"/>
      </g>
     </g>
    </g>
    <g id="xtick_4">
     <g id="line2d_4">
      <g>
       <use style="stroke:#000000;stroke-width:0.8;" x="211.506414" xlink:href="#macab66eaeb" y="135.832068"/>
      </g>
     </g>
     <g id="text_4">
      <!-- 60 -->
      <defs>
       <path d="M 33.015625 40.375 
Q 26.375 40.375 22.484375 35.828125 
Q 18.609375 31.296875 18.609375 23.390625 
Q 18.609375 15.53125 22.484375 10.953125 
Q 26.375 6.390625 33.015625 6.390625 
Q 39.65625 6.390625 43.53125 10.953125 
Q 47.40625 15.53125 47.40625 23.390625 
Q 47.40625 31.296875 43.53125 35.828125 
Q 39.65625 40.375 33.015625 40.375 
z
M 52.59375 71.296875 
L 52.59375 62.3125 
Q 48.875 64.0625 45.09375 64.984375 
Q 41.3125 65.921875 37.59375 65.921875 
Q 27.828125 65.921875 22.671875 59.328125 
Q 17.53125 52.734375 16.796875 39.40625 
Q 19.671875 43.65625 24.015625 45.921875 
Q 28.375 48.1875 33.59375 48.1875 
Q 44.578125 48.1875 50.953125 41.515625 
Q 57.328125 34.859375 57.328125 23.390625 
Q 57.328125 12.15625 50.6875 5.359375 
Q 44.046875 -1.421875 33.015625 -1.421875 
Q 20.359375 -1.421875 13.671875 8.265625 
Q 6.984375 17.96875 6.984375 36.375 
Q 6.984375 53.65625 15.1875 63.9375 
Q 23.390625 74.21875 37.203125 74.21875 
Q 40.921875 74.21875 44.703125 73.484375 
Q 48.484375 72.75 52.59375 71.296875 
z
" id="DejaVuSans-54"/>
      </defs>
      <g transform="translate(206.416414 148.910818)scale(0.08 -0.08)">
       <use xlink:href="#DejaVuSans-54"/>
       <use x="63.623047" xlink:href="#DejaVuSans-48"/>
      </g>
     </g>
    </g>
    <g id="text_5">
     <!-- Time [h] -->
     <defs>
      <path d="M -0.296875 72.90625 
L 61.375 72.90625 
L 61.375 64.59375 
L 35.5 64.59375 
L 35.5 0 
L 25.59375 0 
L 25.59375 64.59375 
L -0.296875 64.59375 
z
" id="DejaVuSans-84"/>
      <path d="M 9.421875 54.6875 
L 18.40625 54.6875 
L 18.40625 0 
L 9.421875 0 
z
M 9.421875 75.984375 
L 18.40625 75.984375 
L 18.40625 64.59375 
L 9.421875 64.59375 
z
" id="DejaVuSans-105"/>
      <path d="M 52 44.1875 
Q 55.375 50.25 60.0625 53.125 
Q 64.75 56 71.09375 56 
Q 79.640625 56 84.28125 50.015625 
Q 88.921875 44.046875 88.921875 33.015625 
L 88.921875 0 
L 79.890625 0 
L 79.890625 32.71875 
Q 79.890625 40.578125 77.09375 44.375 
Q 74.3125 48.1875 68.609375 48.1875 
Q 61.625 48.1875 57.5625 43.546875 
Q 53.515625 38.921875 53.515625 30.90625 
L 53.515625 0 
L 44.484375 0 
L 44.484375 32.71875 
Q 44.484375 40.625 41.703125 44.40625 
Q 38.921875 48.1875 33.109375 48.1875 
Q 26.21875 48.1875 22.15625 43.53125 
Q 18.109375 38.875 18.109375 30.90625 
L 18.109375 0 
L 9.078125 0 
L 9.078125 54.6875 
L 18.109375 54.6875 
L 18.109375 46.1875 
Q 21.1875 51.21875 25.484375 53.609375 
Q 29.78125 56 35.6875 56 
Q 41.65625 56 45.828125 52.96875 
Q 50 49.953125 52 44.1875 
z
" id="DejaVuSans-109"/>
      <path d="M 56.203125 29.59375 
L 56.203125 25.203125 
L 14.890625 25.203125 
Q 15.484375 15.921875 20.484375 11.0625 
Q 25.484375 6.203125 34.421875 6.203125 
Q 39.59375 6.203125 44.453125 7.46875 
Q 49.3125 8.734375 54.109375 11.28125 
L 54.109375 2.78125 
Q 49.265625 0.734375 44.1875 -0.34375 
Q 39.109375 -1.421875 33.890625 -1.421875 
Q 20.796875 -1.421875 13.15625 6.1875 
Q 5.515625 13.8125 5.515625 26.8125 
Q 5.515625 40.234375 12.765625 48.109375 
Q 20.015625 56 32.328125 56 
Q 43.359375 56 49.78125 48.890625 
Q 56.203125 41.796875 56.203125 29.59375 
z
M 47.21875 32.234375 
Q 47.125 39.59375 43.09375 43.984375 
Q 39.0625 48.390625 32.421875 48.390625 
Q 24.90625 48.390625 20.390625 44.140625 
Q 15.875 39.890625 15.1875 32.171875 
z
" id="DejaVuSans-101"/>
      <path id="DejaVuSans-32"/>
      <path d="M 8.59375 75.984375 
L 29.296875 75.984375 
L 29.296875 69 
L 17.578125 69 
L 17.578125 -6.203125 
L 29.296875 -6.203125 
L 29.296875 -13.1875 
L 8.59375 -13.1875 
z
" id="DejaVuSans-91"/>
      <path d="M 54.890625 33.015625 
L 54.890625 0 
L 45.90625 0 
L 45.90625 32.71875 
Q 45.90625 40.484375 42.875 44.328125 
Q 39.84375 48.1875 33.796875 48.1875 
Q 26.515625 48.1875 22.3125 43.546875 
Q 18.109375 38.921875 18.109375 30.90625 
L 18.109375 0 
L 9.078125 0 
L 9.078125 75.984375 
L 18.109375 75.984375 
L 18.109375 46.1875 
Q 21.34375 51.125 25.703125 53.5625 
Q 30.078125 56 35.796875 56 
Q 45.21875 56 50.046875 50.171875 
Q 54.890625 44.34375 54.890625 33.015625 
z
" id="DejaVuSans-104"/>
      <path d="M 30.421875 75.984375 
L 30.421875 -13.1875 
L 9.71875 -13.1875 
L 9.71875 -6.203125 
L 21.390625 -6.203125 
L 21.390625 69 
L 9.71875 69 
L 9.71875 75.984375 
z
" id="DejaVuSans-93"/>
     </defs>
     <g transform="translate(122.971859 160.653318)scale(0.08 -0.08)">
      <use xlink:href="#DejaVuSans-84"/>
      <use x="57.958984" xlink:href="#DejaVuSans-105"/>
      <use x="85.742188" xlink:href="#DejaVuSans-109"/>
      <use x="183.154297" xlink:href="#DejaVuSans-101"/>
      <use x="244.677734" xlink:href="#DejaVuSans-32"/>
      <use x="276.464844" xlink:href="#DejaVuSans-91"/>
      <use x="315.478516" xlink:href="#DejaVuSans-104"/>
      <use x="378.857422" xlink:href="#DejaVuSans-93"/>
     </g>
    </g>
   </g>
   <g id="matplotlib.axis_2">
    <g id="ytick_1">
     <g id="line2d_5">
      <defs>
       <path d="M 0 0 
L -3.5 0 
" id="m20fe00069d" style="stroke:#000000;stroke-width:0.8;"/>
      </defs>
      <g>
       <use style="stroke:#000000;stroke-width:0.8;" x="46.32" xlink:href="#m20fe00069d" y="131.715915"/>
      </g>
     </g>
     <g id="text_6">
      <!-- 0 -->
      <g transform="translate(34.23 134.75529)scale(0.08 -0.08)">
       <use xlink:href="#DejaVuSans-48"/>
      </g>
     </g>
    </g>
    <g id="ytick_2">
     <g id="line2d_6">
      <g>
       <use style="stroke:#000000;stroke-width:0.8;" x="46.32" xlink:href="#m20fe00069d" y="107.549621"/>
      </g>
     </g>
     <g id="text_7">
      <!-- 1000 -->
      <defs>
       <path d="M 12.40625 8.296875 
L 28.515625 8.296875 
L 28.515625 63.921875 
L 10.984375 60.40625 
L 10.984375 69.390625 
L 28.421875 72.90625 
L 38.28125 72.90625 
L 38.28125 8.296875 
L 54.390625 8.296875 
L 54.390625 0 
L 12.40625 0 
z
" id="DejaVuSans-49"/>
      </defs>
      <g transform="translate(18.96 110.588996)scale(0.08 -0.08)">
       <use xlink:href="#DejaVuSans-49"/>
       <use x="63.623047" xlink:href="#DejaVuSans-48"/>
       <use x="127.246094" xlink:href="#DejaVuSans-48"/>
       <use x="190.869141" xlink:href="#DejaVuSans-48"/>
      </g>
     </g>
    </g>
    <g id="ytick_3">
     <g id="line2d_7">
      <g>
       <use style="stroke:#000000;stroke-width:0.8;" x="46.32" xlink:href="#m20fe00069d" y="83.383327"/>
      </g>
     </g>
     <g id="text_8">
      <!-- 2000 -->
      <g transform="translate(18.96 86.422702)scale(0.08 -0.08)">
       <use xlink:href="#DejaVuSans-50"/>
       <use x="63.623047" xlink:href="#DejaVuSans-48"/>
       <use x="127.246094" xlink:href="#DejaVuSans-48"/>
       <use x="190.869141" xlink:href="#DejaVuSans-48"/>
      </g>
     </g>
    </g>
    <g id="ytick_4">
     <g id="line2d_8">
      <g>
       <use style="stroke:#000000;stroke-width:0.8;" x="46.32" xlink:href="#m20fe00069d" y="59.217032"/>
      </g>
     </g>
     <g id="text_9">
      <!-- 3000 -->
      <defs>
       <path d="M 40.578125 39.3125 
Q 47.65625 37.796875 51.625 33 
Q 55.609375 28.21875 55.609375 21.1875 
Q 55.609375 10.40625 48.1875 4.484375 
Q 40.765625 -1.421875 27.09375 -1.421875 
Q 22.515625 -1.421875 17.65625 -0.515625 
Q 12.796875 0.390625 7.625 2.203125 
L 7.625 11.71875 
Q 11.71875 9.328125 16.59375 8.109375 
Q 21.484375 6.890625 26.8125 6.890625 
Q 36.078125 6.890625 40.9375 10.546875 
Q 45.796875 14.203125 45.796875 21.1875 
Q 45.796875 27.640625 41.28125 31.265625 
Q 36.765625 34.90625 28.71875 34.90625 
L 20.21875 34.90625 
L 20.21875 43.015625 
L 29.109375 43.015625 
Q 36.375 43.015625 40.234375 45.921875 
Q 44.09375 48.828125 44.09375 54.296875 
Q 44.09375 59.90625 40.109375 62.90625 
Q 36.140625 65.921875 28.71875 65.921875 
Q 24.65625 65.921875 20.015625 65.03125 
Q 15.375 64.15625 9.8125 62.3125 
L 9.8125 71.09375 
Q 15.4375 72.65625 20.34375 73.4375 
Q 25.25 74.21875 29.59375 74.21875 
Q 40.828125 74.21875 47.359375 69.109375 
Q 53.90625 64.015625 53.90625 55.328125 
Q 53.90625 49.265625 50.4375 45.09375 
Q 46.96875 40.921875 40.578125 39.3125 
z
" id="DejaVuSans-51"/>
      </defs>
      <g transform="translate(18.96 62.256407)scale(0.08 -0.08)">
       <use xlink:href="#DejaVuSans-51"/>
       <use x="63.623047" xlink:href="#DejaVuSans-48"/>
       <use x="127.246094" xlink:href="#DejaVuSans-48"/>
       <use x="190.869141" xlink:href="#DejaVuSans-48"/>
      </g>
     </g>
    </g>
    <g id="ytick_5">
     <g id="line2d_9">
      <g>
       <use style="stroke:#000000;stroke-width:0.8;" x="46.32" xlink:href="#m20fe00069d" y="35.050738"/>
      </g>
     </g>
     <g id="text_10">
      <!-- 4000 -->
      <g transform="translate(18.96 38.090113)scale(0.08 -0.08)">
       <use xlink:href="#DejaVuSans-52"/>
       <use x="63.623047" xlink:href="#DejaVuSans-48"/>
       <use x="127.246094" xlink:href="#DejaVuSans-48"/>
       <use x="190.869141" xlink:href="#DejaVuSans-48"/>
      </g>
     </g>
    </g>
    <g id="ytick_6">
     <g id="line2d_10">
      <g>
       <use style="stroke:#000000;stroke-width:0.8;" x="46.32" xlink:href="#m20fe00069d" y="10.884444"/>
      </g>
     </g>
     <g id="text_11">
      <!-- 5000 -->
      <defs>
       <path d="M 10.796875 72.90625 
L 49.515625 72.90625 
L 49.515625 64.59375 
L 19.828125 64.59375 
L 19.828125 46.734375 
Q 21.96875 47.46875 24.109375 47.828125 
Q 26.265625 48.1875 28.421875 48.1875 
Q 40.625 48.1875 47.75 41.5 
Q 54.890625 34.8125 54.890625 23.390625 
Q 54.890625 11.625 47.5625 5.09375 
Q 40.234375 -1.421875 26.90625 -1.421875 
Q 22.3125 -1.421875 17.546875 -0.640625 
Q 12.796875 0.140625 7.71875 1.703125 
L 7.71875 11.625 
Q 12.109375 9.234375 16.796875 8.0625 
Q 21.484375 6.890625 26.703125 6.890625 
Q 35.15625 6.890625 40.078125 11.328125 
Q 45.015625 15.765625 45.015625 23.390625 
Q 45.015625 31 40.078125 35.4375 
Q 35.15625 39.890625 26.703125 39.890625 
Q 22.75 39.890625 18.8125 39.015625 
Q 14.890625 38.140625 10.796875 36.28125 
z
" id="DejaVuSans-53"/>
      </defs>
      <g transform="translate(18.96 13.923819)scale(0.08 -0.08)">
       <use xlink:href="#DejaVuSans-53"/>
       <use x="63.623047" xlink:href="#DejaVuSans-48"/>
       <use x="127.246094" xlink:href="#DejaVuSans-48"/>
       <use x="190.869141" xlink:href="#DejaVuSans-48"/>
      </g>
     </g>
    </g>
    <g id="text_12">
     <!-- Concentration [$\rm\mu$M] -->
     <defs>
      <path d="M 64.40625 67.28125 
L 64.40625 56.890625 
Q 59.421875 61.53125 53.78125 63.8125 
Q 48.140625 66.109375 41.796875 66.109375 
Q 29.296875 66.109375 22.65625 58.46875 
Q 16.015625 50.828125 16.015625 36.375 
Q 16.015625 21.96875 22.65625 14.328125 
Q 29.296875 6.6875 41.796875 6.6875 
Q 48.140625 6.6875 53.78125 8.984375 
Q 59.421875 11.28125 64.40625 15.921875 
L 64.40625 5.609375 
Q 59.234375 2.09375 53.4375 0.328125 
Q 47.65625 -1.421875 41.21875 -1.421875 
Q 24.65625 -1.421875 15.125 8.703125 
Q 5.609375 18.84375 5.609375 36.375 
Q 5.609375 53.953125 15.125 64.078125 
Q 24.65625 74.21875 41.21875 74.21875 
Q 47.75 74.21875 53.53125 72.484375 
Q 59.328125 70.75 64.40625 67.28125 
z
" id="DejaVuSans-67"/>
      <path d="M 30.609375 48.390625 
Q 23.390625 48.390625 19.1875 42.75 
Q 14.984375 37.109375 14.984375 27.296875 
Q 14.984375 17.484375 19.15625 11.84375 
Q 23.34375 6.203125 30.609375 6.203125 
Q 37.796875 6.203125 41.984375 11.859375 
Q 46.1875 17.53125 46.1875 27.296875 
Q 46.1875 37.015625 41.984375 42.703125 
Q 37.796875 48.390625 30.609375 48.390625 
z
M 30.609375 56 
Q 42.328125 56 49.015625 48.375 
Q 55.71875 40.765625 55.71875 27.296875 
Q 55.71875 13.875 49.015625 6.21875 
Q 42.328125 -1.421875 30.609375 -1.421875 
Q 18.84375 -1.421875 12.171875 6.21875 
Q 5.515625 13.875 5.515625 27.296875 
Q 5.515625 40.765625 12.171875 48.375 
Q 18.84375 56 30.609375 56 
z
" id="DejaVuSans-111"/>
      <path d="M 54.890625 33.015625 
L 54.890625 0 
L 45.90625 0 
L 45.90625 32.71875 
Q 45.90625 40.484375 42.875 44.328125 
Q 39.84375 48.1875 33.796875 48.1875 
Q 26.515625 48.1875 22.3125 43.546875 
Q 18.109375 38.921875 18.109375 30.90625 
L 18.109375 0 
L 9.078125 0 
L 9.078125 54.6875 
L 18.109375 54.6875 
L 18.109375 46.1875 
Q 21.34375 51.125 25.703125 53.5625 
Q 30.078125 56 35.796875 56 
Q 45.21875 56 50.046875 50.171875 
Q 54.890625 44.34375 54.890625 33.015625 
z
" id="DejaVuSans-110"/>
      <path d="M 48.78125 52.59375 
L 48.78125 44.1875 
Q 44.96875 46.296875 41.140625 47.34375 
Q 37.3125 48.390625 33.40625 48.390625 
Q 24.65625 48.390625 19.8125 42.84375 
Q 14.984375 37.3125 14.984375 27.296875 
Q 14.984375 17.28125 19.8125 11.734375 
Q 24.65625 6.203125 33.40625 6.203125 
Q 37.3125 6.203125 41.140625 7.25 
Q 44.96875 8.296875 48.78125 10.40625 
L 48.78125 2.09375 
Q 45.015625 0.34375 40.984375 -0.53125 
Q 36.96875 -1.421875 32.421875 -1.421875 
Q 20.0625 -1.421875 12.78125 6.34375 
Q 5.515625 14.109375 5.515625 27.296875 
Q 5.515625 40.671875 12.859375 48.328125 
Q 20.21875 56 33.015625 56 
Q 37.15625 56 41.109375 55.140625 
Q 45.0625 54.296875 48.78125 52.59375 
z
" id="DejaVuSans-99"/>
      <path d="M 18.3125 70.21875 
L 18.3125 54.6875 
L 36.8125 54.6875 
L 36.8125 47.703125 
L 18.3125 47.703125 
L 18.3125 18.015625 
Q 18.3125 11.328125 20.140625 9.421875 
Q 21.96875 7.515625 27.59375 7.515625 
L 36.8125 7.515625 
L 36.8125 0 
L 27.59375 0 
Q 17.1875 0 13.234375 3.875 
Q 9.28125 7.765625 9.28125 18.015625 
L 9.28125 47.703125 
L 2.6875 47.703125 
L 2.6875 54.6875 
L 9.28125 54.6875 
L 9.28125 70.21875 
z
" id="DejaVuSans-116"/>
      <path d="M 41.109375 46.296875 
Q 39.59375 47.171875 37.8125 47.578125 
Q 36.03125 48 33.890625 48 
Q 26.265625 48 22.1875 43.046875 
Q 18.109375 38.09375 18.109375 28.8125 
L 18.109375 0 
L 9.078125 0 
L 9.078125 54.6875 
L 18.109375 54.6875 
L 18.109375 46.1875 
Q 20.953125 51.171875 25.484375 53.578125 
Q 30.03125 56 36.53125 56 
Q 37.453125 56 38.578125 55.875 
Q 39.703125 55.765625 41.0625 55.515625 
z
" id="DejaVuSans-114"/>
      <path d="M 34.28125 27.484375 
Q 23.390625 27.484375 19.1875 25 
Q 14.984375 22.515625 14.984375 16.5 
Q 14.984375 11.71875 18.140625 8.90625 
Q 21.296875 6.109375 26.703125 6.109375 
Q 34.1875 6.109375 38.703125 11.40625 
Q 43.21875 16.703125 43.21875 25.484375 
L 43.21875 27.484375 
z
M 52.203125 31.203125 
L 52.203125 0 
L 43.21875 0 
L 43.21875 8.296875 
Q 40.140625 3.328125 35.546875 0.953125 
Q 30.953125 -1.421875 24.3125 -1.421875 
Q 15.921875 -1.421875 10.953125 3.296875 
Q 6 8.015625 6 15.921875 
Q 6 25.140625 12.171875 29.828125 
Q 18.359375 34.515625 30.609375 34.515625 
L 43.21875 34.515625 
L 43.21875 35.40625 
Q 43.21875 41.609375 39.140625 45 
Q 35.0625 48.390625 27.6875 48.390625 
Q 23 48.390625 18.546875 47.265625 
Q 14.109375 46.140625 10.015625 43.890625 
L 10.015625 52.203125 
Q 14.9375 54.109375 19.578125 55.046875 
Q 24.21875 56 28.609375 56 
Q 40.484375 56 46.34375 49.84375 
Q 52.203125 43.703125 52.203125 31.203125 
z
" id="DejaVuSans-97"/>
      <path d="M 8.5 -20.796875 
L 8.5 54.6875 
L 17.484375 54.6875 
L 17.484375 20.703125 
Q 17.484375 13.625 20.84375 10 
Q 24.21875 6.390625 30.8125 6.390625 
Q 38.03125 6.390625 41.671875 10.484375 
Q 45.3125 14.59375 45.3125 22.796875 
L 45.3125 54.6875 
L 54.296875 54.6875 
L 54.296875 12.59375 
Q 54.296875 9.671875 55.140625 8.28125 
Q 56 6.890625 57.8125 6.890625 
Q 58.25 6.890625 59.03125 7.15625 
Q 59.8125 7.421875 61.1875 8.015625 
L 61.1875 0.78125 
Q 59.1875 -0.34375 57.390625 -0.875 
Q 55.609375 -1.421875 53.90625 -1.421875 
Q 50.53125 -1.421875 48.53125 0.484375 
Q 46.53125 2.390625 45.796875 6.296875 
Q 43.359375 2.4375 39.8125 0.5 
Q 36.28125 -1.421875 31.5 -1.421875 
Q 26.515625 -1.421875 23.015625 0.484375 
Q 19.53125 2.390625 17.484375 6.203125 
L 17.484375 -20.796875 
z
" id="DejaVuSans-956"/>
      <path d="M 9.8125 72.90625 
L 24.515625 72.90625 
L 43.109375 23.296875 
L 61.8125 72.90625 
L 76.515625 72.90625 
L 76.515625 0 
L 66.890625 0 
L 66.890625 64.015625 
L 48.09375 14.015625 
L 38.1875 14.015625 
L 19.390625 64.015625 
L 19.390625 0 
L 9.8125 0 
z
" id="DejaVuSans-77"/>
     </defs>
     <g transform="translate(13.28 110.236034)rotate(-90)scale(0.08 -0.08)">
      <use transform="translate(0 0.015625)" xlink:href="#DejaVuSans-67"/>
      <use transform="translate(69.824219 0.015625)" xlink:href="#DejaVuSans-111"/>
      <use transform="translate(131.005859 0.015625)" xlink:href="#DejaVuSans-110"/>
      <use transform="translate(194.384766 0.015625)" xlink:href="#DejaVuSans-99"/>
      <use transform="translate(249.365234 0.015625)" xlink:href="#DejaVuSans-101"/>
      <use transform="translate(310.888672 0.015625)" xlink:href="#DejaVuSans-110"/>
      <use transform="translate(374.267578 0.015625)" xlink:href="#DejaVuSans-116"/>
      <use transform="translate(413.476562 0.015625)" xlink:href="#DejaVuSans-114"/>
      <use transform="translate(454.589844 0.015625)" xlink:href="#DejaVuSans-97"/>
      <use transform="translate(515.869141 0.015625)" xlink:href="#DejaVuSans-116"/>
      <use transform="translate(555.078125 0.015625)" xlink:href="#DejaVuSans-105"/>
      <use transform="translate(582.861328 0.015625)" xlink:href="#DejaVuSans-111"/>
      <use transform="translate(644.042969 0.015625)" xlink:href="#DejaVuSans-110"/>
      <use transform="translate(707.421875 0.015625)" xlink:href="#DejaVuSans-32"/>
      <use transform="translate(739.208984 0.015625)" xlink:href="#DejaVuSans-91"/>
      <use transform="translate(778.222656 0.015625)" xlink:href="#DejaVuSans-956"/>
      <use transform="translate(841.845703 0.015625)" xlink:href="#DejaVuSans-77"/>
      <use transform="translate(928.125 0.015625)" xlink:href="#DejaVuSans-93"/>
     </g>
    </g>
   </g>
   <g id="LineCollection_1">
    <path clip-path="url(#p323c74b022)" d="M 54.807839 15.367214 
L 54.807839 13.046912 
" style="fill:none;stroke:#0370b8;"/>
    <path clip-path="url(#p323c74b022)" d="M 57.419482 19.017334 
L 57.419482 16.995958 
" style="fill:none;stroke:#0370b8;"/>
    <path clip-path="url(#p323c74b022)" d="M 60.031125 20.973996 
L 60.031125 20.181354 
" style="fill:none;stroke:#0370b8;"/>
    <path clip-path="url(#p323c74b022)" d="M 62.642768 24.656301 
L 62.642768 22.909077 
" style="fill:none;stroke:#0370b8;"/>
    <path clip-path="url(#p323c74b022)" d="M 65.254411 28.446112 
L 65.254411 25.046945 
" style="fill:none;stroke:#0370b8;"/>
    <path clip-path="url(#p323c74b022)" d="M 67.866054 32.215211 
L 67.866054 26.682236 
" style="fill:none;stroke:#0370b8;"/>
    <path clip-path="url(#p323c74b022)" d="M 70.477697 36.553804 
L 70.477697 29.238046 
" style="fill:none;stroke:#0370b8;"/>
    <path clip-path="url(#p323c74b022)" d="M 73.08934 40.096256 
L 73.08934 32.431408 
" style="fill:none;stroke:#0370b8;"/>
    <path clip-path="url(#p323c74b022)" d="M 75.700983 43.54478 
L 75.700983 34.075905 
" style="fill:none;stroke:#0370b8;"/>
    <path clip-path="url(#p323c74b022)" d="M 78.312626 48.484355 
L 78.312626 35.891738 
" style="fill:none;stroke:#0370b8;"/>
    <path clip-path="url(#p323c74b022)" d="M 80.924269 51.899386 
L 80.924269 38.33317 
" style="fill:none;stroke:#0370b8;"/>
    <path clip-path="url(#p323c74b022)" d="M 83.535911 55.981837 
L 83.535911 40.389987 
" style="fill:none;stroke:#0370b8;"/>
    <path clip-path="url(#p323c74b022)" d="M 86.147554 59.476884 
L 86.147554 42.713829 
" style="fill:none;stroke:#0370b8;"/>
    <path clip-path="url(#p323c74b022)" d="M 88.759197 63.62953 
L 88.759197 46.17558 
" style="fill:none;stroke:#0370b8;"/>
    <path clip-path="url(#p323c74b022)" d="M 91.37084 67.53265 
L 91.37084 48.027477 
" style="fill:none;stroke:#0370b8;"/>
    <path clip-path="url(#p323c74b022)" d="M 93.982483 71.017542 
L 93.982483 51.384874 
" style="fill:none;stroke:#0370b8;"/>
    <path clip-path="url(#p323c74b022)" d="M 120.098912 98.915649 
L 120.098912 76.89106 
" style="fill:none;stroke:#0370b8;"/>
    <path clip-path="url(#p323c74b022)" d="M 125.322198 102.679061 
L 125.322198 81.700726 
" style="fill:none;stroke:#0370b8;"/>
    <path clip-path="url(#p323c74b022)" d="M 130.545484 104.621063 
L 130.545484 86.097535 
" style="fill:none;stroke:#0370b8;"/>
    <path clip-path="url(#p323c74b022)" d="M 135.76877 108.750997 
L 135.76877 89.85941 
" style="fill:none;stroke:#0370b8;"/>
    <path clip-path="url(#p323c74b022)" d="M 140.992055 113.328951 
L 140.992055 93.420965 
" style="fill:none;stroke:#0370b8;"/>
    <path clip-path="url(#p323c74b022)" d="M 182.778342 126.303831 
L 182.778342 115.129646 
" style="fill:none;stroke:#0370b8;"/>
    <path clip-path="url(#p323c74b022)" d="M 188.001628 127.386136 
L 188.001628 116.972398 
" style="fill:none;stroke:#0370b8;"/>
    <path clip-path="url(#p323c74b022)" d="M 193.224914 127.982679 
L 193.224914 118.571044 
" style="fill:none;stroke:#0370b8;"/>
    <path clip-path="url(#p323c74b022)" d="M 198.448199 128.552819 
L 198.448199 120.046935 
" style="fill:none;stroke:#0370b8;"/>
    <path clip-path="url(#p323c74b022)" d="M 203.671485 129.024258 
L 203.671485 121.330234 
" style="fill:none;stroke:#0370b8;"/>
    <path clip-path="url(#p323c74b022)" d="M 208.894771 129.310647 
L 208.894771 122.514141 
" style="fill:none;stroke:#0370b8;"/>
    <path clip-path="url(#p323c74b022)" d="M 214.118057 129.558272 
L 214.118057 123.408516 
" style="fill:none;stroke:#0370b8;"/>
    <path clip-path="url(#p323c74b022)" d="M 219.341343 129.829344 
L 219.341343 124.294221 
" style="fill:none;stroke:#0370b8;"/>
    <path clip-path="url(#p323c74b022)" d="M 224.564629 129.985156 
L 224.564629 124.868269 
" style="fill:none;stroke:#0370b8;"/>
   </g>
   <g id="line2d_11">
    <path clip-path="url(#p323c74b022)" d="M 54.807839 14.207063 
L 59.365069 21.653974 
L 63.922298 28.628951 
L 68.479527 35.161901 
L 73.036756 41.280837 
L 77.593986 47.011996 
L 82.151215 52.379954 
L 86.708444 57.407727 
L 91.265673 62.116874 
L 95.822903 66.527587 
L 100.380132 70.65878 
L 104.937361 74.528165 
L 109.49459 78.152336 
L 115.191127 82.361294 
L 120.887663 86.239518 
L 126.5842 89.812996 
L 132.280736 93.105674 
L 137.977273 96.139618 
L 143.67381 98.935159 
L 149.370346 101.511029 
L 156.20619 104.336316 
L 163.042034 106.897334 
L 169.877878 109.2188 
L 176.713722 111.323122 
L 184.688873 113.530709 
L 192.664024 115.499317 
L 200.639175 117.254817 
L 209.753634 119.029631 
L 218.868092 120.586621 
L 224.564629 121.461147 
L 224.564629 121.461147 
" style="fill:none;stroke:#0370b8;stroke-linecap:square;"/>
   </g>
   <g id="line2d_12">
    <defs>
     <path d="M 0 0.75 
C 0.198902 0.75 0.389685 0.670975 0.53033 0.53033 
C 0.670975 0.389685 0.75 0.198902 0.75 0 
C 0.75 -0.198902 0.670975 -0.389685 0.53033 -0.53033 
C 0.389685 -0.670975 0.198902 -0.75 0 -0.75 
C -0.198902 -0.75 -0.389685 -0.670975 -0.53033 -0.53033 
C -0.670975 -0.389685 -0.75 -0.198902 -0.75 0 
C -0.75 0.198902 -0.670975 0.389685 -0.53033 0.53033 
C -0.389685 0.670975 -0.198902 0.75 0 0.75 
z
" id="m139158e329" style="stroke:#0370b8;"/>
    </defs>
    <g clip-path="url(#p323c74b022)">
     <use style="fill:#0370b8;stroke:#0370b8;" x="54.807839" xlink:href="#m139158e329" y="14.207063"/>
     <use style="fill:#0370b8;stroke:#0370b8;" x="57.419482" xlink:href="#m139158e329" y="18.006646"/>
     <use style="fill:#0370b8;stroke:#0370b8;" x="60.031125" xlink:href="#m139158e329" y="20.577675"/>
     <use style="fill:#0370b8;stroke:#0370b8;" x="62.642768" xlink:href="#m139158e329" y="23.782689"/>
     <use style="fill:#0370b8;stroke:#0370b8;" x="65.254411" xlink:href="#m139158e329" y="26.746528"/>
     <use style="fill:#0370b8;stroke:#0370b8;" x="67.866054" xlink:href="#m139158e329" y="29.448724"/>
     <use style="fill:#0370b8;stroke:#0370b8;" x="70.477697" xlink:href="#m139158e329" y="32.895925"/>
     <use style="fill:#0370b8;stroke:#0370b8;" x="73.08934" xlink:href="#m139158e329" y="36.263832"/>
     <use style="fill:#0370b8;stroke:#0370b8;" x="75.700983" xlink:href="#m139158e329" y="38.810343"/>
     <use style="fill:#0370b8;stroke:#0370b8;" x="78.312626" xlink:href="#m139158e329" y="42.188047"/>
     <use style="fill:#0370b8;stroke:#0370b8;" x="80.924269" xlink:href="#m139158e329" y="45.116278"/>
     <use style="fill:#0370b8;stroke:#0370b8;" x="83.535911" xlink:href="#m139158e329" y="48.185912"/>
     <use style="fill:#0370b8;stroke:#0370b8;" x="86.147554" xlink:href="#m139158e329" y="51.095356"/>
     <use style="fill:#0370b8;stroke:#0370b8;" x="88.759197" xlink:href="#m139158e329" y="54.902555"/>
     <use style="fill:#0370b8;stroke:#0370b8;" x="91.37084" xlink:href="#m139158e329" y="57.780063"/>
     <use style="fill:#0370b8;stroke:#0370b8;" x="93.982483" xlink:href="#m139158e329" y="61.201208"/>
     <use style="fill:#0370b8;stroke:#0370b8;" x="120.098912" xlink:href="#m139158e329" y="87.903355"/>
     <use style="fill:#0370b8;stroke:#0370b8;" x="125.322198" xlink:href="#m139158e329" y="92.189894"/>
     <use style="fill:#0370b8;stroke:#0370b8;" x="130.545484" xlink:href="#m139158e329" y="95.359299"/>
     <use style="fill:#0370b8;stroke:#0370b8;" x="135.76877" xlink:href="#m139158e329" y="99.305203"/>
     <use style="fill:#0370b8;stroke:#0370b8;" x="140.992055" xlink:href="#m139158e329" y="103.374958"/>
     <use style="fill:#0370b8;stroke:#0370b8;" x="182.778342" xlink:href="#m139158e329" y="120.716739"/>
     <use style="fill:#0370b8;stroke:#0370b8;" x="188.001628" xlink:href="#m139158e329" y="122.179267"/>
     <use style="fill:#0370b8;stroke:#0370b8;" x="193.224914" xlink:href="#m139158e329" y="123.276862"/>
     <use style="fill:#0370b8;stroke:#0370b8;" x="198.448199" xlink:href="#m139158e329" y="124.299877"/>
     <use style="fill:#0370b8;stroke:#0370b8;" x="203.671485" xlink:href="#m139158e329" y="125.177246"/>
     <use style="fill:#0370b8;stroke:#0370b8;" x="208.894771" xlink:href="#m139158e329" y="125.912394"/>
     <use style="fill:#0370b8;stroke:#0370b8;" x="214.118057" xlink:href="#m139158e329" y="126.483394"/>
     <use style="fill:#0370b8;stroke:#0370b8;" x="219.341343" xlink:href="#m139158e329" y="127.061782"/>
     <use style="fill:#0370b8;stroke:#0370b8;" x="224.564629" xlink:href="#m139158e329" y="127.426712"/>
    </g>
   </g>
   <g id="patch_3">
    <path d="M 46.32 135.832068 
L 46.32 7.2 
" style="fill:none;stroke:#000000;stroke-linecap:square;stroke-linejoin:miter;stroke-width:0.8;"/>
   </g>
   <g id="patch_4">
    <path d="M 233.052468 135.832068 
L 233.052468 7.2 
" style="fill:none;stroke:#000000;stroke-linecap:square;stroke-linejoin:miter;stroke-width:0.8;"/>
   </g>
   <g id="patch_5">
    <path d="M 46.32 135.832068 
L 233.052468 135.832068 
" style="fill:none;stroke:#000000;stroke-linecap:square;stroke-linejoin:miter;stroke-width:0.8;"/>
   </g>
   <g id="patch_6">
    <path d="M 46.32 7.2 
L 233.052468 7.2 
" style="fill:none;stroke:#000000;stroke-linecap:square;stroke-linejoin:miter;stroke-width:0.8;"/>
   </g>
   <g id="legend_1">
    <g id="patch_7">
     <path d="M 184.332468 25.3425 
L 227.452468 25.3425 
Q 229.052468 25.3425 229.052468 23.7425 
L 229.052468 12.8 
Q 229.052468 11.2 227.452468 11.2 
L 184.332468 11.2 
Q 182.732468 11.2 182.732468 12.8 
L 182.732468 23.7425 
Q 182.732468 25.3425 184.332468 25.3425 
z
" style="fill:#ffffff;opacity:0.8;stroke:#cccccc;stroke-linejoin:miter;"/>
    </g>
    <g id="LineCollection_2">
     <path d="M 193.932468 21.67875 
L 193.932468 13.67875 
" style="fill:none;stroke:#0370b8;"/>
    </g>
    <g id="line2d_13"/>
    <g id="line2d_14">
     <g>
      <use style="fill:#0370b8;stroke:#0370b8;" x="193.932468" xlink:href="#m139158e329" y="17.67875"/>
     </g>
    </g>
    <g id="text_13">
     <!-- HMF -->
     <defs>
      <path d="M 9.8125 72.90625 
L 19.671875 72.90625 
L 19.671875 43.015625 
L 55.515625 43.015625 
L 55.515625 72.90625 
L 65.375 72.90625 
L 65.375 0 
L 55.515625 0 
L 55.515625 34.71875 
L 19.671875 34.71875 
L 19.671875 0 
L 9.8125 0 
z
" id="DejaVuSans-72"/>
      <path d="M 9.8125 72.90625 
L 51.703125 72.90625 
L 51.703125 64.59375 
L 19.671875 64.59375 
L 19.671875 43.109375 
L 48.578125 43.109375 
L 48.578125 34.8125 
L 19.671875 34.8125 
L 19.671875 0 
L 9.8125 0 
z
" id="DejaVuSans-70"/>
     </defs>
     <g transform="translate(208.332468 20.47875)scale(0.08 -0.08)">
      <use xlink:href="#DejaVuSans-72"/>
      <use x="75.195312" xlink:href="#DejaVuSans-77"/>
      <use x="161.474609" xlink:href="#DejaVuSans-70"/>
     </g>
    </g>
   </g>
  </g>
 </g>
 <defs>
  <clipPath id="p323c74b022">
   <rect height="128.632068" width="186.732468" x="46.32" y="7.2"/>
  </clipPath>
 </defs>
</svg>
