<?xml version="1.0" encoding="utf-8" standalone="no"?>
<!DOCTYPE svg PUBLIC "-//W3C//DTD SVG 1.1//EN"
  "http://www.w3.org/Graphics/SVG/1.1/DTD/svg11.dtd">
<!-- Created with matplotlib (https://matplotlib.org/) -->
<svg height="242.387875pt" version="1.1" viewBox="0 0 332.539375 242.387875" width="332.539375pt" xmlns="http://www.w3.org/2000/svg" xmlns:xlink="http://www.w3.org/1999/xlink">
 <defs>
  <style type="text/css">
*{stroke-linecap:butt;stroke-linejoin:round;}
  </style>
 </defs>
 <g id="figure_1">
  <g id="patch_1">
   <path d="M 0 242.387875 
L 332.539375 242.387875 
L 332.539375 0 
L 0 0 
z
" style="fill:#ffffff;"/>
  </g>
  <g id="axes_1">
   <g id="patch_2">
    <path d="M 46.339375 202.896 
L 325.339375 202.896 
L 325.339375 7.2 
L 46.339375 7.2 
z
" style="fill:#ffffff;"/>
   </g>
   <g id="matplotlib.axis_1">
    <g id="xtick_1">
     <g id="line2d_1">
      <defs>
       <path d="M 0 0 
L 0 3.5 
" id="ma25e51d3c3" style="stroke:#000000;stroke-width:0.8;"/>
      </defs>
      <g>
       <use style="stroke:#000000;stroke-width:0.8;" x="59.021193" xlink:href="#ma25e51d3c3" y="202.896"/>
      </g>
     </g>
     <g id="text_1">
      <!-- 0 -->
      <defs>
       <path d="M 31.78125 66.40625 
Q 24.171875 66.40625 20.328125 58.90625 
Q 16.5 51.421875 16.5 36.375 
Q 16.5 21.390625 20.328125 13.890625 
Q 24.171875 6.390625 31.78125 6.390625 
Q 39.453125 6.390625 43.28125 13.890625 
Q 47.125 21.390625 47.125 36.375 
Q 47.125 51.421875 43.28125 58.90625 
Q 39.453125 66.40625 31.78125 66.40625 
z
M 31.78125 74.21875 
Q 44.046875 74.21875 50.515625 64.515625 
Q 56.984375 54.828125 56.984375 36.375 
Q 56.984375 17.96875 50.515625 8.265625 
Q 44.046875 -1.421875 31.78125 -1.421875 
Q 19.53125 -1.421875 13.0625 8.265625 
Q 6.59375 17.96875 6.59375 36.375 
Q 6.59375 54.828125 13.0625 64.515625 
Q 19.53125 74.21875 31.78125 74.21875 
z
" id="DejaVuSans-48"/>
      </defs>
      <g transform="translate(55.521818 218.254281)scale(0.11 -0.11)">
       <use xlink:href="#DejaVuSans-48"/>
      </g>
     </g>
    </g>
    <g id="xtick_2">
     <g id="line2d_2">
      <g>
       <use style="stroke:#000000;stroke-width:0.8;" x="109.748466" xlink:href="#ma25e51d3c3" y="202.896"/>
      </g>
     </g>
     <g id="text_2">
      <!-- 20 -->
      <defs>
       <path d="M 19.1875 8.296875 
L 53.609375 8.296875 
L 53.609375 0 
L 7.328125 0 
L 7.328125 8.296875 
Q 12.9375 14.109375 22.625 23.890625 
Q 32.328125 33.6875 34.8125 36.53125 
Q 39.546875 41.84375 41.421875 45.53125 
Q 43.3125 49.21875 43.3125 52.78125 
Q 43.3125 58.59375 39.234375 62.25 
Q 35.15625 65.921875 28.609375 65.921875 
Q 23.96875 65.921875 18.8125 64.3125 
Q 13.671875 62.703125 7.8125 59.421875 
L 7.8125 69.390625 
Q 13.765625 71.78125 18.9375 73 
Q 24.125 74.21875 28.421875 74.21875 
Q 39.75 74.21875 46.484375 68.546875 
Q 53.21875 62.890625 53.21875 53.421875 
Q 53.21875 48.921875 51.53125 44.890625 
Q 49.859375 40.875 45.40625 35.40625 
Q 44.1875 33.984375 37.640625 27.21875 
Q 31.109375 20.453125 19.1875 8.296875 
z
" id="DejaVuSans-50"/>
      </defs>
      <g transform="translate(102.749716 218.254281)scale(0.11 -0.11)">
       <use xlink:href="#DejaVuSans-50"/>
       <use x="63.623047" xlink:href="#DejaVuSans-48"/>
      </g>
     </g>
    </g>
    <g id="xtick_3">
     <g id="line2d_3">
      <g>
       <use style="stroke:#000000;stroke-width:0.8;" x="160.475739" xlink:href="#ma25e51d3c3" y="202.896"/>
      </g>
     </g>
     <g id="text_3">
      <!-- 40 -->
      <defs>
       <path d="M 37.796875 64.3125 
L 12.890625 25.390625 
L 37.796875 25.390625 
z
M 35.203125 72.90625 
L 47.609375 72.90625 
L 47.609375 25.390625 
L 58.015625 25.390625 
L 58.015625 17.1875 
L 47.609375 17.1875 
L 47.609375 0 
L 37.796875 0 
L 37.796875 17.1875 
L 4.890625 17.1875 
L 4.890625 26.703125 
z
" id="DejaVuSans-52"/>
      </defs>
      <g transform="translate(153.476989 218.254281)scale(0.11 -0.11)">
       <use xlink:href="#DejaVuSans-52"/>
       <use x="63.623047" xlink:href="#DejaVuSans-48"/>
      </g>
     </g>
    </g>
    <g id="xtick_4">
     <g id="line2d_4">
      <g>
       <use style="stroke:#000000;stroke-width:0.8;" x="211.203011" xlink:href="#ma25e51d3c3" y="202.896"/>
      </g>
     </g>
     <g id="text_4">
      <!-- 60 -->
      <defs>
       <path d="M 33.015625 40.375 
Q 26.375 40.375 22.484375 35.828125 
Q 18.609375 31.296875 18.609375 23.390625 
Q 18.609375 15.53125 22.484375 10.953125 
Q 26.375 6.390625 33.015625 6.390625 
Q 39.65625 6.390625 43.53125 10.953125 
Q 47.40625 15.53125 47.40625 23.390625 
Q 47.40625 31.296875 43.53125 35.828125 
Q 39.65625 40.375 33.015625 40.375 
z
M 52.59375 71.296875 
L 52.59375 62.3125 
Q 48.875 64.0625 45.09375 64.984375 
Q 41.3125 65.921875 37.59375 65.921875 
Q 27.828125 65.921875 22.671875 59.328125 
Q 17.53125 52.734375 16.796875 39.40625 
Q 19.671875 43.65625 24.015625 45.921875 
Q 28.375 48.1875 33.59375 48.1875 
Q 44.578125 48.1875 50.953125 41.515625 
Q 57.328125 34.859375 57.328125 23.390625 
Q 57.328125 12.15625 50.6875 5.359375 
Q 44.046875 -1.421875 33.015625 -1.421875 
Q 20.359375 -1.421875 13.671875 8.265625 
Q 6.984375 17.96875 6.984375 36.375 
Q 6.984375 53.65625 15.1875 63.9375 
Q 23.390625 74.21875 37.203125 74.21875 
Q 40.921875 74.21875 44.703125 73.484375 
Q 48.484375 72.75 52.59375 71.296875 
z
" id="DejaVuSans-54"/>
      </defs>
      <g transform="translate(204.204261 218.254281)scale(0.11 -0.11)">
       <use xlink:href="#DejaVuSans-54"/>
       <use x="63.623047" xlink:href="#DejaVuSans-48"/>
      </g>
     </g>
    </g>
    <g id="xtick_5">
     <g id="line2d_5">
      <g>
       <use style="stroke:#000000;stroke-width:0.8;" x="261.930284" xlink:href="#ma25e51d3c3" y="202.896"/>
      </g>
     </g>
     <g id="text_5">
      <!-- 80 -->
      <defs>
       <path d="M 31.78125 34.625 
Q 24.75 34.625 20.71875 30.859375 
Q 16.703125 27.09375 16.703125 20.515625 
Q 16.703125 13.921875 20.71875 10.15625 
Q 24.75 6.390625 31.78125 6.390625 
Q 38.8125 6.390625 42.859375 10.171875 
Q 46.921875 13.96875 46.921875 20.515625 
Q 46.921875 27.09375 42.890625 30.859375 
Q 38.875 34.625 31.78125 34.625 
z
M 21.921875 38.8125 
Q 15.578125 40.375 12.03125 44.71875 
Q 8.5 49.078125 8.5 55.328125 
Q 8.5 64.0625 14.71875 69.140625 
Q 20.953125 74.21875 31.78125 74.21875 
Q 42.671875 74.21875 48.875 69.140625 
Q 55.078125 64.0625 55.078125 55.328125 
Q 55.078125 49.078125 51.53125 44.71875 
Q 48 40.375 41.703125 38.8125 
Q 48.828125 37.15625 52.796875 32.3125 
Q 56.78125 27.484375 56.78125 20.515625 
Q 56.78125 9.90625 50.3125 4.234375 
Q 43.84375 -1.421875 31.78125 -1.421875 
Q 19.734375 -1.421875 13.25 4.234375 
Q 6.78125 9.90625 6.78125 20.515625 
Q 6.78125 27.484375 10.78125 32.3125 
Q 14.796875 37.15625 21.921875 38.8125 
z
M 18.3125 54.390625 
Q 18.3125 48.734375 21.84375 45.5625 
Q 25.390625 42.390625 31.78125 42.390625 
Q 38.140625 42.390625 41.71875 45.5625 
Q 45.3125 48.734375 45.3125 54.390625 
Q 45.3125 60.0625 41.71875 63.234375 
Q 38.140625 66.40625 31.78125 66.40625 
Q 25.390625 66.40625 21.84375 63.234375 
Q 18.3125 60.0625 18.3125 54.390625 
z
" id="DejaVuSans-56"/>
      </defs>
      <g transform="translate(254.931534 218.254281)scale(0.11 -0.11)">
       <use xlink:href="#DejaVuSans-56"/>
       <use x="63.623047" xlink:href="#DejaVuSans-48"/>
      </g>
     </g>
    </g>
    <g id="xtick_6">
     <g id="line2d_6">
      <g>
       <use style="stroke:#000000;stroke-width:0.8;" x="312.657557" xlink:href="#ma25e51d3c3" y="202.896"/>
      </g>
     </g>
     <g id="text_6">
      <!-- 100 -->
      <defs>
       <path d="M 12.40625 8.296875 
L 28.515625 8.296875 
L 28.515625 63.921875 
L 10.984375 60.40625 
L 10.984375 69.390625 
L 28.421875 72.90625 
L 38.28125 72.90625 
L 38.28125 8.296875 
L 54.390625 8.296875 
L 54.390625 0 
L 12.40625 0 
z
" id="DejaVuSans-49"/>
      </defs>
      <g transform="translate(302.159432 218.254281)scale(0.11 -0.11)">
       <use xlink:href="#DejaVuSans-49"/>
       <use x="63.623047" xlink:href="#DejaVuSans-48"/>
       <use x="127.246094" xlink:href="#DejaVuSans-48"/>
      </g>
     </g>
    </g>
    <g id="text_7">
     <!-- Time [a.u.] -->
     <defs>
      <path d="M -0.296875 72.90625 
L 61.375 72.90625 
L 61.375 64.59375 
L 35.5 64.59375 
L 35.5 0 
L 25.59375 0 
L 25.59375 64.59375 
L -0.296875 64.59375 
z
" id="DejaVuSans-84"/>
      <path d="M 9.421875 54.6875 
L 18.40625 54.6875 
L 18.40625 0 
L 9.421875 0 
z
M 9.421875 75.984375 
L 18.40625 75.984375 
L 18.40625 64.59375 
L 9.421875 64.59375 
z
" id="DejaVuSans-105"/>
      <path d="M 52 44.1875 
Q 55.375 50.25 60.0625 53.125 
Q 64.75 56 71.09375 56 
Q 79.640625 56 84.28125 50.015625 
Q 88.921875 44.046875 88.921875 33.015625 
L 88.921875 0 
L 79.890625 0 
L 79.890625 32.71875 
Q 79.890625 40.578125 77.09375 44.375 
Q 74.3125 48.1875 68.609375 48.1875 
Q 61.625 48.1875 57.5625 43.546875 
Q 53.515625 38.921875 53.515625 30.90625 
L 53.515625 0 
L 44.484375 0 
L 44.484375 32.71875 
Q 44.484375 40.625 41.703125 44.40625 
Q 38.921875 48.1875 33.109375 48.1875 
Q 26.21875 48.1875 22.15625 43.53125 
Q 18.109375 38.875 18.109375 30.90625 
L 18.109375 0 
L 9.078125 0 
L 9.078125 54.6875 
L 18.109375 54.6875 
L 18.109375 46.1875 
Q 21.1875 51.21875 25.484375 53.609375 
Q 29.78125 56 35.6875 56 
Q 41.65625 56 45.828125 52.96875 
Q 50 49.953125 52 44.1875 
z
" id="DejaVuSans-109"/>
      <path d="M 56.203125 29.59375 
L 56.203125 25.203125 
L 14.890625 25.203125 
Q 15.484375 15.921875 20.484375 11.0625 
Q 25.484375 6.203125 34.421875 6.203125 
Q 39.59375 6.203125 44.453125 7.46875 
Q 49.3125 8.734375 54.109375 11.28125 
L 54.109375 2.78125 
Q 49.265625 0.734375 44.1875 -0.34375 
Q 39.109375 -1.421875 33.890625 -1.421875 
Q 20.796875 -1.421875 13.15625 6.1875 
Q 5.515625 13.8125 5.515625 26.8125 
Q 5.515625 40.234375 12.765625 48.109375 
Q 20.015625 56 32.328125 56 
Q 43.359375 56 49.78125 48.890625 
Q 56.203125 41.796875 56.203125 29.59375 
z
M 47.21875 32.234375 
Q 47.125 39.59375 43.09375 43.984375 
Q 39.0625 48.390625 32.421875 48.390625 
Q 24.90625 48.390625 20.390625 44.140625 
Q 15.875 39.890625 15.1875 32.171875 
z
" id="DejaVuSans-101"/>
      <path id="DejaVuSans-32"/>
      <path d="M 8.59375 75.984375 
L 29.296875 75.984375 
L 29.296875 69 
L 17.578125 69 
L 17.578125 -6.203125 
L 29.296875 -6.203125 
L 29.296875 -13.1875 
L 8.59375 -13.1875 
z
" id="DejaVuSans-91"/>
      <path d="M 34.28125 27.484375 
Q 23.390625 27.484375 19.1875 25 
Q 14.984375 22.515625 14.984375 16.5 
Q 14.984375 11.71875 18.140625 8.90625 
Q 21.296875 6.109375 26.703125 6.109375 
Q 34.1875 6.109375 38.703125 11.40625 
Q 43.21875 16.703125 43.21875 25.484375 
L 43.21875 27.484375 
z
M 52.203125 31.203125 
L 52.203125 0 
L 43.21875 0 
L 43.21875 8.296875 
Q 40.140625 3.328125 35.546875 0.953125 
Q 30.953125 -1.421875 24.3125 -1.421875 
Q 15.921875 -1.421875 10.953125 3.296875 
Q 6 8.015625 6 15.921875 
Q 6 25.140625 12.171875 29.828125 
Q 18.359375 34.515625 30.609375 34.515625 
L 43.21875 34.515625 
L 43.21875 35.40625 
Q 43.21875 41.609375 39.140625 45 
Q 35.0625 48.390625 27.6875 48.390625 
Q 23 48.390625 18.546875 47.265625 
Q 14.109375 46.140625 10.015625 43.890625 
L 10.015625 52.203125 
Q 14.9375 54.109375 19.578125 55.046875 
Q 24.21875 56 28.609375 56 
Q 40.484375 56 46.34375 49.84375 
Q 52.203125 43.703125 52.203125 31.203125 
z
" id="DejaVuSans-97"/>
      <path d="M 10.6875 12.40625 
L 21 12.40625 
L 21 0 
L 10.6875 0 
z
" id="DejaVuSans-46"/>
      <path d="M 8.5 21.578125 
L 8.5 54.6875 
L 17.484375 54.6875 
L 17.484375 21.921875 
Q 17.484375 14.15625 20.5 10.265625 
Q 23.53125 6.390625 29.59375 6.390625 
Q 36.859375 6.390625 41.078125 11.03125 
Q 45.3125 15.671875 45.3125 23.6875 
L 45.3125 54.6875 
L 54.296875 54.6875 
L 54.296875 0 
L 45.3125 0 
L 45.3125 8.40625 
Q 42.046875 3.421875 37.71875 1 
Q 33.40625 -1.421875 27.6875 -1.421875 
Q 18.265625 -1.421875 13.375 4.4375 
Q 8.5 10.296875 8.5 21.578125 
z
M 31.109375 56 
z
" id="DejaVuSans-117"/>
      <path d="M 30.421875 75.984375 
L 30.421875 -13.1875 
L 9.71875 -13.1875 
L 9.71875 -6.203125 
L 21.390625 -6.203125 
L 21.390625 69 
L 9.71875 69 
L 9.71875 75.984375 
z
" id="DejaVuSans-93"/>
     </defs>
     <g transform="translate(155.821406 232.900219)scale(0.11 -0.11)">
      <use xlink:href="#DejaVuSans-84"/>
      <use x="61.037109" xlink:href="#DejaVuSans-105"/>
      <use x="88.820312" xlink:href="#DejaVuSans-109"/>
      <use x="186.232422" xlink:href="#DejaVuSans-101"/>
      <use x="247.755859" xlink:href="#DejaVuSans-32"/>
      <use x="279.542969" xlink:href="#DejaVuSans-91"/>
      <use x="318.556641" xlink:href="#DejaVuSans-97"/>
      <use x="379.835938" xlink:href="#DejaVuSans-46"/>
      <use x="411.623047" xlink:href="#DejaVuSans-117"/>
      <use x="475.001953" xlink:href="#DejaVuSans-46"/>
      <use x="506.789062" xlink:href="#DejaVuSans-93"/>
     </g>
    </g>
   </g>
   <g id="matplotlib.axis_2">
    <g id="ytick_1">
     <g id="line2d_7">
      <defs>
       <path d="M 0 0 
L -3.5 0 
" id="mbb75ab6da0" style="stroke:#000000;stroke-width:0.8;"/>
      </defs>
      <g>
       <use style="stroke:#000000;stroke-width:0.8;" x="46.339375" xlink:href="#mbb75ab6da0" y="194.000727"/>
      </g>
     </g>
     <g id="text_8">
      <!-- 0.0 -->
      <g transform="translate(21.845938 198.179868)scale(0.11 -0.11)">
       <use xlink:href="#DejaVuSans-48"/>
       <use x="63.623047" xlink:href="#DejaVuSans-46"/>
       <use x="95.410156" xlink:href="#DejaVuSans-48"/>
      </g>
     </g>
    </g>
    <g id="ytick_2">
     <g id="line2d_8">
      <g>
       <use style="stroke:#000000;stroke-width:0.8;" x="46.339375" xlink:href="#mbb75ab6da0" y="159.977459"/>
      </g>
     </g>
     <g id="text_9">
      <!-- 0.2 -->
      <g transform="translate(21.845938 164.1566)scale(0.11 -0.11)">
       <use xlink:href="#DejaVuSans-48"/>
       <use x="63.623047" xlink:href="#DejaVuSans-46"/>
       <use x="95.410156" xlink:href="#DejaVuSans-50"/>
      </g>
     </g>
    </g>
    <g id="ytick_3">
     <g id="line2d_9">
      <g>
       <use style="stroke:#000000;stroke-width:0.8;" x="46.339375" xlink:href="#mbb75ab6da0" y="125.954191"/>
      </g>
     </g>
     <g id="text_10">
      <!-- 0.4 -->
      <g transform="translate(21.845938 130.133332)scale(0.11 -0.11)">
       <use xlink:href="#DejaVuSans-48"/>
       <use x="63.623047" xlink:href="#DejaVuSans-46"/>
       <use x="95.410156" xlink:href="#DejaVuSans-52"/>
      </g>
     </g>
    </g>
    <g id="ytick_4">
     <g id="line2d_10">
      <g>
       <use style="stroke:#000000;stroke-width:0.8;" x="46.339375" xlink:href="#mbb75ab6da0" y="91.930923"/>
      </g>
     </g>
     <g id="text_11">
      <!-- 0.6 -->
      <g transform="translate(21.845938 96.110064)scale(0.11 -0.11)">
       <use xlink:href="#DejaVuSans-48"/>
       <use x="63.623047" xlink:href="#DejaVuSans-46"/>
       <use x="95.410156" xlink:href="#DejaVuSans-54"/>
      </g>
     </g>
    </g>
    <g id="ytick_5">
     <g id="line2d_11">
      <g>
       <use style="stroke:#000000;stroke-width:0.8;" x="46.339375" xlink:href="#mbb75ab6da0" y="57.907655"/>
      </g>
     </g>
     <g id="text_12">
      <!-- 0.8 -->
      <g transform="translate(21.845938 62.086795)scale(0.11 -0.11)">
       <use xlink:href="#DejaVuSans-48"/>
       <use x="63.623047" xlink:href="#DejaVuSans-46"/>
       <use x="95.410156" xlink:href="#DejaVuSans-56"/>
      </g>
     </g>
    </g>
    <g id="ytick_6">
     <g id="line2d_12">
      <g>
       <use style="stroke:#000000;stroke-width:0.8;" x="46.339375" xlink:href="#mbb75ab6da0" y="23.884387"/>
      </g>
     </g>
     <g id="text_13">
      <!-- 1.0 -->
      <g transform="translate(21.845938 28.063527)scale(0.11 -0.11)">
       <use xlink:href="#DejaVuSans-49"/>
       <use x="63.623047" xlink:href="#DejaVuSans-46"/>
       <use x="95.410156" xlink:href="#DejaVuSans-48"/>
      </g>
     </g>
    </g>
    <g id="text_14">
     <!-- Concentration [a.u.] -->
     <defs>
      <path d="M 64.40625 67.28125 
L 64.40625 56.890625 
Q 59.421875 61.53125 53.78125 63.8125 
Q 48.140625 66.109375 41.796875 66.109375 
Q 29.296875 66.109375 22.65625 58.46875 
Q 16.015625 50.828125 16.015625 36.375 
Q 16.015625 21.96875 22.65625 14.328125 
Q 29.296875 6.6875 41.796875 6.6875 
Q 48.140625 6.6875 53.78125 8.984375 
Q 59.421875 11.28125 64.40625 15.921875 
L 64.40625 5.609375 
Q 59.234375 2.09375 53.4375 0.328125 
Q 47.65625 -1.421875 41.21875 -1.421875 
Q 24.65625 -1.421875 15.125 8.703125 
Q 5.609375 18.84375 5.609375 36.375 
Q 5.609375 53.953125 15.125 64.078125 
Q 24.65625 74.21875 41.21875 74.21875 
Q 47.75 74.21875 53.53125 72.484375 
Q 59.328125 70.75 64.40625 67.28125 
z
" id="DejaVuSans-67"/>
      <path d="M 30.609375 48.390625 
Q 23.390625 48.390625 19.1875 42.75 
Q 14.984375 37.109375 14.984375 27.296875 
Q 14.984375 17.484375 19.15625 11.84375 
Q 23.34375 6.203125 30.609375 6.203125 
Q 37.796875 6.203125 41.984375 11.859375 
Q 46.1875 17.53125 46.1875 27.296875 
Q 46.1875 37.015625 41.984375 42.703125 
Q 37.796875 48.390625 30.609375 48.390625 
z
M 30.609375 56 
Q 42.328125 56 49.015625 48.375 
Q 55.71875 40.765625 55.71875 27.296875 
Q 55.71875 13.875 49.015625 6.21875 
Q 42.328125 -1.421875 30.609375 -1.421875 
Q 18.84375 -1.421875 12.171875 6.21875 
Q 5.515625 13.875 5.515625 27.296875 
Q 5.515625 40.765625 12.171875 48.375 
Q 18.84375 56 30.609375 56 
z
" id="DejaVuSans-111"/>
      <path d="M 54.890625 33.015625 
L 54.890625 0 
L 45.90625 0 
L 45.90625 32.71875 
Q 45.90625 40.484375 42.875 44.328125 
Q 39.84375 48.1875 33.796875 48.1875 
Q 26.515625 48.1875 22.3125 43.546875 
Q 18.109375 38.921875 18.109375 30.90625 
L 18.109375 0 
L 9.078125 0 
L 9.078125 54.6875 
L 18.109375 54.6875 
L 18.109375 46.1875 
Q 21.34375 51.125 25.703125 53.5625 
Q 30.078125 56 35.796875 56 
Q 45.21875 56 50.046875 50.171875 
Q 54.890625 44.34375 54.890625 33.015625 
z
" id="DejaVuSans-110"/>
      <path d="M 48.78125 52.59375 
L 48.78125 44.1875 
Q 44.96875 46.296875 41.140625 47.34375 
Q 37.3125 48.390625 33.40625 48.390625 
Q 24.65625 48.390625 19.8125 42.84375 
Q 14.984375 37.3125 14.984375 27.296875 
Q 14.984375 17.28125 19.8125 11.734375 
Q 24.65625 6.203125 33.40625 6.203125 
Q 37.3125 6.203125 41.140625 7.25 
Q 44.96875 8.296875 48.78125 10.40625 
L 48.78125 2.09375 
Q 45.015625 0.34375 40.984375 -0.53125 
Q 36.96875 -1.421875 32.421875 -1.421875 
Q 20.0625 -1.421875 12.78125 6.34375 
Q 5.515625 14.109375 5.515625 27.296875 
Q 5.515625 40.671875 12.859375 48.328125 
Q 20.21875 56 33.015625 56 
Q 37.15625 56 41.109375 55.140625 
Q 45.0625 54.296875 48.78125 52.59375 
z
" id="DejaVuSans-99"/>
      <path d="M 18.3125 70.21875 
L 18.3125 54.6875 
L 36.8125 54.6875 
L 36.8125 47.703125 
L 18.3125 47.703125 
L 18.3125 18.015625 
Q 18.3125 11.328125 20.140625 9.421875 
Q 21.96875 7.515625 27.59375 7.515625 
L 36.8125 7.515625 
L 36.8125 0 
L 27.59375 0 
Q 17.1875 0 13.234375 3.875 
Q 9.28125 7.765625 9.28125 18.015625 
L 9.28125 47.703125 
L 2.6875 47.703125 
L 2.6875 54.6875 
L 9.28125 54.6875 
L 9.28125 70.21875 
z
" id="DejaVuSans-116"/>
      <path d="M 41.109375 46.296875 
Q 39.59375 47.171875 37.8125 47.578125 
Q 36.03125 48 33.890625 48 
Q 26.265625 48 22.1875 43.046875 
Q 18.109375 38.09375 18.109375 28.8125 
L 18.109375 0 
L 9.078125 0 
L 9.078125 54.6875 
L 18.109375 54.6875 
L 18.109375 46.1875 
Q 20.953125 51.171875 25.484375 53.578125 
Q 30.03125 56 36.53125 56 
Q 37.453125 56 38.578125 55.875 
Q 39.703125 55.765625 41.0625 55.515625 
z
" id="DejaVuSans-114"/>
     </defs>
     <g transform="translate(15.558281 160.347922)rotate(-90)scale(0.11 -0.11)">
      <use xlink:href="#DejaVuSans-67"/>
      <use x="69.824219" xlink:href="#DejaVuSans-111"/>
      <use x="131.005859" xlink:href="#DejaVuSans-110"/>
      <use x="194.384766" xlink:href="#DejaVuSans-99"/>
      <use x="249.365234" xlink:href="#DejaVuSans-101"/>
      <use x="310.888672" xlink:href="#DejaVuSans-110"/>
      <use x="374.267578" xlink:href="#DejaVuSans-116"/>
      <use x="413.476562" xlink:href="#DejaVuSans-114"/>
      <use x="454.589844" xlink:href="#DejaVuSans-97"/>
      <use x="515.869141" xlink:href="#DejaVuSans-116"/>
      <use x="555.078125" xlink:href="#DejaVuSans-105"/>
      <use x="582.861328" xlink:href="#DejaVuSans-111"/>
      <use x="644.042969" xlink:href="#DejaVuSans-110"/>
      <use x="707.421875" xlink:href="#DejaVuSans-32"/>
      <use x="739.208984" xlink:href="#DejaVuSans-91"/>
      <use x="778.222656" xlink:href="#DejaVuSans-97"/>
      <use x="839.501953" xlink:href="#DejaVuSans-46"/>
      <use x="871.289062" xlink:href="#DejaVuSans-117"/>
      <use x="934.667969" xlink:href="#DejaVuSans-46"/>
      <use x="966.455078" xlink:href="#DejaVuSans-93"/>
     </g>
    </g>
   </g>
   <g id="line2d_13">
    <defs>
     <path d="M 0 1.5 
C 0.397805 1.5 0.77937 1.341951 1.06066 1.06066 
C 1.341951 0.77937 1.5 0.397805 1.5 0 
C 1.5 -0.397805 1.341951 -0.77937 1.06066 -1.06066 
C 0.77937 -1.341951 0.397805 -1.5 0 -1.5 
C -0.397805 -1.5 -0.77937 -1.341951 -1.06066 -1.06066 
C -1.341951 -0.77937 -1.5 -0.397805 -1.5 0 
C -1.5 0.397805 -1.341951 0.77937 -1.06066 1.06066 
C -0.77937 1.341951 -0.397805 1.5 0 1.5 
z
" id="mcafccff674" style="stroke:#0370b8;"/>
    </defs>
    <g clip-path="url(#ped3267adce)">
     <use style="fill:#0370b8;stroke:#0370b8;" x="59.021193" xlink:href="#mcafccff674" y="38.346187"/>
     <use style="fill:#0370b8;stroke:#0370b8;" x="64.197446" xlink:href="#mcafccff674" y="50.123486"/>
     <use style="fill:#0370b8;stroke:#0370b8;" x="69.373698" xlink:href="#mcafccff674" y="83.413923"/>
     <use style="fill:#0370b8;stroke:#0370b8;" x="74.54995" xlink:href="#mcafccff674" y="98.971001"/>
     <use style="fill:#0370b8;stroke:#0370b8;" x="79.726202" xlink:href="#mcafccff674" y="114.350915"/>
     <use style="fill:#0370b8;stroke:#0370b8;" x="84.902455" xlink:href="#mcafccff674" y="125.612311"/>
     <use style="fill:#0370b8;stroke:#0370b8;" x="90.078707" xlink:href="#mcafccff674" y="137.696331"/>
     <use style="fill:#0370b8;stroke:#0370b8;" x="95.254959" xlink:href="#mcafccff674" y="138.147447"/>
     <use style="fill:#0370b8;stroke:#0370b8;" x="100.431212" xlink:href="#mcafccff674" y="150.786963"/>
     <use style="fill:#0370b8;stroke:#0370b8;" x="105.607464" xlink:href="#mcafccff674" y="152.851214"/>
     <use style="fill:#0370b8;stroke:#0370b8;" x="110.783716" xlink:href="#mcafccff674" y="156.019033"/>
     <use style="fill:#0370b8;stroke:#0370b8;" x="115.959969" xlink:href="#mcafccff674" y="162.157045"/>
     <use style="fill:#0370b8;stroke:#0370b8;" x="121.136221" xlink:href="#mcafccff674" y="164.428668"/>
     <use style="fill:#0370b8;stroke:#0370b8;" x="126.312473" xlink:href="#mcafccff674" y="166.378215"/>
     <use style="fill:#0370b8;stroke:#0370b8;" x="131.488726" xlink:href="#mcafccff674" y="164.75096"/>
     <use style="fill:#0370b8;stroke:#0370b8;" x="136.664978" xlink:href="#mcafccff674" y="169.303117"/>
     <use style="fill:#0370b8;stroke:#0370b8;" x="141.84123" xlink:href="#mcafccff674" y="168.436411"/>
     <use style="fill:#0370b8;stroke:#0370b8;" x="147.017483" xlink:href="#mcafccff674" y="173.004918"/>
     <use style="fill:#0370b8;stroke:#0370b8;" x="152.193735" xlink:href="#mcafccff674" y="170.593223"/>
     <use style="fill:#0370b8;stroke:#0370b8;" x="157.369987" xlink:href="#mcafccff674" y="170.732862"/>
     <use style="fill:#0370b8;stroke:#0370b8;" x="162.54624" xlink:href="#mcafccff674" y="174.284923"/>
     <use style="fill:#0370b8;stroke:#0370b8;" x="167.722492" xlink:href="#mcafccff674" y="175.797339"/>
     <use style="fill:#0370b8;stroke:#0370b8;" x="172.898744" xlink:href="#mcafccff674" y="175.686559"/>
     <use style="fill:#0370b8;stroke:#0370b8;" x="178.074997" xlink:href="#mcafccff674" y="174.212891"/>
     <use style="fill:#0370b8;stroke:#0370b8;" x="183.251249" xlink:href="#mcafccff674" y="177.464941"/>
     <use style="fill:#0370b8;stroke:#0370b8;" x="188.427501" xlink:href="#mcafccff674" y="176.675508"/>
     <use style="fill:#0370b8;stroke:#0370b8;" x="193.603753" xlink:href="#mcafccff674" y="177.668349"/>
     <use style="fill:#0370b8;stroke:#0370b8;" x="198.780006" xlink:href="#mcafccff674" y="179.39697"/>
     <use style="fill:#0370b8;stroke:#0370b8;" x="203.956258" xlink:href="#mcafccff674" y="179.055572"/>
     <use style="fill:#0370b8;stroke:#0370b8;" x="209.13251" xlink:href="#mcafccff674" y="178.466241"/>
     <use style="fill:#0370b8;stroke:#0370b8;" x="214.308763" xlink:href="#mcafccff674" y="179.871199"/>
     <use style="fill:#0370b8;stroke:#0370b8;" x="219.485015" xlink:href="#mcafccff674" y="179.567123"/>
     <use style="fill:#0370b8;stroke:#0370b8;" x="224.661267" xlink:href="#mcafccff674" y="181.30962"/>
     <use style="fill:#0370b8;stroke:#0370b8;" x="229.83752" xlink:href="#mcafccff674" y="181.849221"/>
     <use style="fill:#0370b8;stroke:#0370b8;" x="235.013772" xlink:href="#mcafccff674" y="181.41575"/>
     <use style="fill:#0370b8;stroke:#0370b8;" x="240.190024" xlink:href="#mcafccff674" y="182.60179"/>
     <use style="fill:#0370b8;stroke:#0370b8;" x="245.366277" xlink:href="#mcafccff674" y="182.666838"/>
     <use style="fill:#0370b8;stroke:#0370b8;" x="250.542529" xlink:href="#mcafccff674" y="182.180929"/>
     <use style="fill:#0370b8;stroke:#0370b8;" x="255.718781" xlink:href="#mcafccff674" y="184.102583"/>
     <use style="fill:#0370b8;stroke:#0370b8;" x="260.895034" xlink:href="#mcafccff674" y="183.893654"/>
     <use style="fill:#0370b8;stroke:#0370b8;" x="266.071286" xlink:href="#mcafccff674" y="184.593747"/>
     <use style="fill:#0370b8;stroke:#0370b8;" x="271.247538" xlink:href="#mcafccff674" y="183.515717"/>
     <use style="fill:#0370b8;stroke:#0370b8;" x="276.423791" xlink:href="#mcafccff674" y="184.668782"/>
     <use style="fill:#0370b8;stroke:#0370b8;" x="281.600043" xlink:href="#mcafccff674" y="185.375082"/>
     <use style="fill:#0370b8;stroke:#0370b8;" x="286.776295" xlink:href="#mcafccff674" y="185.916001"/>
     <use style="fill:#0370b8;stroke:#0370b8;" x="291.952548" xlink:href="#mcafccff674" y="184.725415"/>
     <use style="fill:#0370b8;stroke:#0370b8;" x="297.1288" xlink:href="#mcafccff674" y="185.592211"/>
     <use style="fill:#0370b8;stroke:#0370b8;" x="302.305052" xlink:href="#mcafccff674" y="186.015133"/>
     <use style="fill:#0370b8;stroke:#0370b8;" x="307.481304" xlink:href="#mcafccff674" y="186.921624"/>
     <use style="fill:#0370b8;stroke:#0370b8;" x="312.657557" xlink:href="#mcafccff674" y="187.131274"/>
    </g>
   </g>
   <g id="line2d_14">
    <defs>
     <path d="M 0 1.5 
C 0.397805 1.5 0.77937 1.341951 1.06066 1.06066 
C 1.341951 0.77937 1.5 0.397805 1.5 0 
C 1.5 -0.397805 1.341951 -0.77937 1.06066 -1.06066 
C 0.77937 -1.341951 0.397805 -1.5 0 -1.5 
C -0.397805 -1.5 -0.77937 -1.341951 -1.06066 -1.06066 
C -1.341951 -0.77937 -1.5 -0.397805 -1.5 0 
C -1.5 0.397805 -1.341951 0.77937 -1.06066 1.06066 
C -0.77937 1.341951 -0.397805 1.5 0 1.5 
z
" id="mcc173290a0" style="stroke:#d56339;"/>
    </defs>
    <g clip-path="url(#ped3267adce)">
     <use style="fill:#d56339;stroke:#d56339;" x="59.021193" xlink:href="#mcc173290a0" y="194.000727"/>
     <use style="fill:#d56339;stroke:#d56339;" x="64.197446" xlink:href="#mcc173290a0" y="165.20858"/>
     <use style="fill:#d56339;stroke:#d56339;" x="69.373698" xlink:href="#mcc173290a0" y="137.209483"/>
     <use style="fill:#d56339;stroke:#d56339;" x="74.54995" xlink:href="#mcc173290a0" y="125.259881"/>
     <use style="fill:#d56339;stroke:#d56339;" x="79.726202" xlink:href="#mcc173290a0" y="120.200346"/>
     <use style="fill:#d56339;stroke:#d56339;" x="84.902455" xlink:href="#mcc173290a0" y="95.895898"/>
     <use style="fill:#d56339;stroke:#d56339;" x="90.078707" xlink:href="#mcc173290a0" y="99.173842"/>
     <use style="fill:#d56339;stroke:#d56339;" x="95.254959" xlink:href="#mcc173290a0" y="102.3645"/>
     <use style="fill:#d56339;stroke:#d56339;" x="100.431212" xlink:href="#mcc173290a0" y="85.020003"/>
     <use style="fill:#d56339;stroke:#d56339;" x="105.607464" xlink:href="#mcc173290a0" y="102.337252"/>
     <use style="fill:#d56339;stroke:#d56339;" x="110.783716" xlink:href="#mcc173290a0" y="92.117389"/>
     <use style="fill:#d56339;stroke:#d56339;" x="115.959969" xlink:href="#mcc173290a0" y="101.714915"/>
     <use style="fill:#d56339;stroke:#d56339;" x="121.136221" xlink:href="#mcc173290a0" y="104.968485"/>
     <use style="fill:#d56339;stroke:#d56339;" x="126.312473" xlink:href="#mcc173290a0" y="102.648392"/>
     <use style="fill:#d56339;stroke:#d56339;" x="131.488726" xlink:href="#mcc173290a0" y="91.969728"/>
     <use style="fill:#d56339;stroke:#d56339;" x="136.664978" xlink:href="#mcc173290a0" y="100.815043"/>
     <use style="fill:#d56339;stroke:#d56339;" x="141.84123" xlink:href="#mcc173290a0" y="94.675509"/>
     <use style="fill:#d56339;stroke:#d56339;" x="147.017483" xlink:href="#mcc173290a0" y="105.255424"/>
     <use style="fill:#d56339;stroke:#d56339;" x="152.193735" xlink:href="#mcc173290a0" y="112.981076"/>
     <use style="fill:#d56339;stroke:#d56339;" x="157.369987" xlink:href="#mcc173290a0" y="111.877188"/>
     <use style="fill:#d56339;stroke:#d56339;" x="162.54624" xlink:href="#mcc173290a0" y="111.032937"/>
     <use style="fill:#d56339;stroke:#d56339;" x="167.722492" xlink:href="#mcc173290a0" y="112.17486"/>
     <use style="fill:#d56339;stroke:#d56339;" x="172.898744" xlink:href="#mcc173290a0" y="122.088821"/>
     <use style="fill:#d56339;stroke:#d56339;" x="178.074997" xlink:href="#mcc173290a0" y="126.151833"/>
     <use style="fill:#d56339;stroke:#d56339;" x="183.251249" xlink:href="#mcc173290a0" y="116.919362"/>
     <use style="fill:#d56339;stroke:#d56339;" x="188.427501" xlink:href="#mcc173290a0" y="125.664733"/>
     <use style="fill:#d56339;stroke:#d56339;" x="193.603753" xlink:href="#mcc173290a0" y="120.537662"/>
     <use style="fill:#d56339;stroke:#d56339;" x="198.780006" xlink:href="#mcc173290a0" y="126.561042"/>
     <use style="fill:#d56339;stroke:#d56339;" x="203.956258" xlink:href="#mcc173290a0" y="131.638365"/>
     <use style="fill:#d56339;stroke:#d56339;" x="209.13251" xlink:href="#mcc173290a0" y="138.51289"/>
     <use style="fill:#d56339;stroke:#d56339;" x="214.308763" xlink:href="#mcc173290a0" y="132.954907"/>
     <use style="fill:#d56339;stroke:#d56339;" x="219.485015" xlink:href="#mcc173290a0" y="138.142375"/>
     <use style="fill:#d56339;stroke:#d56339;" x="224.661267" xlink:href="#mcc173290a0" y="144.053504"/>
     <use style="fill:#d56339;stroke:#d56339;" x="229.83752" xlink:href="#mcc173290a0" y="140.16292"/>
     <use style="fill:#d56339;stroke:#d56339;" x="235.013772" xlink:href="#mcc173290a0" y="139.968073"/>
     <use style="fill:#d56339;stroke:#d56339;" x="240.190024" xlink:href="#mcc173290a0" y="139.273917"/>
     <use style="fill:#d56339;stroke:#d56339;" x="245.366277" xlink:href="#mcc173290a0" y="148.784008"/>
     <use style="fill:#d56339;stroke:#d56339;" x="250.542529" xlink:href="#mcc173290a0" y="151.590043"/>
     <use style="fill:#d56339;stroke:#d56339;" x="255.718781" xlink:href="#mcc173290a0" y="148.587291"/>
     <use style="fill:#d56339;stroke:#d56339;" x="260.895034" xlink:href="#mcc173290a0" y="153.630938"/>
     <use style="fill:#d56339;stroke:#d56339;" x="266.071286" xlink:href="#mcc173290a0" y="148.751551"/>
     <use style="fill:#d56339;stroke:#d56339;" x="271.247538" xlink:href="#mcc173290a0" y="156.256287"/>
     <use style="fill:#d56339;stroke:#d56339;" x="276.423791" xlink:href="#mcc173290a0" y="155.780809"/>
     <use style="fill:#d56339;stroke:#d56339;" x="281.600043" xlink:href="#mcc173290a0" y="158.726104"/>
     <use style="fill:#d56339;stroke:#d56339;" x="286.776295" xlink:href="#mcc173290a0" y="159.027554"/>
     <use style="fill:#d56339;stroke:#d56339;" x="291.952548" xlink:href="#mcc173290a0" y="157.978914"/>
     <use style="fill:#d56339;stroke:#d56339;" x="297.1288" xlink:href="#mcc173290a0" y="162.37538"/>
     <use style="fill:#d56339;stroke:#d56339;" x="302.305052" xlink:href="#mcc173290a0" y="162.556102"/>
     <use style="fill:#d56339;stroke:#d56339;" x="307.481304" xlink:href="#mcc173290a0" y="161.214907"/>
     <use style="fill:#d56339;stroke:#d56339;" x="312.657557" xlink:href="#mcc173290a0" y="165.272531"/>
    </g>
   </g>
   <g id="line2d_15">
    <defs>
     <path d="M 0 1.5 
C 0.397805 1.5 0.77937 1.341951 1.06066 1.06066 
C 1.341951 0.77937 1.5 0.397805 1.5 0 
C 1.5 -0.397805 1.341951 -0.77937 1.06066 -1.06066 
C 0.77937 -1.341951 0.397805 -1.5 0 -1.5 
C -0.397805 -1.5 -0.77937 -1.341951 -1.06066 -1.06066 
C -1.341951 -0.77937 -1.5 -0.397805 -1.5 0 
C -1.5 0.397805 -1.341951 0.77937 -1.06066 1.06066 
C -0.77937 1.341951 -0.397805 1.5 0 1.5 
z
" id="m3e28d59cbe" style="stroke:#eeb92e;"/>
    </defs>
    <g clip-path="url(#ped3267adce)">
     <use style="fill:#eeb92e;stroke:#eeb92e;" x="59.021193" xlink:href="#m3e28d59cbe" y="157.788741"/>
     <use style="fill:#eeb92e;stroke:#eeb92e;" x="64.197446" xlink:href="#m3e28d59cbe" y="160.338312"/>
     <use style="fill:#eeb92e;stroke:#eeb92e;" x="69.373698" xlink:href="#m3e28d59cbe" y="156.29174"/>
     <use style="fill:#eeb92e;stroke:#eeb92e;" x="74.54995" xlink:href="#m3e28d59cbe" y="154.644829"/>
     <use style="fill:#eeb92e;stroke:#eeb92e;" x="79.726202" xlink:href="#m3e28d59cbe" y="150.297487"/>
     <use style="fill:#eeb92e;stroke:#eeb92e;" x="84.902455" xlink:href="#m3e28d59cbe" y="152.520051"/>
     <use style="fill:#eeb92e;stroke:#eeb92e;" x="90.078707" xlink:href="#m3e28d59cbe" y="144.375861"/>
     <use style="fill:#eeb92e;stroke:#eeb92e;" x="95.254959" xlink:href="#m3e28d59cbe" y="145.387885"/>
     <use style="fill:#eeb92e;stroke:#eeb92e;" x="100.431212" xlink:href="#m3e28d59cbe" y="133.879748"/>
     <use style="fill:#eeb92e;stroke:#eeb92e;" x="105.607464" xlink:href="#m3e28d59cbe" y="132.047925"/>
     <use style="fill:#eeb92e;stroke:#eeb92e;" x="110.783716" xlink:href="#m3e28d59cbe" y="129.250789"/>
     <use style="fill:#eeb92e;stroke:#eeb92e;" x="115.959969" xlink:href="#m3e28d59cbe" y="124.264164"/>
     <use style="fill:#eeb92e;stroke:#eeb92e;" x="121.136221" xlink:href="#m3e28d59cbe" y="118.037955"/>
     <use style="fill:#eeb92e;stroke:#eeb92e;" x="126.312473" xlink:href="#m3e28d59cbe" y="120.726204"/>
     <use style="fill:#eeb92e;stroke:#eeb92e;" x="131.488726" xlink:href="#m3e28d59cbe" y="111.053066"/>
     <use style="fill:#eeb92e;stroke:#eeb92e;" x="136.664978" xlink:href="#m3e28d59cbe" y="110.35565"/>
     <use style="fill:#eeb92e;stroke:#eeb92e;" x="141.84123" xlink:href="#m3e28d59cbe" y="105.519333"/>
     <use style="fill:#eeb92e;stroke:#eeb92e;" x="147.017483" xlink:href="#m3e28d59cbe" y="102.053794"/>
     <use style="fill:#eeb92e;stroke:#eeb92e;" x="152.193735" xlink:href="#m3e28d59cbe" y="97.519659"/>
     <use style="fill:#eeb92e;stroke:#eeb92e;" x="157.369987" xlink:href="#m3e28d59cbe" y="103.679261"/>
     <use style="fill:#eeb92e;stroke:#eeb92e;" x="162.54624" xlink:href="#m3e28d59cbe" y="85.508238"/>
     <use style="fill:#eeb92e;stroke:#eeb92e;" x="167.722492" xlink:href="#m3e28d59cbe" y="84.536451"/>
     <use style="fill:#eeb92e;stroke:#eeb92e;" x="172.898744" xlink:href="#m3e28d59cbe" y="86.043223"/>
     <use style="fill:#eeb92e;stroke:#eeb92e;" x="178.074997" xlink:href="#m3e28d59cbe" y="72.154665"/>
     <use style="fill:#eeb92e;stroke:#eeb92e;" x="183.251249" xlink:href="#m3e28d59cbe" y="88.782193"/>
     <use style="fill:#eeb92e;stroke:#eeb92e;" x="188.427501" xlink:href="#m3e28d59cbe" y="71.553157"/>
     <use style="fill:#eeb92e;stroke:#eeb92e;" x="193.603753" xlink:href="#m3e28d59cbe" y="73.920188"/>
     <use style="fill:#eeb92e;stroke:#eeb92e;" x="198.780006" xlink:href="#m3e28d59cbe" y="58.319294"/>
     <use style="fill:#eeb92e;stroke:#eeb92e;" x="203.956258" xlink:href="#m3e28d59cbe" y="60.061344"/>
     <use style="fill:#eeb92e;stroke:#eeb92e;" x="209.13251" xlink:href="#m3e28d59cbe" y="52.879329"/>
     <use style="fill:#eeb92e;stroke:#eeb92e;" x="214.308763" xlink:href="#m3e28d59cbe" y="52.324915"/>
     <use style="fill:#eeb92e;stroke:#eeb92e;" x="219.485015" xlink:href="#m3e28d59cbe" y="73.111065"/>
     <use style="fill:#eeb92e;stroke:#eeb92e;" x="224.661267" xlink:href="#m3e28d59cbe" y="58.553573"/>
     <use style="fill:#eeb92e;stroke:#eeb92e;" x="229.83752" xlink:href="#m3e28d59cbe" y="58.01493"/>
     <use style="fill:#eeb92e;stroke:#eeb92e;" x="235.013772" xlink:href="#m3e28d59cbe" y="65.296982"/>
     <use style="fill:#eeb92e;stroke:#eeb92e;" x="240.190024" xlink:href="#m3e28d59cbe" y="58.839426"/>
     <use style="fill:#eeb92e;stroke:#eeb92e;" x="245.366277" xlink:href="#m3e28d59cbe" y="40.833508"/>
     <use style="fill:#eeb92e;stroke:#eeb92e;" x="250.542529" xlink:href="#m3e28d59cbe" y="47.245072"/>
     <use style="fill:#eeb92e;stroke:#eeb92e;" x="255.718781" xlink:href="#m3e28d59cbe" y="32.904325"/>
     <use style="fill:#eeb92e;stroke:#eeb92e;" x="260.895034" xlink:href="#m3e28d59cbe" y="31.37536"/>
     <use style="fill:#eeb92e;stroke:#eeb92e;" x="266.071286" xlink:href="#m3e28d59cbe" y="35.77625"/>
     <use style="fill:#eeb92e;stroke:#eeb92e;" x="271.247538" xlink:href="#m3e28d59cbe" y="53.84871"/>
     <use style="fill:#eeb92e;stroke:#eeb92e;" x="276.423791" xlink:href="#m3e28d59cbe" y="44.500406"/>
     <use style="fill:#eeb92e;stroke:#eeb92e;" x="281.600043" xlink:href="#m3e28d59cbe" y="30.791072"/>
     <use style="fill:#eeb92e;stroke:#eeb92e;" x="286.776295" xlink:href="#m3e28d59cbe" y="42.31547"/>
     <use style="fill:#eeb92e;stroke:#eeb92e;" x="291.952548" xlink:href="#m3e28d59cbe" y="32.015901"/>
     <use style="fill:#eeb92e;stroke:#eeb92e;" x="297.1288" xlink:href="#m3e28d59cbe" y="19.637907"/>
     <use style="fill:#eeb92e;stroke:#eeb92e;" x="302.305052" xlink:href="#m3e28d59cbe" y="16.095273"/>
     <use style="fill:#eeb92e;stroke:#eeb92e;" x="307.481304" xlink:href="#m3e28d59cbe" y="33.211109"/>
     <use style="fill:#eeb92e;stroke:#eeb92e;" x="312.657557" xlink:href="#m3e28d59cbe" y="18.977951"/>
    </g>
   </g>
   <g id="line2d_16">
    <path clip-path="url(#ped3267adce)" d="M 59.021193 24.369809 
L 60.723451 35.439471 
L 62.425708 45.643125 
L 64.127966 55.05047 
L 65.830223 63.725567 
L 67.532481 71.727313 
L 69.234738 79.10984 
L 70.936996 85.922908 
L 72.639253 92.212258 
L 74.34151 98.019934 
L 76.043768 103.384584 
L 77.746025 108.341738 
L 79.448283 112.924058 
L 81.15054 117.161561 
L 82.852798 121.081842 
L 84.555055 124.710275 
L 86.257313 128.070177 
L 89.661828 134.068419 
L 93.066343 139.228139 
L 96.470858 143.677438 
L 99.875373 147.524583 
L 103.279888 150.861081 
L 106.684402 153.764288 
L 110.088917 156.299595 
L 113.493432 158.522287 
L 116.897947 160.479112 
L 120.302462 162.2096 
L 123.706977 163.747187 
L 128.81375 165.752539 
L 133.920522 167.464292 
L 139.027294 168.943033 
L 145.836324 170.632282 
L 152.645354 172.07428 
L 161.156642 173.619706 
L 171.370186 175.201802 
L 183.285989 176.784145 
L 196.904049 178.349704 
L 212.224366 179.888846 
L 230.949198 181.53152 
L 251.376288 183.088569 
L 273.505635 184.549162 
L 297.33724 185.901294 
L 312.657557 186.66595 
L 312.657557 186.66595 
" style="fill:none;stroke:#0370b8;stroke-linecap:square;stroke-width:1.5;"/>
   </g>
   <g id="line2d_17">
    <path clip-path="url(#ped3267adce)" d="M 59.021193 194.000727 
L 60.723451 183.007357 
L 62.425708 173.023187 
L 64.127966 163.965306 
L 65.830223 155.757527 
L 67.532481 148.329824 
L 69.234738 141.617853 
L 70.936996 135.562487 
L 72.639253 130.109391 
L 74.34151 125.208639 
L 76.043768 120.814353 
L 77.746025 116.884379 
L 79.448283 113.379977 
L 81.15054 110.265567 
L 82.852798 107.508448 
L 84.555055 105.078576 
L 86.257313 102.948352 
L 87.95957 101.09242 
L 89.661828 99.487485 
L 91.364085 98.112149 
L 93.066343 96.946755 
L 94.7686 95.973248 
L 96.470858 95.175045 
L 98.173115 94.536914 
L 99.875373 94.044867 
L 101.57763 93.68606 
L 104.982145 93.321942 
L 108.38666 93.361312 
L 111.791175 93.734005 
L 115.19569 94.380906 
L 118.600205 95.252237 
L 122.00472 96.306099 
L 127.111492 98.153608 
L 132.218265 100.237665 
L 139.027294 103.259094 
L 149.240839 108.064575 
L 171.370186 118.56657 
L 183.285989 123.9389 
L 193.499534 128.307138 
L 203.713078 132.440264 
L 213.926623 136.335771 
L 224.140168 139.998276 
L 234.353713 143.436299 
L 244.567258 146.660347 
L 256.48306 150.166469 
L 268.398862 153.415139 
L 280.314665 156.424271 
L 292.230467 159.210979 
L 304.146269 161.791399 
L 312.657557 163.516665 
L 312.657557 163.516665 
" style="fill:none;stroke:#d56339;stroke-linecap:square;stroke-width:1.5;"/>
   </g>
   <g id="line2d_18">
    <path clip-path="url(#ped3267adce)" d="M 59.021193 160.028685 
L 60.723451 159.952394 
L 62.425708 159.73291 
L 64.127966 159.383446 
L 67.532481 158.342085 
L 70.936996 156.913826 
L 74.34151 155.17065 
L 77.746025 153.173105 
L 82.852798 149.808932 
L 87.95957 146.123813 
L 94.7686 140.891575 
L 106.684402 131.339076 
L 122.00472 119.092495 
L 132.218265 111.239275 
L 140.729552 104.962786 
L 149.240839 98.954711 
L 157.752127 93.224001 
L 166.263414 87.771102 
L 174.774701 82.591173 
L 183.285989 77.676177 
L 191.797276 73.016243 
L 200.308564 68.600543 
L 208.819851 64.417851 
L 217.331138 60.456906 
L 225.842426 56.706629 
L 236.05597 52.469254 
L 246.269515 48.501933 
L 256.48306 44.787744 
L 266.696605 41.310712 
L 276.91015 38.055799 
L 287.123695 35.008879 
L 299.039497 31.699385 
L 310.955299 28.635364 
L 312.657557 28.216607 
L 312.657557 28.216607 
" style="fill:none;stroke:#eeb92e;stroke-linecap:square;stroke-width:1.5;"/>
   </g>
   <g id="patch_3">
    <path d="M 46.339375 202.896 
L 46.339375 7.2 
" style="fill:none;stroke:#000000;stroke-linecap:square;stroke-linejoin:miter;stroke-width:0.8;"/>
   </g>
   <g id="patch_4">
    <path d="M 325.339375 202.896 
L 325.339375 7.2 
" style="fill:none;stroke:#000000;stroke-linecap:square;stroke-linejoin:miter;stroke-width:0.8;"/>
   </g>
   <g id="patch_5">
    <path d="M 46.339375 202.896 
L 325.339375 202.896 
" style="fill:none;stroke:#000000;stroke-linecap:square;stroke-linejoin:miter;stroke-width:0.8;"/>
   </g>
   <g id="patch_6">
    <path d="M 46.339375 7.2 
L 325.339375 7.2 
" style="fill:none;stroke:#000000;stroke-linecap:square;stroke-linejoin:miter;stroke-width:0.8;"/>
   </g>
   <g id="legend_1">
    <g id="patch_7">
     <path d="M 274.758281 130.916906 
L 317.639375 130.916906 
Q 319.839375 130.916906 319.839375 128.716906 
L 319.839375 81.379094 
Q 319.839375 79.179094 317.639375 79.179094 
L 274.758281 79.179094 
Q 272.558281 79.179094 272.558281 81.379094 
L 272.558281 128.716906 
Q 272.558281 130.916906 274.758281 130.916906 
z
" style="fill:#ffffff;opacity:0.8;stroke:#cccccc;stroke-linejoin:miter;"/>
    </g>
    <g id="line2d_19"/>
    <g id="line2d_20">
     <g>
      <use style="fill:#0370b8;stroke:#0370b8;" x="287.958281" xlink:href="#mcafccff674" y="88.087375"/>
     </g>
    </g>
    <g id="text_15">
     <!-- A -->
     <defs>
      <path d="M 34.1875 63.1875 
L 20.796875 26.90625 
L 47.609375 26.90625 
z
M 28.609375 72.90625 
L 39.796875 72.90625 
L 67.578125 0 
L 57.328125 0 
L 50.6875 18.703125 
L 17.828125 18.703125 
L 11.1875 0 
L 0.78125 0 
z
" id="DejaVuSans-65"/>
     </defs>
     <g transform="translate(307.758281 91.937375)scale(0.11 -0.11)">
      <use xlink:href="#DejaVuSans-65"/>
     </g>
    </g>
    <g id="line2d_21"/>
    <g id="line2d_22">
     <g>
      <use style="fill:#d56339;stroke:#d56339;" x="287.958281" xlink:href="#mcc173290a0" y="104.233312"/>
     </g>
    </g>
    <g id="text_16">
     <!-- B -->
     <defs>
      <path d="M 19.671875 34.8125 
L 19.671875 8.109375 
L 35.5 8.109375 
Q 43.453125 8.109375 47.28125 11.40625 
Q 51.125 14.703125 51.125 21.484375 
Q 51.125 28.328125 47.28125 31.5625 
Q 43.453125 34.8125 35.5 34.8125 
z
M 19.671875 64.796875 
L 19.671875 42.828125 
L 34.28125 42.828125 
Q 41.5 42.828125 45.03125 45.53125 
Q 48.578125 48.25 48.578125 53.8125 
Q 48.578125 59.328125 45.03125 62.0625 
Q 41.5 64.796875 34.28125 64.796875 
z
M 9.8125 72.90625 
L 35.015625 72.90625 
Q 46.296875 72.90625 52.390625 68.21875 
Q 58.5 63.53125 58.5 54.890625 
Q 58.5 48.1875 55.375 44.234375 
Q 52.25 40.28125 46.1875 39.3125 
Q 53.46875 37.75 57.5 32.78125 
Q 61.53125 27.828125 61.53125 20.40625 
Q 61.53125 10.640625 54.890625 5.3125 
Q 48.25 0 35.984375 0 
L 9.8125 0 
z
" id="DejaVuSans-66"/>
     </defs>
     <g transform="translate(307.758281 108.083312)scale(0.11 -0.11)">
      <use xlink:href="#DejaVuSans-66"/>
     </g>
    </g>
    <g id="line2d_23"/>
    <g id="line2d_24">
     <g>
      <use style="fill:#eeb92e;stroke:#eeb92e;" x="287.958281" xlink:href="#m3e28d59cbe" y="120.37925"/>
     </g>
    </g>
    <g id="text_17">
     <!-- C -->
     <g transform="translate(307.758281 124.22925)scale(0.11 -0.11)">
      <use xlink:href="#DejaVuSans-67"/>
     </g>
    </g>
   </g>
  </g>
 </g>
 <defs>
  <clipPath id="ped3267adce">
   <rect height="195.696" width="279" x="46.339375" y="7.2"/>
  </clipPath>
 </defs>
</svg>
