<?xml version="1.0" encoding="utf-8" standalone="no"?>
<!DOCTYPE svg PUBLIC "-//W3C//DTD SVG 1.1//EN"
  "http://www.w3.org/Graphics/SVG/1.1/DTD/svg11.dtd">
<!-- Created with matplotlib (https://matplotlib.org/) -->
<svg height="169.517068pt" version="1.1" viewBox="0 0 232.597468 169.517068" width="232.597468pt" xmlns="http://www.w3.org/2000/svg" xmlns:xlink="http://www.w3.org/1999/xlink">
 <defs>
  <style type="text/css">
*{stroke-linecap:butt;stroke-linejoin:round;}
  </style>
 </defs>
 <g id="figure_1">
  <g id="patch_1">
   <path d="M 0 169.517068 
L 232.597468 169.517068 
L 232.597468 0 
L 0 0 
z
" style="fill:#ffffff;"/>
  </g>
  <g id="axes_1">
   <g id="patch_2">
    <path d="M 38.665 135.832068 
L 225.397468 135.832068 
L 225.397468 7.2 
L 38.665 7.2 
z
" style="fill:#ffffff;"/>
   </g>
   <g id="matplotlib.axis_1">
    <g id="xtick_1">
     <g id="line2d_1">
      <defs>
       <path d="M 0 0 
L 0 3.5 
" id="m82f75f9a9d" style="stroke:#000000;stroke-width:0.8;"/>
      </defs>
      <g>
       <use style="stroke:#000000;stroke-width:0.8;" x="47.152839" xlink:href="#m82f75f9a9d" y="135.832068"/>
      </g>
     </g>
     <g id="text_1">
      <!-- 0 -->
      <defs>
       <path d="M 31.78125 66.40625 
Q 24.171875 66.40625 20.328125 58.90625 
Q 16.5 51.421875 16.5 36.375 
Q 16.5 21.390625 20.328125 13.890625 
Q 24.171875 6.390625 31.78125 6.390625 
Q 39.453125 6.390625 43.28125 13.890625 
Q 47.125 21.390625 47.125 36.375 
Q 47.125 51.421875 43.28125 58.90625 
Q 39.453125 66.40625 31.78125 66.40625 
z
M 31.78125 74.21875 
Q 44.046875 74.21875 50.515625 64.515625 
Q 56.984375 54.828125 56.984375 36.375 
Q 56.984375 17.96875 50.515625 8.265625 
Q 44.046875 -1.421875 31.78125 -1.421875 
Q 19.53125 -1.421875 13.0625 8.265625 
Q 6.59375 17.96875 6.59375 36.375 
Q 6.59375 54.828125 13.0625 64.515625 
Q 19.53125 74.21875 31.78125 74.21875 
z
" id="DejaVuSans-48"/>
      </defs>
      <g transform="translate(44.607839 148.910818)scale(0.08 -0.08)">
       <use xlink:href="#DejaVuSans-48"/>
      </g>
     </g>
    </g>
    <g id="xtick_2">
     <g id="line2d_2">
      <g>
       <use style="stroke:#000000;stroke-width:0.8;" x="81.104197" xlink:href="#m82f75f9a9d" y="135.832068"/>
      </g>
     </g>
     <g id="text_2">
      <!-- 20 -->
      <defs>
       <path d="M 19.1875 8.296875 
L 53.609375 8.296875 
L 53.609375 0 
L 7.328125 0 
L 7.328125 8.296875 
Q 12.9375 14.109375 22.625 23.890625 
Q 32.328125 33.6875 34.8125 36.53125 
Q 39.546875 41.84375 41.421875 45.53125 
Q 43.3125 49.21875 43.3125 52.78125 
Q 43.3125 58.59375 39.234375 62.25 
Q 35.15625 65.921875 28.609375 65.921875 
Q 23.96875 65.921875 18.8125 64.3125 
Q 13.671875 62.703125 7.8125 59.421875 
L 7.8125 69.390625 
Q 13.765625 71.78125 18.9375 73 
Q 24.125 74.21875 28.421875 74.21875 
Q 39.75 74.21875 46.484375 68.546875 
Q 53.21875 62.890625 53.21875 53.421875 
Q 53.21875 48.921875 51.53125 44.890625 
Q 49.859375 40.875 45.40625 35.40625 
Q 44.1875 33.984375 37.640625 27.21875 
Q 31.109375 20.453125 19.1875 8.296875 
z
" id="DejaVuSans-50"/>
      </defs>
      <g transform="translate(76.014197 148.910818)scale(0.08 -0.08)">
       <use xlink:href="#DejaVuSans-50"/>
       <use x="63.623047" xlink:href="#DejaVuSans-48"/>
      </g>
     </g>
    </g>
    <g id="xtick_3">
     <g id="line2d_3">
      <g>
       <use style="stroke:#000000;stroke-width:0.8;" x="115.055555" xlink:href="#m82f75f9a9d" y="135.832068"/>
      </g>
     </g>
     <g id="text_3">
      <!-- 40 -->
      <defs>
       <path d="M 37.796875 64.3125 
L 12.890625 25.390625 
L 37.796875 25.390625 
z
M 35.203125 72.90625 
L 47.609375 72.90625 
L 47.609375 25.390625 
L 58.015625 25.390625 
L 58.015625 17.1875 
L 47.609375 17.1875 
L 47.609375 0 
L 37.796875 0 
L 37.796875 17.1875 
L 4.890625 17.1875 
L 4.890625 26.703125 
z
" id="DejaVuSans-52"/>
      </defs>
      <g transform="translate(109.965555 148.910818)scale(0.08 -0.08)">
       <use xlink:href="#DejaVuSans-52"/>
       <use x="63.623047" xlink:href="#DejaVuSans-48"/>
      </g>
     </g>
    </g>
    <g id="xtick_4">
     <g id="line2d_4">
      <g>
       <use style="stroke:#000000;stroke-width:0.8;" x="149.006913" xlink:href="#m82f75f9a9d" y="135.832068"/>
      </g>
     </g>
     <g id="text_4">
      <!-- 60 -->
      <defs>
       <path d="M 33.015625 40.375 
Q 26.375 40.375 22.484375 35.828125 
Q 18.609375 31.296875 18.609375 23.390625 
Q 18.609375 15.53125 22.484375 10.953125 
Q 26.375 6.390625 33.015625 6.390625 
Q 39.65625 6.390625 43.53125 10.953125 
Q 47.40625 15.53125 47.40625 23.390625 
Q 47.40625 31.296875 43.53125 35.828125 
Q 39.65625 40.375 33.015625 40.375 
z
M 52.59375 71.296875 
L 52.59375 62.3125 
Q 48.875 64.0625 45.09375 64.984375 
Q 41.3125 65.921875 37.59375 65.921875 
Q 27.828125 65.921875 22.671875 59.328125 
Q 17.53125 52.734375 16.796875 39.40625 
Q 19.671875 43.65625 24.015625 45.921875 
Q 28.375 48.1875 33.59375 48.1875 
Q 44.578125 48.1875 50.953125 41.515625 
Q 57.328125 34.859375 57.328125 23.390625 
Q 57.328125 12.15625 50.6875 5.359375 
Q 44.046875 -1.421875 33.015625 -1.421875 
Q 20.359375 -1.421875 13.671875 8.265625 
Q 6.984375 17.96875 6.984375 36.375 
Q 6.984375 53.65625 15.1875 63.9375 
Q 23.390625 74.21875 37.203125 74.21875 
Q 40.921875 74.21875 44.703125 73.484375 
Q 48.484375 72.75 52.59375 71.296875 
z
" id="DejaVuSans-54"/>
      </defs>
      <g transform="translate(143.916913 148.910818)scale(0.08 -0.08)">
       <use xlink:href="#DejaVuSans-54"/>
       <use x="63.623047" xlink:href="#DejaVuSans-48"/>
      </g>
     </g>
    </g>
    <g id="xtick_5">
     <g id="line2d_5">
      <g>
       <use style="stroke:#000000;stroke-width:0.8;" x="182.958271" xlink:href="#m82f75f9a9d" y="135.832068"/>
      </g>
     </g>
     <g id="text_5">
      <!-- 80 -->
      <defs>
       <path d="M 31.78125 34.625 
Q 24.75 34.625 20.71875 30.859375 
Q 16.703125 27.09375 16.703125 20.515625 
Q 16.703125 13.921875 20.71875 10.15625 
Q 24.75 6.390625 31.78125 6.390625 
Q 38.8125 6.390625 42.859375 10.171875 
Q 46.921875 13.96875 46.921875 20.515625 
Q 46.921875 27.09375 42.890625 30.859375 
Q 38.875 34.625 31.78125 34.625 
z
M 21.921875 38.8125 
Q 15.578125 40.375 12.03125 44.71875 
Q 8.5 49.078125 8.5 55.328125 
Q 8.5 64.0625 14.71875 69.140625 
Q 20.953125 74.21875 31.78125 74.21875 
Q 42.671875 74.21875 48.875 69.140625 
Q 55.078125 64.0625 55.078125 55.328125 
Q 55.078125 49.078125 51.53125 44.71875 
Q 48 40.375 41.703125 38.8125 
Q 48.828125 37.15625 52.796875 32.3125 
Q 56.78125 27.484375 56.78125 20.515625 
Q 56.78125 9.90625 50.3125 4.234375 
Q 43.84375 -1.421875 31.78125 -1.421875 
Q 19.734375 -1.421875 13.25 4.234375 
Q 6.78125 9.90625 6.78125 20.515625 
Q 6.78125 27.484375 10.78125 32.3125 
Q 14.796875 37.15625 21.921875 38.8125 
z
M 18.3125 54.390625 
Q 18.3125 48.734375 21.84375 45.5625 
Q 25.390625 42.390625 31.78125 42.390625 
Q 38.140625 42.390625 41.71875 45.5625 
Q 45.3125 48.734375 45.3125 54.390625 
Q 45.3125 60.0625 41.71875 63.234375 
Q 38.140625 66.40625 31.78125 66.40625 
Q 25.390625 66.40625 21.84375 63.234375 
Q 18.3125 60.0625 18.3125 54.390625 
z
" id="DejaVuSans-56"/>
      </defs>
      <g transform="translate(177.868271 148.910818)scale(0.08 -0.08)">
       <use xlink:href="#DejaVuSans-56"/>
       <use x="63.623047" xlink:href="#DejaVuSans-48"/>
      </g>
     </g>
    </g>
    <g id="xtick_6">
     <g id="line2d_6">
      <g>
       <use style="stroke:#000000;stroke-width:0.8;" x="216.909629" xlink:href="#m82f75f9a9d" y="135.832068"/>
      </g>
     </g>
     <g id="text_6">
      <!-- 100 -->
      <defs>
       <path d="M 12.40625 8.296875 
L 28.515625 8.296875 
L 28.515625 63.921875 
L 10.984375 60.40625 
L 10.984375 69.390625 
L 28.421875 72.90625 
L 38.28125 72.90625 
L 38.28125 8.296875 
L 54.390625 8.296875 
L 54.390625 0 
L 12.40625 0 
z
" id="DejaVuSans-49"/>
      </defs>
      <g transform="translate(209.274629 148.910818)scale(0.08 -0.08)">
       <use xlink:href="#DejaVuSans-49"/>
       <use x="63.623047" xlink:href="#DejaVuSans-48"/>
       <use x="127.246094" xlink:href="#DejaVuSans-48"/>
      </g>
     </g>
    </g>
    <g id="text_7">
     <!-- Time [a.u.] -->
     <defs>
      <path d="M -0.296875 72.90625 
L 61.375 72.90625 
L 61.375 64.59375 
L 35.5 64.59375 
L 35.5 0 
L 25.59375 0 
L 25.59375 64.59375 
L -0.296875 64.59375 
z
" id="DejaVuSans-84"/>
      <path d="M 9.421875 54.6875 
L 18.40625 54.6875 
L 18.40625 0 
L 9.421875 0 
z
M 9.421875 75.984375 
L 18.40625 75.984375 
L 18.40625 64.59375 
L 9.421875 64.59375 
z
" id="DejaVuSans-105"/>
      <path d="M 52 44.1875 
Q 55.375 50.25 60.0625 53.125 
Q 64.75 56 71.09375 56 
Q 79.640625 56 84.28125 50.015625 
Q 88.921875 44.046875 88.921875 33.015625 
L 88.921875 0 
L 79.890625 0 
L 79.890625 32.71875 
Q 79.890625 40.578125 77.09375 44.375 
Q 74.3125 48.1875 68.609375 48.1875 
Q 61.625 48.1875 57.5625 43.546875 
Q 53.515625 38.921875 53.515625 30.90625 
L 53.515625 0 
L 44.484375 0 
L 44.484375 32.71875 
Q 44.484375 40.625 41.703125 44.40625 
Q 38.921875 48.1875 33.109375 48.1875 
Q 26.21875 48.1875 22.15625 43.53125 
Q 18.109375 38.875 18.109375 30.90625 
L 18.109375 0 
L 9.078125 0 
L 9.078125 54.6875 
L 18.109375 54.6875 
L 18.109375 46.1875 
Q 21.1875 51.21875 25.484375 53.609375 
Q 29.78125 56 35.6875 56 
Q 41.65625 56 45.828125 52.96875 
Q 50 49.953125 52 44.1875 
z
" id="DejaVuSans-109"/>
      <path d="M 56.203125 29.59375 
L 56.203125 25.203125 
L 14.890625 25.203125 
Q 15.484375 15.921875 20.484375 11.0625 
Q 25.484375 6.203125 34.421875 6.203125 
Q 39.59375 6.203125 44.453125 7.46875 
Q 49.3125 8.734375 54.109375 11.28125 
L 54.109375 2.78125 
Q 49.265625 0.734375 44.1875 -0.34375 
Q 39.109375 -1.421875 33.890625 -1.421875 
Q 20.796875 -1.421875 13.15625 6.1875 
Q 5.515625 13.8125 5.515625 26.8125 
Q 5.515625 40.234375 12.765625 48.109375 
Q 20.015625 56 32.328125 56 
Q 43.359375 56 49.78125 48.890625 
Q 56.203125 41.796875 56.203125 29.59375 
z
M 47.21875 32.234375 
Q 47.125 39.59375 43.09375 43.984375 
Q 39.0625 48.390625 32.421875 48.390625 
Q 24.90625 48.390625 20.390625 44.140625 
Q 15.875 39.890625 15.1875 32.171875 
z
" id="DejaVuSans-101"/>
      <path id="DejaVuSans-32"/>
      <path d="M 8.59375 75.984375 
L 29.296875 75.984375 
L 29.296875 69 
L 17.578125 69 
L 17.578125 -6.203125 
L 29.296875 -6.203125 
L 29.296875 -13.1875 
L 8.59375 -13.1875 
z
" id="DejaVuSans-91"/>
      <path d="M 34.28125 27.484375 
Q 23.390625 27.484375 19.1875 25 
Q 14.984375 22.515625 14.984375 16.5 
Q 14.984375 11.71875 18.140625 8.90625 
Q 21.296875 6.109375 26.703125 6.109375 
Q 34.1875 6.109375 38.703125 11.40625 
Q 43.21875 16.703125 43.21875 25.484375 
L 43.21875 27.484375 
z
M 52.203125 31.203125 
L 52.203125 0 
L 43.21875 0 
L 43.21875 8.296875 
Q 40.140625 3.328125 35.546875 0.953125 
Q 30.953125 -1.421875 24.3125 -1.421875 
Q 15.921875 -1.421875 10.953125 3.296875 
Q 6 8.015625 6 15.921875 
Q 6 25.140625 12.171875 29.828125 
Q 18.359375 34.515625 30.609375 34.515625 
L 43.21875 34.515625 
L 43.21875 35.40625 
Q 43.21875 41.609375 39.140625 45 
Q 35.0625 48.390625 27.6875 48.390625 
Q 23 48.390625 18.546875 47.265625 
Q 14.109375 46.140625 10.015625 43.890625 
L 10.015625 52.203125 
Q 14.9375 54.109375 19.578125 55.046875 
Q 24.21875 56 28.609375 56 
Q 40.484375 56 46.34375 49.84375 
Q 52.203125 43.703125 52.203125 31.203125 
z
" id="DejaVuSans-97"/>
      <path d="M 10.6875 12.40625 
L 21 12.40625 
L 21 0 
L 10.6875 0 
z
" id="DejaVuSans-46"/>
      <path d="M 8.5 21.578125 
L 8.5 54.6875 
L 17.484375 54.6875 
L 17.484375 21.921875 
Q 17.484375 14.15625 20.5 10.265625 
Q 23.53125 6.390625 29.59375 6.390625 
Q 36.859375 6.390625 41.078125 11.03125 
Q 45.3125 15.671875 45.3125 23.6875 
L 45.3125 54.6875 
L 54.296875 54.6875 
L 54.296875 0 
L 45.3125 0 
L 45.3125 8.40625 
Q 42.046875 3.421875 37.71875 1 
Q 33.40625 -1.421875 27.6875 -1.421875 
Q 18.265625 -1.421875 13.375 4.4375 
Q 8.5 10.296875 8.5 21.578125 
z
M 31.109375 56 
z
" id="DejaVuSans-117"/>
      <path d="M 30.421875 75.984375 
L 30.421875 -13.1875 
L 9.71875 -13.1875 
L 9.71875 -6.203125 
L 21.390625 -6.203125 
L 21.390625 69 
L 9.71875 69 
L 9.71875 75.984375 
z
" id="DejaVuSans-93"/>
     </defs>
     <g transform="translate(110.323109 160.653318)scale(0.08 -0.08)">
      <use xlink:href="#DejaVuSans-84"/>
      <use x="57.958984" xlink:href="#DejaVuSans-105"/>
      <use x="85.742188" xlink:href="#DejaVuSans-109"/>
      <use x="183.154297" xlink:href="#DejaVuSans-101"/>
      <use x="244.677734" xlink:href="#DejaVuSans-32"/>
      <use x="276.464844" xlink:href="#DejaVuSans-91"/>
      <use x="315.478516" xlink:href="#DejaVuSans-97"/>
      <use x="376.757812" xlink:href="#DejaVuSans-46"/>
      <use x="408.544922" xlink:href="#DejaVuSans-117"/>
      <use x="471.923828" xlink:href="#DejaVuSans-46"/>
      <use x="503.710938" xlink:href="#DejaVuSans-93"/>
     </g>
    </g>
   </g>
   <g id="matplotlib.axis_2">
    <g id="ytick_1">
     <g id="line2d_7">
      <defs>
       <path d="M 0 0 
L -3.5 0 
" id="mf43defffcb" style="stroke:#000000;stroke-width:0.8;"/>
      </defs>
      <g>
       <use style="stroke:#000000;stroke-width:0.8;" x="38.665" xlink:href="#mf43defffcb" y="129.985156"/>
      </g>
     </g>
     <g id="text_8">
      <!-- 0.0 -->
      <g transform="translate(18.9425 133.024531)scale(0.08 -0.08)">
       <use xlink:href="#DejaVuSans-48"/>
       <use x="63.623047" xlink:href="#DejaVuSans-46"/>
       <use x="95.410156" xlink:href="#DejaVuSans-48"/>
      </g>
     </g>
    </g>
    <g id="ytick_2">
     <g id="line2d_8">
      <g>
       <use style="stroke:#000000;stroke-width:0.8;" x="38.665" xlink:href="#mf43defffcb" y="106.891462"/>
      </g>
     </g>
     <g id="text_9">
      <!-- 0.2 -->
      <g transform="translate(18.9425 109.930837)scale(0.08 -0.08)">
       <use xlink:href="#DejaVuSans-48"/>
       <use x="63.623047" xlink:href="#DejaVuSans-46"/>
       <use x="95.410156" xlink:href="#DejaVuSans-50"/>
      </g>
     </g>
    </g>
    <g id="ytick_3">
     <g id="line2d_9">
      <g>
       <use style="stroke:#000000;stroke-width:0.8;" x="38.665" xlink:href="#mf43defffcb" y="83.797769"/>
      </g>
     </g>
     <g id="text_10">
      <!-- 0.4 -->
      <g transform="translate(18.9425 86.837144)scale(0.08 -0.08)">
       <use xlink:href="#DejaVuSans-48"/>
       <use x="63.623047" xlink:href="#DejaVuSans-46"/>
       <use x="95.410156" xlink:href="#DejaVuSans-52"/>
      </g>
     </g>
    </g>
    <g id="ytick_4">
     <g id="line2d_10">
      <g>
       <use style="stroke:#000000;stroke-width:0.8;" x="38.665" xlink:href="#mf43defffcb" y="60.704076"/>
      </g>
     </g>
     <g id="text_11">
      <!-- 0.6 -->
      <g transform="translate(18.9425 63.743451)scale(0.08 -0.08)">
       <use xlink:href="#DejaVuSans-48"/>
       <use x="63.623047" xlink:href="#DejaVuSans-46"/>
       <use x="95.410156" xlink:href="#DejaVuSans-54"/>
      </g>
     </g>
    </g>
    <g id="ytick_5">
     <g id="line2d_11">
      <g>
       <use style="stroke:#000000;stroke-width:0.8;" x="38.665" xlink:href="#mf43defffcb" y="37.610382"/>
      </g>
     </g>
     <g id="text_12">
      <!-- 0.8 -->
      <g transform="translate(18.9425 40.649757)scale(0.08 -0.08)">
       <use xlink:href="#DejaVuSans-48"/>
       <use x="63.623047" xlink:href="#DejaVuSans-46"/>
       <use x="95.410156" xlink:href="#DejaVuSans-56"/>
      </g>
     </g>
    </g>
    <g id="ytick_6">
     <g id="line2d_12">
      <g>
       <use style="stroke:#000000;stroke-width:0.8;" x="38.665" xlink:href="#mf43defffcb" y="14.516689"/>
      </g>
     </g>
     <g id="text_13">
      <!-- 1.0 -->
      <g transform="translate(18.9425 17.556064)scale(0.08 -0.08)">
       <use xlink:href="#DejaVuSans-49"/>
       <use x="63.623047" xlink:href="#DejaVuSans-46"/>
       <use x="95.410156" xlink:href="#DejaVuSans-48"/>
      </g>
     </g>
    </g>
    <g id="text_14">
     <!-- Concentration [a.u.] -->
     <defs>
      <path d="M 64.40625 67.28125 
L 64.40625 56.890625 
Q 59.421875 61.53125 53.78125 63.8125 
Q 48.140625 66.109375 41.796875 66.109375 
Q 29.296875 66.109375 22.65625 58.46875 
Q 16.015625 50.828125 16.015625 36.375 
Q 16.015625 21.96875 22.65625 14.328125 
Q 29.296875 6.6875 41.796875 6.6875 
Q 48.140625 6.6875 53.78125 8.984375 
Q 59.421875 11.28125 64.40625 15.921875 
L 64.40625 5.609375 
Q 59.234375 2.09375 53.4375 0.328125 
Q 47.65625 -1.421875 41.21875 -1.421875 
Q 24.65625 -1.421875 15.125 8.703125 
Q 5.609375 18.84375 5.609375 36.375 
Q 5.609375 53.953125 15.125 64.078125 
Q 24.65625 74.21875 41.21875 74.21875 
Q 47.75 74.21875 53.53125 72.484375 
Q 59.328125 70.75 64.40625 67.28125 
z
" id="DejaVuSans-67"/>
      <path d="M 30.609375 48.390625 
Q 23.390625 48.390625 19.1875 42.75 
Q 14.984375 37.109375 14.984375 27.296875 
Q 14.984375 17.484375 19.15625 11.84375 
Q 23.34375 6.203125 30.609375 6.203125 
Q 37.796875 6.203125 41.984375 11.859375 
Q 46.1875 17.53125 46.1875 27.296875 
Q 46.1875 37.015625 41.984375 42.703125 
Q 37.796875 48.390625 30.609375 48.390625 
z
M 30.609375 56 
Q 42.328125 56 49.015625 48.375 
Q 55.71875 40.765625 55.71875 27.296875 
Q 55.71875 13.875 49.015625 6.21875 
Q 42.328125 -1.421875 30.609375 -1.421875 
Q 18.84375 -1.421875 12.171875 6.21875 
Q 5.515625 13.875 5.515625 27.296875 
Q 5.515625 40.765625 12.171875 48.375 
Q 18.84375 56 30.609375 56 
z
" id="DejaVuSans-111"/>
      <path d="M 54.890625 33.015625 
L 54.890625 0 
L 45.90625 0 
L 45.90625 32.71875 
Q 45.90625 40.484375 42.875 44.328125 
Q 39.84375 48.1875 33.796875 48.1875 
Q 26.515625 48.1875 22.3125 43.546875 
Q 18.109375 38.921875 18.109375 30.90625 
L 18.109375 0 
L 9.078125 0 
L 9.078125 54.6875 
L 18.109375 54.6875 
L 18.109375 46.1875 
Q 21.34375 51.125 25.703125 53.5625 
Q 30.078125 56 35.796875 56 
Q 45.21875 56 50.046875 50.171875 
Q 54.890625 44.34375 54.890625 33.015625 
z
" id="DejaVuSans-110"/>
      <path d="M 48.78125 52.59375 
L 48.78125 44.1875 
Q 44.96875 46.296875 41.140625 47.34375 
Q 37.3125 48.390625 33.40625 48.390625 
Q 24.65625 48.390625 19.8125 42.84375 
Q 14.984375 37.3125 14.984375 27.296875 
Q 14.984375 17.28125 19.8125 11.734375 
Q 24.65625 6.203125 33.40625 6.203125 
Q 37.3125 6.203125 41.140625 7.25 
Q 44.96875 8.296875 48.78125 10.40625 
L 48.78125 2.09375 
Q 45.015625 0.34375 40.984375 -0.53125 
Q 36.96875 -1.421875 32.421875 -1.421875 
Q 20.0625 -1.421875 12.78125 6.34375 
Q 5.515625 14.109375 5.515625 27.296875 
Q 5.515625 40.671875 12.859375 48.328125 
Q 20.21875 56 33.015625 56 
Q 37.15625 56 41.109375 55.140625 
Q 45.0625 54.296875 48.78125 52.59375 
z
" id="DejaVuSans-99"/>
      <path d="M 18.3125 70.21875 
L 18.3125 54.6875 
L 36.8125 54.6875 
L 36.8125 47.703125 
L 18.3125 47.703125 
L 18.3125 18.015625 
Q 18.3125 11.328125 20.140625 9.421875 
Q 21.96875 7.515625 27.59375 7.515625 
L 36.8125 7.515625 
L 36.8125 0 
L 27.59375 0 
Q 17.1875 0 13.234375 3.875 
Q 9.28125 7.765625 9.28125 18.015625 
L 9.28125 47.703125 
L 2.6875 47.703125 
L 2.6875 54.6875 
L 9.28125 54.6875 
L 9.28125 70.21875 
z
" id="DejaVuSans-116"/>
      <path d="M 41.109375 46.296875 
Q 39.59375 47.171875 37.8125 47.578125 
Q 36.03125 48 33.890625 48 
Q 26.265625 48 22.1875 43.046875 
Q 18.109375 38.09375 18.109375 28.8125 
L 18.109375 0 
L 9.078125 0 
L 9.078125 54.6875 
L 18.109375 54.6875 
L 18.109375 46.1875 
Q 20.953125 51.171875 25.484375 53.578125 
Q 30.03125 56 36.53125 56 
Q 37.453125 56 38.578125 55.875 
Q 39.703125 55.765625 41.0625 55.515625 
z
" id="DejaVuSans-114"/>
     </defs>
     <g transform="translate(13.27875 111.734159)rotate(-90)scale(0.08 -0.08)">
      <use xlink:href="#DejaVuSans-67"/>
      <use x="69.824219" xlink:href="#DejaVuSans-111"/>
      <use x="131.005859" xlink:href="#DejaVuSans-110"/>
      <use x="194.384766" xlink:href="#DejaVuSans-99"/>
      <use x="249.365234" xlink:href="#DejaVuSans-101"/>
      <use x="310.888672" xlink:href="#DejaVuSans-110"/>
      <use x="374.267578" xlink:href="#DejaVuSans-116"/>
      <use x="413.476562" xlink:href="#DejaVuSans-114"/>
      <use x="454.589844" xlink:href="#DejaVuSans-97"/>
      <use x="515.869141" xlink:href="#DejaVuSans-116"/>
      <use x="555.078125" xlink:href="#DejaVuSans-105"/>
      <use x="582.861328" xlink:href="#DejaVuSans-111"/>
      <use x="644.042969" xlink:href="#DejaVuSans-110"/>
      <use x="707.421875" xlink:href="#DejaVuSans-32"/>
      <use x="739.208984" xlink:href="#DejaVuSans-91"/>
      <use x="778.222656" xlink:href="#DejaVuSans-97"/>
      <use x="839.501953" xlink:href="#DejaVuSans-46"/>
      <use x="871.289062" xlink:href="#DejaVuSans-117"/>
      <use x="934.667969" xlink:href="#DejaVuSans-46"/>
      <use x="966.455078" xlink:href="#DejaVuSans-93"/>
     </g>
    </g>
   </g>
   <g id="line2d_13">
    <defs>
     <path d="M 0 0.75 
C 0.198902 0.75 0.389685 0.670975 0.53033 0.53033 
C 0.670975 0.389685 0.75 0.198902 0.75 0 
C 0.75 -0.198902 0.670975 -0.389685 0.53033 -0.53033 
C 0.389685 -0.670975 0.198902 -0.75 0 -0.75 
C -0.198902 -0.75 -0.389685 -0.670975 -0.53033 -0.53033 
C -0.670975 -0.389685 -0.75 -0.198902 -0.75 0 
C -0.75 0.198902 -0.670975 0.389685 -0.53033 0.53033 
C -0.389685 0.670975 -0.198902 0.75 0 0.75 
z
" id="m61c00abe73" style="stroke:#0370b8;"/>
    </defs>
    <g clip-path="url(#pfb4ca1820f)">
     <use style="fill:#0370b8;stroke:#0370b8;" x="47.152839" xlink:href="#m61c00abe73" y="19.811096"/>
     <use style="fill:#0370b8;stroke:#0370b8;" x="50.617264" xlink:href="#m61c00abe73" y="32.645491"/>
     <use style="fill:#0370b8;stroke:#0370b8;" x="54.081688" xlink:href="#m61c00abe73" y="53.576994"/>
     <use style="fill:#0370b8;stroke:#0370b8;" x="57.546112" xlink:href="#m61c00abe73" y="71.12467"/>
     <use style="fill:#0370b8;stroke:#0370b8;" x="61.010537" xlink:href="#m61c00abe73" y="70.571335"/>
     <use style="fill:#0370b8;stroke:#0370b8;" x="64.474961" xlink:href="#m61c00abe73" y="87.200745"/>
     <use style="fill:#0370b8;stroke:#0370b8;" x="67.939385" xlink:href="#m61c00abe73" y="92.437216"/>
     <use style="fill:#0370b8;stroke:#0370b8;" x="71.403809" xlink:href="#m61c00abe73" y="93.825693"/>
     <use style="fill:#0370b8;stroke:#0370b8;" x="74.868234" xlink:href="#m61c00abe73" y="99.582175"/>
     <use style="fill:#0370b8;stroke:#0370b8;" x="78.332658" xlink:href="#m61c00abe73" y="103.236343"/>
     <use style="fill:#0370b8;stroke:#0370b8;" x="81.797082" xlink:href="#m61c00abe73" y="102.706149"/>
     <use style="fill:#0370b8;stroke:#0370b8;" x="85.261506" xlink:href="#m61c00abe73" y="105.985119"/>
     <use style="fill:#0370b8;stroke:#0370b8;" x="88.725931" xlink:href="#m61c00abe73" y="109.447004"/>
     <use style="fill:#0370b8;stroke:#0370b8;" x="92.190355" xlink:href="#m61c00abe73" y="110.047594"/>
     <use style="fill:#0370b8;stroke:#0370b8;" x="95.654779" xlink:href="#m61c00abe73" y="111.912676"/>
     <use style="fill:#0370b8;stroke:#0370b8;" x="99.119203" xlink:href="#m61c00abe73" y="113.287708"/>
     <use style="fill:#0370b8;stroke:#0370b8;" x="102.583628" xlink:href="#m61c00abe73" y="113.98528"/>
     <use style="fill:#0370b8;stroke:#0370b8;" x="106.048052" xlink:href="#m61c00abe73" y="113.215959"/>
     <use style="fill:#0370b8;stroke:#0370b8;" x="109.512476" xlink:href="#m61c00abe73" y="114.010422"/>
     <use style="fill:#0370b8;stroke:#0370b8;" x="112.976901" xlink:href="#m61c00abe73" y="114.555156"/>
     <use style="fill:#0370b8;stroke:#0370b8;" x="116.441325" xlink:href="#m61c00abe73" y="116.834446"/>
     <use style="fill:#0370b8;stroke:#0370b8;" x="119.905749" xlink:href="#m61c00abe73" y="115.84348"/>
     <use style="fill:#0370b8;stroke:#0370b8;" x="123.370173" xlink:href="#m61c00abe73" y="118.174457"/>
     <use style="fill:#0370b8;stroke:#0370b8;" x="126.834598" xlink:href="#m61c00abe73" y="118.723488"/>
     <use style="fill:#0370b8;stroke:#0370b8;" x="130.299022" xlink:href="#m61c00abe73" y="118.883869"/>
     <use style="fill:#0370b8;stroke:#0370b8;" x="133.763446" xlink:href="#m61c00abe73" y="117.628111"/>
     <use style="fill:#0370b8;stroke:#0370b8;" x="137.22787" xlink:href="#m61c00abe73" y="119.597311"/>
     <use style="fill:#0370b8;stroke:#0370b8;" x="140.692295" xlink:href="#m61c00abe73" y="118.917222"/>
     <use style="fill:#0370b8;stroke:#0370b8;" x="144.156719" xlink:href="#m61c00abe73" y="119.75975"/>
     <use style="fill:#0370b8;stroke:#0370b8;" x="147.621143" xlink:href="#m61c00abe73" y="119.910844"/>
     <use style="fill:#0370b8;stroke:#0370b8;" x="151.085567" xlink:href="#m61c00abe73" y="120.914371"/>
     <use style="fill:#0370b8;stroke:#0370b8;" x="154.549992" xlink:href="#m61c00abe73" y="121.545884"/>
     <use style="fill:#0370b8;stroke:#0370b8;" x="158.014416" xlink:href="#m61c00abe73" y="121.127125"/>
     <use style="fill:#0370b8;stroke:#0370b8;" x="161.47884" xlink:href="#m61c00abe73" y="121.644944"/>
     <use style="fill:#0370b8;stroke:#0370b8;" x="164.943265" xlink:href="#m61c00abe73" y="122.250045"/>
     <use style="fill:#0370b8;stroke:#0370b8;" x="168.407689" xlink:href="#m61c00abe73" y="121.13844"/>
     <use style="fill:#0370b8;stroke:#0370b8;" x="171.872113" xlink:href="#m61c00abe73" y="121.565843"/>
     <use style="fill:#0370b8;stroke:#0370b8;" x="175.336537" xlink:href="#m61c00abe73" y="122.451502"/>
     <use style="fill:#0370b8;stroke:#0370b8;" x="178.800962" xlink:href="#m61c00abe73" y="122.982073"/>
     <use style="fill:#0370b8;stroke:#0370b8;" x="182.265386" xlink:href="#m61c00abe73" y="122.901666"/>
     <use style="fill:#0370b8;stroke:#0370b8;" x="185.72981" xlink:href="#m61c00abe73" y="122.783626"/>
     <use style="fill:#0370b8;stroke:#0370b8;" x="189.194234" xlink:href="#m61c00abe73" y="123.619124"/>
     <use style="fill:#0370b8;stroke:#0370b8;" x="192.658659" xlink:href="#m61c00abe73" y="124.174901"/>
     <use style="fill:#0370b8;stroke:#0370b8;" x="196.123083" xlink:href="#m61c00abe73" y="124.018193"/>
     <use style="fill:#0370b8;stroke:#0370b8;" x="199.587507" xlink:href="#m61c00abe73" y="123.885972"/>
     <use style="fill:#0370b8;stroke:#0370b8;" x="203.051931" xlink:href="#m61c00abe73" y="123.839532"/>
     <use style="fill:#0370b8;stroke:#0370b8;" x="206.516356" xlink:href="#m61c00abe73" y="124.28009"/>
     <use style="fill:#0370b8;stroke:#0370b8;" x="209.98078" xlink:href="#m61c00abe73" y="124.490877"/>
     <use style="fill:#0370b8;stroke:#0370b8;" x="213.445204" xlink:href="#m61c00abe73" y="125.074293"/>
     <use style="fill:#0370b8;stroke:#0370b8;" x="216.909629" xlink:href="#m61c00abe73" y="124.411766"/>
    </g>
   </g>
   <g id="line2d_14">
    <defs>
     <path d="M 0 0.75 
C 0.198902 0.75 0.389685 0.670975 0.53033 0.53033 
C 0.670975 0.389685 0.75 0.198902 0.75 0 
C 0.75 -0.198902 0.670975 -0.389685 0.53033 -0.53033 
C 0.389685 -0.670975 0.198902 -0.75 0 -0.75 
C -0.198902 -0.75 -0.389685 -0.670975 -0.53033 -0.53033 
C -0.670975 -0.389685 -0.75 -0.198902 -0.75 0 
C -0.75 0.198902 -0.670975 0.389685 -0.53033 0.53033 
C -0.389685 0.670975 -0.198902 0.75 0 0.75 
z
" id="m29d8be97e2" style="stroke:#d56339;"/>
    </defs>
    <g clip-path="url(#pfb4ca1820f)">
     <use style="fill:#d56339;stroke:#d56339;" x="47.152839" xlink:href="#m29d8be97e2" y="129.985156"/>
     <use style="fill:#d56339;stroke:#d56339;" x="50.617264" xlink:href="#m29d8be97e2" y="110.550621"/>
     <use style="fill:#d56339;stroke:#d56339;" x="54.081688" xlink:href="#m29d8be97e2" y="91.581733"/>
     <use style="fill:#d56339;stroke:#d56339;" x="57.546112" xlink:href="#m29d8be97e2" y="81.388494"/>
     <use style="fill:#d56339;stroke:#d56339;" x="61.010537" xlink:href="#m29d8be97e2" y="76.797739"/>
     <use style="fill:#d56339;stroke:#d56339;" x="64.474961" xlink:href="#m29d8be97e2" y="70.987779"/>
     <use style="fill:#d56339;stroke:#d56339;" x="67.939385" xlink:href="#m29d8be97e2" y="68.571611"/>
     <use style="fill:#d56339;stroke:#d56339;" x="71.403809" xlink:href="#m29d8be97e2" y="60.207892"/>
     <use style="fill:#d56339;stroke:#d56339;" x="74.868234" xlink:href="#m29d8be97e2" y="63.093426"/>
     <use style="fill:#d56339;stroke:#d56339;" x="78.332658" xlink:href="#m29d8be97e2" y="67.099724"/>
     <use style="fill:#d56339;stroke:#d56339;" x="81.797082" xlink:href="#m29d8be97e2" y="59.578467"/>
     <use style="fill:#d56339;stroke:#d56339;" x="85.261506" xlink:href="#m29d8be97e2" y="64.189575"/>
     <use style="fill:#d56339;stroke:#d56339;" x="88.725931" xlink:href="#m29d8be97e2" y="56.353211"/>
     <use style="fill:#d56339;stroke:#d56339;" x="92.190355" xlink:href="#m29d8be97e2" y="69.186019"/>
     <use style="fill:#d56339;stroke:#d56339;" x="95.654779" xlink:href="#m29d8be97e2" y="60.602537"/>
     <use style="fill:#d56339;stroke:#d56339;" x="99.119203" xlink:href="#m29d8be97e2" y="62.462172"/>
     <use style="fill:#d56339;stroke:#d56339;" x="102.583628" xlink:href="#m29d8be97e2" y="68.478215"/>
     <use style="fill:#d56339;stroke:#d56339;" x="106.048052" xlink:href="#m29d8be97e2" y="73.574282"/>
     <use style="fill:#d56339;stroke:#d56339;" x="109.512476" xlink:href="#m29d8be97e2" y="69.873483"/>
     <use style="fill:#d56339;stroke:#d56339;" x="112.976901" xlink:href="#m29d8be97e2" y="74.086048"/>
     <use style="fill:#d56339;stroke:#d56339;" x="116.441325" xlink:href="#m29d8be97e2" y="73.779072"/>
     <use style="fill:#d56339;stroke:#d56339;" x="119.905749" xlink:href="#m29d8be97e2" y="79.516435"/>
     <use style="fill:#d56339;stroke:#d56339;" x="123.370173" xlink:href="#m29d8be97e2" y="80.732309"/>
     <use style="fill:#d56339;stroke:#d56339;" x="126.834598" xlink:href="#m29d8be97e2" y="82.514627"/>
     <use style="fill:#d56339;stroke:#d56339;" x="130.299022" xlink:href="#m29d8be97e2" y="78.994908"/>
     <use style="fill:#d56339;stroke:#d56339;" x="133.763446" xlink:href="#m29d8be97e2" y="83.162981"/>
     <use style="fill:#d56339;stroke:#d56339;" x="137.22787" xlink:href="#m29d8be97e2" y="85.432467"/>
     <use style="fill:#d56339;stroke:#d56339;" x="140.692295" xlink:href="#m29d8be97e2" y="82.310581"/>
     <use style="fill:#d56339;stroke:#d56339;" x="144.156719" xlink:href="#m29d8be97e2" y="91.359887"/>
     <use style="fill:#d56339;stroke:#d56339;" x="147.621143" xlink:href="#m29d8be97e2" y="92.454795"/>
     <use style="fill:#d56339;stroke:#d56339;" x="151.085567" xlink:href="#m29d8be97e2" y="86.373742"/>
     <use style="fill:#d56339;stroke:#d56339;" x="154.549992" xlink:href="#m29d8be97e2" y="87.730816"/>
     <use style="fill:#d56339;stroke:#d56339;" x="158.014416" xlink:href="#m29d8be97e2" y="90.97832"/>
     <use style="fill:#d56339;stroke:#d56339;" x="161.47884" xlink:href="#m29d8be97e2" y="96.227079"/>
     <use style="fill:#d56339;stroke:#d56339;" x="164.943265" xlink:href="#m29d8be97e2" y="94.16428"/>
     <use style="fill:#d56339;stroke:#d56339;" x="168.407689" xlink:href="#m29d8be97e2" y="94.258922"/>
     <use style="fill:#d56339;stroke:#d56339;" x="171.872113" xlink:href="#m29d8be97e2" y="96.920532"/>
     <use style="fill:#d56339;stroke:#d56339;" x="175.336537" xlink:href="#m29d8be97e2" y="98.717487"/>
     <use style="fill:#d56339;stroke:#d56339;" x="178.800962" xlink:href="#m29d8be97e2" y="99.444031"/>
     <use style="fill:#d56339;stroke:#d56339;" x="182.265386" xlink:href="#m29d8be97e2" y="100.178466"/>
     <use style="fill:#d56339;stroke:#d56339;" x="185.72981" xlink:href="#m29d8be97e2" y="102.107329"/>
     <use style="fill:#d56339;stroke:#d56339;" x="189.194234" xlink:href="#m29d8be97e2" y="103.41584"/>
     <use style="fill:#d56339;stroke:#d56339;" x="192.658659" xlink:href="#m29d8be97e2" y="104.674713"/>
     <use style="fill:#d56339;stroke:#d56339;" x="196.123083" xlink:href="#m29d8be97e2" y="104.930872"/>
     <use style="fill:#d56339;stroke:#d56339;" x="199.587507" xlink:href="#m29d8be97e2" y="106.223718"/>
     <use style="fill:#d56339;stroke:#d56339;" x="203.051931" xlink:href="#m29d8be97e2" y="105.317179"/>
     <use style="fill:#d56339;stroke:#d56339;" x="206.516356" xlink:href="#m29d8be97e2" y="108.642795"/>
     <use style="fill:#d56339;stroke:#d56339;" x="209.98078" xlink:href="#m29d8be97e2" y="108.442834"/>
     <use style="fill:#d56339;stroke:#d56339;" x="213.445204" xlink:href="#m29d8be97e2" y="106.195987"/>
     <use style="fill:#d56339;stroke:#d56339;" x="216.909629" xlink:href="#m29d8be97e2" y="110.28395"/>
    </g>
   </g>
   <g id="line2d_15">
    <defs>
     <path d="M 0 0.75 
C 0.198902 0.75 0.389685 0.670975 0.53033 0.53033 
C 0.670975 0.389685 0.75 0.198902 0.75 0 
C 0.75 -0.198902 0.670975 -0.389685 0.53033 -0.53033 
C 0.389685 -0.670975 0.198902 -0.75 0 -0.75 
C -0.198902 -0.75 -0.389685 -0.670975 -0.53033 -0.53033 
C -0.670975 -0.389685 -0.75 -0.198902 -0.75 0 
C -0.75 0.198902 -0.670975 0.389685 -0.53033 0.53033 
C -0.389685 0.670975 -0.198902 0.75 0 0.75 
z
" id="mecd221cc39" style="stroke:#eeb92e;"/>
    </defs>
    <g clip-path="url(#pfb4ca1820f)">
     <use style="fill:#eeb92e;stroke:#eeb92e;" x="47.152839" xlink:href="#mecd221cc39" y="106.360145"/>
     <use style="fill:#eeb92e;stroke:#eeb92e;" x="50.617264" xlink:href="#mecd221cc39" y="106.826"/>
     <use style="fill:#eeb92e;stroke:#eeb92e;" x="54.081688" xlink:href="#mecd221cc39" y="107.035198"/>
     <use style="fill:#eeb92e;stroke:#eeb92e;" x="57.546112" xlink:href="#mecd221cc39" y="101.706291"/>
     <use style="fill:#eeb92e;stroke:#eeb92e;" x="61.010537" xlink:href="#mecd221cc39" y="103.361855"/>
     <use style="fill:#eeb92e;stroke:#eeb92e;" x="64.474961" xlink:href="#mecd221cc39" y="97.699011"/>
     <use style="fill:#eeb92e;stroke:#eeb92e;" x="67.939385" xlink:href="#mecd221cc39" y="99.22035"/>
     <use style="fill:#eeb92e;stroke:#eeb92e;" x="71.403809" xlink:href="#mecd221cc39" y="92.423428"/>
     <use style="fill:#eeb92e;stroke:#eeb92e;" x="74.868234" xlink:href="#mecd221cc39" y="93.657388"/>
     <use style="fill:#eeb92e;stroke:#eeb92e;" x="78.332658" xlink:href="#mecd221cc39" y="89.756637"/>
     <use style="fill:#eeb92e;stroke:#eeb92e;" x="81.797082" xlink:href="#mecd221cc39" y="86.646445"/>
     <use style="fill:#eeb92e;stroke:#eeb92e;" x="85.261506" xlink:href="#mecd221cc39" y="81.361127"/>
     <use style="fill:#eeb92e;stroke:#eeb92e;" x="88.725931" xlink:href="#mecd221cc39" y="84.215812"/>
     <use style="fill:#eeb92e;stroke:#eeb92e;" x="92.190355" xlink:href="#mecd221cc39" y="82.03074"/>
     <use style="fill:#eeb92e;stroke:#eeb92e;" x="95.654779" xlink:href="#mecd221cc39" y="75.04269"/>
     <use style="fill:#eeb92e;stroke:#eeb92e;" x="99.119203" xlink:href="#mecd221cc39" y="76.096043"/>
     <use style="fill:#eeb92e;stroke:#eeb92e;" x="102.583628" xlink:href="#mecd221cc39" y="67.742488"/>
     <use style="fill:#eeb92e;stroke:#eeb92e;" x="106.048052" xlink:href="#mecd221cc39" y="67.168347"/>
     <use style="fill:#eeb92e;stroke:#eeb92e;" x="109.512476" xlink:href="#mecd221cc39" y="61.516492"/>
     <use style="fill:#eeb92e;stroke:#eeb92e;" x="112.976901" xlink:href="#mecd221cc39" y="65.052452"/>
     <use style="fill:#eeb92e;stroke:#eeb92e;" x="116.441325" xlink:href="#mecd221cc39" y="53.198448"/>
     <use style="fill:#eeb92e;stroke:#eeb92e;" x="119.905749" xlink:href="#mecd221cc39" y="59.365548"/>
     <use style="fill:#eeb92e;stroke:#eeb92e;" x="123.370173" xlink:href="#mecd221cc39" y="61.403937"/>
     <use style="fill:#eeb92e;stroke:#eeb92e;" x="126.834598" xlink:href="#mecd221cc39" y="48.711541"/>
     <use style="fill:#eeb92e;stroke:#eeb92e;" x="130.299022" xlink:href="#mecd221cc39" y="46.457681"/>
     <use style="fill:#eeb92e;stroke:#eeb92e;" x="133.763446" xlink:href="#mecd221cc39" y="53.363261"/>
     <use style="fill:#eeb92e;stroke:#eeb92e;" x="137.22787" xlink:href="#mecd221cc39" y="46.611494"/>
     <use style="fill:#eeb92e;stroke:#eeb92e;" x="140.692295" xlink:href="#mecd221cc39" y="48.473215"/>
     <use style="fill:#eeb92e;stroke:#eeb92e;" x="144.156719" xlink:href="#mecd221cc39" y="43.450253"/>
     <use style="fill:#eeb92e;stroke:#eeb92e;" x="147.621143" xlink:href="#mecd221cc39" y="37.108401"/>
     <use style="fill:#eeb92e;stroke:#eeb92e;" x="151.085567" xlink:href="#mecd221cc39" y="36.649858"/>
     <use style="fill:#eeb92e;stroke:#eeb92e;" x="154.549992" xlink:href="#mecd221cc39" y="30.694776"/>
     <use style="fill:#eeb92e;stroke:#eeb92e;" x="158.014416" xlink:href="#mecd221cc39" y="42.724701"/>
     <use style="fill:#eeb92e;stroke:#eeb92e;" x="161.47884" xlink:href="#mecd221cc39" y="41.008055"/>
     <use style="fill:#eeb92e;stroke:#eeb92e;" x="164.943265" xlink:href="#mecd221cc39" y="33.804572"/>
     <use style="fill:#eeb92e;stroke:#eeb92e;" x="168.407689" xlink:href="#mecd221cc39" y="34.767263"/>
     <use style="fill:#eeb92e;stroke:#eeb92e;" x="171.872113" xlink:href="#mecd221cc39" y="40.490984"/>
     <use style="fill:#eeb92e;stroke:#eeb92e;" x="175.336537" xlink:href="#mecd221cc39" y="33.32883"/>
     <use style="fill:#eeb92e;stroke:#eeb92e;" x="178.800962" xlink:href="#mecd221cc39" y="22.825608"/>
     <use style="fill:#eeb92e;stroke:#eeb92e;" x="182.265386" xlink:href="#mecd221cc39" y="32.637993"/>
     <use style="fill:#eeb92e;stroke:#eeb92e;" x="185.72981" xlink:href="#mecd221cc39" y="29.996301"/>
     <use style="fill:#eeb92e;stroke:#eeb92e;" x="189.194234" xlink:href="#mecd221cc39" y="26.421588"/>
     <use style="fill:#eeb92e;stroke:#eeb92e;" x="192.658659" xlink:href="#mecd221cc39" y="21.628462"/>
     <use style="fill:#eeb92e;stroke:#eeb92e;" x="196.123083" xlink:href="#mecd221cc39" y="24.005266"/>
     <use style="fill:#eeb92e;stroke:#eeb92e;" x="199.587507" xlink:href="#mecd221cc39" y="15.581703"/>
     <use style="fill:#eeb92e;stroke:#eeb92e;" x="203.051931" xlink:href="#mecd221cc39" y="13.978234"/>
     <use style="fill:#eeb92e;stroke:#eeb92e;" x="206.516356" xlink:href="#mecd221cc39" y="31.421976"/>
     <use style="fill:#eeb92e;stroke:#eeb92e;" x="209.98078" xlink:href="#mecd221cc39" y="16.232227"/>
     <use style="fill:#eeb92e;stroke:#eeb92e;" x="213.445204" xlink:href="#mecd221cc39" y="23.816454"/>
     <use style="fill:#eeb92e;stroke:#eeb92e;" x="216.909629" xlink:href="#mecd221cc39" y="13.046912"/>
    </g>
   </g>
   <g id="patch_3">
    <path d="M 38.665 135.832068 
L 38.665 7.2 
" style="fill:none;stroke:#000000;stroke-linecap:square;stroke-linejoin:miter;stroke-width:0.8;"/>
   </g>
   <g id="patch_4">
    <path d="M 225.397468 135.832068 
L 225.397468 7.2 
" style="fill:none;stroke:#000000;stroke-linecap:square;stroke-linejoin:miter;stroke-width:0.8;"/>
   </g>
   <g id="patch_5">
    <path d="M 38.665 135.832068 
L 225.397468 135.832068 
" style="fill:none;stroke:#000000;stroke-linecap:square;stroke-linejoin:miter;stroke-width:0.8;"/>
   </g>
   <g id="patch_6">
    <path d="M 38.665 7.2 
L 225.397468 7.2 
" style="fill:none;stroke:#000000;stroke-linecap:square;stroke-linejoin:miter;stroke-width:0.8;"/>
   </g>
   <g id="legend_1">
    <g id="patch_7">
     <path d="M 188.611218 90.329784 
L 219.797468 90.329784 
Q 221.397468 90.329784 221.397468 88.729784 
L 221.397468 54.302284 
Q 221.397468 52.702284 219.797468 52.702284 
L 188.611218 52.702284 
Q 187.011218 52.702284 187.011218 54.302284 
L 187.011218 88.729784 
Q 187.011218 90.329784 188.611218 90.329784 
z
" style="fill:#ffffff;opacity:0.8;stroke:#cccccc;stroke-linejoin:miter;"/>
    </g>
    <g id="line2d_16"/>
    <g id="line2d_17">
     <g>
      <use style="fill:#0370b8;stroke:#0370b8;" x="198.211218" xlink:href="#m61c00abe73" y="59.181034"/>
     </g>
    </g>
    <g id="text_15">
     <!-- A -->
     <defs>
      <path d="M 34.1875 63.1875 
L 20.796875 26.90625 
L 47.609375 26.90625 
z
M 28.609375 72.90625 
L 39.796875 72.90625 
L 67.578125 0 
L 57.328125 0 
L 50.6875 18.703125 
L 17.828125 18.703125 
L 11.1875 0 
L 0.78125 0 
z
" id="DejaVuSans-65"/>
     </defs>
     <g transform="translate(212.611218 61.981034)scale(0.08 -0.08)">
      <use xlink:href="#DejaVuSans-65"/>
     </g>
    </g>
    <g id="line2d_18"/>
    <g id="line2d_19">
     <g>
      <use style="fill:#d56339;stroke:#d56339;" x="198.211218" xlink:href="#m29d8be97e2" y="70.923534"/>
     </g>
    </g>
    <g id="text_16">
     <!-- B -->
     <defs>
      <path d="M 19.671875 34.8125 
L 19.671875 8.109375 
L 35.5 8.109375 
Q 43.453125 8.109375 47.28125 11.40625 
Q 51.125 14.703125 51.125 21.484375 
Q 51.125 28.328125 47.28125 31.5625 
Q 43.453125 34.8125 35.5 34.8125 
z
M 19.671875 64.796875 
L 19.671875 42.828125 
L 34.28125 42.828125 
Q 41.5 42.828125 45.03125 45.53125 
Q 48.578125 48.25 48.578125 53.8125 
Q 48.578125 59.328125 45.03125 62.0625 
Q 41.5 64.796875 34.28125 64.796875 
z
M 9.8125 72.90625 
L 35.015625 72.90625 
Q 46.296875 72.90625 52.390625 68.21875 
Q 58.5 63.53125 58.5 54.890625 
Q 58.5 48.1875 55.375 44.234375 
Q 52.25 40.28125 46.1875 39.3125 
Q 53.46875 37.75 57.5 32.78125 
Q 61.53125 27.828125 61.53125 20.40625 
Q 61.53125 10.640625 54.890625 5.3125 
Q 48.25 0 35.984375 0 
L 9.8125 0 
z
" id="DejaVuSans-66"/>
     </defs>
     <g transform="translate(212.611218 73.723534)scale(0.08 -0.08)">
      <use xlink:href="#DejaVuSans-66"/>
     </g>
    </g>
    <g id="line2d_20"/>
    <g id="line2d_21">
     <g>
      <use style="fill:#eeb92e;stroke:#eeb92e;" x="198.211218" xlink:href="#mecd221cc39" y="82.666034"/>
     </g>
    </g>
    <g id="text_17">
     <!-- C -->
     <g transform="translate(212.611218 85.466034)scale(0.08 -0.08)">
      <use xlink:href="#DejaVuSans-67"/>
     </g>
    </g>
   </g>
  </g>
 </g>
 <defs>
  <clipPath id="pfb4ca1820f">
   <rect height="128.632068" width="186.732468" x="38.665" y="7.2"/>
  </clipPath>
 </defs>
</svg>
